<?xml version="1.0" standalone="yes"?>

<svg version="1.1" viewBox="0.0 0.0 752.0 481.0" fill="none" stroke="none" stroke-linecap="square" stroke-miterlimit="10" xmlns="http://www.w3.org/2000/svg" xmlns:xlink="http://www.w3.org/1999/xlink"><clipPath id="p.0"><path d="m0 0l752.0 0l0 481.0l-752.0 0l0 -481.0z" clip-rule="nonzero"></path></clipPath><g clip-path="url(#p.0)"><path fill="#000000" fill-opacity="0.0" d="m0 0l752.56696 0l0 481.29398l-752.56696 0z" fill-rule="nonzero"></path><path fill="#666666" d="m16.0 27.99792l0 0c0 -6.6262684 5.3716507 -11.997919 11.997919 -11.997919l152.00415 0c3.1820526 0 6.2337646 1.2640629 8.48381 3.5141087c2.2500458 2.2500477 3.5141144 5.3017654 3.5141144 8.48381l0 272.00415c0 6.6262817 -5.3716583 11.997925 -11.997925 11.997925l-152.00415 0l0 0c-6.6262684 0 -11.997919 -5.371643 -11.997919 -11.997925z" fill-rule="nonzero"></path><path fill="#000000" fill-opacity="0.0" d="m24.0 32.0l160.0 0l0 56.0l-160.0 0z" fill-rule="nonzero"></path><path fill="#ffffff" d="m96.38997 55.92l-2.78125 0l0 -5.796875l-5.4375 0l0 5.796875l-2.78125 0l0 -13.515625l2.78125 0l0 5.484375l5.4375 0l0 -5.484375l2.78125 0l0 13.515625zm1.5876923 -5.109375q0 -1.5 0.578125 -2.65625q0.578125 -1.171875 1.65625 -1.8125q1.078125 -0.640625 2.515625 -0.640625q2.03125 0 3.3125 1.25q1.28125 1.234375 1.4375 3.359375l0.015625 0.6875q0 2.3125 -1.296875 3.71875q-1.28125 1.390625 -3.453125 1.390625q-2.171875 0 -3.46875 -1.390625q-1.296875 -1.390625 -1.296875 -3.78125l0 -0.125zm2.6875 0.1875q0 1.4375 0.53125 2.203125q0.546875 0.75 1.546875 0.75q0.96875 0 1.515625 -0.75q0.546875 -0.75 0.546875 -2.390625q0 -1.40625 -0.546875 -2.171875q-0.546875 -0.765625 -1.53125 -0.765625q-0.984375 0 -1.53125 0.765625q-0.53125 0.765625 -0.53125 2.359375zm13.720673 2.140625q0 -0.484375 -0.484375 -0.765625q-0.484375 -0.28125 -1.5625 -0.5q-3.59375 -0.765625 -3.59375 -3.046875q0 -1.34375 1.109375 -2.234375q1.109375 -0.890625 2.90625 -0.890625q1.90625 0 3.046875 0.90625q1.15625 0.890625 1.15625 2.328125l-2.6875 0q0 -0.578125 -0.375 -0.953125q-0.359375 -0.375 -1.15625 -0.375q-0.671875 0 -1.046875 0.3125q-0.359375 0.296875 -0.359375 0.765625q0 0.453125 0.421875 0.734375q0.421875 0.265625 1.421875 0.46875q1.0 0.203125 1.6875 0.453125q2.125 0.765625 2.125 2.6875q0 1.375 -1.1875 2.234375q-1.171875 0.84375 -3.03125 0.84375q-1.265625 0 -2.25 -0.453125q-0.96875 -0.453125 -1.53125 -1.234375q-0.5625 -0.78125 -0.5625 -1.6875l2.546875 0q0.03125 0.703125 0.515625 1.09375q0.5 0.375 1.328125 0.375q0.765625 0 1.15625 -0.28125q0.40625 -0.296875 0.40625 -0.78125zm7.3579254 -9.71875l0 2.46875l1.71875 0l0 1.953125l-1.71875 0l0 5.015625q0 0.5625 0.21875 0.8125q0.21875 0.234375 0.8125 0.234375q0.453125 0 0.796875 -0.078125l0 2.03125q-0.796875 0.25 -1.625 0.25q-2.828125 0 -2.875 -2.84375l0 -5.421875l-1.46875 0l0 -1.953125l1.46875 0l0 -2.46875l2.671875 0z" fill-rule="nonzero"></path><path fill="#ffffff" d="m76.54813 77.92l-2.6875 0l0 -10.328125l-3.203125 0.984375l0 -2.171875l5.59375 -2.015625l0.296875 0l0 13.53125zm13.281784 -5.578125q0 2.796875 -1.171875 4.28125q-1.15625 1.484375 -3.390625 1.484375q-2.203125 0 -3.375 -1.453125q-1.171875 -1.46875 -1.203125 -4.1875l0 -2.484375q0 -2.828125 1.171875 -4.28125q1.1875 -1.46875 3.390625 -1.46875q2.203125 0 3.375 1.453125q1.171875 1.4375 1.203125 4.15625l0 2.5zm-2.6875 -2.734375q0 -1.671875 -0.46875 -2.4375q-0.453125 -0.765625 -1.421875 -0.765625q-0.953125 0 -1.40625 0.734375q-0.4375 0.71875 -0.46875 2.265625l0 3.28125q0 1.65625 0.453125 2.46875q0.453125 0.796875 1.4375 0.796875q0.984375 0 1.421875 -0.765625q0.4375 -0.78125 0.453125 -2.375l0 -3.203125zm4.547409 7.0q0 -0.640625 0.421875 -1.03125q0.4375 -0.40625 1.09375 -0.40625q0.65625 0 1.078125 0.40625q0.4375 0.390625 0.4375 1.03125q0 0.625 -0.4375 1.03125q-0.421875 0.390625 -1.078125 0.390625q-0.671875 0 -1.09375 -0.390625q-0.421875 -0.40625 -0.421875 -1.03125zm14.263901 -4.265625q0 2.796875 -1.171875 4.28125q-1.15625 1.484375 -3.390625 1.484375q-2.203125 0 -3.375 -1.453125q-1.171875 -1.46875 -1.203125 -4.1875l0 -2.484375q0 -2.828125 1.171875 -4.28125q1.1875 -1.46875 3.390625 -1.46875q2.203125 0 3.375 1.453125q1.171875 1.4375 1.203125 4.15625l0 2.5zm-2.6875 -2.734375q0 -1.671875 -0.46875 -2.4375q-0.453125 -0.765625 -1.421875 -0.765625q-0.953125 0 -1.40625 0.734375q-0.4375 0.71875 -0.46875 2.265625l0 3.28125q0 1.65625 0.453125 2.46875q0.453125 0.796875 1.4375 0.796875q0.984375 0 1.421875 -0.765625q0.4375 -0.78125 0.453125 -2.375l0 -3.203125zm4.547409 7.0q0 -0.640625 0.421875 -1.03125q0.4375 -0.40625 1.09375 -0.40625q0.65625 0 1.078125 0.40625q0.4375 0.390625 0.4375 1.03125q0 0.625 -0.4375 1.03125q-0.421875 0.390625 -1.078125 0.390625q-0.671875 0 -1.09375 -0.390625q-0.421875 -0.40625 -0.421875 -1.03125zm14.263901 -4.265625q0 2.796875 -1.171875 4.28125q-1.15625 1.484375 -3.390625 1.484375q-2.203125 0 -3.375 -1.453125q-1.171875 -1.46875 -1.203125 -4.1875l0 -2.484375q0 -2.828125 1.171875 -4.28125q1.1875 -1.46875 3.390625 -1.46875q2.203125 0 3.375 1.453125q1.171875 1.4375 1.203125 4.15625l0 2.5zm-2.6875 -2.734375q0 -1.671875 -0.46875 -2.4375q-0.453125 -0.765625 -1.421875 -0.765625q-0.953125 0 -1.40625 0.734375q-0.4375 0.71875 -0.46875 2.265625l0 3.28125q0 1.65625 0.453125 2.46875q0.453125 0.796875 1.4375 0.796875q0.984375 0 1.421875 -0.765625q0.4375 -0.78125 0.453125 -2.375l0 -3.203125zm4.547409 7.0q0 -0.640625 0.421875 -1.03125q0.4375 -0.40625 1.09375 -0.40625q0.65625 0 1.078125 0.40625q0.4375 0.390625 0.4375 1.03125q0 0.625 -0.4375 1.03125q-0.421875 0.390625 -1.078125 0.390625q-0.671875 0 -1.09375 -0.390625q-0.421875 -0.40625 -0.421875 -1.03125zm11.685776 1.3125l-2.6875 0l0 -10.328125l-3.203125 0.984375l0 -2.171875l5.59375 -2.015625l0.296875 0l0 13.53125z" fill-rule="nonzero"></path><path fill="#666666" d="m232.0 27.99792l0 0c0 -6.6262684 5.3716583 -11.997919 11.997925 -11.997919l152.00415 0c3.1820374 0 6.2337646 1.2640629 8.483795 3.5141087c2.250061 2.2500477 3.5141296 5.3017654 3.5141296 8.48381l0 272.00415c0 6.6262817 -5.371643 11.997925 -11.997925 11.997925l-152.00415 0l0 0c-6.6262665 0 -11.997925 -5.371643 -11.997925 -11.997925z" fill-rule="nonzero"></path><path fill="#000000" fill-opacity="0.0" d="m240.0 32.0l160.0 0l0 56.0l-160.0 0z" fill-rule="nonzero"></path><path fill="#ffffff" d="m312.38995 55.92l-2.78125 0l0 -5.796875l-5.4375 0l0 5.796875l-2.78125 0l0 -13.515625l2.78125 0l0 5.484375l5.4375 0l0 -5.484375l2.78125 0l0 13.515625zm1.5877075 -5.109375q0 -1.5 0.578125 -2.65625q0.578125 -1.171875 1.65625 -1.8125q1.078125 -0.640625 2.515625 -0.640625q2.03125 0 3.3125 1.25q1.28125 1.234375 1.4375 3.359375l0.015625 0.6875q0 2.3125 -1.296875 3.71875q-1.28125 1.390625 -3.453125 1.390625q-2.171875 0 -3.46875 -1.390625q-1.296875 -1.390625 -1.296875 -3.78125l0 -0.125zm2.6875 0.1875q0 1.4375 0.53125 2.203125q0.546875 0.75 1.546875 0.75q0.96875 0 1.515625 -0.75q0.546875 -0.75 0.546875 -2.390625q0 -1.40625 -0.546875 -2.171875q-0.546875 -0.765625 -1.53125 -0.765625q-0.984375 0 -1.53125 0.765625q-0.53125 0.765625 -0.53125 2.359375zm13.720673 2.140625q0 -0.484375 -0.484375 -0.765625q-0.484375 -0.28125 -1.5625 -0.5q-3.59375 -0.765625 -3.59375 -3.046875q0 -1.34375 1.109375 -2.234375q1.109375 -0.890625 2.90625 -0.890625q1.90625 0 3.046875 0.90625q1.15625 0.890625 1.15625 2.328125l-2.6875 0q0 -0.578125 -0.375 -0.953125q-0.359375 -0.375 -1.15625 -0.375q-0.671875 0 -1.046875 0.3125q-0.359375 0.296875 -0.359375 0.765625q0 0.453125 0.421875 0.734375q0.421875 0.265625 1.421875 0.46875q1.0 0.203125 1.6875 0.453125q2.125 0.765625 2.125 2.6875q0 1.375 -1.1875 2.234375q-1.171875 0.84375 -3.03125 0.84375q-1.265625 0 -2.25 -0.453125q-0.96875 -0.453125 -1.53125 -1.234375q-0.5625 -0.78125 -0.5625 -1.6875l2.546875 0q0.03125 0.703125 0.515625 1.09375q0.5 0.375 1.328125 0.375q0.765625 0 1.15625 -0.28125q0.40625 -0.296875 0.40625 -0.78125zm7.3579407 -9.71875l0 2.46875l1.71875 0l0 1.953125l-1.71875 0l0 5.015625q0 0.5625 0.21875 0.8125q0.21875 0.234375 0.8125 0.234375q0.453125 0 0.796875 -0.078125l0 2.03125q-0.796875 0.25 -1.625 0.25q-2.828125 0 -2.875 -2.84375l0 -5.421875l-1.46875 0l0 -1.953125l1.46875 0l0 -2.46875l2.671875 0z" fill-rule="nonzero"></path><path fill="#ffffff" d="m292.54813 77.92l-2.6875 0l0 -10.328125l-3.203125 0.984375l0 -2.171875l5.59375 -2.015625l0.296875 0l0 13.53125zm13.281769 -5.578125q0 2.796875 -1.171875 4.28125q-1.15625 1.484375 -3.390625 1.484375q-2.203125 0 -3.375 -1.453125q-1.171875 -1.46875 -1.203125 -4.1875l0 -2.484375q0 -2.828125 1.171875 -4.28125q1.1875 -1.46875 3.390625 -1.46875q2.203125 0 3.375 1.453125q1.171875 1.4375 1.203125 4.15625l0 2.5zm-2.6875 -2.734375q0 -1.671875 -0.46875 -2.4375q-0.453125 -0.765625 -1.421875 -0.765625q-0.953125 0 -1.40625 0.734375q-0.4375 0.71875 -0.46875 2.265625l0 3.28125q0 1.65625 0.453125 2.46875q0.453125 0.796875 1.4375 0.796875q0.984375 0 1.421875 -0.765625q0.4375 -0.78125 0.453125 -2.375l0 -3.203125zm4.5474243 7.0q0 -0.640625 0.421875 -1.03125q0.4375 -0.40625 1.09375 -0.40625q0.65625 0 1.078125 0.40625q0.4375 0.390625 0.4375 1.03125q0 0.625 -0.4375 1.03125q-0.421875 0.390625 -1.078125 0.390625q-0.671875 0 -1.09375 -0.390625q-0.421875 -0.40625 -0.421875 -1.03125zm14.263916 -4.265625q0 2.796875 -1.171875 4.28125q-1.15625 1.484375 -3.390625 1.484375q-2.203125 0 -3.375 -1.453125q-1.171875 -1.46875 -1.203125 -4.1875l0 -2.484375q0 -2.828125 1.171875 -4.28125q1.1875 -1.46875 3.390625 -1.46875q2.203125 0 3.375 1.453125q1.171875 1.4375 1.203125 4.15625l0 2.5zm-2.6875 -2.734375q0 -1.671875 -0.46875 -2.4375q-0.453125 -0.765625 -1.421875 -0.765625q-0.953125 0 -1.40625 0.734375q-0.4375 0.71875 -0.46875 2.265625l0 3.28125q0 1.65625 0.453125 2.46875q0.453125 0.796875 1.4375 0.796875q0.984375 0 1.421875 -0.765625q0.4375 -0.78125 0.453125 -2.375l0 -3.203125zm4.547394 7.0q0 -0.640625 0.421875 -1.03125q0.4375 -0.40625 1.09375 -0.40625q0.65625 0 1.078125 0.40625q0.4375 0.390625 0.4375 1.03125q0 0.625 -0.4375 1.03125q-0.421875 0.390625 -1.078125 0.390625q-0.671875 0 -1.09375 -0.390625q-0.421875 -0.40625 -0.421875 -1.03125zm14.2638855 -4.265625q0 2.796875 -1.171875 4.28125q-1.15625 1.484375 -3.390625 1.484375q-2.203125 0 -3.375 -1.453125q-1.171875 -1.46875 -1.203125 -4.1875l0 -2.484375q0 -2.828125 1.171875 -4.28125q1.1875 -1.46875 3.390625 -1.46875q2.203125 0 3.375 1.453125q1.171875 1.4375 1.203125 4.15625l0 2.5zm-2.6875 -2.734375q0 -1.671875 -0.46875 -2.4375q-0.453125 -0.765625 -1.421875 -0.765625q-0.953125 0 -1.40625 0.734375q-0.4375 0.71875 -0.46875 2.265625l0 3.28125q0 1.65625 0.453125 2.46875q0.453125 0.796875 1.4375 0.796875q0.984375 0 1.421875 -0.765625q0.4375 -0.78125 0.453125 -2.375l0 -3.203125zm4.5474243 7.0q0 -0.640625 0.421875 -1.03125q0.4375 -0.40625 1.09375 -0.40625q0.65625 0 1.078125 0.40625q0.4375 0.390625 0.4375 1.03125q0 0.625 -0.4375 1.03125q-0.421875 0.390625 -1.078125 0.390625q-0.671875 0 -1.09375 -0.390625q-0.421875 -0.40625 -0.421875 -1.03125zm14.420166 1.3125l-9.25 0l0 -1.84375l4.359375 -4.65625q0.90625 -0.984375 1.328125 -1.703125q0.4375 -0.734375 0.4375 -1.40625q0 -0.890625 -0.453125 -1.40625q-0.453125 -0.515625 -1.296875 -0.515625q-0.90625 0 -1.4375 0.625q-0.515625 0.625 -0.515625 1.640625l-2.6875 0q0 -1.234375 0.578125 -2.25q0.59375 -1.015625 1.671875 -1.59375q1.078125 -0.578125 2.4375 -0.578125q2.09375 0 3.234375 1.0q1.15625 1.0 1.15625 2.828125q0 1.0 -0.515625 2.046875q-0.515625 1.03125 -1.78125 2.40625l-3.0625 3.25l5.796875 0l0 2.15625z" fill-rule="nonzero"></path><path fill="#000000" fill-opacity="0.0" d="m311.99896 192.46194c-0.25335693 57.036118 -46.39737 103.22623 -103.4332 103.5365c-57.035843 0.31030273 -103.67968 -45.375046 -104.55356 -102.40503l103.98779 -1.5934143z" fill-rule="nonzero"></path><path fill="#000000" fill-opacity="0.0" d="m311.99896 192.46194c-0.25335693 57.036118 -46.39737 103.22623 -103.4332 103.5365c-57.035843 0.31030273 -103.67968 -45.375046 -104.55356 -102.40503" fill-rule="nonzero"></path><path stroke="#ffffff" stroke-width="4.0" stroke-linejoin="round" stroke-linecap="butt" d="m311.99896 192.46194c-0.25335693 57.036118 -46.39737 103.22623 -103.4332 103.5365c-57.035843 0.31030273 -103.67968 -45.375046 -104.55356 -102.40503" fill-rule="nonzero"></path><path fill="#ffffff" d="m48.0 240.0l0 0c0 -30.927948 25.072052 -56.0 56.0 -56.0l0 0c14.852127 0 29.095947 5.8999786 39.597977 16.402023c10.502045 10.502029 16.402023 24.74585 16.402023 39.597977l0 0c0 30.927948 -25.072052 56.0 -56.0 56.0l0 0c-30.927948 0 -56.0 -25.072052 -56.0 -56.0z" fill-rule="nonzero"></path><path fill="#000000" fill-opacity="0.0" d="m24.0 208.0l160.0 0l0 64.0l-160.0 0z" fill-rule="nonzero"></path><path fill="#666666" d="m82.7537 233.95125q0.75 0 1.203125 -0.40625q0.46875 -0.421875 0.484375 -1.09375l2.515625 0q-0.015625 1.015625 -0.5625 1.875q-0.546875 0.84375 -1.5 1.3125q-0.9375 0.46875 -2.09375 0.46875q-2.15625 0 -3.40625 -1.359375q-1.234375 -1.375 -1.234375 -3.796875l0 -0.171875q0 -2.3125 1.234375 -3.6875q1.234375 -1.390625 3.390625 -1.390625q1.875 0 3.015625 1.078125q1.140625 1.0625 1.15625 2.84375l-2.515625 0q-0.015625 -0.78125 -0.484375 -1.265625q-0.453125 -0.484375 -1.21875 -0.484375q-0.9375 0 -1.421875 0.6875q-0.46875 0.671875 -0.46875 2.203125l0 0.28125q0 1.546875 0.46875 2.234375q0.46875 0.671875 1.4375 0.671875zm8.385193 1.96875l-2.6875 0l0 -10.03125l2.6875 0l0 10.03125zm-2.84375 -12.640625q0 -0.59375 0.390625 -0.984375q0.40625 -0.390625 1.109375 -0.390625q0.6875 0 1.09375 0.390625q0.40625 0.390625 0.40625 0.984375q0 0.609375 -0.421875 1.0q-0.40625 0.390625 -1.078125 0.390625q-0.671875 0 -1.09375 -0.390625q-0.40625 -0.390625 -0.40625 -1.0zm10.602707 5.109375q-0.546875 -0.0625 -0.96875 -0.0625q-1.515625 0 -1.984375 1.03125l0 6.5625l-2.6875 0l0 -10.03125l2.53125 0l0.078125 1.1875q0.796875 -1.375 2.234375 -1.375q0.4375 0 0.828125 0.109375l-0.03125 2.578125zm5.3360443 5.5625q0.75 0 1.203125 -0.40625q0.46875 -0.421875 0.484375 -1.09375l2.515625 0q-0.015625 1.015625 -0.5625 1.875q-0.546875 0.84375 -1.5 1.3125q-0.9375 0.46875 -2.09375 0.46875q-2.15625 0 -3.40625 -1.359375q-1.234375 -1.375 -1.234375 -3.796875l0 -0.171875q0 -2.3125 1.234375 -3.6875q1.234375 -1.390625 3.390625 -1.390625q1.875 0 3.015625 1.078125q1.140625 1.0625 1.15625 2.84375l-2.515625 0q-0.015625 -0.78125 -0.484375 -1.265625q-0.453125 -0.484375 -1.21875 -0.484375q-0.9375 0 -1.421875 0.6875q-0.46875 0.671875 -0.46875 2.203125l0 0.28125q0 1.546875 0.46875 2.234375q0.46875 0.671875 1.4375 0.671875zm11.572693 0.953125q-1.0 1.203125 -2.75 1.203125q-1.609375 0 -2.46875 -0.921875q-0.84375 -0.9375 -0.859375 -2.71875l0 -6.578125l2.671875 0l0 6.484375q0 1.5625 1.4375 1.5625q1.359375 0 1.875 -0.953125l0 -7.09375l2.6875 0l0 10.03125l-2.53125 0l-0.0625 -1.015625zm7.2519836 1.015625l-2.6875 0l0 -10.03125l2.6875 0l0 10.03125zm-2.84375 -12.640625q0 -0.59375 0.390625 -0.984375q0.40625 -0.390625 1.109375 -0.390625q0.6875 0 1.09375 0.390625q0.40625 0.390625 0.40625 0.984375q0 0.609375 -0.421875 1.0q-0.40625 0.390625 -1.078125 0.390625q-0.671875 0 -1.09375 -0.390625q-0.40625 -0.390625 -0.40625 -1.0zm8.165215 0.140625l0 2.46875l1.71875 0l0 1.953125l-1.71875 0l0 5.015625q0 0.5625 0.21875 0.8125q0.21875 0.234375 0.8125 0.234375q0.453125 0 0.796875 -0.078125l0 2.03125q-0.796875 0.25 -1.625 0.25q-2.8281326 0 -2.8750076 -2.84375l0 -5.421875l-1.46875 0l0 -1.953125l1.46875 0l0 -2.46875l2.6718826 0z" fill-rule="nonzero"></path><path fill="#666666" d="m84.06943 255.13875q0 -0.484375 -0.484375 -0.765625q-0.484375 -0.28125 -1.5625 -0.5q-3.59375 -0.765625 -3.59375 -3.046875q0 -1.34375 1.109375 -2.234375q1.109375 -0.890625 2.90625 -0.890625q1.90625 0 3.046875 0.90625q1.15625 0.890625 1.15625 2.328125l-2.6875 0q0 -0.578125 -0.375 -0.953125q-0.359375 -0.375 -1.15625 -0.375q-0.671875 0 -1.046875 0.3125q-0.359375 0.296875 -0.359375 0.765625q0 0.453125 0.421875 0.734375q0.421875 0.265625 1.421875 0.46875q1.0 0.203125 1.6875 0.453125q2.125 0.765625 2.125 2.6875q0 1.3749847 -1.1875 2.2343597q-1.171875 0.84375 -3.03125 0.84375q-1.265625 0 -2.25 -0.453125q-0.96875 -0.453125 -1.53125 -1.234375q-0.5625 -0.78123474 -0.5625 -1.6874847l2.546875 0q0.03125 0.703125 0.515625 1.09375q0.5 0.37498474 1.328125 0.37498474q0.765625 0 1.15625 -0.28123474q0.40625 -0.296875 0.40625 -0.78125zm8.7798 2.9687347q-2.21875 0 -3.609375 -1.359375q-1.375 -1.3593597 -1.375 -3.6093597l0 -0.25q0 -1.515625 0.578125 -2.703125q0.59375 -1.203125 1.65625 -1.84375q1.078125 -0.640625 2.453125 -0.640625q2.046875 0 3.234375 1.296875q1.1875 1.296875 1.1875 3.6875l0 1.09375l-6.390625 0q0.125 0.984375 0.78125 1.578125q0.65625 0.59375 1.65625 0.59375q1.546875 0 2.421875 -1.125l1.3125 1.4687347q-0.59375 0.859375 -1.625 1.34375q-1.03125 0.46875 -2.28125 0.46875zm-0.3125 -8.23436q-0.796875 0 -1.296875 0.53125q-0.5 0.53125 -0.625 1.546875l3.71875 0l0 -0.21875q-0.015625 -0.890625 -0.484375 -1.375q-0.453125 -0.484375 -1.3125 -0.484375zm11.412338 0.515625q-0.546875 -0.0625 -0.96875 -0.0625q-1.515625 0 -1.984375 1.03125l0 6.5624847l-2.6875 0l0 -10.031235l2.53125 0l0.078125 1.1875q0.796875 -1.375 2.234375 -1.375q0.4375 0 0.828125 0.109375l-0.03125 2.578125zm4.9141693 4.25l1.875 -6.75l2.796875 0l-3.390625 10.031235l-2.5625 0l-3.375 -10.031235l2.796875 0l1.859375 6.75zm10.303329 3.4687347q-2.21875 0 -3.609375 -1.359375q-1.375 -1.3593597 -1.375 -3.6093597l0 -0.25q0 -1.515625 0.578125 -2.703125q0.59375 -1.203125 1.65625 -1.84375q1.078125 -0.640625 2.453125 -0.640625q2.046875 0 3.234375 1.296875q1.1875 1.296875 1.1875 3.6875l0 1.09375l-6.390625 0q0.125 0.984375 0.78125 1.578125q0.65625 0.59375 1.65625 0.59375q1.546875 0 2.421875 -1.125l1.3125 1.4687347q-0.59375 0.859375 -1.625 1.34375q-1.03125 0.46875 -2.28125 0.46875zm-0.3125 -8.23436q-0.796875 0 -1.296875 0.53125q-0.5 0.53125 -0.625 1.546875l3.71875 0l0 -0.21875q-0.015625 -0.890625 -0.484375 -1.375q-0.453125 -0.484375 -1.3125 -0.484375zm11.412338 0.515625q-0.546875 -0.0625 -0.96875 -0.0625q-1.515625 0 -1.984375 1.03125l0 6.5624847l-2.6875 0l0 -10.031235l2.53125 0l0.078125 1.1875q0.796875 -1.375 2.234375 -1.375q0.4375 0 0.828125 0.109375l-0.03125 2.578125z" fill-rule="nonzero"></path><path fill="#000000" fill-opacity="0.0" d="m234.05832 292.6825c-13.574081 3.5131836 -27.7184 4.2453003 -41.582657 2.1522827l15.524338 -102.83478z" fill-rule="nonzero"></path><path fill="#000000" fill-opacity="0.0" d="m234.05832 292.6825c-13.574081 3.5131836 -27.7184 4.2453003 -41.582657 2.1522827" fill-rule="nonzero"></path><path stroke="#666666" stroke-width="4.0" stroke-linejoin="round" stroke-linecap="butt" d="m234.05832 292.6825c-13.574081 3.5131836 -27.7184 4.2453003 -41.582657 2.1522827" fill-rule="nonzero"></path><path fill="#ffffff" d="m264.0 240.0l0 0c0 -30.927948 25.072052 -56.0 56.0 -56.0l0 0c14.852112 0 29.095947 5.8999786 39.597992 16.402023c10.502014 10.502029 16.402008 24.74585 16.402008 39.597977l0 0c0 30.927948 -25.072052 56.0 -56.0 56.0l0 0c-30.927948 0 -56.0 -25.072052 -56.0 -56.0z" fill-rule="nonzero"></path><path fill="#000000" fill-opacity="0.0" d="m240.0 208.0l160.0 0l0 64.0l-160.0 0z" fill-rule="nonzero"></path><path fill="#666666" d="m298.7537 233.95125q0.75 0 1.203125 -0.40625q0.46875 -0.421875 0.484375 -1.09375l2.515625 0q-0.015625 1.015625 -0.5625 1.875q-0.546875 0.84375 -1.5 1.3125q-0.9375 0.46875 -2.09375 0.46875q-2.15625 0 -3.40625 -1.359375q-1.234375 -1.375 -1.234375 -3.796875l0 -0.171875q0 -2.3125 1.234375 -3.6875q1.234375 -1.390625 3.390625 -1.390625q1.875 0 3.015625 1.078125q1.140625 1.0625 1.15625 2.84375l-2.515625 0q-0.015625 -0.78125 -0.484375 -1.265625q-0.453125 -0.484375 -1.21875 -0.484375q-0.9375 0 -1.421875 0.6875q-0.46875 0.671875 -0.46875 2.203125l0 0.28125q0 1.546875 0.46875 2.234375q0.46875 0.671875 1.4375 0.671875zm8.385193 1.96875l-2.6875 0l0 -10.03125l2.6875 0l0 10.03125zm-2.84375 -12.640625q0 -0.59375 0.390625 -0.984375q0.40625 -0.390625 1.109375 -0.390625q0.6875 0 1.09375 0.390625q0.40625 0.390625 0.40625 0.984375q0 0.609375 -0.421875 1.0q-0.40625 0.390625 -1.078125 0.390625q-0.671875 0 -1.09375 -0.390625q-0.40625 -0.390625 -0.40625 -1.0zm10.602722 5.109375q-0.546875 -0.0625 -0.96875 -0.0625q-1.515625 0 -1.984375 1.03125l0 6.5625l-2.6875 0l0 -10.03125l2.53125 0l0.078125 1.1875q0.796875 -1.375 2.234375 -1.375q0.4375 0 0.828125 0.109375l-0.03125 2.578125zm5.336029 5.5625q0.75 0 1.203125 -0.40625q0.46875 -0.421875 0.484375 -1.09375l2.515625 0q-0.015625 1.015625 -0.5625 1.875q-0.546875 0.84375 -1.5 1.3125q-0.9375 0.46875 -2.09375 0.46875q-2.15625 0 -3.40625 -1.359375q-1.234375 -1.375 -1.234375 -3.796875l0 -0.171875q0 -2.3125 1.234375 -3.6875q1.234375 -1.390625 3.390625 -1.390625q1.875 0 3.015625 1.078125q1.140625 1.0625 1.15625 2.84375l-2.515625 0q-0.015625 -0.78125 -0.484375 -1.265625q-0.453125 -0.484375 -1.21875 -0.484375q-0.9375 0 -1.421875 0.6875q-0.46875 0.671875 -0.46875 2.203125l0 0.28125q0 1.546875 0.46875 2.234375q0.46875 0.671875 1.4375 0.671875zm11.572693 0.953125q-1.0 1.203125 -2.75 1.203125q-1.609375 0 -2.46875 -0.921875q-0.84375 -0.9375 -0.859375 -2.71875l0 -6.578125l2.671875 0l0 6.484375q0 1.5625 1.4375 1.5625q1.359375 0 1.875 -0.953125l0 -7.09375l2.6875 0l0 10.03125l-2.53125 0l-0.0625 -1.015625zm7.2519836 1.015625l-2.6875 0l0 -10.03125l2.6875 0l0 10.03125zm-2.84375 -12.640625q0 -0.59375 0.390625 -0.984375q0.40625 -0.390625 1.109375 -0.390625q0.6875 0 1.09375 0.390625q0.40625 0.390625 0.40625 0.984375q0 0.609375 -0.421875 1.0q-0.40625 0.390625 -1.078125 0.390625q-0.671875 0 -1.09375 -0.390625q-0.40625 -0.390625 -0.40625 -1.0zm8.165222 0.140625l0 2.46875l1.71875 0l0 1.953125l-1.71875 0l0 5.015625q0 0.5625 0.21875 0.8125q0.21875 0.234375 0.8125 0.234375q0.453125 0 0.796875 -0.078125l0 2.03125q-0.796875 0.25 -1.625 0.25q-2.828125 0 -2.875 -2.84375l0 -5.421875l-1.46875 0l0 -1.953125l1.46875 0l0 -2.46875l2.671875 0z" fill-rule="nonzero"></path><path fill="#666666" d="m300.06943 255.13875q0 -0.484375 -0.484375 -0.765625q-0.484375 -0.28125 -1.5625 -0.5q-3.59375 -0.765625 -3.59375 -3.046875q0 -1.34375 1.109375 -2.234375q1.109375 -0.890625 2.90625 -0.890625q1.90625 0 3.046875 0.90625q1.15625 0.890625 1.15625 2.328125l-2.6875 0q0 -0.578125 -0.375 -0.953125q-0.359375 -0.375 -1.15625 -0.375q-0.671875 0 -1.046875 0.3125q-0.359375 0.296875 -0.359375 0.765625q0 0.453125 0.421875 0.734375q0.421875 0.265625 1.421875 0.46875q1.0 0.203125 1.6875 0.453125q2.125 0.765625 2.125 2.6875q0 1.3749847 -1.1875 2.2343597q-1.171875 0.84375 -3.03125 0.84375q-1.265625 0 -2.25 -0.453125q-0.96875 -0.453125 -1.53125 -1.234375q-0.5625 -0.78123474 -0.5625 -1.6874847l2.546875 0q0.03125 0.703125 0.515625 1.09375q0.5 0.37498474 1.328125 0.37498474q0.765625 0 1.15625 -0.28123474q0.40625 -0.296875 0.40625 -0.78125zm8.779816 2.9687347q-2.21875 0 -3.609375 -1.359375q-1.375 -1.3593597 -1.375 -3.6093597l0 -0.25q0 -1.515625 0.578125 -2.703125q0.59375 -1.203125 1.65625 -1.84375q1.078125 -0.640625 2.453125 -0.640625q2.046875 0 3.234375 1.296875q1.1875 1.296875 1.1875 3.6875l0 1.09375l-6.390625 0q0.125 0.984375 0.78125 1.578125q0.65625 0.59375 1.65625 0.59375q1.546875 0 2.421875 -1.125l1.3125 1.4687347q-0.59375 0.859375 -1.625 1.34375q-1.03125 0.46875 -2.28125 0.46875zm-0.3125 -8.23436q-0.796875 0 -1.296875 0.53125q-0.5 0.53125 -0.625 1.546875l3.71875 0l0 -0.21875q-0.015625 -0.890625 -0.484375 -1.375q-0.453125 -0.484375 -1.3125 -0.484375zm11.412323 0.515625q-0.546875 -0.0625 -0.96875 -0.0625q-1.515625 0 -1.984375 1.03125l0 6.5624847l-2.6875 0l0 -10.031235l2.53125 0l0.078125 1.1875q0.796875 -1.375 2.234375 -1.375q0.4375 0 0.828125 0.109375l-0.03125 2.578125zm4.914154 4.25l1.875 -6.75l2.796875 0l-3.390625 10.031235l-2.5625 0l-3.375 -10.031235l2.796875 0l1.859375 6.75zm10.303345 3.4687347q-2.21875 0 -3.609375 -1.359375q-1.375 -1.3593597 -1.375 -3.6093597l0 -0.25q0 -1.515625 0.578125 -2.703125q0.59375 -1.203125 1.65625 -1.84375q1.078125 -0.640625 2.453125 -0.640625q2.046875 0 3.234375 1.296875q1.1875 1.296875 1.1875 3.6875l0 1.09375l-6.390625 0q0.125 0.984375 0.78125 1.578125q0.65625 0.59375 1.65625 0.59375q1.546875 0 2.421875 -1.125l1.3125 1.4687347q-0.59375 0.859375 -1.625 1.34375q-1.03125 0.46875 -2.28125 0.46875zm-0.3125 -8.23436q-0.796875 0 -1.296875 0.53125q-0.5 0.53125 -0.625 1.546875l3.71875 0l0 -0.21875q-0.015625 -0.890625 -0.484375 -1.375q-0.453125 -0.484375 -1.3125 -0.484375zm11.4123535 0.515625q-0.546875 -0.0625 -0.96875 -0.0625q-1.515625 0 -1.984375 1.03125l0 6.5624847l-2.6875 0l0 -10.031235l2.53125 0l0.078125 1.1875q0.796875 -1.375 2.234375 -1.375q0.4375 0 0.828125 0.109375l-0.03125 2.578125z" fill-rule="nonzero"></path><path fill="#6d9eeb" d="m320.0 408.0l0 0c0 -30.927948 25.072052 -56.0 56.0 -56.0l0 0c14.852112 0 29.095947 5.899994 39.597992 16.402008c10.502014 10.502045 16.402008 24.74588 16.402008 39.597992l0 0c0 30.927948 -25.072052 56.0 -56.0 56.0l0 0c-30.927948 0 -56.0 -25.072052 -56.0 -56.0z" fill-rule="nonzero"></path><path fill="#000000" fill-opacity="0.0" d="m296.0 376.0l160.0 0l0 64.0l-160.0 0z" fill-rule="nonzero"></path><path fill="#ffffff" d="m341.97855 403.91998q-0.1875 -0.359375 -0.265625 -0.90625q-0.96875 1.09375 -2.53125 1.09375q-1.484375 0 -2.453125 -0.84375q-0.96875 -0.859375 -0.96875 -2.171875q0 -1.59375 1.1875 -2.4375q1.1875 -0.859375 3.421875 -0.859375l1.234375 0l0 -0.578125q0 -0.703125 -0.359375 -1.109375q-0.359375 -0.421875 -1.125 -0.421875q-0.671875 0 -1.0625 0.328125q-0.390625 0.3125 -0.390625 0.890625l-2.671875 0q0 -0.875 0.53125 -1.609375q0.546875 -0.75 1.515625 -1.171875q0.984375 -0.421875 2.21875 -0.421875q1.859375 0 2.9375 0.9375q1.09375 0.921875 1.09375 2.609375l0 4.359375q0.015625 1.421875 0.40625 2.15625l0 0.15625l-2.71875 0zm-2.21875 -1.859375q0.59375 0 1.09375 -0.265625q0.5 -0.265625 0.75 -0.71875l0 -1.71875l-1.0 0q-2.015625 0 -2.140625 1.390625l-0.015625 0.15625q0 0.5 0.34375 0.828125q0.359375 0.328125 0.96875 0.328125zm15.439728 -3.0625q0 2.3125 -1.0625 3.71875q-1.046875 1.390625 -2.828125 1.390625q-1.53125 0 -2.453125 -1.0625l0 4.734375l-2.6875 0l0 -13.890625l2.484375 0l0.09375 0.96875q0.96875 -1.15625 2.546875 -1.15625q1.84375 0 2.875 1.375q1.03125 1.359375 1.03125 3.78125l0 0.140625zm-2.671875 -0.203125q0 -1.390625 -0.5 -2.15625q-0.5 -0.765625 -1.4375 -0.765625q-1.265625 0 -1.734375 0.96875l0 4.109375q0.484375 1.0 1.75 1.0q1.921875 0 1.921875 -3.15625zm13.17511 0.203125q0 2.3125 -1.0625 3.71875q-1.046875 1.390625 -2.828125 1.390625q-1.53125 0 -2.453125 -1.0625l0 4.734375l-2.6875 0l0 -13.890625l2.484375 0l0.09375 0.96875q0.96875 -1.15625 2.546875 -1.15625q1.84375 0 2.875 1.375q1.03125 1.359375 1.03125 3.78125l0 0.140625zm-2.671875 -0.203125q0 -1.390625 -0.5 -2.15625q-0.5 -0.765625 -1.4375 -0.765625q-1.265625 0 -1.734375 0.96875l0 4.109375q0.484375 1.0 1.75 1.0q1.921875 0 1.921875 -3.15625zm14.805359 4.109375q-1.0 1.203125 -2.75 1.203125q-1.609375 0 -2.46875 -0.921875q-0.84375 -0.9375 -0.859375 -2.71875l0 -6.578125l2.671875 0l0 6.484375q0 1.5625 1.4375 1.5625q1.359375 0 1.875 -0.953125l0 -7.09375l2.6875 0l0 10.03125l-2.53125 0l-0.0625 -1.015625zm9.861359 -1.765625q0 -0.484375 -0.484375 -0.765625q-0.484375 -0.28125 -1.5625 -0.5q-3.59375 -0.765625 -3.59375 -3.046875q0 -1.34375 1.109375 -2.234375q1.109375 -0.890625 2.90625 -0.890625q1.90625 0 3.046875 0.90625q1.15625 0.890625 1.15625 2.328125l-2.6875 0q0 -0.578125 -0.375 -0.953125q-0.359375 -0.375 -1.15625 -0.375q-0.671875 0 -1.046875 0.3125q-0.359375 0.296875 -0.359375 0.765625q0 0.453125 0.421875 0.734375q0.421875 0.265625 1.421875 0.46875q1.0 0.203125 1.6875 0.453125q2.125 0.765625 2.125 2.6875q0 1.375 -1.1875 2.234375q-1.171875 0.84375 -3.03125 0.84375q-1.265625 0 -2.25 -0.453125q-0.96875 -0.453125 -1.53125 -1.234375q-0.5625 -0.78125 -0.5625 -1.6875l2.546875 0q0.03125 0.703125 0.515625 1.09375q0.5 0.375 1.328125 0.375q0.765625 0 1.15625 -0.28125q0.40625 -0.296875 0.40625 -0.78125zm6.9829407 2.78125l-2.6875 0l0 -10.03125l2.6875 0l0 10.03125zm-2.84375 -12.640625q0 -0.59375 0.390625 -0.984375q0.40625 -0.390625 1.109375 -0.390625q0.6875 0 1.09375 0.390625q0.40625 0.390625 0.40625 0.984375q0 0.609375 -0.421875 1.0q-0.40625 0.390625 -1.078125 0.390625q-0.671875 0 -1.09375 -0.390625q-0.40625 -0.390625 -0.40625 -1.0zm7.4308167 2.609375l0.078125 1.15625q1.078125 -1.34375 2.890625 -1.34375q1.59375 0 2.375 0.9375q0.78125 0.9375 0.796875 2.796875l0 6.484375l-2.6875 0l0 -6.421875q0 -0.859375 -0.375 -1.234375q-0.359375 -0.390625 -1.21875 -0.390625q-1.140625 0 -1.703125 0.96875l0 7.078125l-2.6875 0l0 -10.03125l2.53125 0zm7.589203 4.9375q0 -2.3125 1.09375 -3.71875q1.109375 -1.40625 2.96875 -1.40625q1.65625 0 2.578125 1.125l0.109375 -0.9375l2.421875 0l0 9.703125q0 1.3125 -0.59375 2.28125q-0.59375 0.984375 -1.6875 1.484375q-1.078125 0.515625 -2.546875 0.515625q-1.09375 0 -2.140625 -0.4375q-1.046875 -0.4375 -1.59375 -1.140625l1.1875 -1.625q1.0 1.109375 2.4375 1.109375q1.0625 0 1.65625 -0.578125q0.59375 -0.5625 0.59375 -1.609375l0 -0.53125q-0.921875 1.046875 -2.4375 1.046875q-1.8125 0 -2.9375 -1.40625q-1.109375 -1.421875 -1.109375 -3.765625l0 -0.109375zm2.6875 0.1875q0 1.375 0.546875 2.15625q0.546875 0.765625 1.5 0.765625q1.21875 0 1.75 -0.921875l0 -4.21875q-0.53125 -0.921875 -1.734375 -0.921875q-0.96875 0 -1.515625 0.796875q-0.546875 0.78125 -0.546875 2.34375z" fill-rule="nonzero"></path><path fill="#ffffff" d="m350.7102 424.21686q-0.75 0.890625 -2.125 1.390625q-1.375 0.5 -3.046875 0.5q-1.75 0 -3.078125 -0.765625q-1.3125 -0.765625 -2.03125 -2.21875q-0.71875 -1.46875 -0.734375 -3.421875l0 -0.921875q0 -2.03125 0.671875 -3.5q0.6875 -1.484375 1.96875 -2.265625q1.296875 -0.78125 3.015625 -0.78125q2.40625 0 3.75 1.140625q1.359375 1.140625 1.609375 3.328125l-2.703125 0q-0.1875 -1.15625 -0.828125 -1.6875q-0.625 -0.546875 -1.75 -0.546875q-1.40625 0 -2.15625 1.078125q-0.734375 1.0625 -0.75 3.171875l0 0.859375q0 2.125 0.796875 3.21875q0.8125 1.078125 2.375 1.078125q1.5625 0 2.234375 -0.671875l0 -2.328125l-2.53125 0l0 -2.046875l5.3125 0l0 5.390625zm1.4265137 -3.40625q0 -1.5 0.578125 -2.65625q0.578125 -1.171875 1.65625 -1.8125q1.078125 -0.640625 2.515625 -0.640625q2.03125 0 3.3125 1.25q1.28125 1.234375 1.4375 3.359375l0.015625 0.6875q0 2.3125 -1.296875 3.71875q-1.28125 1.390625 -3.453125 1.390625q-2.171875 0 -3.46875 -1.390625q-1.296875 -1.390625 -1.296875 -3.78125l0 -0.125zm2.6875 0.1875q0 1.4375 0.53125 2.203125q0.546875 0.75 1.546875 0.75q0.96875 0 1.515625 -0.75q0.546875 -0.75 0.546875 -2.390625q0 -1.40625 -0.546875 -2.171875q-0.546875 -0.765625 -1.53125 -0.765625q-0.984375 0 -1.53125 0.765625q-0.53125 0.765625 -0.53125 2.359375zm17.100891 2.953125q0.75 0 1.203125 -0.40625q0.46875 -0.421875 0.484375 -1.09375l2.515625 0q-0.015625 1.015625 -0.5625 1.875q-0.546875 0.84375 -1.5 1.3125q-0.9375 0.46875 -2.09375 0.46875q-2.15625 0 -3.40625 -1.359375q-1.234375 -1.375 -1.234375 -3.796875l0 -0.171875q0 -2.3125 1.234375 -3.6875q1.234375 -1.390625 3.390625 -1.390625q1.875 0 3.015625 1.078125q1.140625 1.0625 1.15625 2.84375l-2.515625 0q-0.015625 -0.78125 -0.484375 -1.265625q-0.453125 -0.484375 -1.21875 -0.484375q-0.9375 0 -1.421875 0.6875q-0.46875 0.671875 -0.46875 2.203125l0 0.28125q0 1.546875 0.46875 2.234375q0.46875 0.671875 1.4375 0.671875zm8.385193 1.96875l-2.6875 0l0 -14.25l2.6875 0l0 14.25zm4.9464417 0l-2.6875 0l0 -10.03125l2.6875 0l0 10.03125zm-2.84375 -12.640625q0 -0.59375 0.390625 -0.984375q0.40625 -0.390625 1.109375 -0.390625q0.6875 0 1.09375 0.390625q0.40625 0.390625 0.40625 0.984375q0 0.609375 -0.421875 1.0q-0.40625 0.390625 -1.078125 0.390625q-0.671875 0 -1.09375 -0.390625q-0.40625 -0.390625 -0.40625 -1.0zm9.587097 12.828125q-2.21875 0 -3.609375 -1.359375q-1.375 -1.359375 -1.375 -3.609375l0 -0.25q0 -1.515625 0.578125 -2.703125q0.59375 -1.203125 1.65625 -1.84375q1.078125 -0.640625 2.453125 -0.640625q2.046875 0 3.234375 1.296875q1.1875 1.296875 1.1875 3.6875l0 1.09375l-6.390625 0q0.125 0.984375 0.78125 1.578125q0.65625 0.59375 1.65625 0.59375q1.546875 0 2.421875 -1.125l1.3125 1.46875q-0.59375 0.859375 -1.625 1.34375q-1.03125 0.46875 -2.28125 0.46875zm-0.3125 -8.234375q-0.796875 0 -1.296875 0.53125q-0.5 0.53125 -0.625 1.546875l3.71875 0l0 -0.21875q-0.015625 -0.890625 -0.484375 -1.375q-0.453125 -0.484375 -1.3125 -0.484375zm8.240448 -1.984375l0.078125 1.15625q1.078125 -1.34375 2.890625 -1.34375q1.59375 0 2.375 0.9375q0.78125 0.9375 0.796875 2.796875l0 6.484375l-2.6875 0l0 -6.421875q0 -0.859375 -0.375 -1.234375q-0.359375 -0.390625 -1.21875 -0.390625q-1.140625 0 -1.703125 0.96875l0 7.078125l-2.6875 0l0 -10.03125l2.53125 0zm11.182983 -2.46875l0 2.46875l1.71875 0l0 1.953125l-1.71875 0l0 5.015625q0 0.5625 0.21875 0.8125q0.21875 0.234375 0.8125 0.234375q0.453125 0 0.796875 -0.078125l0 2.03125q-0.796875 0.25 -1.625 0.25q-2.828125 0 -2.875 -2.84375l0 -5.421875l-1.46875 0l0 -1.953125l1.46875 0l0 -2.46875l2.671875 0z" fill-rule="nonzero"></path><path fill="#000000" fill-opacity="0.0" d="m349.32327 360.3836c-13.135193 -13.551331 -22.335358 -30.421417 -26.614563 -48.8024l101.29129 -23.581207z" fill-rule="nonzero"></path><path fill="#000000" fill-opacity="0.0" d="m349.32327 360.3836c-13.135193 -13.551331 -22.335358 -30.421417 -26.614563 -48.8024" fill-rule="nonzero"></path><path stroke="#6d9eeb" stroke-width="4.0" stroke-linejoin="round" stroke-linecap="butt" d="m349.32327 360.3836c-13.135193 -13.551331 -22.335358 -30.421417 -26.614563 -48.8024" fill-rule="nonzero"></path><path fill="#000000" fill-opacity="0.0" d="m322.97778 312.7086l0 0c-1.3268433 -5.4248962 -2.214569 -10.947845 -2.654541 -16.51529l103.67676 -8.193298z" fill-rule="nonzero"></path><path fill="#000000" fill-opacity="0.0" d="m322.97778 312.7086l0 0c-1.3268433 -5.4248962 -2.214569 -10.947845 -2.654541 -16.51529" fill-rule="nonzero"></path><path stroke="#ffffff" stroke-width="4.0" stroke-linejoin="round" stroke-linecap="butt" d="m322.97778 312.7086l0 0c-1.3268433 -5.4248962 -2.214569 -10.947845 -2.654541 -16.51529" fill-rule="nonzero"></path><path fill="#e06666" d="m320.0 276.0l0 0c0 -6.627411 5.372589 -12.0 12.0 -12.0l0 0c3.1825867 0 6.234833 1.2642822 8.485291 3.5147095c2.2504272 2.2504578 3.5147095 5.302704 3.5147095 8.485291l0 0c0 6.627411 -5.372589 12.0 -12.0 12.0l0 0c-6.627411 0 -12.0 -5.372589 -12.0 -12.0z" fill-rule="nonzero"></path><path fill="#e06666" d="m432.0 233.33353l0 0c0 -5.15477 4.178772 -9.333527 9.333527 -9.333527l285.33298 0c2.4754028 0 4.8494263 0.98335266 6.5997925 2.7337189c1.7503662 1.7503815 2.7337036 4.124405 2.7337036 6.5998077l0 37.332947c0 5.1547546 -4.178772 9.333527 -9.333496 9.333527l-285.33298 0c-5.1547546 0 -9.333527 -4.178772 -9.333527 -9.333527z" fill-rule="nonzero"></path><path fill="#ffffff" d="m519.77966 247.45125q0.75 0 1.203125 -0.40625q0.46875 -0.421875 0.484375 -1.09375l2.515625 0q-0.015625 1.015625 -0.5625 1.875q-0.546875 0.84375 -1.5 1.3125q-0.9375 0.46875 -2.09375 0.46875q-2.15625 0 -3.40625 -1.359375q-1.234375 -1.375 -1.234375 -3.796875l0 -0.171875q0 -2.3125 1.234375 -3.6875q1.234375 -1.390625 3.390625 -1.390625q1.875 0 3.015625 1.078125q1.140625 1.0625 1.15625 2.84375l-2.515625 0q-0.015625 -0.78125 -0.484375 -1.265625q-0.453125 -0.484375 -1.21875 -0.484375q-0.9375 0 -1.421875 0.6875q-0.46875 0.671875 -0.46875 2.203125l0 0.28125q0 1.546875 0.46875 2.234375q0.46875 0.671875 1.4375 0.671875zm8.166443 -6.96875q1.078125 -1.28125 2.6875 -1.28125q3.265625 0 3.3125 3.796875l0 6.421875l-2.6875 0l0 -6.359375q0 -0.859375 -0.375 -1.265625q-0.359375 -0.421875 -1.21875 -0.421875q-1.1875 0 -1.71875 0.90625l0 7.140625l-2.671875 0l0 -14.25l2.671875 0l0 5.3125zm13.642578 8.9375q-0.1875 -0.359375 -0.265625 -0.90625q-0.96875 1.09375 -2.53125 1.09375q-1.484375 0 -2.453125 -0.84375q-0.96875 -0.859375 -0.96875 -2.171875q0 -1.59375 1.1875 -2.4375q1.1875 -0.859375 3.421875 -0.859375l1.234375 0l0 -0.578125q0 -0.703125 -0.359375 -1.109375q-0.359375 -0.421875 -1.125 -0.421875q-0.671875 0 -1.0625 0.328125q-0.390625 0.3125 -0.390625 0.890625l-2.671875 0q0 -0.875 0.53125 -1.609375q0.546875 -0.75 1.515625 -1.171875q0.984375 -0.421875 2.21875 -0.421875q1.859375 0 2.9375 0.9375q1.09375 0.921875 1.09375 2.609375l0 4.359375q0.015625 1.421875 0.40625 2.15625l0 0.15625l-2.71875 0zm-2.21875 -1.859375q0.59375 0 1.09375 -0.265625q0.5 -0.265625 0.75 -0.71875l0 -1.71875l-1.0 0q-2.015625 0 -2.140625 1.390625l-0.015625 0.15625q0 0.5 0.34375 0.828125q0.359375 0.328125 0.96875 0.328125zm8.877258 -8.171875l0.078125 1.15625q1.078125 -1.34375 2.890625 -1.34375q1.59375 0 2.375 0.9375q0.78125 0.9375 0.796875 2.796875l0 6.484375l-2.6875 0l0 -6.421875q0 -0.859375 -0.375 -1.234375q-0.359375 -0.390625 -1.21875 -0.390625q-1.140625 0 -1.703125 0.96875l0 7.078125l-2.6875 0l0 -10.03125l2.53125 0zm10.448608 0l0.078125 1.15625q1.078125 -1.34375 2.890625 -1.34375q1.59375 0 2.375 0.9375q0.78125 0.9375 0.796875 2.796875l0 6.484375l-2.6875 0l0 -6.421875q0 -0.859375 -0.375 -1.234375q-0.359375 -0.390625 -1.21875 -0.390625q-1.140625 0 -1.703125 0.96875l0 7.078125l-2.6875 0l0 -10.03125l2.53125 0zm12.604797 10.21875q-2.21875 0 -3.609375 -1.359375q-1.375 -1.359375 -1.375 -3.609375l0 -0.25q0 -1.515625 0.578125 -2.703125q0.59375 -1.203125 1.65625 -1.84375q1.078125 -0.640625 2.453125 -0.640625q2.046875 0 3.234375 1.296875q1.1875 1.296875 1.1875 3.6875l0 1.09375l-6.390625 0q0.125 0.984375 0.78125 1.578125q0.65625 0.59375 1.65625 0.59375q1.546875 0 2.421875 -1.125l1.3125 1.46875q-0.59375 0.859375 -1.625 1.34375q-1.03125 0.46875 -2.28125 0.46875zm-0.3125 -8.234375q-0.796875 0 -1.296875 0.53125q-0.5 0.53125 -0.625 1.546875l3.71875 0l0 -0.21875q-0.015625 -0.890625 -0.484375 -1.375q-0.453125 -0.484375 -1.3125 -0.484375zm8.5998535 8.046875l-2.6875 0l0 -14.25l2.6875 0l0 14.25zm11.38916 0.1875q-2.21875 0 -3.609375 -1.359375q-1.375 -1.359375 -1.375 -3.609375l0 -0.25q0 -1.515625 0.578125 -2.703125q0.59375 -1.203125 1.65625 -1.84375q1.078125 -0.640625 2.453125 -0.640625q2.046875 0 3.234375 1.296875q1.1875 1.296875 1.1875 3.6875l0 1.09375l-6.390625 0q0.125 0.984375 0.78125 1.578125q0.65625 0.59375 1.65625 0.59375q1.546875 0 2.421875 -1.125l1.3125 1.46875q-0.59375 0.859375 -1.625 1.34375q-1.03125 0.46875 -2.28125 0.46875zm-0.3125 -8.234375q-0.796875 0 -1.296875 0.53125q-0.5 0.53125 -0.625 1.546875l3.71875 0l0 -0.21875q-0.015625 -0.890625 -0.484375 -1.375q-0.453125 -0.484375 -1.3125 -0.484375zm8.5998535 8.046875l-2.6875 0l0 -14.25l2.6875 0l0 14.25zm6.743347 0.1875q-2.21875 0 -3.609375 -1.359375q-1.375 -1.359375 -1.375 -3.609375l0 -0.25q0 -1.515625 0.578125 -2.703125q0.59375 -1.203125 1.65625 -1.84375q1.078125 -0.640625 2.453125 -0.640625q2.046875 0 3.234375 1.296875q1.1875 1.296875 1.1875 3.6875l0 1.09375l-6.390625 0q0.125 0.984375 0.78125 1.578125q0.65625 0.59375 1.65625 0.59375q1.546875 0 2.421875 -1.125l1.3125 1.46875q-0.59375 0.859375 -1.625 1.34375q-1.03125 0.46875 -2.28125 0.46875zm-0.3125 -8.234375q-0.796875 0 -1.296875 0.53125q-0.5 0.53125 -0.625 1.546875l3.71875 0l0 -0.21875q-0.015625 -0.890625 -0.484375 -1.375q-0.453125 -0.484375 -1.3125 -0.484375zm8.2873535 -1.984375l0.078125 1.109375q1.0625 -1.296875 2.890625 -1.296875q1.9375 0 2.65625 1.53125q1.0625 -1.53125 3.015625 -1.53125q1.640625 0 2.4375 0.953125q0.796875 0.9375 0.796875 2.859375l0 6.40625l-2.6875 0l0 -6.40625q0 -0.84375 -0.34375 -1.234375q-0.328125 -0.40625 -1.171875 -0.40625q-1.203125 0 -1.671875 1.15625l0.015625 6.890625l-2.6875 0l0 -6.390625q0 -0.875 -0.34375 -1.265625q-0.34375 -0.390625 -1.171875 -0.390625q-1.140625 0 -1.640625 0.953125l0 7.09375l-2.6875 0l0 -10.03125l2.515625 0zm18.260498 10.21875q-2.21875 0 -3.609375 -1.359375q-1.375 -1.359375 -1.375 -3.609375l0 -0.25q0 -1.515625 0.578125 -2.703125q0.59375 -1.203125 1.65625 -1.84375q1.078125 -0.640625 2.453125 -0.640625q2.046875 0 3.234375 1.296875q1.1875 1.296875 1.1875 3.6875l0 1.09375l-6.390625 0q0.125 0.984375 0.78125 1.578125q0.65625 0.59375 1.65625 0.59375q1.546875 0 2.421875 -1.125l1.3125 1.46875q-0.59375 0.859375 -1.625 1.34375q-1.03125 0.46875 -2.28125 0.46875zm-0.3125 -8.234375q-0.796875 0 -1.296875 0.53125q-0.5 0.53125 -0.625 1.546875l3.71875 0l0 -0.21875q-0.015625 -0.890625 -0.484375 -1.375q-0.453125 -0.484375 -1.3125 -0.484375zm8.2404785 -1.984375l0.078125 1.15625q1.078125 -1.34375 2.890625 -1.34375q1.59375 0 2.375 0.9375q0.78125 0.9375 0.796875 2.796875l0 6.484375l-2.6875 0l0 -6.421875q0 -0.859375 -0.375 -1.234375q-0.359375 -0.390625 -1.21875 -0.390625q-1.140625 0 -1.703125 0.96875l0 7.078125l-2.6875 0l0 -10.03125l2.53125 0zm11.182922 -2.46875l0 2.46875l1.71875 0l0 1.953125l-1.71875 0l0 5.015625q0 0.5625 0.21875 0.8125q0.21875 0.234375 0.8125 0.234375q0.453125 0 0.796875 -0.078125l0 2.03125q-0.796875 0.25 -1.625 0.25q-2.828125 0 -2.875 -2.84375l0 -5.421875l-1.46875 0l0 -1.953125l1.46875 0l0 -2.46875l2.671875 0z" fill-rule="nonzero"></path><path fill="#f4cccc" d="m452.90625 269.84436l-1.25 0l4.75 -12.359375l1.234375 0l-4.734375 12.359375zm10.234375 -8.0l2.734375 -4.359375l1.765625 0l-3.59375 5.640625l3.671875 5.734375l-1.78125 0l-2.796875 -4.4375l-2.8125 4.4375l-1.765625 0l3.6875 -5.734375l-3.609375 -5.640625l1.765625 0l2.734375 4.359375zm12.84375 -1.390625q0 0.84375 -0.453125 1.515625q-0.4375 0.65625 -1.203125 1.03125q0.890625 0.390625 1.40625 1.125q0.515625 0.734375 0.515625 1.65625q0 1.484375 -1.0 2.359375q-0.984375 0.875 -2.609375 0.875q-1.640625 0 -2.640625 -0.875q-0.984375 -0.890625 -0.984375 -2.359375q0 -0.921875 0.5 -1.65625q0.515625 -0.75 1.40625 -1.125q-0.765625 -0.375 -1.203125 -1.03125q-0.4375 -0.671875 -0.4375 -1.515625q0 -1.4375 0.921875 -2.28125q0.921875 -0.84375 2.4375 -0.84375q1.5 0 2.421875 0.84375q0.921875 0.84375 0.921875 2.28125zm-1.171875 5.296875q0 -0.953125 -0.609375 -1.546875q-0.609375 -0.609375 -1.59375 -0.609375q-0.96875 0 -1.5625 0.59375q-0.578125 0.59375 -0.578125 1.5625q0 0.96875 0.5625 1.53125q0.578125 0.546875 1.609375 0.546875q1.015625 0 1.59375 -0.546875q0.578125 -0.5625 0.578125 -1.53125zm-2.171875 -7.234375q-0.859375 0 -1.390625 0.53125q-0.515625 0.515625 -0.515625 1.421875q0 0.875 0.515625 1.40625q0.515625 0.53125 1.375 0.53125q0.875 0 1.390625 -0.53125q0.53125 -0.53125 0.53125 -1.390625q0 -0.875 -0.546875 -1.421875q-0.53125 -0.546875 -1.359375 -0.546875zm12.328125 1.9375q0 0.84375 -0.453125 1.515625q-0.4375 0.65625 -1.203125 1.03125q0.890625 0.390625 1.40625 1.125q0.515625 0.734375 0.515625 1.65625q0 1.484375 -1.0 2.359375q-0.984375 0.875 -2.609375 0.875q-1.640625 0 -2.640625 -0.875q-0.984375 -0.890625 -0.984375 -2.359375q0 -0.921875 0.5 -1.65625q0.515625 -0.75 1.40625 -1.125q-0.765625 -0.375 -1.203125 -1.03125q-0.4375 -0.671875 -0.4375 -1.515625q0 -1.4375 0.921875 -2.28125q0.921875 -0.84375 2.4375 -0.84375q1.5 0 2.421875 0.84375q0.921875 0.84375 0.921875 2.28125zm-1.171875 5.296875q0 -0.953125 -0.609375 -1.546875q-0.609375 -0.609375 -1.59375 -0.609375q-0.96875 0 -1.5625 0.59375q-0.578125 0.59375 -0.578125 1.5625q0 0.96875 0.5625 1.53125q0.578125 0.546875 1.609375 0.546875q1.015625 0 1.59375 -0.546875q0.578125 -0.5625 0.578125 -1.53125zm-2.171875 -7.234375q-0.859375 0 -1.390625 0.53125q-0.515625 0.515625 -0.515625 1.421875q0 0.875 0.515625 1.40625q0.515625 0.53125 1.375 0.53125q0.875 0 1.390625 -0.53125q0.53125 -0.53125 0.53125 -1.390625q0 -0.875 -0.546875 -1.421875q-0.53125 -0.546875 -1.359375 -0.546875zm6.09375 4.640625l0.578125 -5.671875l5.828125 0l0 1.328125l-4.59375 0l-0.34375 3.109375q0.828125 -0.5 1.890625 -0.5q1.5625 0 2.46875 1.03125q0.921875 1.03125 0.921875 2.78125q0 1.75 -0.953125 2.765625q-0.953125 1.015625 -2.65625 1.015625q-1.5 0 -2.453125 -0.828125q-0.953125 -0.84375 -1.09375 -2.328125l1.375 0q0.125 0.984375 0.6875 1.484375q0.5625 0.484375 1.484375 0.484375q1.015625 0 1.578125 -0.6875q0.578125 -0.6875 0.578125 -1.890625q0 -1.140625 -0.625 -1.828125q-0.609375 -0.703125 -1.640625 -0.703125q-0.953125 0 -1.484375 0.421875l-0.390625 0.3125l-1.15625 -0.296875zm8.984375 0l0.578125 -5.671875l5.828125 0l0 1.328125l-4.59375 0l-0.34375 3.109375q0.828125 -0.5 1.890625 -0.5q1.5625 0 2.46875 1.03125q0.921875 1.03125 0.921875 2.78125q0 1.75 -0.953125 2.765625q-0.953125 1.015625 -2.65625 1.015625q-1.5 0 -2.453125 -0.828125q-0.953125 -0.84375 -1.09375 -2.328125l1.375 0q0.125 0.984375 0.6875 1.484375q0.5625 0.484375 1.484375 0.484375q1.015625 0 1.578125 -0.6875q0.578125 -0.6875 0.578125 -1.890625q0 -1.140625 -0.625 -1.828125q-0.609375 -0.703125 -1.640625 -0.703125q-0.953125 0 -1.484375 0.421875l-0.390625 0.3125l-1.15625 -0.296875zm15.453125 0.84375q0 2.546875 -0.875 3.78125q-0.859375 1.234375 -2.703125 1.234375q-1.8125 0 -2.6875 -1.203125q-0.875 -1.21875 -0.90625 -3.609375l0 -1.9375q0 -2.5 0.859375 -3.71875q0.875 -1.21875 2.71875 -1.21875q1.84375 0 2.703125 1.171875q0.875 1.171875 0.890625 3.625l0 1.875zm-1.4375 -1.96875q0 -1.84375 -0.515625 -2.671875q-0.515625 -0.84375 -1.640625 -0.84375q-1.109375 0 -1.625 0.84375q-0.5 0.828125 -0.515625 2.5625l0 2.3125q0 1.84375 0.53125 2.71875q0.546875 0.875 1.625 0.875q1.078125 0 1.59375 -0.828125q0.515625 -0.828125 0.546875 -2.609375l0 -2.359375zm10.421875 1.96875q0 2.546875 -0.875 3.78125q-0.859375 1.234375 -2.703125 1.234375q-1.8125 0 -2.6875 -1.203125q-0.875 -1.21875 -0.90625 -3.609375l0 -1.9375q0 -2.5 0.859375 -3.71875q0.875 -1.21875 2.71875 -1.21875q1.84375 0 2.703125 1.171875q0.875 1.171875 0.890625 3.625l0 1.875zm-1.4375 -1.96875q0 -1.84375 -0.515625 -2.671875q-0.515625 -0.84375 -1.640625 -0.84375q-1.109375 0 -1.625 0.84375q-0.5 0.828125 -0.515625 2.5625l0 2.3125q0 1.84375 0.53125 2.71875q0.546875 0.875 1.625 0.875q1.078125 0 1.59375 -0.828125q0.515625 -0.828125 0.546875 -2.609375l0 -2.359375zm8.046875 6.828125l-1.453125 0l0 -9.640625l-2.921875 1.078125l0 -1.3125l4.140625 -1.5625l0.234375 0l0 11.4375zm10.328125 -3.828125l1.578125 0l0 1.1875l-1.578125 0l0 2.640625l-1.453125 0l0 -2.640625l-5.171875 0l0 -0.859375l5.09375 -7.875l1.53125 0l0 7.546875zm-4.984375 0l3.53125 0l0 -5.578125l-0.171875 0.3125l-3.359375 5.265625zm7.671875 -0.46875q0 -1.953125 0.921875 -3.125q0.921875 -1.1875 2.40625 -1.1875q1.484375 0 2.359375 1.015625l0 -4.40625l1.4375 0l0 12.0l-1.328125 0l-0.0625 -0.90625q-0.875 1.0625 -2.421875 1.0625q-1.46875 0 -2.390625 -1.203125q-0.921875 -1.203125 -0.921875 -3.140625l0 -0.109375zm1.4375 0.15625q0 1.4375 0.59375 2.25q0.59375 0.8125 1.640625 0.8125q1.375 0 2.015625 -1.234375l0 -3.875q-0.65625 -1.203125 -2.0 -1.203125q-1.0625 0 -1.65625 0.828125q-0.59375 0.8125 -0.59375 2.421875zm13.8828125 0.3125l1.578125 0l0 1.1875l-1.578125 0l0 2.640625l-1.453125 0l0 -2.640625l-5.171875 0l0 -0.859375l5.09375 -7.875l1.53125 0l0 7.546875zm-4.984375 0l3.53125 0l0 -5.578125l-0.171875 0.3125l-3.359375 5.265625zm11.40625 2.796875q0.78125 0 1.359375 -0.46875q0.578125 -0.46875 0.640625 -1.171875l1.359375 0q-0.03125 0.734375 -0.5 1.390625q-0.453125 0.65625 -1.234375 1.046875q-0.765625 0.390625 -1.625 0.390625q-1.71875 0 -2.75 -1.15625q-1.015625 -1.15625 -1.015625 -3.15625l0 -0.234375q0 -1.234375 0.453125 -2.1875q0.453125 -0.96875 1.296875 -1.5q0.859375 -0.53125 2.015625 -0.53125q1.421875 0 2.359375 0.859375q0.9375 0.84375 1.0 2.203125l-1.359375 0q-0.0625 -0.828125 -0.625 -1.34375q-0.5625 -0.53125 -1.375 -0.53125q-1.109375 0 -1.71875 0.796875q-0.59375 0.78125 -0.59375 2.28125l0 0.28125q0 1.453125 0.59375 2.25q0.609375 0.78125 1.71875 0.78125zm11.734375 -7.375q0 0.84375 -0.453125 1.515625q-0.4375 0.65625 -1.203125 1.03125q0.890625 0.390625 1.40625 1.125q0.515625 0.734375 0.515625 1.65625q0 1.484375 -1.0 2.359375q-0.984375 0.875 -2.609375 0.875q-1.640625 0 -2.640625 -0.875q-0.984375 -0.890625 -0.984375 -2.359375q0 -0.921875 0.5 -1.65625q0.515625 -0.75 1.40625 -1.125q-0.765625 -0.375 -1.203125 -1.03125q-0.4375 -0.671875 -0.4375 -1.515625q0 -1.4375 0.921875 -2.28125q0.921875 -0.84375 2.4375 -0.84375q1.5 0 2.421875 0.84375q0.921875 0.84375 0.921875 2.28125zm-1.171875 5.296875q0 -0.953125 -0.609375 -1.546875q-0.609375 -0.609375 -1.59375 -0.609375q-0.96875 0 -1.5625 0.59375q-0.578125 0.59375 -0.578125 1.5625q0 0.96875 0.5625 1.53125q0.578125 0.546875 1.609375 0.546875q1.015625 0 1.59375 -0.546875q0.578125 -0.5625 0.578125 -1.53125zm-2.171875 -7.234375q-0.859375 0 -1.390625 0.53125q-0.515625 0.515625 -0.515625 1.421875q0 0.875 0.515625 1.40625q0.515625 0.53125 1.375 0.53125q0.875 0 1.390625 -0.53125q0.53125 -0.53125 0.53125 -1.390625q0 -0.875 -0.546875 -1.421875q-0.53125 -0.546875 -1.359375 -0.546875zm12.890625 10.34375l-7.453125 0l0 -1.046875l3.9375 -4.375q0.875 -0.984375 1.203125 -1.609375q0.328125 -0.625 0.328125 -1.28125q0 -0.890625 -0.546875 -1.453125q-0.53125 -0.578125 -1.421875 -0.578125q-1.078125 0 -1.6875 0.609375q-0.59375 0.609375 -0.59375 1.703125l-1.4375 0q0 -1.5625 1.0 -2.53125q1.015625 -0.96875 2.71875 -0.96875q1.578125 0 2.5 0.828125q0.921875 0.828125 0.921875 2.21875q0 1.671875 -2.140625 4.0l-3.046875 3.296875l5.71875 0l0 1.1875zm5.1875 0.15625q-1.71875 0 -2.796875 -1.125q-1.078125 -1.140625 -1.078125 -3.03125l0 -0.265625q0 -1.25 0.46875 -2.234375q0.484375 -1.0 1.34375 -1.546875q0.875 -0.5625 1.875 -0.5625q1.65625 0 2.5625 1.09375q0.921875 1.078125 0.921875 3.09375l0 0.609375l-5.734375 0q0.03125 1.25 0.734375 2.015625q0.703125 0.765625 1.78125 0.765625q0.765625 0 1.296875 -0.3125q0.53125 -0.3125 0.921875 -0.828125l0.890625 0.6875q-1.0625 1.640625 -3.1875 1.640625zm-0.1875 -7.578125q-0.875 0 -1.46875 0.640625q-0.59375 0.625 -0.734375 1.78125l4.234375 0l0 -0.109375q-0.0625 -1.109375 -0.59375 -1.703125q-0.53125 -0.609375 -1.4375 -0.609375zm11.1015625 3.59375l1.578125 0l0 1.1875l-1.578125 0l0 2.640625l-1.453125 0l0 -2.640625l-5.171875 0l0 -0.859375l5.09375 -7.875l1.53125 0l0 7.546875zm-4.984375 0l3.53125 0l0 -5.578125l-0.171875 0.3125l-3.359375 5.265625zm7.671875 -0.46875q0 -1.953125 0.921875 -3.125q0.921875 -1.1875 2.40625 -1.1875q1.484375 0 2.359375 1.015625l0 -4.40625l1.4375 0l0 12.0l-1.328125 0l-0.0625 -0.90625q-0.875 1.0625 -2.421875 1.0625q-1.46875 0 -2.390625 -1.203125q-0.921875 -1.203125 -0.921875 -3.140625l0 -0.109375zm1.4375 0.15625q0 1.4375 0.59375 2.25q0.59375 0.8125 1.640625 0.8125q1.375 0 2.015625 -1.234375l0 -3.875q-0.65625 -1.203125 -2.0 -1.203125q-1.0625 0 -1.65625 0.828125q-0.59375 0.8125 -0.59375 2.421875zm8.2265625 5.125l-1.25 0l4.75 -12.359375l1.234375 0l-4.734375 12.359375zm8.265625 -11.484375l0 2.046875l1.578125 0l0 1.109375l-1.578125 0l0 5.25q0 0.5 0.203125 0.765625q0.21875 0.25 0.71875 0.25q0.25 0 0.6875 -0.09375l0 1.171875q-0.5625 0.15625 -1.109375 0.15625q-0.96875 0 -1.46875 -0.578125q-0.484375 -0.59375 -0.484375 -1.671875l0 -5.25l-1.53125 0l0 -1.109375l1.53125 0l0 -2.046875l1.453125 0zm4.7109375 3.0625q0.953125 -1.171875 2.5 -1.171875q2.671875 0 2.703125 3.015625l0 5.59375l-1.453125 0l0 -5.59375q0 -0.921875 -0.421875 -1.359375q-0.40625 -0.4375 -1.265625 -0.4375q-0.703125 0 -1.234375 0.375q-0.53125 0.375 -0.828125 0.984375l0 6.03125l-1.453125 0l0 -12.0l1.453125 0l0 4.5625zm8.9375 7.4375l-1.453125 0l0 -8.453125l1.453125 0l0 8.453125zm-1.5625 -10.703125q0 -0.34375 0.203125 -0.578125q0.21875 -0.25 0.640625 -0.25q0.421875 0 0.640625 0.25q0.21875 0.234375 0.21875 0.59375q0 0.34375 -0.21875 0.578125q-0.21875 0.234375 -0.640625 0.234375q-0.421875 0 -0.640625 -0.234375q-0.203125 -0.234375 -0.203125 -0.59375zm8.7890625 8.453125q0 -0.578125 -0.4375 -0.90625q-0.4375 -0.328125 -1.546875 -0.5625q-1.09375 -0.234375 -1.734375 -0.5625q-0.640625 -0.328125 -0.953125 -0.78125q-0.3125 -0.453125 -0.3125 -1.078125q0 -1.03125 0.875 -1.75q0.890625 -0.71875 2.25 -0.71875q1.4375 0 2.328125 0.75q0.90625 0.734375 0.90625 1.890625l-1.453125 0q0 -0.59375 -0.515625 -1.015625q-0.5 -0.4375 -1.265625 -0.4375q-0.78125 0 -1.234375 0.34375q-0.4375 0.34375 -0.4375 0.890625q0 0.53125 0.40625 0.796875q0.421875 0.265625 1.5 0.515625q1.078125 0.234375 1.75 0.578125q0.671875 0.328125 1.0 0.796875q0.328125 0.46875 0.328125 1.15625q0 1.125 -0.90625 1.8125q-0.90625 0.6875 -2.359375 0.6875q-1.015625 0 -1.796875 -0.359375q-0.78125 -0.359375 -1.21875 -1.0q-0.4375 -0.65625 -0.4375 -1.40625l1.4375 0q0.046875 0.734375 0.578125 1.15625q0.546875 0.421875 1.4375 0.421875q0.828125 0 1.3125 -0.328125q0.5 -0.328125 0.5 -0.890625zm3.625 3.234375l-1.25 0l4.75 -12.359375l1.234375 0l-4.734375 12.359375zm7.875 -0.984375l-1.453125 0l0 -8.453125l1.453125 0l0 8.453125zm-1.5625 -10.703125q0 -0.34375 0.203125 -0.578125q0.21875 -0.25 0.640625 -0.25q0.421875 0 0.640625 0.25q0.21875 0.234375 0.21875 0.59375q0 0.34375 -0.21875 0.578125q-0.21875 0.234375 -0.640625 0.234375q-0.421875 0 -0.640625 -0.234375q-0.203125 -0.234375 -0.203125 -0.59375zm8.7890625 8.453125q0 -0.578125 -0.4375 -0.90625q-0.4375 -0.328125 -1.546875 -0.5625q-1.09375 -0.234375 -1.734375 -0.5625q-0.640625 -0.328125 -0.953125 -0.78125q-0.3125 -0.453125 -0.3125 -1.078125q0 -1.03125 0.875 -1.75q0.890625 -0.71875 2.25 -0.71875q1.4375 0 2.328125 0.75q0.90625 0.734375 0.90625 1.890625l-1.453125 0q0 -0.59375 -0.515625 -1.015625q-0.5 -0.4375 -1.265625 -0.4375q-0.78125 0 -1.234375 0.34375q-0.4375 0.34375 -0.4375 0.890625q0 0.53125 0.40625 0.796875q0.421875 0.265625 1.5 0.515625q1.078125 0.234375 1.75 0.578125q0.671875 0.328125 1.0 0.796875q0.328125 0.46875 0.328125 1.15625q0 1.125 -0.90625 1.8125q-0.90625 0.6875 -2.359375 0.6875q-1.015625 0 -1.796875 -0.359375q-0.78125 -0.359375 -1.21875 -1.0q-0.4375 -0.65625 -0.4375 -1.40625l1.4375 0q0.046875 0.734375 0.578125 1.15625q0.546875 0.421875 1.4375 0.421875q0.828125 0 1.3125 -0.328125q0.5 -0.328125 0.5 -0.890625zm3.625 3.234375l-1.25 0l4.75 -12.359375l1.234375 0l-4.734375 12.359375zm9.6875 -2.015625q0.78125 0 1.359375 -0.46875q0.578125 -0.46875 0.640625 -1.171875l1.359375 0q-0.03125 0.734375 -0.5 1.390625q-0.453125 0.65625 -1.234375 1.046875q-0.765625 0.390625 -1.625 0.390625q-1.71875 0 -2.75 -1.15625q-1.015625 -1.15625 -1.015625 -3.15625l0 -0.234375q0 -1.234375 0.453125 -2.1875q0.453125 -0.96875 1.296875 -1.5q0.859375 -0.53125 2.015625 -0.53125q1.421875 0 2.359375 0.859375q0.9375 0.84375 1.0 2.203125l-1.359375 0q-0.0625 -0.828125 -0.625 -1.34375q-0.5625 -0.53125 -1.375 -0.53125q-1.109375 0 -1.71875 0.796875q-0.59375 0.78125 -0.59375 2.28125l0 0.28125q0 1.453125 0.59375 2.25q0.609375 0.78125 1.71875 0.78125zm6.4375 -6.40625q0.953125 -1.171875 2.5 -1.171875q2.671875 0 2.703125 3.015625l0 5.59375l-1.453125 0l0 -5.59375q0 -0.921875 -0.421875 -1.359375q-0.40625 -0.4375 -1.265625 -0.4375q-0.703125 0 -1.234375 0.375q-0.53125 0.375 -0.828125 0.984375l0 6.03125l-1.453125 0l0 -12.0l1.453125 0l0 4.5625zm12.578125 7.4375q-0.125 -0.25 -0.203125 -0.890625q-1.0 1.046875 -2.40625 1.046875q-1.25 0 -2.046875 -0.703125q-0.796875 -0.71875 -0.796875 -1.796875q0 -1.328125 1.0 -2.046875q1.0 -0.734375 2.828125 -0.734375l1.40625 0l0 -0.671875q0 -0.75 -0.453125 -1.203125q-0.453125 -0.453125 -1.34375 -0.453125q-0.765625 0 -1.296875 0.390625q-0.515625 0.390625 -0.515625 0.953125l-1.453125 0q0 -0.640625 0.4375 -1.21875q0.453125 -0.59375 1.21875 -0.9375q0.78125 -0.34375 1.703125 -0.34375q1.453125 0 2.28125 0.734375q0.828125 0.71875 0.859375 2.0l0 3.890625q0 1.171875 0.296875 1.859375l0 0.125l-1.515625 0zm-2.390625 -1.109375q0.671875 0 1.28125 -0.34375q0.609375 -0.359375 0.890625 -0.921875l0 -1.734375l-1.140625 0q-2.65625 0 -2.65625 1.5625q0 0.671875 0.453125 1.0625q0.453125 0.375 1.171875 0.375zm9.96875 -6.046875q-0.328125 -0.0625 -0.71875 -0.0625q-1.421875 0 -1.921875 1.21875l0 6.0l-1.453125 0l0 -8.453125l1.40625 0l0.03125 0.96875q0.703125 -1.125 2.015625 -1.125q0.421875 0 0.640625 0.109375l0 1.34375zm2.8984375 7.15625l-1.453125 0l0 -12.0l1.453125 0l0 12.0zm3.8828125 0l-1.453125 0l0 -8.453125l1.453125 0l0 8.453125zm-1.5625 -10.703125q0 -0.34375 0.203125 -0.578125q0.21875 -0.25 0.640625 -0.25q0.421875 0 0.640625 0.25q0.21875 0.234375 0.21875 0.59375q0 0.34375 -0.21875 0.578125q-0.21875 0.234375 -0.640625 0.234375q-0.421875 0 -0.640625 -0.234375q-0.203125 -0.234375 -0.203125 -0.59375zm7.3828125 10.859375q-1.71875 0 -2.796875 -1.125q-1.078125 -1.140625 -1.078125 -3.03125l0 -0.265625q0 -1.25 0.46875 -2.234375q0.484375 -1.0 1.34375 -1.546875q0.875 -0.5625 1.875 -0.5625q1.65625 0 2.5625 1.09375q0.921875 1.078125 0.921875 3.09375l0 0.609375l-5.734375 0q0.03125 1.25 0.734375 2.015625q0.703125 0.765625 1.78125 0.765625q0.765625 0 1.296875 -0.3125q0.53125 -0.3125 0.921875 -0.828125l0.890625 0.6875q-1.0625 1.640625 -3.1875 1.640625zm-0.1875 -7.578125q-0.875 0 -1.46875 0.640625q-0.59375 0.625 -0.734375 1.78125l4.234375 0l0 -0.109375q-0.0625 -1.109375 -0.59375 -1.703125q-0.53125 -0.609375 -1.4375 -0.609375z" fill-rule="nonzero"></path><path fill="#e06666" d="m438.4042 241.83989l-93.863525 28.711288l92.76117 -16.5643z" fill-rule="nonzero"></path></g></svg>

