<?xml version="1.0" standalone="yes"?>

<svg version="1.1" viewBox="0.0 0.0 617.0 616.0" fill="none" stroke="none" stroke-linecap="square" stroke-miterlimit="10" xmlns="http://www.w3.org/2000/svg" xmlns:xlink="http://www.w3.org/1999/xlink"><clipPath id="p.0"><path d="m0 0l617.0 0l0 616.0l-617.0 0l0 -616.0z" clip-rule="nonzero"></path></clipPath><g clip-path="url(#p.0)"><path fill="#000000" fill-opacity="0.0" d="m0 0l617.3018 0l0 616.19684l-617.3018 0z" fill-rule="nonzero"></path><path fill="#999999" d="m17.178478 307.81628l0 0c0 -161.76291 131.13474 -292.89764 292.89764 -292.89764l0 0c77.681274 0 152.18094 30.858768 207.10992 85.787735c54.928955 54.928963 85.78772 129.42862 85.78772 207.10992l0 0c0 161.76288 -131.13474 292.89764 -292.89764 292.89764l0 0c-161.7629 0 -292.89764 -131.13477 -292.89764 -292.89764z" fill-rule="nonzero"></path><path fill="#666666" d="m41.17848 294.6719l0 0c0 -45.922256 37.227345 -83.1496 83.14961 -83.1496l0 0c22.05265 0 43.202065 8.760376 58.795647 24.353958c15.593582 15.593582 24.353958 36.742996 24.353958 58.79564l0 0c0 45.92227 -37.22734 83.14963 -83.149605 83.14963l0 0c-45.922264 0 -83.14961 -37.227356 -83.14961 -83.14963z" fill-rule="nonzero"></path><path fill="#000000" fill-opacity="0.0" d="m62.160107 278.18372l155.27559 0l0 65.165375l-155.27559 0z" fill-rule="nonzero"></path><path fill="#ffffff" d="m75.61323 299.90265l0 5.34375l-2.828125 0l0 -15.1875l4.953125 0q1.515625 0 2.625 0.359375q1.125 0.359375 1.84375 1.0q0.71875 0.640625 1.0625 1.53125q0.359375 0.890625 0.359375 1.953125q0 1.109375 -0.375 2.03125q-0.359375 0.90625 -1.09375 1.578125q-0.734375 0.65625 -1.84375 1.03125q-1.109375 0.359375 -2.578125 0.359375l-2.125 0zm0 -2.203125l2.125 0q0.765625 0 1.34375 -0.1875q0.578125 -0.203125 0.953125 -0.5625q0.390625 -0.359375 0.578125 -0.875q0.1875 -0.53125 0.1875 -1.171875q0 -0.609375 -0.1875 -1.09375q-0.1875 -0.5 -0.578125 -0.84375q-0.375 -0.34375 -0.953125 -0.53125q-0.578125 -0.1875 -1.34375 -0.1875l-2.125 0l0 5.453125zm10.267487 7.546875l0 -10.765625l1.515625 0q0.40625 0 0.5625 0.140625q0.15625 0.140625 0.203125 0.5l0.15625 1.3125q0.578125 -1.0 1.359375 -1.578125q0.78125 -0.578125 1.75 -0.578125q0.796875 0 1.3125 0.359375l-0.328125 1.953125q-0.03125 0.1875 -0.140625 0.265625q-0.109375 0.078125 -0.28125 0.078125q-0.15625 0 -0.4375 -0.078125q-0.265625 -0.078125 -0.71875 -0.078125q-0.8125 0 -1.390625 0.453125q-0.578125 0.4375 -0.96875 1.3125l0 6.703125l-2.59375 0zm13.306229 -10.9375q1.203125 0 2.1875 0.390625q0.984375 0.390625 1.671875 1.109375q0.703125 0.703125 1.078125 1.734375q0.375 1.03125 0.375 2.296875q0 1.28125 -0.375 2.3125q-0.375 1.03125 -1.078125 1.75q-0.6875 0.71875 -1.671875 1.109375q-0.984375 0.390625 -2.1875 0.390625q-1.203125 0 -2.203125 -0.390625q-0.984375 -0.390625 -1.6875 -1.109375q-0.6875 -0.71875 -1.078125 -1.75q-0.375 -1.03125 -0.375 -2.3125q0 -1.265625 0.375 -2.296875q0.390625 -1.03125 1.078125 -1.734375q0.703125 -0.71875 1.6875 -1.109375q1.0 -0.390625 2.203125 -0.390625zm0 9.09375q1.34375 0 1.984375 -0.890625q0.65625 -0.90625 0.65625 -2.65625q0 -1.734375 -0.65625 -2.640625q-0.640625 -0.921875 -1.984375 -0.921875q-1.359375 0 -2.015625 0.921875q-0.65625 0.90625 -0.65625 2.640625q0 1.734375 0.65625 2.640625q0.65625 0.90625 2.015625 0.90625zm12.921829 1.84375l-2.34375 0l-4.296875 -10.765625l2.15625 0q0.28125 0 0.46875 0.140625q0.203125 0.125 0.28125 0.328125l2.078125 5.765625q0.171875 0.5 0.296875 0.984375q0.125 0.484375 0.21875 0.96875q0.09375 -0.484375 0.203125 -0.96875q0.125 -0.484375 0.3125 -0.984375l2.140625 -5.765625q0.078125 -0.203125 0.265625 -0.328125q0.1875 -0.140625 0.453125 -0.140625l2.046875 0l-4.28125 10.765625zm8.737854 -10.765625l0 10.765625l-2.59375 0l0 -10.765625l2.59375 0zm0.390625 -3.140625q0 0.328125 -0.140625 0.625q-0.125 0.296875 -0.359375 0.515625q-0.21875 0.21875 -0.53125 0.359375q-0.296875 0.125 -0.640625 0.125q-0.34375 0 -0.640625 -0.125q-0.296875 -0.140625 -0.515625 -0.359375q-0.21875 -0.21875 -0.359375 -0.515625q-0.125 -0.296875 -0.125 -0.625q0 -0.359375 0.125 -0.65625q0.140625 -0.3125 0.359375 -0.53125q0.21875 -0.21875 0.515625 -0.34375q0.296875 -0.140625 0.640625 -0.140625q0.34375 0 0.640625 0.140625q0.3125 0.125 0.53125 0.34375q0.234375 0.21875 0.359375 0.53125q0.140625 0.296875 0.140625 0.65625zm9.029884 5.234375q-0.109375 0.171875 -0.234375 0.234375q-0.109375 0.0625 -0.28125 0.0625q-0.1875 0 -0.40625 -0.09375q-0.21875 -0.109375 -0.5 -0.234375q-0.28125 -0.140625 -0.640625 -0.234375q-0.35938263 -0.109375 -0.8593826 -0.109375q-0.765625 0 -1.203125 0.328125q-0.4375 0.3125 -0.4375 0.84375q0 0.34375 0.21875 0.578125q0.234375 0.234375 0.59375 0.421875q0.375 0.171875 0.84375 0.3125q0.484375 0.140625 0.9687576 0.3125q0.5 0.171875 0.96875 0.390625q0.46875 0.203125 0.84375 0.546875q0.375 0.328125 0.59375 0.796875q0.234375 0.453125 0.234375 1.109375q0 0.765625 -0.28125 1.421875q-0.28125 0.65625 -0.828125 1.140625q-0.546875 0.46875 -1.359375 0.75q-0.7968826 0.265625 -1.8437576 0.265625q-0.546875 0 -1.078125 -0.109375q-0.53125 -0.09375 -1.03125 -0.265625q-0.484375 -0.1875 -0.90625 -0.421875q-0.40625 -0.25 -0.71875 -0.53125l0.609375 -0.984375q0.109375 -0.1875 0.265625 -0.28125q0.15625 -0.09375 0.40625 -0.09375q0.234375 0 0.453125 0.140625q0.21875 0.140625 0.5 0.296875q0.28125 0.15625 0.65625 0.296875q0.390625 0.125 0.984375 0.125q0.453125 0 0.78125 -0.109375q0.328125 -0.109375 0.5468826 -0.28125q0.21875 -0.171875 0.3125 -0.40625q0.109375 -0.25 0.109375 -0.5q0 -0.375 -0.234375 -0.609375q-0.21875 -0.25 -0.5937576 -0.421875q-0.375 -0.1875 -0.859375 -0.328125q-0.46875 -0.140625 -0.96875 -0.296875q-0.5 -0.171875 -0.984375 -0.390625q-0.46875 -0.234375 -0.84375 -0.578125q-0.375 -0.359375 -0.609375 -0.859375q-0.21875 -0.5 -0.21875 -1.21875q0 -0.65625 0.265625 -1.25q0.265625 -0.609375 0.765625 -1.046875q0.515625 -0.453125 1.28125 -0.71875q0.765625 -0.265625 1.75 -0.265625q1.1250076 0 2.0312576 0.375q0.921875 0.359375 1.53125 0.953125l-0.59375 0.9375zm5.6797028 -2.09375l0 10.765625l-2.59375 0l0 -10.765625l2.59375 0zm0.390625 -3.140625q0 0.328125 -0.140625 0.625q-0.125 0.296875 -0.359375 0.515625q-0.21875 0.21875 -0.53125 0.359375q-0.296875 0.125 -0.640625 0.125q-0.34375 0 -0.640625 -0.125q-0.296875 -0.140625 -0.515625 -0.359375q-0.21875 -0.21875 -0.359375 -0.515625q-0.125 -0.296875 -0.125 -0.625q0 -0.359375 0.125 -0.65625q0.140625 -0.3125 0.359375 -0.53125q0.21875 -0.21875 0.515625 -0.34375q0.296875 -0.140625 0.640625 -0.140625q0.34375 0 0.640625 0.140625q0.3125 0.125 0.53125 0.34375q0.234375 0.21875 0.359375 0.53125q0.140625 0.296875 0.140625 0.65625zm7.2330017 2.96875q1.203125 0 2.1875 0.390625q0.984375 0.390625 1.671875 1.109375q0.703125 0.703125 1.078125 1.734375q0.375 1.03125 0.375 2.296875q0 1.28125 -0.375 2.3125q-0.375 1.03125 -1.078125 1.75q-0.6875 0.71875 -1.671875 1.109375q-0.984375 0.390625 -2.1875 0.390625q-1.203125 0 -2.203125 -0.390625q-0.984375 -0.390625 -1.6875 -1.109375q-0.6875 -0.71875 -1.078125 -1.75q-0.375 -1.03125 -0.375 -2.3125q0 -1.265625 0.375 -2.296875q0.390625 -1.03125 1.078125 -1.734375q0.703125 -0.71875 1.6875 -1.109375q1.0 -0.390625 2.203125 -0.390625zm0 9.09375q1.34375 0 1.984375 -0.890625q0.65625 -0.90625 0.65625 -2.65625q0 -1.734375 -0.65625 -2.640625q-0.640625 -0.921875 -1.984375 -0.921875q-1.359375 0 -2.015625 0.921875q-0.65625 0.90625 -0.65625 2.640625q0 1.734375 0.65625 2.640625q0.65625 0.90625 2.015625 0.90625zm7.531204 1.84375l0 -10.765625l1.578125 0q0.5 0 0.671875 0.46875l0.171875 0.84375q0.328125 -0.328125 0.6875 -0.59375q0.359375 -0.28125 0.765625 -0.484375q0.40625 -0.203125 0.859375 -0.296875q0.46875 -0.109375 1.015625 -0.109375q0.875 0 1.5625 0.296875q0.6875 0.296875 1.140625 0.84375q0.453125 0.53125 0.6875 1.28125q0.234375 0.75 0.234375 1.65625l0 6.859375l-2.59375 0l0 -6.859375q0 -0.984375 -0.453125 -1.515625q-0.453125 -0.546875 -1.359375 -0.546875q-0.671875 0 -1.265625 0.3125q-0.59375 0.296875 -1.109375 0.8125l0 7.796875l-2.59375 0zm14.874954 -10.765625l0 10.765625l-2.59375 0l0 -10.765625l2.59375 0zm0.390625 -3.140625q0 0.328125 -0.140625 0.625q-0.125 0.296875 -0.359375 0.515625q-0.21875 0.21875 -0.53125 0.359375q-0.296875 0.125 -0.640625 0.125q-0.34375 0 -0.640625 -0.125q-0.296875 -0.140625 -0.515625 -0.359375q-0.21875 -0.21875 -0.359375 -0.515625q-0.125 -0.296875 -0.125 -0.625q0 -0.359375 0.125 -0.65625q0.140625 -0.3125 0.359375 -0.53125q0.21875 -0.21875 0.515625 -0.34375q0.296875 -0.140625 0.640625 -0.140625q0.34375 0 0.640625 0.140625q0.3125 0.125 0.53125 0.34375q0.234375 0.21875 0.359375 0.53125q0.140625 0.296875 0.140625 0.65625zm2.6392517 13.90625l0 -10.765625l1.578125 0q0.5 0 0.671875 0.46875l0.171875 0.84375q0.328125 -0.328125 0.6875 -0.59375q0.359375 -0.28125 0.765625 -0.484375q0.40625 -0.203125 0.859375 -0.296875q0.46875 -0.109375 1.015625 -0.109375q0.875 0 1.5625 0.296875q0.6875 0.296875 1.140625 0.84375q0.453125 0.53125 0.6875 1.28125q0.234375 0.75 0.234375 1.65625l0 6.859375l-2.59375 0l0 -6.859375q0 -0.984375 -0.453125 -1.515625q-0.453125 -0.546875 -1.359375 -0.546875q-0.671875 0 -1.265625 0.3125q-0.59375 0.296875 -1.109375 0.8125l0 7.796875l-2.59375 0zm15.843704 -10.96875q0.703125 0 1.3125 0.15625q0.609375 0.140625 1.109375 0.40625l3.09375 0l0 0.96875q0 0.234375 -0.125 0.375q-0.125 0.140625 -0.4375 0.1875l-0.953125 0.1875q0.09375 0.265625 0.15625 0.578125q0.0625 0.296875 0.0625 0.640625q0 0.796875 -0.328125 1.4375q-0.3125 0.640625 -0.875 1.09375q-0.5625 0.453125 -1.34375 0.703125q-0.765625 0.25 -1.671875 0.25q-0.609375 0 -1.1875 -0.125q-0.5 0.3125 -0.5 0.6875q0 0.328125 0.296875 0.484375q0.296875 0.140625 0.78125 0.203125q0.5 0.0625 1.109375 0.078125q0.625 0.015625 1.265625 0.078125q0.65625 0.046875 1.28125 0.1875q0.625 0.125 1.109375 0.40625q0.484375 0.28125 0.78125 0.78125q0.3125 0.484375 0.3125 1.25q0 0.703125 -0.359375 1.375q-0.34375 0.671875 -1.015625 1.203125q-0.671875 0.53125 -1.640625 0.84375q-0.953125 0.328125 -2.203125 0.328125q-1.21875 0 -2.125 -0.25q-0.90625 -0.234375 -1.5 -0.625q-0.59375 -0.390625 -0.890625 -0.90625q-0.28125 -0.515625 -0.28125 -1.078125q0 -0.75 0.453125 -1.265625q0.46875 -0.515625 1.28125 -0.8125q-0.390625 -0.21875 -0.640625 -0.578125q-0.234375 -0.375 -0.234375 -0.96875q0 -0.234375 0.078125 -0.484375q0.078125 -0.265625 0.25 -0.515625q0.1875 -0.265625 0.4375 -0.484375q0.265625 -0.234375 0.625 -0.40625q-0.8125 -0.4375 -1.28125 -1.171875q-0.46875 -0.734375 -0.46875 -1.71875q0 -0.8125 0.3125 -1.453125q0.328125 -0.640625 0.890625 -1.09375q0.578125 -0.46875 1.359375 -0.703125q0.78125 -0.25 1.703125 -0.25zm2.84375 11.453125q0 -0.3125 -0.1875 -0.515625q-0.1875 -0.203125 -0.515625 -0.3125q-0.3125 -0.109375 -0.75 -0.15625q-0.4375 -0.0625 -0.9375 -0.078125q-0.484375 -0.03125 -1.0 -0.046875q-0.515625 -0.03125 -1.0 -0.09375q-0.4375 0.234375 -0.71875 0.5625q-0.265625 0.328125 -0.265625 0.765625q0 0.28125 0.140625 0.53125q0.140625 0.25 0.453125 0.421875q0.3125 0.1875 0.796875 0.28125q0.5 0.09375 1.21875 0.09375q0.71875 0 1.25 -0.109375q0.53125 -0.109375 0.859375 -0.3125q0.34375 -0.1875 0.5 -0.453125q0.15625 -0.265625 0.15625 -0.578125zm-2.84375 -6.140625q0.484375 0 0.84375 -0.125q0.359375 -0.125 0.59375 -0.359375q0.234375 -0.234375 0.359375 -0.5625q0.125 -0.328125 0.125 -0.703125q0 -0.8125 -0.484375 -1.265625q-0.484375 -0.46875 -1.4375 -0.46875q-0.953125 0 -1.4375 0.46875q-0.46875 0.453125 -0.46875 1.265625q0 0.375 0.109375 0.703125q0.125 0.3125 0.359375 0.5625q0.25 0.234375 0.609375 0.359375q0.359375 0.125 0.828125 0.125z" fill-rule="nonzero"></path><path fill="#ffffff" d="m82.26948 316.0589l0 2.25l-6.734375 0l0 4.21875l5.3125 0l0 2.171875l-5.3125 0l0 4.296875l6.734375 0l0 2.25l-9.578125 0l0 -15.1875l9.578125 0zm2.491516 15.1875l0 -10.765625l1.578125 0q0.5 0 0.671875 0.46875l0.171875 0.84375q0.328125 -0.328125 0.6875 -0.59375q0.359375 -0.28125 0.765625 -0.484375q0.40625 -0.203125 0.859375 -0.296875q0.46875 -0.109375 1.015625 -0.109375q0.875 0 1.5625 0.296875q0.6875 0.296875 1.140625 0.84375q0.453125 0.53125 0.6875 1.28125q0.234375 0.75 0.234375 1.65625l0 6.859375l-2.59375 0l0 -6.859375q0 -0.984375 -0.453125 -1.515625q-0.453125 -0.546875 -1.359375 -0.546875q-0.671875 0 -1.265625 0.3125q-0.59375 0.296875 -1.109375 0.8125l0 7.796875l-2.59375 0zm15.843704 -10.96875q0.703125 0 1.3125 0.15625q0.609375 0.140625 1.109375 0.40625l3.09375 0l0 0.96875q0 0.234375 -0.125 0.375q-0.125 0.140625 -0.4375 0.1875l-0.953125 0.1875q0.09375 0.265625 0.15625 0.578125q0.0625 0.296875 0.0625 0.640625q0 0.796875 -0.328125 1.4375q-0.3125 0.640625 -0.875 1.09375q-0.5625 0.453125 -1.34375 0.703125q-0.765625 0.25 -1.671875 0.25q-0.609375 0 -1.1875 -0.125q-0.5 0.3125 -0.5 0.6875q0 0.328125 0.296875 0.484375q0.296875 0.140625 0.78125 0.203125q0.5 0.0625 1.109375 0.078125q0.625 0.015625 1.265625 0.078125q0.65625 0.046875 1.28125 0.1875q0.625 0.125 1.109375 0.40625q0.484375 0.28125 0.78125 0.78125q0.3125 0.484375 0.3125 1.25q0 0.703125 -0.359375 1.375q-0.34375 0.671875 -1.015625 1.203125q-0.671875 0.53125 -1.640625 0.84375q-0.953125 0.328125 -2.203125 0.328125q-1.21875 0 -2.125 -0.25q-0.90625 -0.234375 -1.5 -0.625q-0.59375 -0.390625 -0.890625 -0.90625q-0.28125 -0.515625 -0.28125 -1.078125q0 -0.75 0.453125 -1.265625q0.46875 -0.515625 1.28125 -0.8125q-0.390625 -0.21875 -0.640625 -0.578125q-0.234375 -0.375 -0.234375 -0.96875q0 -0.234375 0.078125 -0.484375q0.078125 -0.265625 0.25 -0.515625q0.1875 -0.265625 0.4375 -0.484375q0.265625 -0.234375 0.625 -0.40625q-0.8125 -0.4375 -1.28125 -1.171875q-0.46875 -0.734375 -0.46875 -1.71875q0 -0.8125 0.3125 -1.453125q0.328125 -0.640625 0.890625 -1.09375q0.578125 -0.46875 1.359375 -0.703125q0.78125 -0.25 1.703125 -0.25zm2.84375 11.453125q0 -0.3125 -0.1875 -0.515625q-0.1875 -0.203125 -0.515625 -0.3125q-0.3125 -0.109375 -0.75 -0.15625q-0.4375 -0.0625 -0.9375 -0.078125q-0.484375 -0.03125 -1.0 -0.046875q-0.515625 -0.03125 -1.0 -0.09375q-0.4375 0.234375 -0.71875 0.5625q-0.265625 0.328125 -0.265625 0.765625q0 0.28125 0.140625 0.53125q0.140625 0.25 0.453125 0.421875q0.3125 0.1875 0.796875 0.28125q0.5 0.09375 1.21875 0.09375q0.71875 0 1.25 -0.109375q0.53125 -0.109375 0.859375 -0.3125q0.34375 -0.1875 0.5 -0.453125q0.15625 -0.265625 0.15625 -0.578125zm-2.84375 -6.140625q0.484375 0 0.84375 -0.125q0.359375 -0.125 0.59375 -0.359375q0.234375 -0.234375 0.359375 -0.5625q0.125 -0.328125 0.125 -0.703125q0 -0.8125 -0.484375 -1.265625q-0.484375 -0.46875 -1.4375 -0.46875q-0.953125 0 -1.4375 0.46875q-0.46875 0.453125 -0.46875 1.265625q0 0.375 0.109375 0.703125q0.125 0.3125 0.359375 0.5625q0.25 0.234375 0.609375 0.359375q0.359375 0.125 0.828125 0.125zm10.068481 -5.109375l0 10.765625l-2.59375 0l0 -10.765625l2.59375 0zm0.390625 -3.140625q0 0.328125 -0.140625 0.625q-0.125 0.296875 -0.359375 0.515625q-0.21875 0.21875 -0.53125 0.359375q-0.296875 0.125 -0.640625 0.125q-0.34375 0 -0.640625 -0.125q-0.296875 -0.140625 -0.515625 -0.359375q-0.21875 -0.21875 -0.359375 -0.515625q-0.125 -0.296875 -0.125 -0.625q0 -0.359375 0.125 -0.65625q0.140625 -0.3125 0.359375 -0.53125q0.21875 -0.21875 0.515625 -0.34375q0.296875 -0.140625 0.640625 -0.140625q0.34375 0 0.640625 0.140625q0.3125 0.125 0.53125 0.34375q0.234375 0.21875 0.359375 0.53125q0.140625 0.296875 0.140625 0.65625zm2.6392517 13.90625l0 -10.765625l1.578125 0q0.5 0 0.671875 0.46875l0.171875 0.84375q0.328125 -0.328125 0.6875 -0.59375q0.359375 -0.28125 0.765625 -0.484375q0.40625 -0.203125 0.859375 -0.296875q0.46875 -0.109375 1.015625 -0.109375q0.875 0 1.5625 0.296875q0.6875 0.296875 1.140625 0.84375q0.453125 0.53125 0.6875 1.28125q0.234375 0.75 0.234375 1.65625l0 6.859375l-2.59375 0l0 -6.859375q0 -0.984375 -0.453125 -1.515625q-0.453125 -0.546875 -1.359375 -0.546875q-0.671875 0 -1.265625 0.3125q-0.59375 0.296875 -1.109375 0.8125l0 7.796875l-2.59375 0zm16.578087 -10.9375q1.015625 0 1.859375 0.328125q0.859375 0.3125 1.484375 0.9375q0.625 0.625 0.96875 1.546875q0.34375 0.90625 0.34375 2.0625q0 0.296875 -0.03125 0.5q-0.015625 0.1875 -0.09375 0.296875q-0.0625 0.109375 -0.1875 0.15625q-0.109375 0.046875 -0.28125 0.046875l-6.6562576 0q0.109375 1.65625 0.8750076 2.4375q0.78125 0.78125 2.0625 0.78125q0.640625 0 1.09375 -0.140625q0.453125 -0.15625 0.796875 -0.328125q0.34375 -0.1875 0.59375 -0.328125q0.265625 -0.15625 0.5 -0.15625q0.15625 0 0.265625 0.0625q0.125 0.0625 0.21875 0.1875l0.75 0.9375q-0.4375 0.5 -0.96875 0.84375q-0.53125 0.34375 -1.125 0.546875q-0.578125 0.203125 -1.1875 0.28125q-0.59375 0.09375 -1.15625 0.09375q-1.125 0 -2.09375 -0.375q-0.9687576 -0.375 -1.6875076 -1.09375q-0.703125 -0.734375 -1.125 -1.8125q-0.40625 -1.078125 -0.40625 -2.5q0 -1.09375 0.359375 -2.0625q0.359375 -0.96875 1.015625 -1.6875q0.671875 -0.71875 1.6250076 -1.140625q0.96875 -0.421875 2.1875 -0.421875zm0.046875 1.859375q-1.140625 0 -1.78125 0.640625q-0.6406326 0.640625 -0.8125076 1.8125l4.8750076 0q0 -0.5 -0.140625 -0.9375q-0.140625 -0.453125 -0.421875 -0.78125q-0.28125 -0.34375 -0.71875 -0.53125q-0.421875 -0.203125 -1.0 -0.203125zm11.352921 -1.859375q1.015625 0 1.859375 0.328125q0.859375 0.3125 1.484375 0.9375q0.625 0.625 0.96875 1.546875q0.34375 0.90625 0.34375 2.0625q0 0.296875 -0.03125 0.5q-0.015625 0.1875 -0.09375 0.296875q-0.0625 0.109375 -0.1875 0.15625q-0.109375 0.046875 -0.28125 0.046875l-6.65625 0q0.109375 1.65625 0.875 2.4375q0.78125 0.78125 2.0625 0.78125q0.640625 0 1.09375 -0.140625q0.453125 -0.15625 0.796875 -0.328125q0.34375 -0.1875 0.59375 -0.328125q0.265625 -0.15625 0.5 -0.15625q0.15625 0 0.265625 0.0625q0.125 0.0625 0.21875 0.1875l0.75 0.9375q-0.4375 0.5 -0.96875 0.84375q-0.53125 0.34375 -1.125 0.546875q-0.578125 0.203125 -1.1875 0.28125q-0.59375 0.09375 -1.15625 0.09375q-1.125 0 -2.09375 -0.375q-0.96875 -0.375 -1.6875 -1.09375q-0.703125 -0.734375 -1.125 -1.8125q-0.40625 -1.078125 -0.40625 -2.5q0 -1.09375 0.359375 -2.0625q0.359375 -0.96875 1.015625 -1.6875q0.671875 -0.71875 1.625 -1.140625q0.96875 -0.421875 2.1875 -0.421875zm0.046875 1.859375q-1.140625 0 -1.78125 0.640625q-0.640625 0.640625 -0.8125 1.8125l4.875 0q0 -0.5 -0.140625 -0.9375q-0.140625 -0.453125 -0.421875 -0.78125q-0.28125 -0.34375 -0.71875 -0.53125q-0.421875 -0.203125 -1.0 -0.203125zm6.8997955 9.078125l0 -10.765625l1.515625 0q0.40625 0 0.5625 0.140625q0.15625 0.140625 0.203125 0.5l0.15625 1.3125q0.578125 -1.0 1.359375 -1.578125q0.78125 -0.578125 1.75 -0.578125q0.796875 0 1.3125 0.359375l-0.328125 1.953125q-0.03125 0.1875 -0.140625 0.265625q-0.109375 0.078125 -0.28125 0.078125q-0.15625 0 -0.4375 -0.078125q-0.265625 -0.078125 -0.71875 -0.078125q-0.8125 0 -1.390625 0.453125q-0.578125 0.4375 -0.96875 1.3125l0 6.703125l-2.59375 0z" fill-rule="nonzero"></path><path fill="#000000" fill-opacity="0.0" d="m150.16011 62.183727l155.27559 0l0 65.16536l-155.27559 0z" fill-rule="nonzero"></path><path fill="#ffffff" d="m172.84761 99.212654q0.25 0 0.453125 0.203125l1.265625 1.375q-1.046875 1.3125 -2.59375 2.015625q-1.546875 0.6875 -3.703125 0.6875q-1.9375 0 -3.484375 -0.65625q-1.53125 -0.65625 -2.625 -1.828125q-1.09375 -1.1875 -1.671875 -2.8125q-0.578125 -1.640625 -0.578125 -3.5625q0 -1.953125 0.640625 -3.578125q0.65625 -1.640625 1.828125 -2.8125q1.171875 -1.171875 2.8125 -1.828125q1.640625 -0.65625 3.609375 -0.65625q1.9375 0 3.375 0.625q1.453125 0.609375 2.484375 1.640625l-1.078125 1.5q-0.09375 0.140625 -0.25 0.25q-0.140625 0.109375 -0.40625 0.109375q-0.28125 0 -0.578125 -0.21875q-0.28125 -0.21875 -0.71875 -0.46875q-0.4375 -0.25 -1.125 -0.46875q-0.671875 -0.21875 -1.71875 -0.21875q-1.21875 0 -2.25 0.4375q-1.03125 0.421875 -1.765625 1.21875q-0.734375 0.78125 -1.15625 1.921875q-0.40625 1.125 -0.40625 2.546875q0 1.453125 0.40625 2.59375q0.421875 1.140625 1.125 1.921875q0.703125 0.78125 1.65625 1.203125q0.96875 0.40625 2.078125 0.40625q0.65625 0 1.1875 -0.0625q0.546875 -0.078125 0.984375 -0.234375q0.453125 -0.15625 0.859375 -0.390625q0.40625 -0.25 0.796875 -0.625q0.125 -0.09375 0.25 -0.15625q0.140625 -0.078125 0.296875 -0.078125zm7.7952423 4.09375l-3.25 0l0 -17.359375l3.25 0l0 17.359375zm7.2391815 -6.78125l0 6.78125l-3.234375 0l0 -17.359375l5.296875 0q1.765625 0 3.03125 0.375q1.265625 0.359375 2.078125 1.03125q0.8125 0.65625 1.1875 1.578125q0.390625 0.90625 0.390625 2.015625q0 0.875 -0.265625 1.65625q-0.265625 0.78125 -0.75 1.421875q-0.484375 0.625 -1.203125 1.109375q-0.703125 0.484375 -1.609375 0.765625q0.609375 0.34375 1.046875 1.0l4.34375 6.40625l-2.90625 0q-0.421875 0 -0.71875 -0.171875q-0.28125 -0.171875 -0.484375 -0.46875l-3.65625 -5.5625q-0.203125 -0.3125 -0.453125 -0.4375q-0.234375 -0.140625 -0.71875 -0.140625l-1.375 0zm0 -2.3125l2.015625 0q0.90625 0 1.578125 -0.21875q0.6875 -0.234375 1.125 -0.640625q0.4375 -0.40625 0.65625 -0.953125q0.21875 -0.546875 0.21875 -1.21875q0 -1.3125 -0.875 -2.015625q-0.875 -0.71875 -2.65625 -0.71875l-2.0625 0l0 5.765625zm24.313858 5.0q0.25 0 0.453125 0.203125l1.265625 1.375q-1.046875 1.3125 -2.59375 2.015625q-1.546875 0.6875 -3.703125 0.6875q-1.9375 0 -3.484375 -0.65625q-1.53125 -0.65625 -2.625 -1.828125q-1.09375 -1.1875 -1.671875 -2.8125q-0.578125 -1.640625 -0.578125 -3.5625q0 -1.953125 0.640625 -3.578125q0.65625 -1.640625 1.828125 -2.8125q1.171875 -1.171875 2.8125 -1.828125q1.640625 -0.65625 3.609375 -0.65625q1.9375 0 3.375 0.625q1.453125 0.609375 2.484375 1.640625l-1.078125 1.5q-0.09375 0.140625 -0.25 0.25q-0.140625 0.109375 -0.40625 0.109375q-0.28125 0 -0.578125 -0.21875q-0.28125 -0.21875 -0.71875 -0.46875q-0.4375 -0.25 -1.125 -0.46875q-0.671875 -0.21875 -1.71875 -0.21875q-1.21875 0 -2.25 0.4375q-1.03125 0.421875 -1.765625 1.21875q-0.734375 0.78125 -1.15625 1.921875q-0.40625 1.125 -0.40625 2.546875q0 1.453125 0.40625 2.59375q0.421875 1.140625 1.125 1.921875q0.703125 0.78125 1.65625 1.203125q0.96875 0.40625 2.078125 0.40625q0.65625 0 1.1875 -0.0625q0.546875 -0.078125 0.984375 -0.234375q0.453125 -0.15625 0.859375 -0.390625q0.40625 -0.25 0.796875 -0.625q0.125 -0.09375 0.25 -0.15625q0.140625 -0.078125 0.296875 -0.078125zm11.138992 1.484375q0.9375 0 1.671875 -0.3125q0.734375 -0.3125 1.25 -0.875q0.515625 -0.5625 0.78125 -1.359375q0.265625 -0.8125 0.265625 -1.796875l0 -10.40625l3.234375 0l0 10.40625q0 1.546875 -0.5 2.859375q-0.5 1.3125 -1.4375 2.265625q-0.9375 0.953125 -2.265625 1.484375q-1.328125 0.53125 -3.0 0.53125q-1.671875 0 -3.0 -0.53125q-1.328125 -0.53125 -2.265625 -1.484375q-0.921875 -0.953125 -1.421875 -2.265625q-0.5 -1.3125 -0.5 -2.859375l0 -10.40625l3.234375 0l0 10.390625q0 1.0 0.265625 1.796875q0.265625 0.796875 0.765625 1.375q0.515625 0.5625 1.25 0.875q0.734375 0.3125 1.671875 0.3125zm14.128372 2.609375l-3.25 0l0 -17.359375l3.25 0l0 17.359375zm16.129807 -17.359375l0 2.65625l-5.21875 0l0 14.703125l-3.234375 0l0 -14.703125l-5.25 0l0 -2.65625l13.703125 0z" fill-rule="nonzero"></path><path fill="#cccccc" d="m213.46194 370.19946l0 0c0 -98.35016 79.72858 -178.07874 178.07874 -178.07874l0 0c47.22943 0 92.524445 18.761826 125.920685 52.158066c33.39624 33.396225 52.15808 78.69127 52.15808 125.92067l0 0c0 98.35019 -79.72858 178.07874 -178.07877 178.07874l0 0c-98.35016 0 -178.07874 -79.728546 -178.07874 -178.07874z" fill-rule="nonzero"></path><path fill="#000000" fill-opacity="0.0" d="m239.5328 256.44095l155.2756 0l0 65.165344l-155.2756 0z" fill-rule="nonzero"></path><path fill="#ffffff" d="m310.65045 297.56363l-2.484375 0q-0.421875 0 -0.703125 -0.203125q-0.265625 -0.21875 -0.390625 -0.53125l-1.296875 -3.53125l-7.1875 0l-1.296875 3.53125q-0.09375 0.28125 -0.375 0.515625q-0.28125 0.21875 -0.6875 0.21875l-2.5 0l6.8125 -17.359375l3.296875 0l6.8125 17.359375zm-11.234375 -6.546875l5.53125 0l-2.109375 -5.78125q-0.140625 -0.375 -0.3125 -0.890625q-0.171875 -0.53125 -0.34375 -1.140625q-0.171875 0.609375 -0.328125 1.140625q-0.15625 0.515625 -0.3125 0.921875l-2.125 5.75zm16.368225 0.4375l0 6.109375l-3.234375 0l0 -17.359375l5.65625 0q1.734375 0 3.0 0.421875q1.28125 0.40625 2.109375 1.140625q0.828125 0.71875 1.21875 1.75q0.40625 1.015625 0.40625 2.234375q0 1.25 -0.421875 2.3125q-0.421875 1.046875 -1.265625 1.796875q-0.84375 0.75 -2.109375 1.171875q-1.25 0.421875 -2.9375 0.421875l-2.421875 0zm0 -2.515625l2.421875 0q0.890625 0 1.546875 -0.21875q0.65625 -0.234375 1.078125 -0.640625q0.4375 -0.421875 0.65625 -1.015625q0.21875 -0.59375 0.21875 -1.3125q0 -0.703125 -0.21875 -1.265625q-0.21875 -0.5625 -0.65625 -0.953125q-0.421875 -0.40625 -1.078125 -0.609375q-0.65625 -0.21875 -1.546875 -0.21875l-2.421875 0l0 6.234375zm15.000122 2.515625l0 6.109375l-3.234375 0l0 -17.359375l5.65625 0q1.734375 0 3.0 0.421875q1.28125 0.40625 2.109375 1.140625q0.828125 0.71875 1.21875 1.75q0.40625 1.015625 0.40625 2.234375q0 1.25 -0.421875 2.3125q-0.421875 1.046875 -1.265625 1.796875q-0.84375 0.75 -2.109375 1.171875q-1.25 0.421875 -2.9375 0.421875l-2.421875 0zm0 -2.515625l2.421875 0q0.890625 0 1.546875 -0.21875q0.65625 -0.234375 1.078125 -0.640625q0.4375 -0.421875 0.65625 -1.015625q0.21875 -0.59375 0.21875 -1.3125q0 -0.703125 -0.21875 -1.265625q-0.21875 -0.5625 -0.65625 -0.953125q-0.421875 -0.40625 -1.078125 -0.609375q-0.65625 -0.21875 -1.546875 -0.21875l-2.421875 0l0 6.234375z" fill-rule="nonzero"></path><path fill="#666666" d="m401.71915 340.88977l0 0c0 -39.494904 32.016937 -71.51181 71.51181 -71.51181l0 0c18.966125 0 37.155426 7.5342407 50.56653 20.945312c13.411011 13.411072 20.945312 31.600372 20.945312 50.566498l0 0c0 39.494873 -32.016968 71.51181 -71.51184 71.51181l0 0c-39.494873 0 -71.51181 -32.016937 -71.51181 -71.51181z" fill-rule="nonzero"></path><path fill="#000000" fill-opacity="0.0" d="m460.26773 288.03937l143.02359 0l0 65.165344l-143.02359 0z" fill-rule="nonzero"></path><path fill="#ffffff" d="m476.90836 325.8208q0.828125 0 1.46875 -0.265625q0.640625 -0.28125 1.078125 -0.765625q0.453125 -0.5 0.6875 -1.203125q0.25 -0.703125 0.25 -1.578125l0 -9.09375l2.8125 0l0 9.09375q0 1.359375 -0.4375 2.515625q-0.421875 1.140625 -1.25 1.984375q-0.8125 0.828125 -1.984375 1.296875q-1.15625 0.46875 -2.625 0.46875q-1.453125 0 -2.625 -0.46875q-1.15625 -0.46875 -1.984375 -1.296875q-0.8125 -0.84375 -1.25 -1.984375q-0.421875 -1.15625 -0.421875 -2.515625l0 -9.09375l2.8125 0l0 9.09375q0 0.859375 0.234375 1.5625q0.25 0.703125 0.6875 1.203125q0.4375 0.5 1.078125 0.78125q0.65625 0.265625 1.46875 0.265625zm15.667389 -6.390625q-0.109375 0.171875 -0.234375 0.234375q-0.109375 0.0625 -0.28125 0.0625q-0.1875 0 -0.40625 -0.09375q-0.21875 -0.109375 -0.5 -0.234375q-0.28125 -0.140625 -0.640625 -0.234375q-0.359375 -0.109375 -0.859375 -0.109375q-0.765625 0 -1.203125 0.328125q-0.4375 0.3125 -0.4375 0.84375q0 0.34375 0.21875 0.578125q0.234375 0.234375 0.59375 0.421875q0.375 0.171875 0.84375 0.3125q0.484375 0.140625 0.96875 0.3125q0.5 0.171875 0.96875 0.390625q0.46875 0.203125 0.84375 0.546875q0.375 0.328125 0.59375 0.796875q0.234375 0.453125 0.234375 1.109375q0 0.765625 -0.28125 1.421875q-0.28125 0.65625 -0.828125 1.140625q-0.546875 0.46875 -1.359375 0.75q-0.796875 0.265625 -1.84375 0.265625q-0.546875 0 -1.078125 -0.109375q-0.53125 -0.09375 -1.03125 -0.265625q-0.484375 -0.1875 -0.90625 -0.421875q-0.40625 -0.25 -0.71875 -0.53125l0.609375 -0.984375q0.109375 -0.1875 0.265625 -0.28125q0.15625 -0.09375 0.40625 -0.09375q0.234375 0 0.453125 0.140625q0.21875 0.140625 0.5 0.296875q0.28125 0.15625 0.65625 0.296875q0.390625 0.125 0.984375 0.125q0.453125 0 0.78125 -0.109375q0.328125 -0.109375 0.546875 -0.28125q0.21875 -0.171875 0.3125 -0.40625q0.109375 -0.25 0.109375 -0.5q0 -0.375 -0.234375 -0.609375q-0.21875 -0.25 -0.59375 -0.421875q-0.375 -0.1875 -0.859375 -0.328125q-0.46875 -0.140625 -0.96875 -0.296875q-0.5 -0.171875 -0.984375 -0.390625q-0.46875 -0.234375 -0.84375 -0.578125q-0.375 -0.359375 -0.609375 -0.859375q-0.21875 -0.5 -0.21875 -1.21875q0 -0.65625 0.265625 -1.25q0.265625 -0.609375 0.765625 -1.046875q0.515625 -0.453125 1.28125 -0.71875q0.765625 -0.265625 1.75 -0.265625q1.125 0 2.03125 0.375q0.921875 0.359375 1.53125 0.953125l-0.59375 0.9375zm7.3828125 -2.265625q1.015625 0 1.859375 0.328125q0.859375 0.3125 1.484375 0.9375q0.625 0.625 0.96875 1.546875q0.34375 0.90625 0.34375 2.0625q0 0.296875 -0.03125 0.5q-0.015625 0.1875 -0.09375 0.296875q-0.0625 0.109375 -0.1875 0.15625q-0.109375 0.046875 -0.28125 0.046875l-6.65625 0q0.109375 1.65625 0.875 2.4375q0.78125 0.78125 2.0625 0.78125q0.640625 0 1.09375 -0.140625q0.453125 -0.15625 0.796875 -0.328125q0.34375 -0.1875 0.59375 -0.328125q0.265625 -0.15625 0.5 -0.15625q0.15625 0 0.265625 0.0625q0.125 0.0625 0.21875 0.1875l0.75 0.9375q-0.4375 0.5 -0.96875 0.84375q-0.53125 0.34375 -1.125 0.546875q-0.578125 0.203125 -1.1875 0.28125q-0.59375 0.09375 -1.15625 0.09375q-1.125 0 -2.09375 -0.375q-0.96875 -0.375 -1.6875 -1.09375q-0.703125 -0.734375 -1.125 -1.8125q-0.40625 -1.078125 -0.40625 -2.5q0 -1.09375 0.359375 -2.0625q0.359375 -0.96875 1.015625 -1.6875q0.671875 -0.71875 1.625 -1.140625q0.96875 -0.421875 2.1875 -0.421875zm0.046875 1.859375q-1.140625 0 -1.78125 0.640625q-0.640625 0.640625 -0.8125 1.8125l4.875 0q0 -0.5 -0.140625 -0.9375q-0.140625 -0.453125 -0.421875 -0.78125q-0.28125 -0.34375 -0.71875 -0.53125q-0.421875 -0.203125 -1.0 -0.203125zm6.899811 9.078125l0 -10.765625l1.515625 0q0.40625 0 0.5625 0.140625q0.15625 0.140625 0.203125 0.5l0.15625 1.3125q0.578125 -1.0 1.359375 -1.578125q0.78125 -0.578125 1.7499695 -0.578125q0.796875 0 1.3125 0.359375l-0.328125 1.953125q-0.03125 0.1875 -0.140625 0.265625q-0.109375 0.078125 -0.28125 0.078125q-0.15625 0 -0.4375 -0.078125q-0.265625 -0.078125 -0.7187195 -0.078125q-0.8125 0 -1.390625 0.453125q-0.578125 0.4375 -0.96875 1.3125l0 6.703125l-2.59375 0z" fill-rule="nonzero"></path><path fill="#666666" d="m305.5223 462.6719l0 0c0 -39.494873 32.016937 -71.51181 71.51181 -71.51181l0 0c18.966125 0 37.155426 7.5342712 50.566498 20.945343c13.411072 13.411072 20.945312 31.600372 20.945312 50.566467l0 0c0 39.494904 -32.016937 71.51181 -71.51181 71.51181l0 0c-39.494873 0 -71.51181 -32.016907 -71.51181 -71.51181z" fill-rule="nonzero"></path><path fill="#000000" fill-opacity="0.0" d="m318.1601 446.18372l184.34647 0l0 65.165375l-184.34647 0z" fill-rule="nonzero"></path><path fill="#f3f3f3" d="m342.17572 465.65265q0 1.671875 -0.5625 3.078125q-0.546875 1.390625 -1.5625 2.40625q-1.0 1.0 -2.421875 1.5625q-1.421875 0.546875 -3.140625 0.546875l-5.796875 0l0 -15.1875l5.796875 0q1.71875 0 3.140625 0.5625q1.421875 0.5625 2.421875 1.578125q1.015625 1.0 1.5625 2.390625q0.5625 1.390625 0.5625 3.0625zm-2.890625 0q0 -1.25 -0.34375 -2.234375q-0.328125 -1.0 -0.953125 -1.6875q-0.609375 -0.6875 -1.5 -1.046875q-0.890625 -0.375 -2.0 -0.375l-2.953125 0l0 10.6875l2.953125 0q1.109375 0 2.0 -0.359375q0.890625 -0.375 1.5 -1.0625q0.625 -0.6875 0.953125 -1.671875q0.34375 -1.0 0.34375 -2.25zm9.661407 -3.34375q1.015625 0 1.859375 0.328125q0.859375 0.3125 1.484375 0.9375q0.625 0.625 0.96875 1.546875q0.34375 0.90625 0.34375 2.0625q0 0.296875 -0.03125 0.5q-0.015625 0.1875 -0.09375 0.296875q-0.0625 0.109375 -0.1875 0.15625q-0.109375 0.046875 -0.28125 0.046875l-6.65625 0q0.109375 1.65625 0.875 2.4375q0.78125 0.78125 2.0625 0.78125q0.640625 0 1.09375 -0.140625q0.453125 -0.15625 0.796875 -0.328125q0.34375 -0.1875 0.59375 -0.328125q0.265625 -0.15625 0.5 -0.15625q0.15625 0 0.265625 0.0625q0.125 0.0625 0.21875 0.1875l0.75 0.9375q-0.4375 0.5 -0.96875 0.84375q-0.53125 0.34375 -1.125 0.546875q-0.578125 0.203125 -1.1875 0.28125q-0.59375 0.09375 -1.15625 0.09375q-1.125 0 -2.09375 -0.375q-0.96875 -0.375 -1.6875 -1.09375q-0.703125 -0.734375 -1.125 -1.8125q-0.40625 -1.078125 -0.40625 -2.5q0 -1.09375 0.359375 -2.0625q0.359375 -0.96875 1.015625 -1.6875q0.671875 -0.71875 1.625 -1.140625q0.96875 -0.421875 2.1875 -0.421875zm0.046875 1.859375q-1.140625 0 -1.78125 0.640625q-0.640625 0.640625 -0.8125 1.8125l4.875 0q0 -0.5 -0.140625 -0.9375q-0.140625 -0.453125 -0.421875 -0.78125q-0.28125 -0.34375 -0.71875 -0.53125q-0.421875 -0.203125 -1.0 -0.203125zm12.290436 9.078125l-2.34375 0l-4.296875 -10.765625l2.15625 0q0.28125 0 0.46875 0.140625q0.203125 0.125 0.28125 0.328125l2.078125 5.765625q0.171875 0.5 0.296875 0.984375q0.125 0.484375 0.21875 0.96875q0.09375 -0.484375 0.203125 -0.96875q0.125 -0.484375 0.3125 -0.984375l2.140625 -5.765625q0.078125 -0.203125 0.265625 -0.328125q0.1875 -0.140625 0.453125 -0.140625l2.046875 0l-4.28125 10.765625zm10.440979 -10.9375q1.015625 0 1.859375 0.328125q0.859375 0.3125 1.484375 0.9375q0.625 0.625 0.96875 1.546875q0.34375 0.90625 0.34375 2.0625q0 0.296875 -0.03125 0.5q-0.015625 0.1875 -0.09375 0.296875q-0.0625 0.109375 -0.1875 0.15625q-0.109375 0.046875 -0.28125 0.046875l-6.65625 0q0.109375 1.65625 0.875 2.4375q0.78125 0.78125 2.0625 0.78125q0.640625 0 1.09375 -0.140625q0.453125 -0.15625 0.796875 -0.328125q0.34375 -0.1875 0.59375 -0.328125q0.265625 -0.15625 0.5 -0.15625q0.15625 0 0.265625 0.0625q0.125 0.0625 0.21875 0.1875l0.75 0.9375q-0.4375 0.5 -0.96875 0.84375q-0.53125 0.34375 -1.125 0.546875q-0.578125 0.203125 -1.1875 0.28125q-0.59375 0.09375 -1.15625 0.09375q-1.125 0 -2.09375 -0.375q-0.96875 -0.375 -1.6875 -1.09375q-0.703125 -0.734375 -1.125 -1.8125q-0.40625 -1.078125 -0.40625 -2.5q0 -1.09375 0.359375 -2.0625q0.359375 -0.96875 1.015625 -1.6875q0.671875 -0.71875 1.625 -1.140625q0.96875 -0.421875 2.1875 -0.421875zm0.046875 1.859375q-1.140625 0 -1.78125 0.640625q-0.640625 0.640625 -0.8125 1.8125l4.875 0q0 -0.5 -0.140625 -0.9375q-0.140625 -0.453125 -0.421875 -0.78125q-0.28125 -0.34375 -0.71875 -0.53125q-0.421875 -0.203125 -1.0 -0.203125zm9.64978 -6.53125l0 15.609375l-2.59375 0l0 -15.609375l2.59375 0zm7.6236267 4.671875q1.203125 0 2.1875 0.390625q0.984375 0.390625 1.671875 1.109375q0.703125 0.703125 1.078125 1.734375q0.375 1.03125 0.375 2.296875q0 1.28125 -0.375 2.3125q-0.375 1.03125 -1.078125 1.75q-0.6875 0.71875 -1.671875 1.109375q-0.984375 0.390625 -2.1875 0.390625q-1.203125 0 -2.203125 -0.390625q-0.984375 -0.390625 -1.6875 -1.109375q-0.6875 -0.71875 -1.078125 -1.75q-0.375 -1.03125 -0.375 -2.3125q0 -1.265625 0.375 -2.296875q0.390625 -1.03125 1.078125 -1.734375q0.703125 -0.71875 1.6875 -1.109375q1.0 -0.390625 2.203125 -0.390625zm0 9.09375q1.34375 0 1.984375 -0.890625q0.65625 -0.90625 0.65625 -2.65625q0 -1.734375 -0.65625 -2.640625q-0.640625 -0.921875 -1.984375 -0.921875q-1.359375 0 -2.015625 0.921875q-0.65625 0.90625 -0.65625 2.640625q0 1.734375 0.65625 2.640625q0.65625 0.90625 2.015625 0.90625zm7.5312195 5.359375l0 -14.28125l1.578125 0q0.25 0 0.421875 0.109375q0.1875 0.109375 0.25 0.359375l0.203125 1.0q0.65625 -0.75 1.5 -1.203125q0.84375 -0.46875 1.96875 -0.46875q0.890625 0 1.609375 0.375q0.734375 0.359375 1.265625 1.0625q0.53125 0.6875 0.8125 1.71875q0.296875 1.015625 0.296875 2.34375q0 1.203125 -0.328125 2.234375q-0.328125 1.03125 -0.9375 1.796875q-0.59375 0.75 -1.453125 1.171875q-0.84375 0.421875 -1.90625 0.421875q-0.921875 0 -1.5625 -0.28125q-0.625 -0.28125 -1.125 -0.765625l0 4.40625l-2.59375 0zm5.03125 -12.4375q-0.796875 0 -1.375 0.34375q-0.578125 0.328125 -1.0625 0.953125l0 4.828125q0.4375 0.546875 0.953125 0.765625q0.515625 0.21875 1.125 0.21875q0.578125 0 1.0625 -0.21875q0.484375 -0.21875 0.8125 -0.671875q0.328125 -0.453125 0.5 -1.140625q0.1875 -0.6875 0.1875 -1.625q0 -0.953125 -0.15625 -1.609375q-0.15625 -0.65625 -0.4375 -1.0625q-0.28125 -0.40625 -0.6875 -0.59375q-0.40625 -0.1875 -0.921875 -0.1875zm9.779724 -1.84375l0 10.765625l-2.59375 0l0 -10.765625l2.59375 0zm0.390625 -3.140625q0 0.328125 -0.140625 0.625q-0.125 0.296875 -0.359375 0.515625q-0.21875 0.21875 -0.53125 0.359375q-0.296875 0.125 -0.640625 0.125q-0.34375 0 -0.640625 -0.125q-0.296875 -0.140625 -0.515625 -0.359375q-0.21875 -0.21875 -0.359375 -0.515625q-0.125 -0.296875 -0.125 -0.625q0 -0.359375 0.125 -0.65625q0.140625 -0.3125 0.359375 -0.53125q0.21875 -0.21875 0.515625 -0.34375q0.296875 -0.140625 0.640625 -0.140625q0.34375 0 0.640625 0.140625q0.3125 0.125 0.53125 0.34375q0.234375 0.21875 0.359375 0.53125q0.140625 0.296875 0.140625 0.65625zm2.6392517 13.90625l0 -10.765625l1.578125 0q0.5 0 0.671875 0.46875l0.171875 0.84375q0.328125 -0.328125 0.6875 -0.59375q0.359375 -0.28125 0.765625 -0.484375q0.40625 -0.203125 0.859375 -0.296875q0.46875 -0.109375 1.015625 -0.109375q0.875 0 1.5625 0.296875q0.6875 0.296875 1.140625 0.84375q0.453125 0.53125 0.6875 1.28125q0.234375 0.75 0.234375 1.65625l0 6.859375l-2.59375 0l0 -6.859375q0 -0.984375 -0.453125 -1.515625q-0.453125 -0.546875 -1.359375 -0.546875q-0.671875 0 -1.265625 0.3125q-0.59375 0.296875 -1.109375 0.8125l0 7.796875l-2.59375 0zm15.843689 -10.96875q0.703125 0 1.3125 0.15625q0.609375 0.140625 1.109375 0.40625l3.09375 0l0 0.96875q0 0.234375 -0.125 0.375q-0.125 0.140625 -0.4375 0.1875l-0.953125 0.1875q0.09375 0.265625 0.15625 0.578125q0.0625 0.296875 0.0625 0.640625q0 0.796875 -0.328125 1.4375q-0.3125 0.640625 -0.875 1.09375q-0.5625 0.453125 -1.34375 0.703125q-0.765625 0.25 -1.671875 0.25q-0.609375 0 -1.1875 -0.125q-0.5 0.3125 -0.5 0.6875q0 0.328125 0.296875 0.484375q0.296875 0.140625 0.78125 0.203125q0.5 0.0625 1.109375 0.078125q0.625 0.015625 1.265625 0.078125q0.65625 0.046875 1.28125 0.1875q0.625 0.125 1.109375 0.40625q0.484375 0.28125 0.78125 0.78125q0.3125 0.484375 0.3125 1.25q0 0.703125 -0.359375 1.375q-0.34375 0.671875 -1.015625 1.203125q-0.671875 0.53125 -1.640625 0.84375q-0.953125 0.328125 -2.203125 0.328125q-1.21875 0 -2.125 -0.25q-0.90625 -0.234375 -1.5 -0.625q-0.59375 -0.390625 -0.890625 -0.90625q-0.28125 -0.515625 -0.28125 -1.078125q0 -0.75 0.453125 -1.265625q0.46875 -0.515625 1.28125 -0.8125q-0.390625 -0.21875 -0.640625 -0.578125q-0.234375 -0.375 -0.234375 -0.96875q0 -0.234375 0.078125 -0.484375q0.078125 -0.265625 0.25 -0.515625q0.1875 -0.265625 0.4375 -0.484375q0.265625 -0.234375 0.625 -0.40625q-0.8125 -0.4375 -1.28125 -1.171875q-0.46875 -0.734375 -0.46875 -1.71875q0 -0.8125 0.3125 -1.453125q0.328125 -0.640625 0.890625 -1.09375q0.578125 -0.46875 1.359375 -0.703125q0.78125 -0.25 1.703125 -0.25zm2.84375 11.453125q0 -0.3125 -0.1875 -0.515625q-0.1875 -0.203125 -0.515625 -0.3125q-0.3125 -0.109375 -0.75 -0.15625q-0.4375 -0.0625 -0.9375 -0.078125q-0.484375 -0.03125 -1.0 -0.046875q-0.515625 -0.03125 -1.0 -0.09375q-0.4375 0.234375 -0.71875 0.5625q-0.265625 0.328125 -0.265625 0.765625q0 0.28125 0.140625 0.53125q0.140625 0.25 0.453125 0.421875q0.3125 0.1875 0.796875 0.28125q0.5 0.09375 1.21875 0.09375q0.71875 0 1.25 -0.109375q0.53125 -0.109375 0.859375 -0.3125q0.34375 -0.1875 0.5 -0.453125q0.15625 -0.265625 0.15625 -0.578125zm-2.84375 -6.140625q0.484375 0 0.84375 -0.125q0.359375 -0.125 0.59375 -0.359375q0.234375 -0.234375 0.359375 -0.5625q0.125 -0.328125 0.125 -0.703125q0 -0.8125 -0.484375 -1.265625q-0.484375 -0.46875 -1.4375 -0.46875q-0.953125 0 -1.4375 0.46875q-0.46875 0.453125 -0.46875 1.265625q0 0.375 0.109375 0.703125q0.125 0.3125 0.359375 0.5625q0.25 0.234375 0.609375 0.359375q0.359375 0.125 0.828125 0.125z" fill-rule="nonzero"></path><path fill="#f3f3f3" d="m338.26947 484.0589l0 2.25l-6.734375 0l0 4.21875l5.3125 0l0 2.171875l-5.3125 0l0 4.296875l6.734375 0l0 2.25l-9.578125 0l0 -15.1875l9.578125 0zm2.491516 15.1875l0 -10.765625l1.578125 0q0.5 0 0.671875 0.46875l0.171875 0.84375q0.328125 -0.328125 0.6875 -0.59375q0.359375 -0.28125 0.765625 -0.484375q0.40625 -0.203125 0.859375 -0.296875q0.46875 -0.109375 1.015625 -0.109375q0.875 0 1.5625 0.296875q0.6875 0.296875 1.140625 0.84375q0.453125 0.53125 0.6875 1.28125q0.234375 0.75 0.234375 1.65625l0 6.859375l-2.59375 0l0 -6.859375q0 -0.984375 -0.453125 -1.515625q-0.453125 -0.546875 -1.359375 -0.546875q-0.671875 0 -1.265625 0.3125q-0.59375 0.296875 -1.109375 0.8125l0 7.796875l-2.59375 0zm15.8437195 -10.96875q0.703125 0 1.3125 0.15625q0.609375 0.140625 1.109375 0.40625l3.09375 0l0 0.96875q0 0.234375 -0.125 0.375q-0.125 0.140625 -0.4375 0.1875l-0.953125 0.1875q0.09375 0.265625 0.15625 0.578125q0.0625 0.296875 0.0625 0.640625q0 0.796875 -0.328125 1.4375q-0.3125 0.640625 -0.875 1.09375q-0.5625 0.453125 -1.34375 0.703125q-0.765625 0.25 -1.671875 0.25q-0.609375 0 -1.1875 -0.125q-0.5 0.3125 -0.5 0.6875q0 0.328125 0.296875 0.484375q0.296875 0.140625 0.78125 0.203125q0.5 0.0625 1.109375 0.078125q0.625 0.015625 1.265625 0.078125q0.65625 0.046875 1.28125 0.1875q0.625 0.125 1.109375 0.40625q0.484375 0.28125 0.78125 0.78125q0.3125 0.484375 0.3125 1.25q0 0.703125 -0.359375 1.375q-0.34375 0.671875 -1.015625 1.203125q-0.671875 0.53125 -1.640625 0.84375q-0.953125 0.328125 -2.203125 0.328125q-1.21875 0 -2.125 -0.25q-0.90625 -0.234375 -1.5 -0.625q-0.59375 -0.390625 -0.890625 -0.90625q-0.28125 -0.515625 -0.28125 -1.078125q0 -0.75 0.453125 -1.265625q0.46875 -0.515625 1.28125 -0.8125q-0.390625 -0.21875 -0.640625 -0.578125q-0.234375 -0.375 -0.234375 -0.96875q0 -0.234375 0.078125 -0.484375q0.078125 -0.265625 0.25 -0.515625q0.1875 -0.265625 0.4375 -0.484375q0.265625 -0.234375 0.625 -0.40625q-0.8125 -0.4375 -1.28125 -1.171875q-0.46875 -0.734375 -0.46875 -1.71875q0 -0.8125 0.3125 -1.453125q0.328125 -0.640625 0.890625 -1.09375q0.578125 -0.46875 1.359375 -0.703125q0.78125 -0.25 1.703125 -0.25zm2.84375 11.453125q0 -0.3125 -0.1875 -0.515625q-0.1875 -0.203125 -0.515625 -0.3125q-0.3125 -0.109375 -0.75 -0.15625q-0.4375 -0.0625 -0.9375 -0.078125q-0.484375 -0.03125 -1.0 -0.046875q-0.515625 -0.03125 -1.0 -0.09375q-0.4375 0.234375 -0.71875 0.5625q-0.265625 0.328125 -0.265625 0.765625q0 0.28125 0.140625 0.53125q0.140625 0.25 0.453125 0.421875q0.3125 0.1875 0.796875 0.28125q0.5 0.09375 1.21875 0.09375q0.71875 0 1.25 -0.109375q0.53125 -0.109375 0.859375 -0.3125q0.34375 -0.1875 0.5 -0.453125q0.15625 -0.265625 0.15625 -0.578125zm-2.84375 -6.140625q0.484375 0 0.84375 -0.125q0.359375 -0.125 0.59375 -0.359375q0.234375 -0.234375 0.359375 -0.5625q0.125 -0.328125 0.125 -0.703125q0 -0.8125 -0.484375 -1.265625q-0.484375 -0.46875 -1.4375 -0.46875q-0.953125 0 -1.4375 0.46875q-0.46875 0.453125 -0.46875 1.265625q0 0.375 0.109375 0.703125q0.125 0.3125 0.359375 0.5625q0.25 0.234375 0.609375 0.359375q0.359375 0.125 0.828125 0.125zm10.068481 -5.109375l0 10.765625l-2.59375 0l0 -10.765625l2.59375 0zm0.390625 -3.140625q0 0.328125 -0.140625 0.625q-0.125 0.296875 -0.359375 0.515625q-0.21875 0.21875 -0.53125 0.359375q-0.296875 0.125 -0.640625 0.125q-0.34375 0 -0.640625 -0.125q-0.296875 -0.140625 -0.515625 -0.359375q-0.21875 -0.21875 -0.359375 -0.515625q-0.125 -0.296875 -0.125 -0.625q0 -0.359375 0.125 -0.65625q0.140625 -0.3125 0.359375 -0.53125q0.21875 -0.21875 0.515625 -0.34375q0.296875 -0.140625 0.640625 -0.140625q0.34375 0 0.640625 0.140625q0.3125 0.125 0.53125 0.34375q0.234375 0.21875 0.359375 0.53125q0.140625 0.296875 0.140625 0.65625zm2.6392517 13.90625l0 -10.765625l1.578125 0q0.5 0 0.671875 0.46875l0.171875 0.84375q0.328125 -0.328125 0.6875 -0.59375q0.359375 -0.28125 0.765625 -0.484375q0.40625 -0.203125 0.859375 -0.296875q0.46875 -0.109375 1.015625 -0.109375q0.875 0 1.5625 0.296875q0.6875 0.296875 1.140625 0.84375q0.453125 0.53125 0.6875 1.28125q0.234375 0.75 0.234375 1.65625l0 6.859375l-2.59375 0l0 -6.859375q0 -0.984375 -0.453125 -1.515625q-0.453125 -0.546875 -1.359375 -0.546875q-0.671875 0 -1.265625 0.3125q-0.59375 0.296875 -1.109375 0.8125l0 7.796875l-2.59375 0zm16.578064 -10.9375q1.015625 0 1.859375 0.328125q0.859375 0.3125 1.484375 0.9375q0.625 0.625 0.96875 1.546875q0.34375 0.90625 0.34375 2.0625q0 0.296875 -0.03125 0.5q-0.015625 0.1875 -0.09375 0.296875q-0.0625 0.109375 -0.1875 0.15625q-0.109375 0.046875 -0.28125 0.046875l-6.65625 0q0.109375 1.65625 0.875 2.4375q0.78125 0.78125 2.0625 0.78125q0.640625 0 1.09375 -0.140625q0.453125 -0.15625 0.796875 -0.328125q0.34375 -0.1875 0.59375 -0.328125q0.265625 -0.15625 0.5 -0.15625q0.15625 0 0.265625 0.0625q0.125 0.0625 0.21875 0.1875l0.75 0.9375q-0.4375 0.5 -0.96875 0.84375q-0.53125 0.34375 -1.125 0.546875q-0.578125 0.203125 -1.1875 0.28125q-0.59375 0.09375 -1.15625 0.09375q-1.125 0 -2.09375 -0.375q-0.96875 -0.375 -1.6875 -1.09375q-0.703125 -0.734375 -1.125 -1.8125q-0.40625 -1.078125 -0.40625 -2.5q0 -1.09375 0.359375 -2.0625q0.359375 -0.96875 1.015625 -1.6875q0.671875 -0.71875 1.625 -1.140625q0.96875 -0.421875 2.1875 -0.421875zm0.046875 1.859375q-1.140625 0 -1.78125 0.640625q-0.640625 0.640625 -0.8125 1.8125l4.875 0q0 -0.5 -0.140625 -0.9375q-0.140625 -0.453125 -0.421875 -0.78125q-0.28125 -0.34375 -0.71875 -0.53125q-0.421875 -0.203125 -1.0 -0.203125zm11.352936 -1.859375q1.015625 0 1.859375 0.328125q0.859375 0.3125 1.484375 0.9375q0.625 0.625 0.96875 1.546875q0.34375 0.90625 0.34375 2.0625q0 0.296875 -0.03125 0.5q-0.015625 0.1875 -0.09375 0.296875q-0.0625 0.109375 -0.1875 0.15625q-0.109375 0.046875 -0.28125 0.046875l-6.65625 0q0.109375 1.65625 0.875 2.4375q0.78125 0.78125 2.0625 0.78125q0.640625 0 1.09375 -0.140625q0.453125 -0.15625 0.796875 -0.328125q0.34375 -0.1875 0.59375 -0.328125q0.265625 -0.15625 0.5 -0.15625q0.15625 0 0.265625 0.0625q0.125 0.0625 0.21875 0.1875l0.75 0.9375q-0.4375 0.5 -0.96875 0.84375q-0.53125 0.34375 -1.125 0.546875q-0.578125 0.203125 -1.1875 0.28125q-0.59375 0.09375 -1.15625 0.09375q-1.125 0 -2.09375 -0.375q-0.96875 -0.375 -1.6875 -1.09375q-0.703125 -0.734375 -1.125 -1.8125q-0.40625 -1.078125 -0.40625 -2.5q0 -1.09375 0.359375 -2.0625q0.359375 -0.96875 1.015625 -1.6875q0.671875 -0.71875 1.625 -1.140625q0.96875 -0.421875 2.1875 -0.421875zm0.046875 1.859375q-1.140625 0 -1.78125 0.640625q-0.640625 0.640625 -0.8125 1.8125l4.875 0q0 -0.5 -0.140625 -0.9375q-0.140625 -0.453125 -0.421875 -0.78125q-0.28125 -0.34375 -0.71875 -0.53125q-0.421875 -0.203125 -1.0 -0.203125zm6.8997803 9.078125l0 -10.765625l1.515625 0q0.40625 0 0.5625 0.140625q0.15625 0.140625 0.203125 0.5l0.15625 1.3125q0.578125 -1.0 1.359375 -1.578125q0.78125 -0.578125 1.75 -0.578125q0.796875 0 1.3125 0.359375l-0.328125 1.953125q-0.03125 0.1875 -0.140625 0.265625q-0.109375 0.078125 -0.28125 0.078125q-0.15625 0 -0.4375 -0.078125q-0.265625 -0.078125 -0.71875 -0.078125q-0.8125 0 -1.390625 0.453125q-0.578125 0.4375 -0.96875 1.3125l0 6.703125l-2.59375 0z" fill-rule="nonzero"></path></g></svg>

