<?xml version="1.0" standalone="yes"?>

<svg version="1.1" viewBox="0.0 0.0 716.0 473.0" fill="none" stroke="none" stroke-linecap="square" stroke-miterlimit="10" xmlns="http://www.w3.org/2000/svg" xmlns:xlink="http://www.w3.org/1999/xlink"><clipPath id="p.0"><path d="m0 0l716.0 0l0 473.0l-716.0 0l0 -473.0z" clip-rule="nonzero"></path></clipPath><g clip-path="url(#p.0)"><path fill="#000000" fill-opacity="0.0" d="m0 0l716.3989 0l0 473.43832l-716.3989 0z" fill-rule="nonzero"></path><path fill="#666666" d="m16.0 27.99792l0 0c0 -6.6262684 5.3716507 -11.997919 11.997919 -11.997919l152.00415 0c3.1820526 0 6.2337646 1.2640629 8.48381 3.5141087c2.2500458 2.2500477 3.5141144 5.3017654 3.5141144 8.48381l0 272.00415c0 6.6262817 -5.3716583 11.997925 -11.997925 11.997925l-152.00415 0l0 0c-6.6262684 0 -11.997919 -5.371643 -11.997919 -11.997925z" fill-rule="nonzero"></path><path fill="#000000" fill-opacity="0.0" d="m24.0 32.0l160.0 0l0 56.0l-160.0 0z" fill-rule="nonzero"></path><path fill="#ffffff" d="m96.251366 55.92l-2.703125 0l0 -5.609375l-5.515625 0l0 5.609375l-2.703125 0l0 -13.515625l2.703125 0l0 5.8125l5.515625 0l0 -5.8125l2.703125 0l0 13.515625zm1.6462708 -5.109375q0 -2.25 1.25 -3.671875q1.25 -1.4375 3.46875 -1.4375q2.234375 0 3.484375 1.4375q1.265625 1.421875 1.265625 3.671875l0 0.1875q0 2.265625 -1.265625 3.6875q-1.25 1.421875 -3.46875 1.421875q-2.21875 0 -3.484375 -1.421875q-1.25 -1.421875 -1.25 -3.6875l0 -0.1875zm2.703125 0.1875q0 1.375 0.46875 2.203125q0.484375 0.828125 1.5625 0.828125q1.046875 0 1.53125 -0.828125q0.5 -0.828125 0.5 -2.203125l0 -0.1875q0 -1.34375 -0.5 -2.1875q-0.484375 -0.84375 -1.546875 -0.84375q-1.046875 0 -1.53125 0.859375q-0.484375 0.84375 -0.484375 2.171875l0 0.1875zm13.671204 2.15625q0 -0.4375 -0.4375 -0.765625q-0.421875 -0.328125 -1.59375 -0.578125q-1.78125 -0.359375 -2.6875 -1.0625q-0.90625 -0.71875 -0.90625 -1.9375q0 -1.3125 1.09375 -2.203125q1.09375 -0.90625 2.921875 -0.90625q1.90625 0 3.046875 0.90625q1.140625 0.890625 1.09375 2.265625l-0.015625 0.046875l-2.625 0q0 -0.59375 -0.390625 -0.96875q-0.375 -0.390625 -1.109375 -0.390625q-0.671875 0 -1.046875 0.328125q-0.375 0.3125 -0.375 0.796875q0 0.46875 0.390625 0.765625q0.40625 0.296875 1.609375 0.515625q1.859375 0.375 2.75 1.09375q0.90625 0.71875 0.90625 1.984375q0 1.359375 -1.171875 2.21875q-1.15625 0.84375 -3.046875 0.84375q-2.015625 0 -3.1875 -1.015625q-1.15625 -1.015625 -1.09375 -2.3125l0.015625 -0.046875l2.484375 0q0.03125 0.796875 0.53125 1.171875q0.5 0.359375 1.296875 0.359375q0.75 0 1.140625 -0.296875q0.40625 -0.296875 0.40625 -0.8125zm7.416504 -9.734375l0 2.46875l1.6875 0l0 1.890625l-1.6875 0l0 5.109375q0 0.59375 0.234375 0.84375q0.234375 0.25 0.65625 0.25q0.203125 0 0.359375 -0.015625q0.15625 -0.03125 0.359375 -0.09375l0.234375 1.96875q-0.40625 0.140625 -0.796875 0.203125q-0.390625 0.0625 -0.84375 0.0625q-1.40625 0 -2.171875 -0.765625q-0.75 -0.765625 -0.75 -2.4375l0 -5.125l-1.46875 0l0 -1.890625l1.46875 0l0 -2.46875l2.71875 0z" fill-rule="nonzero"></path><path fill="#ffffff" d="m76.14384 77.92l-2.71875 0l0 -11.109375l-2.734375 0l0 -1.921875l5.453125 -0.484375l0 13.515625zm13.672409 -5.265625q0 2.6875 -1.234375 4.078125q-1.21875 1.375 -3.3125 1.375q-2.125 0 -3.359375 -1.375q-1.234375 -1.390625 -1.234375 -4.078125l0 -2.96875q0 -2.671875 1.234375 -4.0625q1.234375 -1.40625 3.34375 -1.40625q2.09375 0 3.328125 1.40625q1.234375 1.390625 1.234375 4.0625l0 2.96875zm-2.703125 -3.25q0 -1.609375 -0.484375 -2.34375q-0.46875 -0.75 -1.375 -0.75q-0.921875 0 -1.40625 0.75q-0.46875 0.734375 -0.46875 2.34375l0 3.515625q0 1.625 0.46875 2.375q0.484375 0.734375 1.421875 0.734375q0.90625 0 1.375 -0.734375q0.46875 -0.75 0.46875 -2.375l0 -3.515625zm7.438034 8.515625l-2.703125 0l0 -2.375l2.703125 0l0 2.375zm11.39801 -5.265625q0 2.6875 -1.234375 4.078125q-1.21875 1.375 -3.3125 1.375q-2.125 0 -3.359375 -1.375q-1.234375 -1.390625 -1.234375 -4.078125l0 -2.96875q0 -2.671875 1.234375 -4.0625q1.234375 -1.40625 3.34375 -1.40625q2.09375 0 3.328125 1.40625q1.234375 1.390625 1.234375 4.0625l0 2.96875zm-2.703125 -3.25q0 -1.609375 -0.484375 -2.34375q-0.46875 -0.75 -1.375 -0.75q-0.921875 0 -1.40625 0.75q-0.46875 0.734375 -0.46875 2.34375l0 3.515625q0 1.625 0.46875 2.375q0.484375 0.734375 1.421875 0.734375q0.90625 0 1.375 -0.734375q0.46875 -0.75 0.46875 -2.375l0 -3.515625zm7.438034 8.515625l-2.703125 0l0 -2.375l2.703125 0l0 2.375zm11.39801 -5.265625q0 2.6875 -1.234375 4.078125q-1.21875 1.375 -3.3125 1.375q-2.125 0 -3.359375 -1.375q-1.234375 -1.390625 -1.234375 -4.078125l0 -2.96875q0 -2.671875 1.234375 -4.0625q1.234375 -1.40625 3.34375 -1.40625q2.09375 0 3.328125 1.40625q1.234375 1.390625 1.234375 4.0625l0 2.96875zm-2.703125 -3.25q0 -1.609375 -0.484375 -2.34375q-0.46875 -0.75 -1.375 -0.75q-0.921875 0 -1.40625 0.75q-0.46875 0.734375 -0.46875 2.34375l0 3.515625q0 1.625 0.46875 2.375q0.484375 0.734375 1.421875 0.734375q0.90625 0 1.375 -0.734375q0.46875 -0.75 0.46875 -2.375l0 -3.515625zm7.438034 8.515625l-2.703125 0l0 -2.375l2.703125 0l0 2.375zm8.429253 0l-2.71875 0l0 -11.109375l-2.734375 0l0 -1.921875l5.453125 -0.484375l0 13.515625z" fill-rule="nonzero"></path><path fill="#666666" d="m232.0 27.99792l0 0c0 -6.6262684 5.3716583 -11.997919 11.997925 -11.997919l152.00415 0c3.1820374 0 6.2337646 1.2640629 8.483795 3.5141087c2.250061 2.2500477 3.5141296 5.3017654 3.5141296 8.48381l0 272.00415c0 6.6262817 -5.371643 11.997925 -11.997925 11.997925l-152.00415 0l0 0c-6.6262665 0 -11.997925 -5.371643 -11.997925 -11.997925z" fill-rule="nonzero"></path><path fill="#000000" fill-opacity="0.0" d="m240.0 32.0l160.0 0l0 56.0l-160.0 0z" fill-rule="nonzero"></path><path fill="#ffffff" d="m312.25137 55.92l-2.703125 0l0 -5.609375l-5.515625 0l0 5.609375l-2.703125 0l0 -13.515625l2.703125 0l0 5.8125l5.515625 0l0 -5.8125l2.703125 0l0 13.515625zm1.6462708 -5.109375q0 -2.25 1.25 -3.671875q1.25 -1.4375 3.46875 -1.4375q2.234375 0 3.484375 1.4375q1.265625 1.421875 1.265625 3.671875l0 0.1875q0 2.265625 -1.265625 3.6875q-1.25 1.421875 -3.46875 1.421875q-2.21875 0 -3.484375 -1.421875q-1.25 -1.421875 -1.25 -3.6875l0 -0.1875zm2.703125 0.1875q0 1.375 0.46875 2.203125q0.484375 0.828125 1.5625 0.828125q1.046875 0 1.53125 -0.828125q0.5 -0.828125 0.5 -2.203125l0 -0.1875q0 -1.34375 -0.5 -2.1875q-0.484375 -0.84375 -1.546875 -0.84375q-1.046875 0 -1.53125 0.859375q-0.484375 0.84375 -0.484375 2.171875l0 0.1875zm13.671204 2.15625q0 -0.4375 -0.4375 -0.765625q-0.421875 -0.328125 -1.59375 -0.578125q-1.78125 -0.359375 -2.6875 -1.0625q-0.90625 -0.71875 -0.90625 -1.9375q0 -1.3125 1.09375 -2.203125q1.09375 -0.90625 2.921875 -0.90625q1.90625 0 3.046875 0.90625q1.140625 0.890625 1.09375 2.265625l-0.015625 0.046875l-2.625 0q0 -0.59375 -0.390625 -0.96875q-0.375 -0.390625 -1.109375 -0.390625q-0.671875 0 -1.046875 0.328125q-0.375 0.3125 -0.375 0.796875q0 0.46875 0.390625 0.765625q0.40625 0.296875 1.609375 0.515625q1.859375 0.375 2.75 1.09375q0.90625 0.71875 0.90625 1.984375q0 1.359375 -1.171875 2.21875q-1.15625 0.84375 -3.046875 0.84375q-2.015625 0 -3.1875 -1.015625q-1.15625 -1.015625 -1.09375 -2.3125l0.015625 -0.046875l2.484375 0q0.03125 0.796875 0.53125 1.171875q0.5 0.359375 1.296875 0.359375q0.75 0 1.140625 -0.296875q0.40625 -0.296875 0.40625 -0.8125zm7.416504 -9.734375l0 2.46875l1.6875 0l0 1.890625l-1.6875 0l0 5.109375q0 0.59375 0.234375 0.84375q0.234375 0.25 0.65625 0.25q0.203125 0 0.359375 -0.015625q0.15625 -0.03125 0.359375 -0.09375l0.234375 1.96875q-0.40625 0.140625 -0.796875 0.203125q-0.390625 0.0625 -0.84375 0.0625q-1.40625 0 -2.171875 -0.765625q-0.75 -0.765625 -0.75 -2.4375l0 -5.125l-1.46875 0l0 -1.890625l1.46875 0l0 -2.46875l2.71875 0z" fill-rule="nonzero"></path><path fill="#ffffff" d="m292.14383 77.92l-2.71875 0l0 -11.109375l-2.734375 0l0 -1.921875l5.453125 -0.484375l0 13.515625zm13.672424 -5.265625q0 2.6875 -1.234375 4.078125q-1.21875 1.375 -3.3125 1.375q-2.125 0 -3.359375 -1.375q-1.234375 -1.390625 -1.234375 -4.078125l0 -2.96875q0 -2.671875 1.234375 -4.0625q1.234375 -1.40625 3.34375 -1.40625q2.09375 0 3.328125 1.40625q1.234375 1.390625 1.234375 4.0625l0 2.96875zm-2.703125 -3.25q0 -1.609375 -0.484375 -2.34375q-0.46875 -0.75 -1.375 -0.75q-0.921875 0 -1.40625 0.75q-0.46875 0.734375 -0.46875 2.34375l0 3.515625q0 1.625 0.46875 2.375q0.484375 0.734375 1.421875 0.734375q0.90625 0 1.375 -0.734375q0.46875 -0.75 0.46875 -2.375l0 -3.515625zm7.438019 8.515625l-2.703125 0l0 -2.375l2.703125 0l0 2.375zm11.39801 -5.265625q0 2.6875 -1.234375 4.078125q-1.21875 1.375 -3.3125 1.375q-2.125 0 -3.359375 -1.375q-1.234375 -1.390625 -1.234375 -4.078125l0 -2.96875q0 -2.671875 1.234375 -4.0625q1.234375 -1.40625 3.34375 -1.40625q2.09375 0 3.328125 1.40625q1.234375 1.390625 1.234375 4.0625l0 2.96875zm-2.703125 -3.25q0 -1.609375 -0.484375 -2.34375q-0.46875 -0.75 -1.375 -0.75q-0.921875 0 -1.40625 0.75q-0.46875 0.734375 -0.46875 2.34375l0 3.515625q0 1.625 0.46875 2.375q0.484375 0.734375 1.421875 0.734375q0.90625 0 1.375 -0.734375q0.46875 -0.75 0.46875 -2.375l0 -3.515625zm7.4380493 8.515625l-2.703125 0l0 -2.375l2.703125 0l0 2.375zm11.39801 -5.265625q0 2.6875 -1.234375 4.078125q-1.21875 1.375 -3.3125 1.375q-2.125 0 -3.359375 -1.375q-1.234375 -1.390625 -1.234375 -4.078125l0 -2.96875q0 -2.671875 1.234375 -4.0625q1.234375 -1.40625 3.34375 -1.40625q2.09375 0 3.328125 1.40625q1.234375 1.390625 1.234375 4.0625l0 2.96875zm-2.703125 -3.25q0 -1.609375 -0.484375 -2.34375q-0.46875 -0.75 -1.375 -0.75q-0.921875 0 -1.40625 0.75q-0.46875 0.734375 -0.46875 2.34375l0 3.515625q0 1.625 0.46875 2.375q0.484375 0.734375 1.421875 0.734375q0.90625 0 1.375 -0.734375q0.46875 -0.75 0.46875 -2.375l0 -3.515625zm7.438019 8.515625l-2.703125 0l0 -2.375l2.703125 0l0 2.375zm11.52301 0l-9.21875 0l0 -1.765625l4.359375 -4.6875q0.953125 -1.09375 1.34375 -1.828125q0.40625 -0.75 0.40625 -1.390625q0 -0.859375 -0.46875 -1.390625q-0.453125 -0.546875 -1.296875 -0.546875q-0.9375 0 -1.421875 0.640625q-0.484375 0.625 -0.484375 1.6875l-2.640625 0l-0.015625 -0.0625q-0.046875 -1.828125 1.203125 -3.09375q1.25 -1.265625 3.359375 -1.265625q2.09375 0 3.28125 1.09375q1.1875 1.078125 1.1875 2.890625q0 1.21875 -0.671875 2.265625q-0.671875 1.03125 -2.21875 2.703125l-2.40625 2.625l0.03125 0.046875l5.671875 0l0 2.078125z" fill-rule="nonzero"></path><path fill="#000000" fill-opacity="0.0" d="m311.99896 192.46194c-0.25335693 57.036118 -46.39737 103.22623 -103.4332 103.5365c-57.035843 0.31030273 -103.67968 -45.375046 -104.55356 -102.40503l103.98779 -1.5934143z" fill-rule="nonzero"></path><path fill="#000000" fill-opacity="0.0" d="m311.99896 192.46194c-0.25335693 57.036118 -46.39737 103.22623 -103.4332 103.5365c-57.035843 0.31030273 -103.67968 -45.375046 -104.55356 -102.40503" fill-rule="nonzero"></path><path stroke="#ffffff" stroke-width="4.0" stroke-linejoin="round" stroke-linecap="butt" d="m311.99896 192.46194c-0.25335693 57.036118 -46.39737 103.22623 -103.4332 103.5365c-57.035843 0.31030273 -103.67968 -45.375046 -104.55356 -102.40503" fill-rule="nonzero"></path><path fill="#ffffff" d="m48.0 240.0l0 0c0 -30.927948 25.072052 -56.0 56.0 -56.0l0 0c14.852127 0 29.095947 5.8999786 39.597977 16.402023c10.502045 10.502029 16.402023 24.74585 16.402023 39.597977l0 0c0 30.927948 -25.072052 56.0 -56.0 56.0l0 0c-30.927948 0 -56.0 -25.072052 -56.0 -56.0z" fill-rule="nonzero"></path><path fill="#000000" fill-opacity="0.0" d="m24.0 208.0l160.0 0l0 64.0l-160.0 0z" fill-rule="nonzero"></path><path fill="#666666" d="m82.82335 234.02937q0.71875 0 1.15625 -0.421875q0.4375 -0.421875 0.4375 -1.125l2.46875 0l0.015625 0.0625q0.046875 1.515625 -1.140625 2.546875q-1.1875 1.015625 -2.9375 1.015625q-2.25 0 -3.46875 -1.40625q-1.203125 -1.421875 -1.203125 -3.65625l0 -0.28125q0 -2.203125 1.203125 -3.625q1.21875 -1.4375 3.453125 -1.4375q1.859375 0 3.0 1.0625q1.140625 1.046875 1.09375 2.765625l-0.015625 0.0625l-2.46875 0q0 -0.78125 -0.421875 -1.296875q-0.421875 -0.515625 -1.1875 -0.515625q-1.0625 0 -1.515625 0.84375q-0.4375 0.828125 -0.4375 2.140625l0 0.28125q0 1.34375 0.4375 2.171875q0.453125 0.8125 1.53125 0.8125zm8.296692 1.890625l-2.71875 0l0 -10.03125l2.71875 0l0 10.03125zm0 -12.4375l-2.71875 0l0 -2.03125l2.71875 0l0 2.03125zm7.40477 4.734375l-0.984375 -0.03125q-0.609375 0 -1.0 0.25q-0.390625 0.25 -0.59375 0.703125l0 6.78125l-2.6875 0l0 -10.03125l2.5 0l0.125 1.484375q0.359375 -0.796875 0.921875 -1.234375q0.5625 -0.4375 1.28125 -0.4375q0.21875 0 0.375 0.03125q0.171875 0.03125 0.359375 0.078125l-0.296875 2.40625zm5.4690094 5.8125q0.71875 0 1.15625 -0.421875q0.4375 -0.421875 0.4375 -1.125l2.46875 0l0.015625 0.0625q0.046875 1.515625 -1.140625 2.546875q-1.1875 1.015625 -2.9375 1.015625q-2.25 0 -3.46875 -1.40625q-1.203125 -1.421875 -1.203125 -3.65625l0 -0.28125q0 -2.203125 1.203125 -3.625q1.21875 -1.4375 3.453125 -1.4375q1.859375 0 3.0 1.0625q1.140625 1.046875 1.09375 2.765625l-0.015625 0.0625l-2.46875 0q0 -0.78125 -0.421875 -1.296875q-0.421875 -0.515625 -1.1875 -0.515625q-1.0625 0 -1.515625 0.84375q-0.4375 0.828125 -0.4375 2.140625l0 0.28125q0 1.34375 0.4375 2.171875q0.453125 0.8125 1.53125 0.8125zm11.577942 0.4375q-0.46875 0.796875 -1.1875 1.21875q-0.703125 0.421875 -1.640625 0.421875q-1.578125 0 -2.484375 -1.015625q-0.890625 -1.015625 -0.890625 -3.15625l0 -6.046875l2.703125 0l0 6.0625q0 1.109375 0.375 1.59375q0.375 0.46875 1.09375 0.46875q0.65625 0 1.109375 -0.203125q0.46875 -0.21875 0.765625 -0.625l0 -7.296875l2.703125 0l0 10.03125l-2.3125 0l-0.234375 -1.453125zm7.2493286 1.453125l-2.71875 0l0 -10.03125l2.71875 0l0 10.03125zm0 -12.4375l-2.71875 0l0 -2.03125l2.71875 0l0 2.03125zm5.357895 -0.0625l0 2.46875l1.6875 0l0 1.890625l-1.6875 0l0 5.109375q0 0.59375 0.234375 0.84375q0.234375 0.25 0.65625 0.25q0.203125 0 0.359375 -0.015625q0.15625 -0.03125 0.359375 -0.09375l0.234375 1.96875q-0.40625 0.140625 -0.796875 0.203125q-0.390625 0.0625 -0.84375 0.0625q-1.40625 0 -2.171875 -0.765625q-0.75 -0.765625 -0.75 -2.4375l0 -5.125l-1.46875 0l0 -1.890625l1.46875 0l0 -2.46875l2.71875 0z" fill-rule="nonzero"></path><path fill="#666666" d="m84.488464 255.15437q0 -0.4375 -0.4375 -0.765625q-0.421875 -0.328125 -1.59375 -0.578125q-1.78125 -0.359375 -2.6875 -1.0625q-0.90625 -0.71875 -0.90625 -1.9375q0 -1.3125 1.09375 -2.203125q1.09375 -0.90625 2.921875 -0.90625q1.90625 0 3.046875 0.90625q1.140625 0.890625 1.09375 2.265625l-0.015625 0.046875l-2.625 0q0 -0.59375 -0.390625 -0.96875q-0.375 -0.390625 -1.109375 -0.390625q-0.671875 0 -1.046875 0.328125q-0.375 0.3125 -0.375 0.796875q0 0.46875 0.390625 0.765625q0.40625 0.296875 1.609375 0.515625q1.859375 0.375 2.75 1.09375q0.90625 0.71875 0.90625 1.984375q0 1.3593597 -1.171875 2.2187347q-1.15625 0.84375 -3.046875 0.84375q-2.015625 0 -3.1875 -1.015625q-1.15625 -1.015625 -1.09375 -2.3124847l0.015625 -0.046875l2.484375 0q0.03125 0.796875 0.53125 1.171875q0.5 0.35935974 1.296875 0.35935974q0.75 0 1.140625 -0.29685974q0.40625 -0.296875 0.40625 -0.8125zm8.635254 2.9531097q-2.171875 0 -3.46875 -1.390625q-1.296875 -1.3906097 -1.296875 -3.5312347l0 -0.375q0 -2.234375 1.21875 -3.671875q1.234375 -1.453125 3.296875 -1.4375q2.046875 0 3.15625 1.21875q1.125 1.21875 1.125 3.3125l0 1.46875l-5.984375 0l-0.03125 0.0625q0.078125 1.0 0.671875 1.640625q0.59375 0.62498474 1.59375 0.62498474q0.90625 0 1.5 -0.17185974q0.59375 -0.1875 1.296875 -0.578125l0.734375 1.6718597q-0.609375 0.5 -1.609375 0.828125q-0.984375 0.328125 -2.203125 0.328125zm-0.25 -8.32811q-0.75 0 -1.1875 0.578125q-0.421875 0.578125 -0.53125 1.515625l0.03125 0.046875l3.3125 0l0 -0.25q0 -0.859375 -0.40625 -1.375q-0.390625 -0.515625 -1.21875 -0.515625zm10.95282 0.4375l-0.984375 -0.03125q-0.609375 0 -1.0 0.25q-0.390625 0.25 -0.59375 0.703125l0 6.7812347l-2.6875 0l0 -10.031235l2.5 0l0.125 1.484375q0.359375 -0.796875 0.921875 -1.234375q0.5625 -0.4375 1.28125 -0.4375q0.21875 0 0.375 0.03125q0.171875 0.03125 0.359375 0.078125l-0.296875 2.40625zm4.8908844 3.96875l0.171875 0.921875l0.0625 0l0.171875 -0.921875l1.65625 -6.296875l2.828125 0l-3.40625 10.031235l-2.59375 0l-3.40625 -10.031235l2.828125 0l1.6875 6.296875zm10.341034 3.9218597q-2.171875 0 -3.46875 -1.390625q-1.296875 -1.3906097 -1.296875 -3.5312347l0 -0.375q0 -2.234375 1.21875 -3.671875q1.234375 -1.453125 3.296875 -1.4375q2.046875 0 3.15625 1.21875q1.125 1.21875 1.125 3.3125l0 1.46875l-5.984375 0l-0.03125 0.0625q0.078125 1.0 0.671875 1.640625q0.59375 0.62498474 1.59375 0.62498474q0.90625 0 1.5 -0.17185974q0.59375 -0.1875 1.296875 -0.578125l0.734375 1.6718597q-0.609375 0.5 -1.609375 0.828125q-0.984375 0.328125 -2.203125 0.328125zm-0.25 -8.32811q-0.75 0 -1.1875 0.578125q-0.421875 0.578125 -0.53125 1.515625l0.03125 0.046875l3.3125 0l0 -0.25q0 -0.859375 -0.40625 -1.375q-0.390625 -0.515625 -1.21875 -0.515625zm10.95282 0.4375l-0.984375 -0.03125q-0.609375 0 -1.0 0.25q-0.390625 0.25 -0.59375 0.703125l0 6.7812347l-2.6875 0l0 -10.031235l2.5 0l0.125 1.484375q0.359375 -0.796875 0.921875 -1.234375q0.5625 -0.4375 1.28125 -0.4375q0.21875 0 0.375 0.03125q0.171875 0.03125 0.359375 0.078125l-0.296875 2.40625z" fill-rule="nonzero"></path><path fill="#000000" fill-opacity="0.0" d="m234.05832 292.6825c-13.574081 3.5131836 -27.7184 4.2453003 -41.582657 2.1522827l15.524338 -102.83478z" fill-rule="nonzero"></path><path fill="#000000" fill-opacity="0.0" d="m234.05832 292.6825c-13.574081 3.5131836 -27.7184 4.2453003 -41.582657 2.1522827" fill-rule="nonzero"></path><path stroke="#666666" stroke-width="4.0" stroke-linejoin="round" stroke-linecap="butt" d="m234.05832 292.6825c-13.574081 3.5131836 -27.7184 4.2453003 -41.582657 2.1522827" fill-rule="nonzero"></path><path fill="#ffffff" d="m264.0 240.0l0 0c0 -30.927948 25.072052 -56.0 56.0 -56.0l0 0c14.852112 0 29.095947 5.8999786 39.597992 16.402023c10.502014 10.502029 16.402008 24.74585 16.402008 39.597977l0 0c0 30.927948 -25.072052 56.0 -56.0 56.0l0 0c-30.927948 0 -56.0 -25.072052 -56.0 -56.0z" fill-rule="nonzero"></path><path fill="#000000" fill-opacity="0.0" d="m240.0 208.0l160.0 0l0 64.0l-160.0 0z" fill-rule="nonzero"></path><path fill="#666666" d="m298.82336 234.02937q0.71875 0 1.15625 -0.421875q0.4375 -0.421875 0.4375 -1.125l2.46875 0l0.015625 0.0625q0.046875 1.515625 -1.140625 2.546875q-1.1875 1.015625 -2.9375 1.015625q-2.25 0 -3.46875 -1.40625q-1.203125 -1.421875 -1.203125 -3.65625l0 -0.28125q0 -2.203125 1.203125 -3.625q1.21875 -1.4375 3.453125 -1.4375q1.859375 0 3.0 1.0625q1.140625 1.046875 1.09375 2.765625l-0.015625 0.0625l-2.46875 0q0 -0.78125 -0.421875 -1.296875q-0.421875 -0.515625 -1.1875 -0.515625q-1.0625 0 -1.515625 0.84375q-0.4375 0.828125 -0.4375 2.140625l0 0.28125q0 1.34375 0.4375 2.171875q0.453125 0.8125 1.53125 0.8125zm8.296692 1.890625l-2.71875 0l0 -10.03125l2.71875 0l0 10.03125zm0 -12.4375l-2.71875 0l0 -2.03125l2.71875 0l0 2.03125zm7.4047546 4.734375l-0.984375 -0.03125q-0.609375 0 -1.0 0.25q-0.390625 0.25 -0.59375 0.703125l0 6.78125l-2.6875 0l0 -10.03125l2.5 0l0.125 1.484375q0.359375 -0.796875 0.921875 -1.234375q0.5625 -0.4375 1.28125 -0.4375q0.21875 0 0.375 0.03125q0.171875 0.03125 0.359375 0.078125l-0.296875 2.40625zm5.4690247 5.8125q0.71875 0 1.15625 -0.421875q0.4375 -0.421875 0.4375 -1.125l2.46875 0l0.015625 0.0625q0.046875 1.515625 -1.140625 2.546875q-1.1875 1.015625 -2.9375 1.015625q-2.25 0 -3.46875 -1.40625q-1.203125 -1.421875 -1.203125 -3.65625l0 -0.28125q0 -2.203125 1.203125 -3.625q1.21875 -1.4375 3.453125 -1.4375q1.859375 0 3.0 1.0625q1.140625 1.046875 1.09375 2.765625l-0.015625 0.0625l-2.46875 0q0 -0.78125 -0.421875 -1.296875q-0.421875 -0.515625 -1.1875 -0.515625q-1.0625 0 -1.515625 0.84375q-0.4375 0.828125 -0.4375 2.140625l0 0.28125q0 1.34375 0.4375 2.171875q0.453125 0.8125 1.53125 0.8125zm11.577942 0.4375q-0.46875 0.796875 -1.1875 1.21875q-0.703125 0.421875 -1.640625 0.421875q-1.578125 0 -2.484375 -1.015625q-0.890625 -1.015625 -0.890625 -3.15625l0 -6.046875l2.703125 0l0 6.0625q0 1.109375 0.375 1.59375q0.375 0.46875 1.09375 0.46875q0.65625 0 1.109375 -0.203125q0.46875 -0.21875 0.765625 -0.625l0 -7.296875l2.703125 0l0 10.03125l-2.3125 0l-0.234375 -1.453125zm7.2493286 1.453125l-2.71875 0l0 -10.03125l2.71875 0l0 10.03125zm0 -12.4375l-2.71875 0l0 -2.03125l2.71875 0l0 2.03125zm5.3578796 -0.0625l0 2.46875l1.6875 0l0 1.890625l-1.6875 0l0 5.109375q0 0.59375 0.234375 0.84375q0.234375 0.25 0.65625 0.25q0.203125 0 0.359375 -0.015625q0.15625 -0.03125 0.359375 -0.09375l0.234375 1.96875q-0.40625 0.140625 -0.796875 0.203125q-0.390625 0.0625 -0.84375 0.0625q-1.40625 0 -2.171875 -0.765625q-0.75 -0.765625 -0.75 -2.4375l0 -5.125l-1.46875 0l0 -1.890625l1.46875 0l0 -2.46875l2.71875 0z" fill-rule="nonzero"></path><path fill="#666666" d="m300.48846 255.15437q0 -0.4375 -0.4375 -0.765625q-0.421875 -0.328125 -1.59375 -0.578125q-1.78125 -0.359375 -2.6875 -1.0625q-0.90625 -0.71875 -0.90625 -1.9375q0 -1.3125 1.09375 -2.203125q1.09375 -0.90625 2.921875 -0.90625q1.90625 0 3.046875 0.90625q1.140625 0.890625 1.09375 2.265625l-0.015625 0.046875l-2.625 0q0 -0.59375 -0.390625 -0.96875q-0.375 -0.390625 -1.109375 -0.390625q-0.671875 0 -1.046875 0.328125q-0.375 0.3125 -0.375 0.796875q0 0.46875 0.390625 0.765625q0.40625 0.296875 1.609375 0.515625q1.859375 0.375 2.75 1.09375q0.90625 0.71875 0.90625 1.984375q0 1.3593597 -1.171875 2.2187347q-1.15625 0.84375 -3.046875 0.84375q-2.015625 0 -3.1875 -1.015625q-1.15625 -1.015625 -1.09375 -2.3124847l0.015625 -0.046875l2.484375 0q0.03125 0.796875 0.53125 1.171875q0.5 0.35935974 1.296875 0.35935974q0.75 0 1.140625 -0.29685974q0.40625 -0.296875 0.40625 -0.8125zm8.635254 2.9531097q-2.171875 0 -3.46875 -1.390625q-1.296875 -1.3906097 -1.296875 -3.5312347l0 -0.375q0 -2.234375 1.21875 -3.671875q1.234375 -1.453125 3.296875 -1.4375q2.046875 0 3.15625 1.21875q1.125 1.21875 1.125 3.3125l0 1.46875l-5.984375 0l-0.03125 0.0625q0.078125 1.0 0.671875 1.640625q0.59375 0.62498474 1.59375 0.62498474q0.90625 0 1.5 -0.17185974q0.59375 -0.1875 1.296875 -0.578125l0.734375 1.6718597q-0.609375 0.5 -1.609375 0.828125q-0.984375 0.328125 -2.203125 0.328125zm-0.25 -8.32811q-0.75 0 -1.1875 0.578125q-0.421875 0.578125 -0.53125 1.515625l0.03125 0.046875l3.3125 0l0 -0.25q0 -0.859375 -0.40625 -1.375q-0.390625 -0.515625 -1.21875 -0.515625zm10.95282 0.4375l-0.984375 -0.03125q-0.609375 0 -1.0 0.25q-0.390625 0.25 -0.59375 0.703125l0 6.7812347l-2.6875 0l0 -10.031235l2.5 0l0.125 1.484375q0.359375 -0.796875 0.921875 -1.234375q0.5625 -0.4375 1.28125 -0.4375q0.21875 0 0.375 0.03125q0.171875 0.03125 0.359375 0.078125l-0.296875 2.40625zm4.890869 3.96875l0.171875 0.921875l0.0625 0l0.171875 -0.921875l1.65625 -6.296875l2.828125 0l-3.40625 10.031235l-2.59375 0l-3.40625 -10.031235l2.828125 0l1.6875 6.296875zm10.341064 3.9218597q-2.171875 0 -3.46875 -1.390625q-1.296875 -1.3906097 -1.296875 -3.5312347l0 -0.375q0 -2.234375 1.21875 -3.671875q1.234375 -1.453125 3.296875 -1.4375q2.046875 0 3.15625 1.21875q1.125 1.21875 1.125 3.3125l0 1.46875l-5.984375 0l-0.03125 0.0625q0.078125 1.0 0.671875 1.640625q0.59375 0.62498474 1.59375 0.62498474q0.90625 0 1.5 -0.17185974q0.59375 -0.1875 1.296875 -0.578125l0.734375 1.6718597q-0.609375 0.5 -1.609375 0.828125q-0.984375 0.328125 -2.203125 0.328125zm-0.25 -8.32811q-0.75 0 -1.1875 0.578125q-0.421875 0.578125 -0.53125 1.515625l0.03125 0.046875l3.3125 0l0 -0.25q0 -0.859375 -0.40625 -1.375q-0.390625 -0.515625 -1.21875 -0.515625zm10.95282 0.4375l-0.984375 -0.03125q-0.609375 0 -1.0 0.25q-0.390625 0.25 -0.59375 0.703125l0 6.7812347l-2.6875 0l0 -10.031235l2.5 0l0.125 1.484375q0.359375 -0.796875 0.921875 -1.234375q0.5625 -0.4375 1.28125 -0.4375q0.21875 0 0.375 0.03125q0.171875 0.03125 0.359375 0.078125l-0.296875 2.40625z" fill-rule="nonzero"></path><path fill="#6d9eeb" d="m320.0 408.0l0 0c0 -30.927948 25.072052 -56.0 56.0 -56.0l0 0c14.852112 0 29.095947 5.899994 39.597992 16.402008c10.502014 10.502045 16.402008 24.74588 16.402008 39.597992l0 0c0 30.927948 -25.072052 56.0 -56.0 56.0l0 0c-30.927948 0 -56.0 -25.072052 -56.0 -56.0z" fill-rule="nonzero"></path><path fill="#000000" fill-opacity="0.0" d="m296.0 376.0l160.0 0l0 64.0l-160.0 0z" fill-rule="nonzero"></path><path fill="#ffffff" d="m341.97665 403.91998q-0.15625 -0.34375 -0.265625 -0.71875q-0.109375 -0.390625 -0.15625 -0.78125q-0.40625 0.734375 -1.09375 1.21875q-0.6875 0.46875 -1.625 0.46875q-1.578125 0 -2.4375 -0.796875q-0.84375 -0.8125 -0.84375 -2.21875q0 -1.484375 1.125 -2.28125q1.140625 -0.8125 3.328125 -0.8125l1.5 0l0 -0.796875q0 -0.734375 -0.375 -1.125q-0.375 -0.40625 -1.125 -0.40625q-0.65625 0 -1.015625 0.328125q-0.359375 0.3125 -0.359375 0.875l-2.609375 0l-0.015625 -0.0625q-0.0625 -1.265625 1.109375 -2.1875q1.171875 -0.921875 3.078125 -0.921875q1.796875 0 2.90625 0.921875q1.125 0.90625 1.125 2.59375l0 4.140625q0 0.703125 0.109375 1.328125q0.109375 0.625 0.34375 1.234375l-2.703125 0zm-2.484375 -1.8125q0.71875 0 1.265625 -0.34375q0.5625 -0.359375 0.75 -0.828125l0 -1.40625l-1.5 0q-0.875 0 -1.328125 0.4375q-0.4375 0.421875 -0.4375 1.03125q0 0.5 0.328125 0.8125q0.34375 0.296875 0.921875 0.296875zm15.661072 -2.921875q0 2.21875 -1.03125 3.578125q-1.03125 1.34375 -2.875 1.34375q-0.78125 0 -1.40625 -0.28125q-0.609375 -0.296875 -1.046875 -0.859375l0 4.8125l-2.6875 0l0 -13.890625l2.4375 0l0.15625 1.1875q0.4375 -0.671875 1.0625 -1.015625q0.625 -0.359375 1.46875 -0.359375q1.859375 0 2.890625 1.453125q1.03125 1.453125 1.03125 3.828125l0 0.203125zm-2.703125 -0.203125q0 -1.421875 -0.484375 -2.296875q-0.46875 -0.890625 -1.4375 -0.890625q-0.609375 0 -1.046875 0.265625q-0.4375 0.25 -0.6875 0.703125l0 4.40625q0.25 0.421875 0.6875 0.640625q0.4375 0.21875 1.0625 0.21875q0.984375 0 1.4375 -0.765625q0.46875 -0.765625 0.46875 -2.078125l0 -0.203125zm13.233704 0.203125q0 2.21875 -1.03125 3.578125q-1.03125 1.34375 -2.875 1.34375q-0.78125 0 -1.40625 -0.28125q-0.609375 -0.296875 -1.046875 -0.859375l0 4.8125l-2.6875 0l0 -13.890625l2.4375 0l0.15625 1.1875q0.4375 -0.671875 1.0625 -1.015625q0.625 -0.359375 1.46875 -0.359375q1.859375 0 2.890625 1.453125q1.03125 1.453125 1.03125 3.828125l0 0.203125zm-2.703125 -0.203125q0 -1.421875 -0.484375 -2.296875q-0.46875 -0.890625 -1.4375 -0.890625q-0.609375 0 -1.046875 0.265625q-0.4375 0.25 -0.6875 0.703125l0 4.40625q0.25 0.421875 0.6875 0.640625q0.4375 0.21875 1.0625 0.21875q0.984375 0 1.4375 -0.765625q0.46875 -0.765625 0.46875 -2.078125l0 -0.203125zm14.957672 3.484375q-0.46875 0.796875 -1.1875 1.21875q-0.703125 0.421875 -1.640625 0.421875q-1.578125 0 -2.484375 -1.015625q-0.890625 -1.015625 -0.890625 -3.15625l0 -6.046875l2.703125 0l0 6.0625q0 1.109375 0.375 1.59375q0.375 0.46875 1.09375 0.46875q0.65625 0 1.109375 -0.203125q0.46875 -0.21875 0.765625 -0.625l0 -7.296875l2.703125 0l0 10.03125l-2.3125 0l-0.234375 -1.453125zm9.827454 -1.3125q0 -0.4375 -0.4375 -0.765625q-0.421875 -0.328125 -1.59375 -0.578125q-1.78125 -0.359375 -2.6875 -1.0625q-0.90625 -0.71875 -0.90625 -1.9375q0 -1.3125 1.09375 -2.203125q1.09375 -0.90625 2.921875 -0.90625q1.90625 0 3.046875 0.90625q1.140625 0.890625 1.09375 2.265625l-0.015625 0.046875l-2.625 0q0 -0.59375 -0.390625 -0.96875q-0.375 -0.390625 -1.109375 -0.390625q-0.671875 0 -1.046875 0.328125q-0.375 0.3125 -0.375 0.796875q0 0.46875 0.390625 0.765625q0.40625 0.296875 1.609375 0.515625q1.859375 0.375 2.75 1.09375q0.90625 0.71875 0.90625 1.984375q0 1.359375 -1.171875 2.21875q-1.15625 0.84375 -3.046875 0.84375q-2.015625 0 -3.1875 -1.015625q-1.15625 -1.015625 -1.09375 -2.3125l0.015625 -0.046875l2.484375 0q0.03125 0.796875 0.53125 1.171875q0.5 0.359375 1.296875 0.359375q0.75 0 1.140625 -0.296875q0.40625 -0.296875 0.40625 -0.8125zm7.041504 2.765625l-2.71875 0l0 -10.03125l2.71875 0l0 10.03125zm0 -12.4375l-2.71875 0l0 -2.03125l2.71875 0l0 2.03125zm4.6078796 2.40625l0.125 1.4375q0.5 -0.78125 1.234375 -1.203125q0.734375 -0.421875 1.640625 -0.421875q1.515625 0 2.359375 0.953125q0.859375 0.953125 0.859375 3.0l0 6.265625l-2.71875 0l0 -6.265625q0 -1.015625 -0.40625 -1.4375q-0.40625 -0.421875 -1.234375 -0.421875q-0.53125 0 -0.96875 0.21875q-0.421875 0.21875 -0.703125 0.625l0 7.28125l-2.703125 0l0 -10.03125l2.515625 0zm7.6399536 5.09375q0 -2.375 1.03125 -3.828125q1.03125 -1.453125 2.90625 -1.453125q0.84375 0 1.484375 0.375q0.640625 0.375 1.09375 1.078125l0.203125 -1.265625l2.34375 0l0 9.984375q0 1.953125 -1.296875 3.015625q-1.28125 1.078125 -3.5625 1.078125q-0.765625 0 -1.625 -0.203125q-0.84375 -0.203125 -1.5625 -0.5625l0.5 -2.03125q0.609375 0.296875 1.25 0.453125q0.65625 0.15625 1.421875 0.15625q1.109375 0 1.625 -0.46875q0.53125 -0.46875 0.53125 -1.453125l0 -0.90625q-0.453125 0.5625 -1.0625 0.859375q-0.59375 0.296875 -1.375 0.296875q-1.84375 0 -2.875 -1.359375q-1.03125 -1.359375 -1.03125 -3.5625l0 -0.203125zm2.703125 0.203125q0 1.3125 0.4375 2.078125q0.453125 0.75 1.453125 0.75q0.625 0 1.046875 -0.21875q0.4375 -0.234375 0.703125 -0.671875l0 -4.359375q-0.265625 -0.453125 -0.703125 -0.703125q-0.421875 -0.265625 -1.03125 -0.265625q-0.984375 0 -1.453125 0.890625q-0.453125 0.875 -0.453125 2.296875l0 0.203125z" fill-rule="nonzero"></path><path fill="#ffffff" d="m350.54675 424.07623q-0.609375 0.796875 -1.890625 1.421875q-1.265625 0.609375 -3.21875 0.609375q-2.484375 0 -4.046875 -1.53125q-1.5625 -1.546875 -1.5625 -4.0l0 -2.828125q0 -2.4375 1.5 -3.984375q1.515625 -1.546875 3.890625 -1.546875q2.46875 0 3.78125 1.203125q1.3125 1.203125 1.34375 3.15625l-0.03125 0.0625l-2.546875 0q-0.078125 -1.078125 -0.6875 -1.703125q-0.609375 -0.625 -1.78125 -0.625q-1.25 0 -2.015625 0.96875q-0.75 0.953125 -0.75 2.453125l0 2.84375q0 1.546875 0.78125 2.5q0.796875 0.953125 2.125 0.953125q0.953125 0 1.515625 -0.1875q0.578125 -0.1875 0.875 -0.484375l0 -2.5l-2.390625 0l0 -1.875l5.109375 0l0 5.09375zm1.4552612 -3.265625q0 -2.25 1.25 -3.671875q1.25 -1.4375 3.46875 -1.4375q2.234375 0 3.484375 1.4375q1.265625 1.421875 1.265625 3.671875l0 0.1875q0 2.265625 -1.265625 3.6875q-1.25 1.421875 -3.46875 1.421875q-2.21875 0 -3.484375 -1.421875q-1.25 -1.421875 -1.25 -3.6875l0 -0.1875zm2.703125 0.1875q0 1.375 0.46875 2.203125q0.484375 0.828125 1.5625 0.828125q1.046875 0 1.53125 -0.828125q0.5 -0.828125 0.5 -2.203125l0 -0.1875q0 -1.34375 -0.5 -2.1875q-0.484375 -0.84375 -1.546875 -0.84375q-1.046875 0 -1.53125 0.859375q-0.484375 0.84375 -0.484375 2.171875l0 0.1875zm17.098328 3.03125q0.71875 0 1.15625 -0.421875q0.4375 -0.421875 0.4375 -1.125l2.46875 0l0.015625 0.0625q0.046875 1.515625 -1.140625 2.546875q-1.1875 1.015625 -2.9375 1.015625q-2.25 0 -3.46875 -1.40625q-1.203125 -1.421875 -1.203125 -3.65625l0 -0.28125q0 -2.203125 1.203125 -3.625q1.21875 -1.4375 3.453125 -1.4375q1.859375 0 3.0 1.0625q1.140625 1.046875 1.09375 2.765625l-0.015625 0.0625l-2.46875 0q0 -0.78125 -0.421875 -1.296875q-0.421875 -0.515625 -1.1875 -0.515625q-1.0625 0 -1.515625 0.84375q-0.4375 0.828125 -0.4375 2.140625l0 0.28125q0 1.34375 0.4375 2.171875q0.453125 0.8125 1.53125 0.8125zm8.296692 1.890625l-2.71875 0l0 -14.46875l2.71875 0l0 14.46875zm4.9828796 0l-2.71875 0l0 -10.03125l2.71875 0l0 10.03125zm0 -12.4375l-2.71875 0l0 -2.03125l2.71875 0l0 2.03125zm6.5766296 12.625q-2.171875 0 -3.46875 -1.390625q-1.296875 -1.390625 -1.296875 -3.53125l0 -0.375q0 -2.234375 1.21875 -3.671875q1.234375 -1.453125 3.296875 -1.4375q2.046875 0 3.15625 1.21875q1.125 1.21875 1.125 3.3125l0 1.46875l-5.984375 0l-0.03125 0.0625q0.078125 1.0 0.671875 1.640625q0.59375 0.625 1.59375 0.625q0.90625 0 1.5 -0.171875q0.59375 -0.1875 1.296875 -0.578125l0.734375 1.671875q-0.609375 0.5 -1.609375 0.828125q-0.984375 0.328125 -2.203125 0.328125zm-0.25 -8.328125q-0.75 0 -1.1875 0.578125q-0.421875 0.578125 -0.53125 1.515625l0.03125 0.046875l3.3125 0l0 -0.25q0 -0.859375 -0.40625 -1.375q-0.390625 -0.515625 -1.21875 -0.515625zm8.155945 -1.890625l0.125 1.4375q0.5 -0.78125 1.234375 -1.203125q0.734375 -0.421875 1.640625 -0.421875q1.515625 0 2.359375 0.953125q0.859375 0.953125 0.859375 3.0l0 6.265625l-2.71875 0l0 -6.265625q0 -1.015625 -0.40625 -1.4375q-0.40625 -0.421875 -1.234375 -0.421875q-0.53125 0 -0.96875 0.21875q-0.421875 0.21875 -0.703125 0.625l0 7.28125l-2.703125 0l0 -10.03125l2.515625 0zm11.280579 -2.46875l0 2.46875l1.6875 0l0 1.890625l-1.6875 0l0 5.109375q0 0.59375 0.234375 0.84375q0.234375 0.25 0.65625 0.25q0.203125 0 0.359375 -0.015625q0.15625 -0.03125 0.359375 -0.09375l0.234375 1.96875q-0.40625 0.140625 -0.796875 0.203125q-0.390625 0.0625 -0.84375 0.0625q-1.40625 0 -2.171875 -0.765625q-0.75 -0.765625 -0.75 -2.4375l0 -5.125l-1.46875 0l0 -1.890625l1.46875 0l0 -2.46875l2.71875 0z" fill-rule="nonzero"></path><path fill="#000000" fill-opacity="0.0" d="m349.32327 360.3836c-13.135193 -13.551331 -22.335358 -30.421417 -26.614563 -48.8024l101.29129 -23.581207z" fill-rule="nonzero"></path><path fill="#000000" fill-opacity="0.0" d="m349.32327 360.3836c-13.135193 -13.551331 -22.335358 -30.421417 -26.614563 -48.8024" fill-rule="nonzero"></path><path stroke="#6d9eeb" stroke-width="4.0" stroke-linejoin="round" stroke-linecap="butt" d="m349.32327 360.3836c-13.135193 -13.551331 -22.335358 -30.421417 -26.614563 -48.8024" fill-rule="nonzero"></path><path fill="#000000" fill-opacity="0.0" d="m322.97778 312.7086l0 0c-1.3268433 -5.4248962 -2.214569 -10.947845 -2.654541 -16.51529l103.67676 -8.193298z" fill-rule="nonzero"></path><path fill="#000000" fill-opacity="0.0" d="m322.97778 312.7086l0 0c-1.3268433 -5.4248962 -2.214569 -10.947845 -2.654541 -16.51529" fill-rule="nonzero"></path><path stroke="#ffffff" stroke-width="4.0" stroke-linejoin="round" stroke-linecap="butt" d="m322.97778 312.7086l0 0c-1.3268433 -5.4248962 -2.214569 -10.947845 -2.654541 -16.51529" fill-rule="nonzero"></path><path fill="#e06666" d="m312.0 204.74016l0 0c0 -6.627411 5.372589 -12.0 12.0 -12.0l0 0c3.1825867 0 6.234833 1.2642822 8.485291 3.5147247c2.2504272 2.2504272 3.5147095 5.3026733 3.5147095 8.485275l0 0c0 6.627411 -5.372589 12.0 -12.0 12.0l0 0c-6.627411 0 -12.0 -5.372589 -12.0 -12.0z" fill-rule="nonzero"></path><path fill="#e06666" d="m432.0 233.33353l0 0c0 -5.15477 4.178772 -9.333527 9.333527 -9.333527l253.33298 0c2.4754028 0 4.8494263 0.98335266 6.5997925 2.7337189c1.7503662 1.7503815 2.7337036 4.124405 2.7337036 6.5998077l0 37.332947c0 5.1547546 -4.178772 9.333527 -9.333496 9.333527l-253.33298 0c-5.1547546 0 -9.333527 -4.178772 -9.333527 -9.333527z" fill-rule="nonzero"></path><path fill="#ffffff" d="m508.69305 244.68562q0 2.21875 -1.03125 3.578125q-1.03125 1.34375 -2.875 1.34375q-0.78125 0 -1.40625 -0.28125q-0.609375 -0.296875 -1.046875 -0.859375l0 4.8125l-2.6875 0l0 -13.890625l2.4375 0l0.15625 1.1875q0.4375 -0.671875 1.0625 -1.015625q0.625 -0.359375 1.46875 -0.359375q1.859375 0 2.890625 1.453125q1.03125 1.453125 1.03125 3.828125l0 0.203125zm-2.703125 -0.203125q0 -1.421875 -0.484375 -2.296875q-0.46875 -0.890625 -1.4375 -0.890625q-0.609375 0 -1.046875 0.265625q-0.4375 0.25 -0.6875 0.703125l0 4.40625q0.25 0.421875 0.6875 0.640625q0.4375 0.21875 1.0625 0.21875q0.984375 0 1.4375 -0.765625q0.46875 -0.765625 0.46875 -2.078125l0 -0.203125zm9.452454 -2.765625l-0.984375 -0.03125q-0.609375 0 -1.0 0.25q-0.390625 0.25 -0.59375 0.703125l0 6.78125l-2.6875 0l0 -10.03125l2.5 0l0.125 1.484375q0.359375 -0.796875 0.921875 -1.234375q0.5625 -0.4375 1.28125 -0.4375q0.21875 0 0.375 0.03125q0.171875 0.03125 0.359375 0.078125l-0.296875 2.40625zm0.84399414 2.59375q0 -2.25 1.25 -3.671875q1.25 -1.4375 3.46875 -1.4375q2.234375 0 3.484375 1.4375q1.265625 1.421875 1.265625 3.671875l0 0.1875q0 2.265625 -1.265625 3.6875q-1.25 1.421875 -3.46875 1.421875q-2.21875 0 -3.484375 -1.421875q-1.25 -1.421875 -1.25 -3.6875l0 -0.1875zm2.703125 0.1875q0 1.375 0.46875 2.203125q0.484375 0.828125 1.5625 0.828125q1.046875 0 1.53125 -0.828125q0.5 -0.828125 0.5 -2.203125l0 -0.1875q0 -1.34375 -0.5 -2.1875q-0.484375 -0.84375 -1.546875 -0.84375q-1.046875 0 -1.53125 0.859375q-0.484375 0.84375 -0.484375 2.171875l0 0.1875zm12.452454 3.03125q0.71875 0 1.15625 -0.421875q0.4375 -0.421875 0.4375 -1.125l2.46875 0l0.015625 0.0625q0.046875 1.515625 -1.140625 2.546875q-1.1875 1.015625 -2.9375 1.015625q-2.25 0 -3.46875 -1.40625q-1.203125 -1.421875 -1.203125 -3.65625l0 -0.28125q0 -2.203125 1.203125 -3.625q1.21875 -1.4375 3.453125 -1.4375q1.859375 0 3.0 1.0625q1.140625 1.046875 1.09375 2.765625l-0.015625 0.0625l-2.46875 0q0 -0.78125 -0.421875 -1.296875q-0.421875 -0.515625 -1.1875 -0.515625q-1.0625 0 -1.515625 0.84375q-0.4375 0.828125 -0.4375 2.140625l0 0.28125q0 1.34375 0.4375 2.171875q0.453125 0.8125 1.53125 0.8125zm9.890442 2.078125q-2.171875 0 -3.46875 -1.390625q-1.296875 -1.390625 -1.296875 -3.53125l0 -0.375q0 -2.234375 1.21875 -3.671875q1.234375 -1.453125 3.296875 -1.4375q2.046875 0 3.15625 1.21875q1.125 1.21875 1.125 3.3125l0 1.46875l-5.984375 0l-0.03125 0.0625q0.078125 1.0 0.671875 1.640625q0.59375 0.625 1.59375 0.625q0.90625 0 1.5 -0.171875q0.59375 -0.1875 1.296875 -0.578125l0.734375 1.671875q-0.609375 0.5 -1.609375 0.828125q-0.984375 0.328125 -2.203125 0.328125zm-0.25 -8.328125q-0.75 0 -1.1875 0.578125q-0.421875 0.578125 -0.53125 1.515625l0.03125 0.046875l3.3125 0l0 -0.25q0 -0.859375 -0.40625 -1.375q-0.390625 -0.515625 -1.21875 -0.515625zm11.10907 5.375q0 -0.4375 -0.4375 -0.765625q-0.421875 -0.328125 -1.59375 -0.578125q-1.78125 -0.359375 -2.6875 -1.0625q-0.90625 -0.71875 -0.90625 -1.9375q0 -1.3125 1.09375 -2.203125q1.09375 -0.90625 2.921875 -0.90625q1.90625 0 3.046875 0.90625q1.140625 0.890625 1.09375 2.265625l-0.015625 0.046875l-2.625 0q0 -0.59375 -0.390625 -0.96875q-0.375 -0.390625 -1.109375 -0.390625q-0.671875 0 -1.046875 0.328125q-0.375 0.3125 -0.375 0.796875q0 0.46875 0.390625 0.765625q0.40625 0.296875 1.609375 0.515625q1.859375 0.375 2.75 1.09375q0.90625 0.71875 0.90625 1.984375q0 1.359375 -1.171875 2.21875q-1.15625 0.84375 -3.046875 0.84375q-2.015625 0 -3.1875 -1.015625q-1.15625 -1.015625 -1.09375 -2.3125l0.015625 -0.046875l2.484375 0q0.03125 0.796875 0.53125 1.171875q0.5 0.359375 1.296875 0.359375q0.75 0 1.140625 -0.296875q0.40625 -0.296875 0.40625 -0.8125zm9.619629 0q0 -0.4375 -0.4375 -0.765625q-0.421875 -0.328125 -1.59375 -0.578125q-1.78125 -0.359375 -2.6875 -1.0625q-0.90625 -0.71875 -0.90625 -1.9375q0 -1.3125 1.09375 -2.203125q1.09375 -0.90625 2.921875 -0.90625q1.90625 0 3.046875 0.90625q1.140625 0.890625 1.09375 2.265625l-0.015625 0.046875l-2.625 0q0 -0.59375 -0.390625 -0.96875q-0.375 -0.390625 -1.109375 -0.390625q-0.671875 0 -1.046875 0.328125q-0.375 0.3125 -0.375 0.796875q0 0.46875 0.390625 0.765625q0.40625 0.296875 1.609375 0.515625q1.859375 0.375 2.75 1.09375q0.90625 0.71875 0.90625 1.984375q0 1.359375 -1.171875 2.21875q-1.15625 0.84375 -3.046875 0.84375q-2.015625 0 -3.1875 -1.015625q-1.15625 -1.015625 -1.09375 -2.3125l0.015625 -0.046875l2.484375 0q0.03125 0.796875 0.53125 1.171875q0.5 0.359375 1.296875 0.359375q0.75 0 1.140625 -0.296875q0.40625 -0.296875 0.40625 -0.8125zm13.281128 2.953125q-2.171875 0 -3.46875 -1.390625q-1.296875 -1.390625 -1.296875 -3.53125l0 -0.375q0 -2.234375 1.21875 -3.671875q1.234375 -1.453125 3.296875 -1.4375q2.046875 0 3.15625 1.21875q1.125 1.21875 1.125 3.3125l0 1.46875l-5.984375 0l-0.03125 0.0625q0.078125 1.0 0.671875 1.640625q0.59375 0.625 1.59375 0.625q0.90625 0 1.5 -0.171875q0.59375 -0.1875 1.296875 -0.578125l0.734375 1.671875q-0.609375 0.5 -1.609375 0.828125q-0.984375 0.328125 -2.203125 0.328125zm-0.25 -8.328125q-0.75 0 -1.1875 0.578125q-0.421875 0.578125 -0.53125 1.515625l0.03125 0.046875l3.3125 0l0 -0.25q0 -0.859375 -0.40625 -1.375q-0.390625 -0.515625 -1.21875 -0.515625zm8.530945 8.140625l-2.71875 0l0 -14.46875l2.71875 0l0 14.46875zm6.576599 0.1875q-2.171875 0 -3.46875 -1.390625q-1.296875 -1.390625 -1.296875 -3.53125l0 -0.375q0 -2.234375 1.21875 -3.671875q1.234375 -1.453125 3.296875 -1.4375q2.046875 0 3.15625 1.21875q1.125 1.21875 1.125 3.3125l0 1.46875l-5.984375 0l-0.03125 0.0625q0.078125 1.0 0.671875 1.640625q0.59375 0.625 1.59375 0.625q0.90625 0 1.5 -0.171875q0.59375 -0.1875 1.296875 -0.578125l0.734375 1.671875q-0.609375 0.5 -1.609375 0.828125q-0.984375 0.328125 -2.203125 0.328125zm-0.25 -8.328125q-0.75 0 -1.1875 0.578125q-0.421875 0.578125 -0.53125 1.515625l0.03125 0.046875l3.3125 0l0 -0.25q0 -0.859375 -0.40625 -1.375q-0.390625 -0.515625 -1.21875 -0.515625zm8.187195 -1.890625l0.125 1.3125q0.46875 -0.71875 1.203125 -1.109375q0.734375 -0.390625 1.6875 -0.390625q0.96875 0 1.640625 0.421875q0.6875 0.421875 1.046875 1.296875q0.46875 -0.8125 1.203125 -1.265625q0.75 -0.453125 1.75 -0.453125q1.484375 0 2.34375 1.03125q0.859375 1.015625 0.859375 3.109375l0 6.078125l-2.71875 0l0 -6.09375q0 -1.140625 -0.375 -1.578125q-0.359375 -0.453125 -1.09375 -0.453125q-0.578125 0 -1.0 0.265625q-0.421875 0.25 -0.671875 0.703125q0 0.171875 0 0.3125q0.015625 0.125 0.015625 0.25l0 6.59375l-2.703125 0l0 -6.09375q0 -1.109375 -0.375 -1.5625q-0.359375 -0.46875 -1.109375 -0.46875q-0.546875 0 -0.953125 0.21875q-0.40625 0.203125 -0.6875 0.59375l0 7.3125l-2.6875 0l0 -10.03125l2.5 0zm18.079529 10.21875q-2.171875 0 -3.46875 -1.390625q-1.296875 -1.390625 -1.296875 -3.53125l0 -0.375q0 -2.234375 1.21875 -3.671875q1.234375 -1.453125 3.296875 -1.4375q2.046875 0 3.15625 1.21875q1.125 1.21875 1.125 3.3125l0 1.46875l-5.984375 0l-0.03125 0.0625q0.078125 1.0 0.671875 1.640625q0.59375 0.625 1.59375 0.625q0.90625 0 1.5 -0.171875q0.59375 -0.1875 1.296875 -0.578125l0.734375 1.671875q-0.609375 0.5 -1.609375 0.828125q-0.984375 0.328125 -2.203125 0.328125zm-0.25 -8.328125q-0.75 0 -1.1875 0.578125q-0.421875 0.578125 -0.53125 1.515625l0.03125 0.046875l3.3125 0l0 -0.25q0 -0.859375 -0.40625 -1.375q-0.390625 -0.515625 -1.21875 -0.515625zm8.155945 -1.890625l0.125 1.4375q0.5 -0.78125 1.234375 -1.203125q0.734375 -0.421875 1.640625 -0.421875q1.515625 0 2.359375 0.953125q0.859375 0.953125 0.859375 3.0l0 6.265625l-2.71875 0l0 -6.265625q0 -1.015625 -0.40625 -1.4375q-0.40625 -0.421875 -1.234375 -0.421875q-0.53125 0 -0.96875 0.21875q-0.421875 0.21875 -0.703125 0.625l0 7.28125l-2.703125 0l0 -10.03125l2.515625 0zm11.280579 -2.46875l0 2.46875l1.6875 0l0 1.890625l-1.6875 0l0 5.109375q0 0.59375 0.234375 0.84375q0.234375 0.25 0.65625 0.25q0.203125 0 0.359375 -0.015625q0.15625 -0.03125 0.359375 -0.09375l0.234375 1.96875q-0.40625 0.140625 -0.796875 0.203125q-0.390625 0.0625 -0.84375 0.0625q-1.40625 0 -2.171875 -0.765625q-0.75 -0.765625 -0.75 -2.4375l0 -5.125l-1.46875 0l0 -1.890625l1.46875 0l0 -2.46875l2.71875 0z" fill-rule="nonzero"></path><path fill="#f4cccc" d="m468.4414 269.84436l-1.3125 0l4.75 -12.359375l1.3125 0l-4.75 12.359375zm10.28125 -7.921875l2.65625 -4.4375l1.859375 0l-3.609375 5.640625l3.6875 5.734375l-1.828125 0l-2.734375 -4.515625l-2.734375 4.515625l-1.859375 0l3.6875 -5.734375l-3.609375 -5.640625l1.84375 0l2.640625 4.4375zm12.9296875 -1.46875q0 0.890625 -0.5 1.5625q-0.5 0.65625 -1.34375 0.984375q0.984375 0.34375 1.5625 1.078125q0.59375 0.734375 0.59375 1.703125q0 1.578125 -1.03125 2.421875q-1.015625 0.828125 -2.65625 0.828125q-1.671875 0 -2.703125 -0.828125q-1.015625 -0.84375 -1.015625 -2.421875q0 -0.96875 0.578125 -1.703125q0.578125 -0.734375 1.5625 -1.078125q-0.84375 -0.328125 -1.328125 -0.984375q-0.484375 -0.671875 -0.484375 -1.5625q0 -1.5 0.921875 -2.3125q0.921875 -0.828125 2.453125 -0.828125q1.5 0 2.4375 0.828125q0.953125 0.8125 0.953125 2.3125zm-1.21875 5.296875q0 -0.9375 -0.625 -1.53125q-0.609375 -0.609375 -1.546875 -0.609375q-0.96875 0 -1.5625 0.609375q-0.59375 0.59375 -0.59375 1.53125q0 0.96875 0.59375 1.515625q0.59375 0.546875 1.578125 0.546875q0.953125 0 1.546875 -0.546875q0.609375 -0.5625 0.609375 -1.515625zm-0.3125 -5.265625q0 -0.84375 -0.53125 -1.390625q-0.53125 -0.5625 -1.328125 -0.5625q-0.828125 0 -1.34375 0.53125q-0.5 0.53125 -0.5 1.421875q0 0.859375 0.515625 1.390625q0.515625 0.515625 1.34375 0.515625q0.8125 0 1.328125 -0.515625q0.515625 -0.53125 0.515625 -1.390625zm10.5390625 -0.03125q0 0.890625 -0.5 1.5625q-0.5 0.65625 -1.34375 0.984375q0.984375 0.34375 1.5625 1.078125q0.59375 0.734375 0.59375 1.703125q0 1.578125 -1.03125 2.421875q-1.015625 0.828125 -2.65625 0.828125q-1.671875 0 -2.703125 -0.828125q-1.015625 -0.84375 -1.015625 -2.421875q0 -0.96875 0.578125 -1.703125q0.578125 -0.734375 1.5625 -1.078125q-0.84375 -0.328125 -1.328125 -0.984375q-0.484375 -0.671875 -0.484375 -1.5625q0 -1.5 0.921875 -2.3125q0.921875 -0.828125 2.453125 -0.828125q1.5 0 2.4375 0.828125q0.953125 0.8125 0.953125 2.3125zm-1.21875 5.296875q0 -0.9375 -0.625 -1.53125q-0.609375 -0.609375 -1.546875 -0.609375q-0.96875 0 -1.5625 0.609375q-0.59375 0.59375 -0.59375 1.53125q0 0.96875 0.59375 1.515625q0.59375 0.546875 1.578125 0.546875q0.953125 0 1.546875 -0.546875q0.609375 -0.5625 0.609375 -1.515625zm-0.3125 -5.265625q0 -0.84375 -0.53125 -1.390625q-0.53125 -0.5625 -1.328125 -0.5625q-0.828125 0 -1.34375 0.53125q-0.5 0.53125 -0.5 1.421875q0 0.859375 0.515625 1.390625q0.515625 0.515625 1.34375 0.515625q0.8125 0 1.328125 -0.515625q0.515625 -0.53125 0.515625 -1.390625zm4.0234375 3.234375l0.65625 -6.234375l5.6875 0l0 1.359375l-4.390625 0l-0.375 3.203125q0.359375 -0.265625 0.796875 -0.4375q0.453125 -0.1875 1.03125 -0.203125q1.5625 -0.015625 2.46875 1.03125q0.90625 1.03125 0.90625 2.796875q0 1.703125 -0.921875 2.75q-0.921875 1.046875 -2.671875 1.046875q-1.453125 0 -2.421875 -0.796875q-0.953125 -0.796875 -0.90625 -2.328125l0.015625 -0.046875l1.390625 0q0 0.9375 0.53125 1.453125q0.53125 0.5 1.390625 0.5q0.96875 0 1.5 -0.6875q0.546875 -0.6875 0.546875 -1.875q0 -1.09375 -0.546875 -1.796875q-0.546875 -0.703125 -1.5 -0.703125q-0.90625 0 -1.3125 0.28125q-0.40625 0.265625 -0.59375 0.828125l-1.28125 -0.140625zm9.0078125 0l0.65625 -6.234375l5.6875 0l0 1.359375l-4.390625 0l-0.375 3.203125q0.359375 -0.265625 0.796875 -0.4375q0.453125 -0.1875 1.03125 -0.203125q1.5625 -0.015625 2.46875 1.03125q0.90625 1.03125 0.90625 2.796875q0 1.703125 -0.921875 2.75q-0.921875 1.046875 -2.671875 1.046875q-1.453125 0 -2.421875 -0.796875q-0.953125 -0.796875 -0.90625 -2.328125l0.015625 -0.046875l1.390625 0q0 0.9375 0.53125 1.453125q0.53125 0.5 1.390625 0.5q0.96875 0 1.5 -0.6875q0.546875 -0.6875 0.546875 -1.875q0 -1.09375 -0.546875 -1.796875q-0.546875 -0.703125 -1.5 -0.703125q-0.90625 0 -1.3125 0.28125q-0.40625 0.265625 -0.59375 0.828125l-1.28125 -0.140625zm15.7578125 0.796875q0 2.1875 -0.96875 3.359375q-0.953125 1.15625 -2.640625 1.15625q-1.671875 0 -2.65625 -1.171875q-0.96875 -1.171875 -0.96875 -3.34375l0 -2.6875q0 -2.171875 0.96875 -3.34375q0.96875 -1.171875 2.640625 -1.171875q1.6875 0 2.65625 1.171875q0.96875 1.171875 0.96875 3.34375l0 2.6875zm-1.53125 -3.015625q0 -1.484375 -0.546875 -2.21875q-0.53125 -0.75 -1.546875 -0.75q-1.015625 0 -1.546875 0.75q-0.53125 0.734375 -0.53125 2.21875l0 3.328125q0 1.484375 0.53125 2.234375q0.546875 0.75 1.5625 0.75q1.015625 0 1.546875 -0.75q0.53125 -0.75 0.53125 -2.234375l0 -3.328125zm10.546875 3.015625q0 2.1875 -0.96875 3.359375q-0.953125 1.15625 -2.640625 1.15625q-1.671875 0 -2.65625 -1.171875q-0.96875 -1.171875 -0.96875 -3.34375l0 -2.6875q0 -2.171875 0.96875 -3.34375q0.96875 -1.171875 2.640625 -1.171875q1.6875 0 2.65625 1.171875q0.96875 1.171875 0.96875 3.34375l0 2.6875zm-1.53125 -3.015625q0 -1.484375 -0.546875 -2.21875q-0.53125 -0.75 -1.546875 -0.75q-1.015625 0 -1.546875 0.75q-0.53125 0.734375 -0.53125 2.21875l0 3.328125q0 1.484375 0.53125 2.234375q0.546875 0.75 1.5625 0.75q1.015625 0 1.546875 -0.75q0.53125 -0.75 0.53125 -2.234375l0 -3.328125zm7.75 7.359375l-1.546875 0l0 -9.875l-2.328125 0.03125l0 -1.109375l3.875 -0.421875l0 11.375zm10.7578125 -3.828125l1.5625 0l0 1.203125l-1.5625 0l0 2.625l-1.53125 0l0 -2.625l-5.109375 0l0 -0.875l5.015625 -7.875l1.625 0l0 7.546875zm-5.0 0l3.46875 0l0 -5.34375l-0.046875 0l-0.15625 0.390625l-3.265625 4.953125zm7.6953125 -0.25q0 -2.03125 0.875 -3.28125q0.875 -1.25 2.4375 -1.25q0.75 0 1.3125 0.28125q0.578125 0.265625 0.984375 0.78125l0 -4.640625l1.546875 0l0 12.1875l-1.265625 0l-0.171875 -1.046875q-0.421875 0.59375 -1.03125 0.90625q-0.59375 0.3125 -1.390625 0.3125q-1.546875 0 -2.421875 -1.125q-0.875 -1.125 -0.875 -2.953125l0 -0.171875zm1.546875 0.171875q0 1.28125 0.515625 2.046875q0.53125 0.765625 1.625 0.765625q0.6875 0 1.15625 -0.3125q0.46875 -0.3125 0.765625 -0.875l0 -3.9375q-0.296875 -0.53125 -0.765625 -0.828125q-0.46875 -0.3125 -1.140625 -0.3125q-1.109375 0 -1.640625 0.921875q-0.515625 0.90625 -0.515625 2.359375l0 0.171875zm13.859375 0.078125l1.5625 0l0 1.203125l-1.5625 0l0 2.625l-1.53125 0l0 -2.625l-5.109375 0l0 -0.875l5.015625 -7.875l1.625 0l0 7.546875zm-5.0 0l3.46875 0l0 -5.34375l-0.046875 0l-0.15625 0.390625l-3.265625 4.953125zm11.4921875 2.78125q0.765625 0 1.34375 -0.46875q0.578125 -0.46875 0.578125 -1.15625l1.390625 0l0.015625 0.046875q0.03125 1.09375 -0.984375 1.953125q-1.0 0.84375 -2.34375 0.84375q-1.84375 0 -2.828125 -1.203125q-0.96875 -1.21875 -0.96875 -3.03125l0 -0.328125q0 -1.8125 0.96875 -3.015625q0.984375 -1.203125 2.828125 -1.203125q1.484375 0 2.421875 0.875q0.9375 0.875 0.90625 2.140625l-0.015625 0.046875l-1.390625 0q0 -0.765625 -0.546875 -1.3125q-0.546875 -0.546875 -1.375 -0.546875q-1.21875 0 -1.734375 0.875q-0.515625 0.875 -0.515625 2.140625l0 0.328125q0 1.296875 0.515625 2.15625q0.515625 0.859375 1.734375 0.859375zm11.8203125 -7.359375q0 0.890625 -0.5 1.5625q-0.5 0.65625 -1.34375 0.984375q0.984375 0.34375 1.5625 1.078125q0.59375 0.734375 0.59375 1.703125q0 1.578125 -1.03125 2.421875q-1.015625 0.828125 -2.65625 0.828125q-1.671875 0 -2.703125 -0.828125q-1.015625 -0.84375 -1.015625 -2.421875q0 -0.96875 0.578125 -1.703125q0.578125 -0.734375 1.5625 -1.078125q-0.84375 -0.328125 -1.328125 -0.984375q-0.484375 -0.671875 -0.484375 -1.5625q0 -1.5 0.921875 -2.3125q0.921875 -0.828125 2.453125 -0.828125q1.5 0 2.4375 0.828125q0.953125 0.8125 0.953125 2.3125zm-1.21875 5.296875q0 -0.9375 -0.625 -1.53125q-0.609375 -0.609375 -1.546875 -0.609375q-0.96875 0 -1.5625 0.609375q-0.59375 0.59375 -0.59375 1.53125q0 0.96875 0.59375 1.515625q0.59375 0.546875 1.578125 0.546875q0.953125 0 1.546875 -0.546875q0.609375 -0.5625 0.609375 -1.515625zm-0.3125 -5.265625q0 -0.84375 -0.53125 -1.390625q-0.53125 -0.5625 -1.328125 -0.5625q-0.828125 0 -1.34375 0.53125q-0.5 0.53125 -0.5 1.421875q0 0.859375 0.515625 1.390625q0.515625 0.515625 1.34375 0.515625q0.8125 0 1.328125 -0.515625q0.515625 -0.53125 0.515625 -1.390625zm10.9453125 8.375l-7.375 0l0 -1.0625l3.734375 -4.140625q1.0 -1.109375 1.34375 -1.765625q0.359375 -0.65625 0.359375 -1.34375q0 -0.859375 -0.5 -1.4375q-0.484375 -0.578125 -1.3125 -0.578125q-1.171875 0 -1.734375 0.609375q-0.5625 0.59375 -0.5625 1.6875l-1.46875 0l-0.015625 -0.046875q-0.046875 -1.46875 0.96875 -2.46875q1.015625 -1.0 2.8125 -1.0q1.53125 0 2.4375 0.90625q0.921875 0.890625 0.921875 2.265625q0 0.9375 -0.5625 1.875q-0.546875 0.921875 -1.53125 2.0l-3.0 3.25l0.015625 0.046875l5.46875 0l0 1.203125zm5.3359375 0.171875q-1.765625 0 -2.8125 -1.171875q-1.03125 -1.1875 -1.03125 -3.0625l0 -0.34375q0 -1.8125 1.0625 -3.0q1.078125 -1.203125 2.546875 -1.203125q1.71875 0 2.59375 1.03125q0.875 1.03125 0.875 2.75l0 0.953125l-5.484375 0l-0.03125 0.046875q0.03125 1.21875 0.625 2.0q0.59375 0.78125 1.65625 0.78125q0.78125 0 1.375 -0.21875q0.59375 -0.21875 1.015625 -0.609375l0.609375 1.0q-0.453125 0.4375 -1.203125 0.75q-0.734375 0.296875 -1.796875 0.296875zm-0.234375 -7.578125q-0.765625 0 -1.3125 0.65625q-0.546875 0.65625 -0.671875 1.640625l0.015625 0.03125l3.890625 0l0 -0.203125q0 -0.90625 -0.484375 -1.515625q-0.484375 -0.609375 -1.4375 -0.609375zm11.1484375 3.578125l1.5625 0l0 1.203125l-1.5625 0l0 2.625l-1.53125 0l0 -2.625l-5.109375 0l0 -0.875l5.015625 -7.875l1.625 0l0 7.546875zm-5.0 0l3.46875 0l0 -5.34375l-0.046875 0l-0.15625 0.390625l-3.265625 4.953125zm7.6953125 -0.25q0 -2.03125 0.875 -3.28125q0.875 -1.25 2.4375 -1.25q0.75 0 1.3125 0.28125q0.578125 0.265625 0.984375 0.78125l0 -4.640625l1.546875 0l0 12.1875l-1.265625 0l-0.171875 -1.046875q-0.421875 0.59375 -1.03125 0.90625q-0.59375 0.3125 -1.390625 0.3125q-1.546875 0 -2.421875 -1.125q-0.875 -1.125 -0.875 -2.953125l0 -0.171875zm1.546875 0.171875q0 1.28125 0.515625 2.046875q0.53125 0.765625 1.625 0.765625q0.6875 0 1.15625 -0.3125q0.46875 -0.3125 0.765625 -0.875l0 -3.9375q-0.296875 -0.53125 -0.765625 -0.828125q-0.46875 -0.3125 -1.140625 -0.3125q-1.109375 0 -1.640625 0.921875q-0.515625 0.90625 -0.515625 2.359375l0 0.171875zm8.21875 4.890625l-1.3125 0l4.75 -12.359375l1.3125 0l-4.75 12.359375zm13.53125 -4.890625q0 1.828125 -0.875 2.953125q-0.875 1.125 -2.421875 1.125q-0.78125 0 -1.375 -0.265625q-0.578125 -0.265625 -1.0 -0.796875l0 4.140625l-1.53125 0l0 -11.703125l1.171875 0l0.25 1.09375q0.40625 -0.609375 1.015625 -0.921875q0.625 -0.328125 1.453125 -0.328125q1.5625 0 2.4375 1.25q0.875 1.234375 0.875 3.28125l0 0.171875zm-1.546875 -0.171875q0 -1.4375 -0.5625 -2.359375q-0.5625 -0.921875 -1.671875 -0.921875q-0.65625 0 -1.125 0.296875q-0.46875 0.296875 -0.765625 0.828125l0 4.078125q0.296875 0.53125 0.765625 0.828125q0.46875 0.28125 1.140625 0.28125q1.09375 0 1.65625 -0.796875q0.5625 -0.796875 0.5625 -2.0625l0 -0.171875zm5.09375 4.078125l-1.53125 0l0 -8.453125l1.53125 0l0 8.453125zm0 -10.625l-1.53125 0l0 -1.5625l1.53125 0l0 1.5625zm9.578125 6.71875q0 1.828125 -0.875 2.953125q-0.875 1.125 -2.421875 1.125q-0.78125 0 -1.375 -0.265625q-0.578125 -0.265625 -1.0 -0.796875l0 4.140625l-1.53125 0l0 -11.703125l1.171875 0l0.25 1.09375q0.40625 -0.609375 1.015625 -0.921875q0.625 -0.328125 1.453125 -0.328125q1.5625 0 2.4375 1.25q0.875 1.234375 0.875 3.28125l0 0.171875zm-1.546875 -0.171875q0 -1.4375 -0.5625 -2.359375q-0.5625 -0.921875 -1.671875 -0.921875q-0.65625 0 -1.125 0.296875q-0.46875 0.296875 -0.765625 0.828125l0 4.078125q0.296875 0.53125 0.765625 0.828125q0.46875 0.28125 1.140625 0.28125q1.09375 0 1.65625 -0.796875q0.5625 -0.796875 0.5625 -2.0625l0 -0.171875zm10.640625 0.171875q0 1.828125 -0.875 2.953125q-0.875 1.125 -2.421875 1.125q-0.78125 0 -1.375 -0.265625q-0.578125 -0.265625 -1.0 -0.796875l0 4.140625l-1.53125 0l0 -11.703125l1.171875 0l0.25 1.09375q0.40625 -0.609375 1.015625 -0.921875q0.625 -0.328125 1.453125 -0.328125q1.5625 0 2.4375 1.25q0.875 1.234375 0.875 3.28125l0 0.171875zm-1.546875 -0.171875q0 -1.4375 -0.5625 -2.359375q-0.5625 -0.921875 -1.671875 -0.921875q-0.65625 0 -1.125 0.296875q-0.46875 0.296875 -0.765625 0.828125l0 4.078125q0.296875 0.53125 0.765625 0.828125q0.46875 0.28125 1.140625 0.28125q1.09375 0 1.65625 -0.796875q0.5625 -0.796875 0.5625 -2.0625l0 -0.171875zm5.09375 4.078125l-1.53125 0l0 -8.453125l1.53125 0l0 8.453125zm0 -10.625l-1.53125 0l0 -1.5625l1.53125 0l0 1.5625z" fill-rule="nonzero"></path><path fill="#e06666" d="m438.4042 241.83989l-101.60104 -34.05774l100.49869 46.204727z" fill-rule="nonzero"></path><path fill="#e06666" d="m320.0 138.7664l0 0c0 -20.786781 16.851013 -37.637794 37.637787 -37.637794l0 0c9.982178 0 19.555481 3.9654007 26.613953 11.023857c7.058441 7.0584564 11.023834 16.631775 11.023834 26.613937l0 0c0 20.786774 -16.851013 37.637787 -37.637787 37.637787l0 0c-20.786774 0 -37.637787 -16.851013 -37.637787 -37.637787z" fill-rule="nonzero"></path><path fill="#ffffff" d="m348.14658 145.6864l-2.71875 0l0 -14.46875l2.71875 0l0 14.46875zm7.5610046 -2.765625q0 -0.4375 -0.4375 -0.765625q-0.421875 -0.328125 -1.59375 -0.578125q-1.78125 -0.359375 -2.6875 -1.0625q-0.90625 -0.71875 -0.90625 -1.9375q0 -1.3125 1.09375 -2.203125q1.09375 -0.90625 2.921875 -0.90625q1.90625 0 3.046875 0.90625q1.140625 0.890625 1.09375 2.265625l-0.015625 0.046875l-2.625 0q0 -0.59375 -0.390625 -0.96875q-0.375 -0.390625 -1.109375 -0.390625q-0.671875 0 -1.046875 0.328125q-0.375 0.3125 -0.375 0.796875q0 0.46875 0.390625 0.765625q0.40625 0.296875 1.609375 0.515625q1.859375 0.375 2.75 1.09375q0.90625 0.71875 0.90625 1.984375q0 1.359375 -1.171875 2.21875q-1.15625 0.84375 -3.046875 0.84375q-2.015625 0 -3.1875 -1.015625q-1.15625 -1.015625 -1.09375 -2.3125l0.015625 -0.046875l2.484375 0q0.03125 0.796875 0.53125 1.171875q0.5 0.359375 1.296875 0.359375q0.75 0 1.140625 -0.296875q0.40625 -0.296875 0.40625 -0.8125zm10.296722 3.921875l-2.625 0l4.953125 -14.671875l2.625 0l-4.953125 14.671875z" fill-rule="nonzero"></path><path fill="#e06666" d="m440.0 153.33353l0 0c0 -5.15477 4.178772 -9.333527 9.333527 -9.333527l149.33298 0c2.4754028 0 4.8494263 0.98335266 6.5997925 2.7337189c1.7503662 1.7503815 2.7337036 4.124405 2.7337036 6.5998077l0 37.332947c0 5.15477 -4.178772 9.333527 -9.333496 9.333527l-149.33298 0c-5.1547546 0 -9.333527 -4.1787567 -9.333527 -9.333527z" fill-rule="nonzero"></path><path fill="#ffffff" d="m468.79483 166.02937q0.71875 0 1.15625 -0.421875q0.4375 -0.421875 0.4375 -1.125l2.46875 0l0.015625 0.0625q0.046875 1.515625 -1.140625 2.546875q-1.1875 1.015625 -2.9375 1.015625q-2.25 0 -3.46875 -1.40625q-1.203125 -1.421875 -1.203125 -3.65625l0 -0.28125q0 -2.203125 1.203125 -3.625q1.21875 -1.4375 3.453125 -1.4375q1.859375 0 3.0 1.0625q1.140625 1.046875 1.09375 2.765625l-0.015625 0.0625l-2.46875 0q0 -0.78125 -0.421875 -1.296875q-0.421875 -0.515625 -1.1875 -0.515625q-1.0625 0 -1.515625 0.84375q-0.4375 0.828125 -0.4375 2.140625l0 0.28125q0 1.34375 0.4375 2.171875q0.453125 0.8125 1.53125 0.8125zm5.031067 -3.21875q0 -2.25 1.25 -3.671875q1.25 -1.4375 3.46875 -1.4375q2.234375 0 3.484375 1.4375q1.265625 1.421875 1.265625 3.671875l0 0.1875q0 2.265625 -1.265625 3.6875q-1.25 1.421875 -3.46875 1.421875q-2.21875 0 -3.484375 -1.421875q-1.25 -1.421875 -1.25 -3.6875l0 -0.1875zm2.703125 0.1875q0 1.375 0.46875 2.203125q0.484375 0.828125 1.5625 0.828125q1.046875 0 1.53125 -0.828125q0.5 -0.828125 0.5 -2.203125l0 -0.1875q0 -1.34375 -0.5 -2.1875q-0.484375 -0.84375 -1.546875 -0.84375q-1.046875 0 -1.53125 0.859375q-0.484375 0.84375 -0.484375 2.171875l0 0.1875zm13.514954 -2.78125l-0.984375 -0.03125q-0.609375 0 -1.0 0.25q-0.390625 0.25 -0.59375 0.703125l0 6.78125l-2.6875 0l0 -10.03125l2.5 0l0.125 1.484375q0.359375 -0.796875 0.921875 -1.234375q0.5625 -0.4375 1.28125 -0.4375q0.21875 0 0.375 0.03125q0.171875 0.03125 0.359375 0.078125l-0.296875 2.40625zm6.531494 0l-0.984375 -0.03125q-0.609375 0 -1.0 0.25q-0.390625 0.25 -0.59375 0.703125l0 6.78125l-2.6875 0l0 -10.03125l2.5 0l0.125 1.484375q0.359375 -0.796875 0.921875 -1.234375q0.5625 -0.4375 1.28125 -0.4375q0.21875 0 0.375 0.03125q0.171875 0.03125 0.359375 0.078125l-0.296875 2.40625zm5.7033997 7.890625q-2.171875 0 -3.46875 -1.390625q-1.296875 -1.390625 -1.296875 -3.53125l0 -0.375q0 -2.234375 1.21875 -3.671875q1.234375 -1.453125 3.296875 -1.4375q2.046875 0 3.15625 1.21875q1.125 1.21875 1.125 3.3125l0 1.46875l-5.984375 0l-0.03125 0.0625q0.078125 1.0 0.671875 1.640625q0.59375 0.625 1.59375 0.625q0.90625 0 1.5 -0.171875q0.59375 -0.1875 1.296875 -0.578125l0.734375 1.671875q-0.609375 0.5 -1.609375 0.828125q-0.984375 0.328125 -2.203125 0.328125zm-0.25 -8.328125q-0.75 0 -1.1875 0.578125q-0.421875 0.578125 -0.53125 1.515625l0.03125 0.046875l3.3125 0l0 -0.25q0 -0.859375 -0.40625 -1.375q-0.390625 -0.515625 -1.21875 -0.515625zm11.10907 5.375q0 -0.4375 -0.4375 -0.765625q-0.421875 -0.328125 -1.59375 -0.578125q-1.78125 -0.359375 -2.6875 -1.0625q-0.90625 -0.71875 -0.90625 -1.9375q0 -1.3125 1.09375 -2.203125q1.09375 -0.90625 2.921875 -0.90625q1.90625 0 3.046875 0.90625q1.140625 0.890625 1.09375 2.265625l-0.015625 0.046875l-2.625 0q0 -0.59375 -0.390625 -0.96875q-0.375 -0.390625 -1.109375 -0.390625q-0.671875 0 -1.046875 0.328125q-0.375 0.3125 -0.375 0.796875q0 0.46875 0.390625 0.765625q0.40625 0.296875 1.609375 0.515625q1.859375 0.375 2.75 1.09375q0.90625 0.71875 0.90625 1.984375q0 1.359375 -1.171875 2.21875q-1.15625 0.84375 -3.046875 0.84375q-2.015625 0 -3.1875 -1.015625q-1.15625 -1.015625 -1.09375 -2.3125l0.015625 -0.046875l2.484375 0q0.03125 0.796875 0.53125 1.171875q0.5 0.359375 1.296875 0.359375q0.75 0 1.140625 -0.296875q0.40625 -0.296875 0.40625 -0.8125zm13.244629 -1.96875q0 2.21875 -1.03125 3.578125q-1.03125 1.34375 -2.875 1.34375q-0.78125 0 -1.40625 -0.28125q-0.609375 -0.296875 -1.046875 -0.859375l0 4.8125l-2.6875 0l0 -13.890625l2.4375 0l0.15625 1.1875q0.4375 -0.671875 1.0625 -1.015625q0.625 -0.359375 1.46875 -0.359375q1.859375 0 2.890625 1.453125q1.03125 1.453125 1.03125 3.828125l0 0.203125zm-2.703125 -0.203125q0 -1.421875 -0.484375 -2.296875q-0.46875 -0.890625 -1.4375 -0.890625q-0.609375 0 -1.046875 0.265625q-0.4375 0.25 -0.6875 0.703125l0 4.40625q0.25 0.421875 0.6875 0.640625q0.4375 0.21875 1.0625 0.21875q0.984375 0 1.4375 -0.765625q0.46875 -0.765625 0.46875 -2.078125l0 -0.203125zm3.7649536 -0.171875q0 -2.25 1.25 -3.671875q1.25 -1.4375 3.46875 -1.4375q2.234375 0 3.484375 1.4375q1.265625 1.421875 1.265625 3.671875l0 0.1875q0 2.265625 -1.265625 3.6875q-1.25 1.421875 -3.46875 1.421875q-2.21875 0 -3.484375 -1.421875q-1.25 -1.421875 -1.25 -3.6875l0 -0.1875zm2.703125 0.1875q0 1.375 0.46875 2.203125q0.484375 0.828125 1.5625 0.828125q1.046875 0 1.53125 -0.828125q0.5 -0.828125 0.5 -2.203125l0 -0.1875q0 -1.34375 -0.5 -2.1875q-0.484375 -0.84375 -1.546875 -0.84375q-1.046875 0 -1.53125 0.859375q-0.484375 0.84375 -0.484375 2.171875l0 0.1875zm10.718079 -5.109375l0.125 1.4375q0.5 -0.78125 1.234375 -1.203125q0.734375 -0.421875 1.640625 -0.421875q1.515625 0 2.359375 0.953125q0.859375 0.953125 0.859375 3.0l0 6.265625l-2.71875 0l0 -6.265625q0 -1.015625 -0.40625 -1.4375q-0.40625 -0.421875 -1.234375 -0.421875q-0.53125 0 -0.96875 0.21875q-0.421875 0.21875 -0.703125 0.625l0 7.28125l-2.703125 0l0 -10.03125l2.515625 0zm7.6399536 5.09375q0 -2.375 1.015625 -3.828125q1.03125 -1.453125 2.890625 -1.453125q0.75 0 1.359375 0.328125q0.609375 0.3125 1.0625 0.921875l0 -5.5l2.71875 0l0 14.46875l-2.328125 0l-0.234375 -1.21875q-0.46875 0.6875 -1.109375 1.046875q-0.640625 0.359375 -1.484375 0.359375q-1.84375 0 -2.875 -1.34375q-1.015625 -1.359375 -1.015625 -3.578125l0 -0.203125zm2.703125 0.203125q0 1.3125 0.4375 2.078125q0.453125 0.75 1.453125 0.75q0.578125 0 1.015625 -0.234375q0.4375 -0.25 0.71875 -0.703125l0 -4.265625q-0.28125 -0.484375 -0.71875 -0.75q-0.421875 -0.265625 -1.0 -0.265625q-1.0 0 -1.453125 0.890625q-0.453125 0.875 -0.453125 2.296875l0 0.203125zm11.093079 4.734375l-2.71875 0l0 -10.03125l2.71875 0l0 10.03125zm0 -12.4375l-2.71875 0l0 -2.03125l2.71875 0l0 2.03125zm4.60791 2.40625l0.125 1.4375q0.5 -0.78125 1.234375 -1.203125q0.734375 -0.421875 1.640625 -0.421875q1.515625 0 2.359375 0.953125q0.859375 0.953125 0.859375 3.0l0 6.265625l-2.71875 0l0 -6.265625q0 -1.015625 -0.40625 -1.4375q-0.40625 -0.421875 -1.234375 -0.421875q-0.53125 0 -0.96875 0.21875q-0.421875 0.21875 -0.703125 0.625l0 7.28125l-2.703125 0l0 -10.03125l2.515625 0zm7.6399536 5.09375q0 -2.375 1.03125 -3.828125q1.03125 -1.453125 2.90625 -1.453125q0.84375 0 1.484375 0.375q0.640625 0.375 1.09375 1.078125l0.203125 -1.265625l2.34375 0l0 9.984375q0 1.953125 -1.296875 3.015625q-1.28125 1.078125 -3.5625 1.078125q-0.765625 0 -1.625 -0.203125q-0.84375 -0.203125 -1.5625 -0.5625l0.5 -2.03125q0.609375 0.296875 1.25 0.453125q0.65625 0.15625 1.421875 0.15625q1.109375 0 1.625 -0.46875q0.53125 -0.46875 0.53125 -1.453125l0 -0.90625q-0.453125 0.5625 -1.0625 0.859375q-0.59375 0.296875 -1.375 0.296875q-1.84375 0 -2.875 -1.359375q-1.03125 -1.359375 -1.03125 -3.5625l0 -0.203125zm2.703125 0.203125q0 1.3125 0.4375 2.078125q0.453125 0.75 1.453125 0.75q0.625 0 1.046875 -0.21875q0.4375 -0.234375 0.703125 -0.671875l0 -4.359375q-0.265625 -0.453125 -0.703125 -0.703125q-0.421875 -0.265625 -1.03125 -0.265625q-0.984375 0 -1.453125 0.890625q-0.453125 0.875 -0.453125 2.296875l0 0.203125z" fill-rule="nonzero"></path><path fill="#ffffff" d="m488.33203 184.38875q0 2.484375 -1.578125 4.109375q-1.5625 1.609375 -4.078125 1.609375q-2.5 0 -4.0625 -1.609375q-1.546875 -1.625 -1.546875 -4.109375l0 -2.4375q0 -2.484375 1.546875 -4.109375q1.5625 -1.625 4.046875 -1.625q2.515625 0 4.09375 1.625q1.578125 1.625 1.578125 4.109375l0 2.4375zm-2.703125 -2.453125q0 -1.578125 -0.796875 -2.59375q-0.78125 -1.015625 -2.171875 -1.015625q-1.375 0 -2.140625 1.015625q-0.765625 1.0 -0.765625 2.59375l0 2.453125q0 1.59375 0.765625 2.609375q0.78125 1.015625 2.15625 1.015625q1.390625 0 2.171875 -1.015625q0.78125 -1.015625 0.78125 -2.609375l0 -2.453125zm11.869171 4.453125q0 -0.78125 -0.546875 -1.25q-0.546875 -0.46875 -1.9375 -0.890625q-2.40625 -0.6875 -3.640625 -1.640625q-1.234375 -0.96875 -1.234375 -2.625q0 -1.65625 1.40625 -2.703125q1.421875 -1.0625 3.625 -1.0625q2.21875 0 3.625 1.1875q1.40625 1.171875 1.359375 2.90625l-0.03125 0.0625l-2.625 0q0 -0.9375 -0.625 -1.515625q-0.625 -0.578125 -1.75 -0.578125q-1.09375 0 -1.6875 0.484375q-0.59375 0.484375 -0.59375 1.234375q0 0.6875 0.640625 1.125q0.640625 0.4375 2.1875 0.921875q2.25 0.625 3.390625 1.65625q1.15625 1.015625 1.15625 2.671875q0 1.734375 -1.375 2.734375q-1.359375 1.0 -3.609375 1.0q-2.203125 0 -3.859375 -1.125q-1.640625 -1.140625 -1.59375 -3.1875l0.03125 -0.0625l2.625 0q0 1.203125 0.734375 1.765625q0.75 0.5625 2.0625 0.5625q1.109375 0 1.6875 -0.453125q0.578125 -0.453125 0.578125 -1.21875zm18.02597 -1.203125q0 2.21875 -1.03125 3.578125q-1.03125 1.34375 -2.875 1.34375q-0.78125 0 -1.40625 -0.28125q-0.609375 -0.296875 -1.046875 -0.859375l0 4.8125l-2.6875 0l0 -13.890625l2.4375 0l0.15625 1.1875q0.4375 -0.671875 1.0625 -1.015625q0.625 -0.359375 1.46875 -0.359375q1.859375 0 2.890625 1.453125q1.03125 1.453125 1.03125 3.828125l0 0.203125zm-2.703125 -0.203125q0 -1.421875 -0.484375 -2.296875q-0.46875 -0.890625 -1.4375 -0.890625q-0.609375 0 -1.046875 0.265625q-0.4375 0.25 -0.6875 0.703125l0 4.40625q0.25 0.421875 0.6875 0.640625q0.4375 0.21875 1.0625 0.21875q0.984375 0 1.4375 -0.765625q0.46875 -0.765625 0.46875 -2.078125l0 -0.203125zm9.452454 -2.765625l-0.984375 -0.03125q-0.609375 0 -1.0 0.25q-0.390625 0.25 -0.59375 0.703125l0 6.78125l-2.6875 0l0 -10.03125l2.5 0l0.125 1.484375q0.359375 -0.796875 0.921875 -1.234375q0.5625 -0.4375 1.28125 -0.4375q0.21875 0 0.375 0.03125q0.171875 0.03125 0.359375 0.078125l-0.296875 2.40625zm0.84399414 2.59375q0 -2.25 1.25 -3.671875q1.25 -1.4375 3.46875 -1.4375q2.234375 0 3.484375 1.4375q1.265625 1.421875 1.265625 3.671875l0 0.1875q0 2.265625 -1.265625 3.6875q-1.25 1.421875 -3.46875 1.421875q-2.21875 0 -3.484375 -1.421875q-1.25 -1.421875 -1.25 -3.6875l0 -0.1875zm2.703125 0.1875q0 1.375 0.46875 2.203125q0.484375 0.828125 1.5625 0.828125q1.046875 0 1.53125 -0.828125q0.5 -0.828125 0.5 -2.203125l0 -0.1875q0 -1.34375 -0.5 -2.1875q-0.484375 -0.84375 -1.546875 -0.84375q-1.046875 0 -1.53125 0.859375q-0.484375 0.84375 -0.484375 2.171875l0 0.1875zm12.452454 3.03125q0.71875 0 1.15625 -0.421875q0.4375 -0.421875 0.4375 -1.125l2.46875 0l0.015625 0.0625q0.046875 1.515625 -1.140625 2.546875q-1.1875 1.015625 -2.9375 1.015625q-2.25 0 -3.46875 -1.40625q-1.203125 -1.421875 -1.203125 -3.65625l0 -0.28125q0 -2.203125 1.203125 -3.625q1.21875 -1.4375 3.453125 -1.4375q1.859375 0 3.0 1.0625q1.140625 1.046875 1.09375 2.765625l-0.015625 0.0625l-2.46875 0q0 -0.78125 -0.421875 -1.296875q-0.421875 -0.515625 -1.1875 -0.515625q-1.0625 0 -1.515625 0.84375q-0.4375 0.828125 -0.4375 2.140625l0 0.28125q0 1.34375 0.4375 2.171875q0.453125 0.8125 1.53125 0.8125zm9.890442 2.078125q-2.171875 0 -3.46875 -1.390625q-1.296875 -1.390625 -1.296875 -3.53125l0 -0.375q0 -2.234375 1.21875 -3.671875q1.234375 -1.453125 3.296875 -1.4375q2.046875 0 3.15625 1.21875q1.125 1.21875 1.125 3.3125l0 1.46875l-5.984375 0l-0.03125 0.0625q0.078125 1.0 0.671875 1.640625q0.59375 0.625 1.59375 0.625q0.90625 0 1.5 -0.171875q0.59375 -0.1875 1.296875 -0.578125l0.734375 1.671875q-0.609375 0.5 -1.609375 0.828125q-0.984375 0.328125 -2.203125 0.328125zm-0.25 -8.328125q-0.75 0 -1.1875 0.578125q-0.421875 0.578125 -0.53125 1.515625l0.03125 0.046875l3.3125 0l0 -0.25q0 -0.859375 -0.40625 -1.375q-0.390625 -0.515625 -1.21875 -0.515625zm11.10907 5.375q0 -0.4375 -0.4375 -0.765625q-0.421875 -0.328125 -1.59375 -0.578125q-1.78125 -0.359375 -2.6875 -1.0625q-0.90625 -0.71875 -0.90625 -1.9375q0 -1.3125 1.09375 -2.203125q1.09375 -0.90625 2.921875 -0.90625q1.90625 0 3.046875 0.90625q1.140625 0.890625 1.09375 2.265625l-0.015625 0.046875l-2.625 0q0 -0.59375 -0.390625 -0.96875q-0.375 -0.390625 -1.109375 -0.390625q-0.671875 0 -1.046875 0.328125q-0.375 0.3125 -0.375 0.796875q0 0.46875 0.390625 0.765625q0.40625 0.296875 1.609375 0.515625q1.859375 0.375 2.75 1.09375q0.90625 0.71875 0.90625 1.984375q0 1.359375 -1.171875 2.21875q-1.15625 0.84375 -3.046875 0.84375q-2.015625 0 -3.1875 -1.015625q-1.15625 -1.015625 -1.09375 -2.3125l0.015625 -0.046875l2.484375 0q0.03125 0.796875 0.53125 1.171875q0.5 0.359375 1.296875 0.359375q0.75 0 1.140625 -0.296875q0.40625 -0.296875 0.40625 -0.8125zm9.619629 0q0 -0.4375 -0.4375 -0.765625q-0.421875 -0.328125 -1.59375 -0.578125q-1.78125 -0.359375 -2.6875 -1.0625q-0.90625 -0.71875 -0.90625 -1.9375q0 -1.3125 1.09375 -2.203125q1.09375 -0.90625 2.921875 -0.90625q1.90625 0 3.046875 0.90625q1.140625 0.890625 1.09375 2.265625l-0.015625 0.046875l-2.625 0q0 -0.59375 -0.390625 -0.96875q-0.375 -0.390625 -1.109375 -0.390625q-0.671875 0 -1.046875 0.328125q-0.375 0.3125 -0.375 0.796875q0 0.46875 0.390625 0.765625q0.40625 0.296875 1.609375 0.515625q1.859375 0.375 2.75 1.09375q0.90625 0.71875 0.90625 1.984375q0 1.359375 -1.171875 2.21875q-1.15625 0.84375 -3.046875 0.84375q-2.015625 0 -3.1875 -1.015625q-1.15625 -1.015625 -1.09375 -2.3125l0.015625 -0.046875l2.484375 0q0.03125 0.796875 0.53125 1.171875q0.5 0.359375 1.296875 0.359375q0.75 0 1.140625 -0.296875q0.40625 -0.296875 0.40625 -0.8125z" fill-rule="nonzero"></path><path fill="#e06666" d="m446.4042 161.83989l-50.876648 -14.9973755l49.774292 27.144363z" fill-rule="nonzero"></path><path fill="#000000" fill-opacity="0.0" d="m327.79944 195.03044l0 0c2.9717712 -10.69046 7.635193 -20.836487 13.8133545 -30.053207l86.38721 57.907272z" fill-rule="nonzero"></path><path fill="#000000" fill-opacity="0.0" d="m327.79944 195.03044l0 0c2.9717712 -10.69046 7.635193 -20.836487 13.8133545 -30.053207" fill-rule="nonzero"></path><path stroke="#e06666" stroke-width="4.0" stroke-linejoin="round" stroke-linecap="butt" d="m327.79944 195.03044l0 0c2.9717712 -10.69046 7.635193 -20.836487 13.8133545 -30.053207" fill-rule="nonzero"></path></g></svg>

