<?xml version="1.0" standalone="yes"?>

<svg version="1.1" viewBox="0.0 0.0 425.0 329.0" fill="none" stroke="none" stroke-linecap="square" stroke-miterlimit="10" xmlns="http://www.w3.org/2000/svg" xmlns:xlink="http://www.w3.org/1999/xlink"><clipPath id="p.0"><path d="m0 0l425.0 0l0 329.0l-425.0 0l0 -329.0z" clip-rule="nonzero"></path></clipPath><g clip-path="url(#p.0)"><path fill="#000000" fill-opacity="0.0" d="m0 0l425.14697 0l0 329.7874l-425.14697 0z" fill-rule="nonzero"></path><path fill="#666666" d="m16.0 27.99792l0 0c0 -6.6262665 5.3716526 -11.997919 11.997919 -11.997919l152.00415 0c3.1820526 0 6.2337646 1.2640629 8.48381 3.5141087c2.2500458 2.2500477 3.5141144 5.3017654 3.5141144 8.48381l0 272.00415c0 6.6262817 -5.3716583 11.997925 -11.997925 11.997925l-152.00415 0l0 0c-6.6262665 0 -11.997919 -5.371643 -11.997919 -11.997925z" fill-rule="nonzero"></path><path fill="#000000" fill-opacity="0.0" d="m24.0 32.0l160.0 0l0 56.0l-160.0 0z" fill-rule="nonzero"></path><path fill="#ffffff" d="m96.251366 55.92l-2.703125 0l0 -5.609375l-5.515625 0l0 5.609375l-2.703125 0l0 -13.515625l2.703125 0l0 5.8125l5.515625 0l0 -5.8125l2.703125 0l0 13.515625zm1.6462708 -5.109375q0 -2.25 1.25 -3.671875q1.25 -1.4375 3.46875 -1.4375q2.234375 0 3.484375 1.4375q1.265625 1.421875 1.265625 3.671875l0 0.1875q0 2.265625 -1.265625 3.6875q-1.25 1.421875 -3.46875 1.421875q-2.21875 0 -3.484375 -1.421875q-1.25 -1.421875 -1.25 -3.6875l0 -0.1875zm2.703125 0.1875q0 1.375 0.46875 2.203125q0.484375 0.828125 1.5625 0.828125q1.046875 0 1.53125 -0.828125q0.5 -0.828125 0.5 -2.203125l0 -0.1875q0 -1.34375 -0.5 -2.1875q-0.484375 -0.84375 -1.546875 -0.84375q-1.046875 0 -1.53125 0.859375q-0.484375 0.84375 -0.484375 2.171875l0 0.1875zm13.671204 2.15625q0 -0.4375 -0.4375 -0.765625q-0.421875 -0.328125 -1.59375 -0.578125q-1.78125 -0.359375 -2.6875 -1.0625q-0.90625 -0.71875 -0.90625 -1.9375q0 -1.3125 1.09375 -2.203125q1.09375 -0.90625 2.921875 -0.90625q1.90625 0 3.046875 0.90625q1.140625 0.890625 1.09375 2.265625l-0.015625 0.046875l-2.625 0q0 -0.59375 -0.390625 -0.96875q-0.375 -0.390625 -1.109375 -0.390625q-0.671875 0 -1.046875 0.328125q-0.375 0.3125 -0.375 0.796875q0 0.46875 0.390625 0.765625q0.40625 0.296875 1.609375 0.515625q1.859375 0.375 2.75 1.09375q0.90625 0.71875 0.90625 1.984375q0 1.359375 -1.171875 2.21875q-1.15625 0.84375 -3.046875 0.84375q-2.015625 0 -3.1875 -1.015625q-1.15625 -1.015625 -1.09375 -2.3125l0.015625 -0.046875l2.484375 0q0.03125 0.796875 0.53125 1.171875q0.5 0.359375 1.296875 0.359375q0.75 0 1.140625 -0.296875q0.40625 -0.296875 0.40625 -0.8125zm7.416504 -9.734375l0 2.46875l1.6875 0l0 1.890625l-1.6875 0l0 5.109375q0 0.59375 0.234375 0.84375q0.234375 0.25 0.65625 0.25q0.203125 0 0.359375 -0.015625q0.15625 -0.03125 0.359375 -0.09375l0.234375 1.96875q-0.40625 0.140625 -0.796875 0.203125q-0.390625 0.0625 -0.84375 0.0625q-1.40625 0 -2.171875 -0.765625q-0.75 -0.765625 -0.75 -2.4375l0 -5.125l-1.46875 0l0 -1.890625l1.46875 0l0 -2.46875l2.71875 0z" fill-rule="nonzero"></path><path fill="#ffffff" d="m76.14384 77.92l-2.71875 0l0 -11.109375l-2.734375 0l0 -1.921875l5.453125 -0.484375l0 13.515625zm13.672409 -5.265625q0 2.6875 -1.234375 4.078125q-1.21875 1.375 -3.3125 1.375q-2.125 0 -3.359375 -1.375q-1.234375 -1.390625 -1.234375 -4.078125l0 -2.96875q0 -2.671875 1.234375 -4.0625q1.234375 -1.40625 3.34375 -1.40625q2.09375 0 3.328125 1.40625q1.234375 1.390625 1.234375 4.0625l0 2.96875zm-2.703125 -3.25q0 -1.609375 -0.484375 -2.34375q-0.46875 -0.75 -1.375 -0.75q-0.921875 0 -1.40625 0.75q-0.46875 0.734375 -0.46875 2.34375l0 3.515625q0 1.625 0.46875 2.375q0.484375 0.734375 1.421875 0.734375q0.90625 0 1.375 -0.734375q0.46875 -0.75 0.46875 -2.375l0 -3.515625zm7.438034 8.515625l-2.703125 0l0 -2.375l2.703125 0l0 2.375zm11.39801 -5.265625q0 2.6875 -1.234375 4.078125q-1.21875 1.375 -3.3125 1.375q-2.125 0 -3.359375 -1.375q-1.234375 -1.390625 -1.234375 -4.078125l0 -2.96875q0 -2.671875 1.234375 -4.0625q1.234375 -1.40625 3.34375 -1.40625q2.09375 0 3.328125 1.40625q1.234375 1.390625 1.234375 4.0625l0 2.96875zm-2.703125 -3.25q0 -1.609375 -0.484375 -2.34375q-0.46875 -0.75 -1.375 -0.75q-0.921875 0 -1.40625 0.75q-0.46875 0.734375 -0.46875 2.34375l0 3.515625q0 1.625 0.46875 2.375q0.484375 0.734375 1.421875 0.734375q0.90625 0 1.375 -0.734375q0.46875 -0.75 0.46875 -2.375l0 -3.515625zm7.438034 8.515625l-2.703125 0l0 -2.375l2.703125 0l0 2.375zm11.39801 -5.265625q0 2.6875 -1.234375 4.078125q-1.21875 1.375 -3.3125 1.375q-2.125 0 -3.359375 -1.375q-1.234375 -1.390625 -1.234375 -4.078125l0 -2.96875q0 -2.671875 1.234375 -4.0625q1.234375 -1.40625 3.34375 -1.40625q2.09375 0 3.328125 1.40625q1.234375 1.390625 1.234375 4.0625l0 2.96875zm-2.703125 -3.25q0 -1.609375 -0.484375 -2.34375q-0.46875 -0.75 -1.375 -0.75q-0.921875 0 -1.40625 0.75q-0.46875 0.734375 -0.46875 2.34375l0 3.515625q0 1.625 0.46875 2.375q0.484375 0.734375 1.421875 0.734375q0.90625 0 1.375 -0.734375q0.46875 -0.75 0.46875 -2.375l0 -3.515625zm7.438034 8.515625l-2.703125 0l0 -2.375l2.703125 0l0 2.375zm8.429253 0l-2.71875 0l0 -11.109375l-2.734375 0l0 -1.921875l5.453125 -0.484375l0 13.515625z" fill-rule="nonzero"></path><path fill="#666666" d="m232.0 27.99792l0 0c0 -6.6262665 5.3716583 -11.997919 11.997925 -11.997919l152.00415 0c3.1820374 0 6.2337646 1.2640629 8.483826 3.5141087c2.2500305 2.2500477 3.5140991 5.3017654 3.5140991 8.48381l0 272.00415c0 6.6262817 -5.371643 11.997925 -11.997925 11.997925l-152.00415 0l0 0c-6.6262665 0 -11.997925 -5.371643 -11.997925 -11.997925z" fill-rule="nonzero"></path><path fill="#000000" fill-opacity="0.0" d="m240.0 32.0l160.0 0l0 56.0l-160.0 0z" fill-rule="nonzero"></path><path fill="#ffffff" d="m312.25137 55.92l-2.703125 0l0 -5.609375l-5.515625 0l0 5.609375l-2.703125 0l0 -13.515625l2.703125 0l0 5.8125l5.515625 0l0 -5.8125l2.703125 0l0 13.515625zm1.6462708 -5.109375q0 -2.25 1.25 -3.671875q1.25 -1.4375 3.46875 -1.4375q2.234375 0 3.484375 1.4375q1.265625 1.421875 1.265625 3.671875l0 0.1875q0 2.265625 -1.265625 3.6875q-1.25 1.421875 -3.46875 1.421875q-2.21875 0 -3.484375 -1.421875q-1.25 -1.421875 -1.25 -3.6875l0 -0.1875zm2.703125 0.1875q0 1.375 0.46875 2.203125q0.484375 0.828125 1.5625 0.828125q1.046875 0 1.53125 -0.828125q0.5 -0.828125 0.5 -2.203125l0 -0.1875q0 -1.34375 -0.5 -2.1875q-0.484375 -0.84375 -1.546875 -0.84375q-1.046875 0 -1.53125 0.859375q-0.484375 0.84375 -0.484375 2.171875l0 0.1875zm13.671204 2.15625q0 -0.4375 -0.4375 -0.765625q-0.421875 -0.328125 -1.59375 -0.578125q-1.78125 -0.359375 -2.6875 -1.0625q-0.90625 -0.71875 -0.90625 -1.9375q0 -1.3125 1.09375 -2.203125q1.09375 -0.90625 2.921875 -0.90625q1.90625 0 3.046875 0.90625q1.140625 0.890625 1.09375 2.265625l-0.015625 0.046875l-2.625 0q0 -0.59375 -0.390625 -0.96875q-0.375 -0.390625 -1.109375 -0.390625q-0.671875 0 -1.046875 0.328125q-0.375 0.3125 -0.375 0.796875q0 0.46875 0.390625 0.765625q0.40625 0.296875 1.609375 0.515625q1.859375 0.375 2.75 1.09375q0.90625 0.71875 0.90625 1.984375q0 1.359375 -1.171875 2.21875q-1.15625 0.84375 -3.046875 0.84375q-2.015625 0 -3.1875 -1.015625q-1.15625 -1.015625 -1.09375 -2.3125l0.015625 -0.046875l2.484375 0q0.03125 0.796875 0.53125 1.171875q0.5 0.359375 1.296875 0.359375q0.75 0 1.140625 -0.296875q0.40625 -0.296875 0.40625 -0.8125zm7.416504 -9.734375l0 2.46875l1.6875 0l0 1.890625l-1.6875 0l0 5.109375q0 0.59375 0.234375 0.84375q0.234375 0.25 0.65625 0.25q0.203125 0 0.359375 -0.015625q0.15625 -0.03125 0.359375 -0.09375l0.234375 1.96875q-0.40625 0.140625 -0.796875 0.203125q-0.390625 0.0625 -0.84375 0.0625q-1.40625 0 -2.171875 -0.765625q-0.75 -0.765625 -0.75 -2.4375l0 -5.125l-1.46875 0l0 -1.890625l1.46875 0l0 -2.46875l2.71875 0z" fill-rule="nonzero"></path><path fill="#ffffff" d="m292.14383 77.92l-2.71875 0l0 -11.109375l-2.734375 0l0 -1.921875l5.453125 -0.484375l0 13.515625zm13.672424 -5.265625q0 2.6875 -1.234375 4.078125q-1.21875 1.375 -3.3125 1.375q-2.125 0 -3.359375 -1.375q-1.234375 -1.390625 -1.234375 -4.078125l0 -2.96875q0 -2.671875 1.234375 -4.0625q1.234375 -1.40625 3.34375 -1.40625q2.09375 0 3.328125 1.40625q1.234375 1.390625 1.234375 4.0625l0 2.96875zm-2.703125 -3.25q0 -1.609375 -0.484375 -2.34375q-0.46875 -0.75 -1.375 -0.75q-0.921875 0 -1.40625 0.75q-0.46875 0.734375 -0.46875 2.34375l0 3.515625q0 1.625 0.46875 2.375q0.484375 0.734375 1.421875 0.734375q0.90625 0 1.375 -0.734375q0.46875 -0.75 0.46875 -2.375l0 -3.515625zm7.438019 8.515625l-2.703125 0l0 -2.375l2.703125 0l0 2.375zm11.39801 -5.265625q0 2.6875 -1.234375 4.078125q-1.21875 1.375 -3.3125 1.375q-2.125 0 -3.359375 -1.375q-1.234375 -1.390625 -1.234375 -4.078125l0 -2.96875q0 -2.671875 1.234375 -4.0625q1.234375 -1.40625 3.34375 -1.40625q2.09375 0 3.328125 1.40625q1.234375 1.390625 1.234375 4.0625l0 2.96875zm-2.703125 -3.25q0 -1.609375 -0.484375 -2.34375q-0.46875 -0.75 -1.375 -0.75q-0.921875 0 -1.40625 0.75q-0.46875 0.734375 -0.46875 2.34375l0 3.515625q0 1.625 0.46875 2.375q0.484375 0.734375 1.421875 0.734375q0.90625 0 1.375 -0.734375q0.46875 -0.75 0.46875 -2.375l0 -3.515625zm7.4380493 8.515625l-2.703125 0l0 -2.375l2.703125 0l0 2.375zm11.39801 -5.265625q0 2.6875 -1.234375 4.078125q-1.21875 1.375 -3.3125 1.375q-2.125 0 -3.359375 -1.375q-1.234375 -1.390625 -1.234375 -4.078125l0 -2.96875q0 -2.671875 1.234375 -4.0625q1.234375 -1.40625 3.34375 -1.40625q2.09375 0 3.328125 1.40625q1.234375 1.390625 1.234375 4.0625l0 2.96875zm-2.703125 -3.25q0 -1.609375 -0.484375 -2.34375q-0.46875 -0.75 -1.375 -0.75q-0.921875 0 -1.40625 0.75q-0.46875 0.734375 -0.46875 2.34375l0 3.515625q0 1.625 0.46875 2.375q0.484375 0.734375 1.421875 0.734375q0.90625 0 1.375 -0.734375q0.46875 -0.75 0.46875 -2.375l0 -3.515625zm7.438019 8.515625l-2.703125 0l0 -2.375l2.703125 0l0 2.375zm11.52301 0l-9.21875 0l0 -1.765625l4.359375 -4.6875q0.953125 -1.09375 1.34375 -1.828125q0.40625 -0.75 0.40625 -1.390625q0 -0.859375 -0.46875 -1.390625q-0.453125 -0.546875 -1.296875 -0.546875q-0.9375 0 -1.421875 0.640625q-0.484375 0.625 -0.484375 1.6875l-2.640625 0l-0.015625 -0.0625q-0.046875 -1.828125 1.203125 -3.09375q1.25 -1.265625 3.359375 -1.265625q2.09375 0 3.28125 1.09375q1.1875 1.078125 1.1875 2.890625q0 1.21875 -0.671875 2.265625q-0.671875 1.03125 -2.21875 2.703125l-2.40625 2.625l0.03125 0.046875l5.671875 0l0 2.078125z" fill-rule="nonzero"></path><path fill="#000000" fill-opacity="0.0" d="m311.99896 192.46196c-0.25332642 57.036102 -46.39737 103.22621 -103.4332 103.536514c-57.035828 0.31027222 -103.67968 -45.375076 -104.55356 -102.40506l103.98779 -1.5934143z" fill-rule="nonzero"></path><path fill="#000000" fill-opacity="0.0" d="m311.99896 192.46196c-0.25332642 57.036102 -46.39737 103.22621 -103.4332 103.536514c-57.035828 0.31027222 -103.67968 -45.375076 -104.55356 -102.40506" fill-rule="nonzero"></path><path stroke="#ffffff" stroke-width="4.0" stroke-linejoin="round" stroke-linecap="butt" d="m311.99896 192.46196c-0.25332642 57.036102 -46.39737 103.22621 -103.4332 103.536514c-57.035828 0.31027222 -103.67968 -45.375076 -104.55356 -102.40506" fill-rule="nonzero"></path><path fill="#ffffff" d="m48.0 240.0l0 0c0 -30.927948 25.072052 -56.0 56.0 -56.0l0 0c14.852127 0 29.095947 5.8999786 39.597977 16.402023c10.502045 10.502029 16.402023 24.74585 16.402023 39.597977l0 0c0 30.927948 -25.072052 56.0 -56.0 56.0l0 0c-30.927948 0 -56.0 -25.072052 -56.0 -56.0z" fill-rule="nonzero"></path><path fill="#000000" fill-opacity="0.0" d="m16.0 176.0l176.0 0l0 64.0l-176.0 0z" fill-rule="nonzero"></path><path fill="#b7b7b7" d="m31.379066 170.00188l-1.21875 0l4.453125 -11.59375l1.21875 0l-4.453125 11.59375zm9.504791 -7.421875l2.484375 -4.171875l1.75 0l-3.390625 5.296875l3.453125 5.375l-1.71875 0l-2.546875 -4.234375l-2.5625 4.234375l-1.75 0l3.453125 -5.375l-3.375 -5.296875l1.71875 0l2.484375 4.171875zm8.251877 5.53125q1.046875 0 1.671875 -0.796875q0.640625 -0.8125 0.640625 -2.375l0 -0.484375q-0.359375 0.515625 -0.90625 0.78125q-0.53125 0.265625 -1.1875 0.265625q-1.546875 0 -2.453125 -0.953125q-0.90625 -0.953125 -0.90625 -2.625q0 -1.609375 0.953125 -2.625q0.96875 -1.03125 2.34375 -1.03125q1.671875 0 2.625 1.046875q0.96875 1.03125 0.96875 3.0625l0 2.546875q0 2.078125 -1.046875 3.203125q-1.03125 1.109375 -2.703125 1.109375q-0.578125 0 -1.15625 -0.109375q-0.578125 -0.109375 -1.046875 -0.328125l0.21875 -1.109375q0.4375 0.234375 0.90625 0.328125q0.46875 0.09375 1.078125 0.09375zm0.21875 -3.734375q0.796875 0 1.328125 -0.34375q0.53125 -0.34375 0.765625 -0.875l0 -0.921875q0 -1.40625 -0.546875 -2.125q-0.53125 -0.71875 -1.5625 -0.71875q-0.78125 0 -1.34375 0.71875q-0.5625 0.703125 -0.5625 1.8125q0 1.09375 0.515625 1.78125q0.515625 0.671875 1.40625 0.671875zm7.126297 -1.296875l1.265625 0q0.953125 0 1.34375 -0.46875q0.40625 -0.484375 0.40625 -1.34375q0 -0.921875 -0.453125 -1.390625q-0.453125 -0.484375 -1.34375 -0.484375q-0.84375 0 -1.359375 0.5q-0.5 0.5 -0.5 1.3125l-1.375 0l-0.015625 -0.046875q-0.046875 -1.203125 0.859375 -2.046875q0.921875 -0.84375 2.390625 -0.84375q1.484375 0 2.359375 0.78125q0.875 0.78125 0.875 2.25q0 0.65625 -0.40625 1.3125q-0.390625 0.65625 -1.1875 1.0q0.96875 0.3125 1.359375 0.984375q0.40625 0.671875 0.40625 1.515625q0 1.453125 -0.96875 2.296875q-0.953125 0.828125 -2.4375 0.828125q-1.453125 0 -2.40625 -0.78125q-0.953125 -0.796875 -0.921875 -2.140625l0.015625 -0.046875l1.375 0q0 0.84375 0.515625 1.34375q0.53125 0.5 1.421875 0.5q0.921875 0 1.4375 -0.5q0.515625 -0.5 0.515625 -1.46875q0 -1.0 -0.46875 -1.46875q-0.453125 -0.46875 -1.4375 -0.46875l-1.265625 0l0 -1.125zm12.798172 -1.875q0 0.828125 -0.46875 1.453125q-0.46875 0.625 -1.265625 0.9375q0.921875 0.328125 1.46875 1.015625q0.5625 0.6875 0.5625 1.578125q0 1.484375 -0.96875 2.265625q-0.953125 0.78125 -2.5 0.78125q-1.5625 0 -2.515625 -0.78125q-0.953125 -0.78125 -0.953125 -2.265625q0 -0.890625 0.53125 -1.578125q0.546875 -0.6875 1.46875 -1.015625q-0.796875 -0.3125 -1.25 -0.9375q-0.453125 -0.625 -0.453125 -1.453125q0 -1.40625 0.859375 -2.171875q0.875 -0.765625 2.3125 -0.765625q1.40625 0 2.28125 0.765625q0.890625 0.765625 0.890625 2.171875zm-1.140625 4.953125q0 -0.875 -0.578125 -1.4375q-0.578125 -0.5625 -1.453125 -0.5625q-0.90625 0 -1.46875 0.5625q-0.5625 0.5625 -0.5625 1.4375q0 0.921875 0.546875 1.4375q0.5625 0.515625 1.484375 0.515625q0.90625 0 1.46875 -0.515625q0.5625 -0.53125 0.5625 -1.4375zm-0.296875 -4.9375q0 -0.78125 -0.5 -1.296875q-0.484375 -0.53125 -1.234375 -0.53125q-0.78125 0 -1.265625 0.515625q-0.46875 0.5 -0.46875 1.3125q0 0.828125 0.484375 1.3125q0.484375 0.484375 1.25 0.484375q0.765625 0 1.25 -0.484375q0.484375 -0.484375 0.484375 -1.3125zm3.938797 7.859375l0 -6.859375l-1.234375 0l0 -1.0625l1.234375 0l0 -1.0q0 -1.28125 0.65625 -1.96875q0.671875 -0.6875 1.859375 -0.6875q0.25 0 0.5 0.046875q0.265625 0.03125 0.5625 0.109375l-0.171875 1.09375q-0.125 -0.03125 -0.3125 -0.046875q-0.1875 -0.03125 -0.390625 -0.03125q-0.640625 0 -0.953125 0.390625q-0.296875 0.375 -0.296875 1.09375l0 1.0l1.640625 0l0 1.0625l-1.640625 0l0 6.859375l-1.453125 0zm7.76268 0.15625q-1.65625 0 -2.640625 -1.09375q-0.984375 -1.109375 -0.984375 -2.875l0 -0.3125q0 -1.703125 1.0 -2.828125q1.015625 -1.125 2.390625 -1.125q1.609375 0 2.421875 0.96875q0.828125 0.96875 0.828125 2.578125l0 0.90625l-5.140625 0l-0.015625 0.03125q0.015625 1.140625 0.5625 1.890625q0.5625 0.734375 1.578125 0.734375q0.71875 0 1.265625 -0.203125q0.5625 -0.21875 0.96875 -0.59375l0.5625 0.9375q-0.421875 0.421875 -1.125 0.703125q-0.6875 0.28125 -1.671875 0.28125zm-0.234375 -7.09375q-0.71875 0 -1.234375 0.609375q-0.515625 0.609375 -0.625 1.53125l0.015625 0.046875l3.65625 0l0 -0.1875q0 -0.859375 -0.453125 -1.421875q-0.453125 -0.578125 -1.359375 -0.578125zm7.390976 5.96875q1.046875 0 1.671875 -0.796875q0.640625 -0.8125 0.640625 -2.375l0 -0.484375q-0.359375 0.515625 -0.90625 0.78125q-0.53125 0.265625 -1.1875 0.265625q-1.546875 0 -2.453125 -0.953125q-0.90625 -0.953125 -0.90625 -2.625q0 -1.609375 0.953125 -2.625q0.96875 -1.03125 2.34375 -1.03125q1.671875 0 2.625 1.046875q0.96875 1.03125 0.96875 3.0625l0 2.546875q0 2.078125 -1.046875 3.203125q-1.03125 1.109375 -2.703125 1.109375q-0.578125 0 -1.15625 -0.109375q-0.578125 -0.109375 -1.046875 -0.328125l0.21875 -1.109375q0.4375 0.234375 0.90625 0.328125q0.46875 0.09375 1.078125 0.09375zm0.21875 -3.734375q0.796875 0 1.328125 -0.34375q0.53125 -0.34375 0.765625 -0.875l0 -0.921875q0 -1.40625 -0.546875 -2.125q-0.53125 -0.71875 -1.5625 -0.71875q-0.78125 0 -1.34375 0.71875q-0.5625 0.703125 -0.5625 1.8125q0 1.09375 0.515625 1.78125q0.515625 0.671875 1.40625 0.671875zm12.063797 4.703125l-6.921875 0l0 -0.984375l3.5 -3.890625q0.9375 -1.046875 1.265625 -1.65625q0.34375 -0.625 0.34375 -1.265625q0 -0.796875 -0.46875 -1.34375q-0.46875 -0.546875 -1.234375 -0.546875q-1.109375 0 -1.640625 0.578125q-0.515625 0.5625 -0.515625 1.59375l-1.390625 0l-0.015625 -0.046875q-0.03125 -1.375 0.921875 -2.3125q0.953125 -0.9375 2.640625 -0.9375q1.4375 0 2.28125 0.84375q0.859375 0.828125 0.859375 2.125q0 0.875 -0.515625 1.75q-0.515625 0.875 -1.453125 1.875l-2.796875 3.046875l0.015625 0.046875l5.125 0l0 1.125zm3.313797 -6.0l1.265625 0q0.953125 0 1.34375 -0.46875q0.40625 -0.484375 0.40625 -1.34375q0 -0.921875 -0.453125 -1.390625q-0.453125 -0.484375 -1.34375 -0.484375q-0.84375 0 -1.359375 0.5q-0.5 0.5 -0.5 1.3125l-1.375 0l-0.015625 -0.046875q-0.046875 -1.203125 0.859375 -2.046875q0.921875 -0.84375 2.390625 -0.84375q1.484375 0 2.359375 0.78125q0.875 0.78125 0.875 2.25q0 0.65625 -0.40625 1.3125q-0.390625 0.65625 -1.1875 1.0q0.96875 0.3125 1.359375 0.984375q0.40625 0.671875 0.40625 1.515625q0 1.453125 -0.96875 2.296875q-0.953125 0.828125 -2.4375 0.828125q-1.453125 0 -2.40625 -0.78125q-0.953125 -0.796875 -0.921875 -2.140625l0.015625 -0.046875l1.375 0q0 0.84375 0.515625 1.34375q0.53125 0.5 1.421875 0.5q0.921875 0 1.4375 -0.5q0.515625 -0.5 0.515625 -1.46875q0 -1.0 -0.46875 -1.46875q-0.453125 -0.46875 -1.4375 -0.46875l-1.265625 0l0 -1.125zm13.220047 2.34375q0 1.703125 -0.828125 2.765625q-0.8125 1.046875 -2.265625 1.046875q-0.78125 0 -1.359375 -0.296875q-0.578125 -0.3125 -0.953125 -0.90625l-0.171875 1.046875l-1.1875 0l0 -11.421875l1.4375 0l0 4.4375q0.375 -0.53125 0.921875 -0.8125q0.5625 -0.28125 1.296875 -0.28125q1.46875 0 2.28125 1.171875q0.828125 1.171875 0.828125 3.09375l0 0.15625zm-1.4375 -0.15625q0 -1.359375 -0.5 -2.21875q-0.5 -0.875 -1.53125 -0.875q-0.671875 0 -1.125 0.328125q-0.453125 0.328125 -0.734375 0.875l0 3.4375q0.28125 0.59375 0.734375 0.921875q0.453125 0.328125 1.140625 0.328125q1.015625 0 1.515625 -0.71875q0.5 -0.734375 0.5 -1.921875l0 -0.15625zm6.220642 2.84375q0.71875 0 1.265625 -0.4375q0.546875 -0.453125 0.546875 -1.09375l1.296875 0l0.015625 0.03125q0.03125 1.03125 -0.921875 1.828125q-0.9375 0.796875 -2.203125 0.796875q-1.71875 0 -2.640625 -1.125q-0.921875 -1.140625 -0.921875 -2.84375l0 -0.296875q0 -1.703125 0.921875 -2.828125q0.921875 -1.140625 2.640625 -1.140625q1.390625 0 2.265625 0.828125q0.890625 0.8125 0.859375 2.015625l0 0.046875l-1.3125 0q0 -0.734375 -0.515625 -1.234375q-0.515625 -0.515625 -1.296875 -0.515625q-1.125 0 -1.625 0.828125q-0.484375 0.8125 -0.484375 2.0l0 0.296875q0 1.21875 0.484375 2.03125q0.484375 0.8125 1.625 0.8125zm4.2321014 -2.84375q0 -1.921875 0.8125 -3.09375q0.8125 -1.171875 2.296875 -1.171875q0.6874924 0 1.2187424 0.265625q0.546875 0.25 0.9375 0.75l0 -4.359375l1.4375 0l0 11.421875l-1.1875 0l-0.15625 -0.96875q-0.390625 0.546875 -0.953125 0.84375q-0.5625 0.28125 -1.3124924 0.28125q-1.453125 0 -2.28125 -1.046875q-0.8125 -1.0625 -0.8125 -2.765625l0 -0.15625zm1.4375 0.15625q0 1.1875 0.484375 1.921875q0.5 0.71875 1.53125 0.71875q0.6406174 0 1.0781174 -0.296875q0.453125 -0.296875 0.734375 -0.8125l0 -3.703125q-0.28125 -0.5 -0.734375 -0.78125q-0.4375 -0.296875 -1.0624924 -0.296875q-1.03125 0 -1.53125 0.859375q-0.5 0.859375 -0.5 2.234375l0 0.15625zm10.517509 3.8125q-1.65625 0 -2.640625 -1.09375q-0.984375 -1.109375 -0.984375 -2.875l0 -0.3125q0 -1.703125 1.0 -2.828125q1.015625 -1.125 2.390625 -1.125q1.609375 0 2.421875 0.96875q0.828125 0.96875 0.828125 2.578125l0 0.90625l-5.140625 0l-0.015625 0.03125q0.015625 1.140625 0.5625 1.890625q0.5625 0.734375 1.578125 0.734375q0.71875 0 1.265625 -0.203125q0.5625 -0.21875 0.96875 -0.59375l0.5625 0.9375q-0.421875 0.421875 -1.125 0.703125q-0.6875 0.28125 -1.671875 0.28125zm-0.234375 -7.09375q-0.71875 0 -1.234375 0.609375q-0.515625 0.609375 -0.625 1.53125l0.015625 0.046875l3.65625 0l0 -0.1875q0 -0.859375 -0.453125 -1.421875q-0.453125 -0.578125 -1.359375 -0.578125zm5.281616 6.9375l0 -6.859375l-1.234375 0l0 -1.0625l1.234375 0l0 -1.0q0 -1.28125 0.65625 -1.96875q0.671875 -0.6875 1.859375 -0.6875q0.25 0 0.5 0.046875q0.265625 0.03125 0.5625 0.109375l-0.171875 1.09375q-0.125 -0.03125 -0.3125 -0.046875q-0.1875 -0.03125 -0.390625 -0.03125q-0.640625 0 -0.953125 0.390625q-0.296875 0.375 -0.296875 1.09375l0 1.0l1.640625 0l0 1.0625l-1.640625 0l0 6.859375l-1.453125 0zm11.200165 0l-6.921875 0l0 -0.984375l3.5 -3.890625q0.9375 -1.046875 1.265625 -1.65625q0.34375 -0.625 0.34375 -1.265625q0 -0.796875 -0.46875 -1.34375q-0.46875 -0.546875 -1.234375 -0.546875q-1.109375 0 -1.640625 0.578125q-0.515625 0.5625 -0.515625 1.59375l-1.390625 0l-0.015625 -0.046875q-0.03125 -1.375 0.921875 -2.3125q0.953125 -0.9375 2.640625 -0.9375q1.4375 0 2.28125 0.84375q0.859375 0.828125 0.859375 2.125q0 0.875 -0.515625 1.75q-0.515625 0.875 -1.453125 1.875l-2.796875 3.046875l0.015625 0.046875l5.125 0l0 1.125zm3.3138123 -6.0l1.265625 0q0.953125 0 1.34375 -0.46875q0.40625 -0.484375 0.40625 -1.34375q0 -0.921875 -0.453125 -1.390625q-0.453125 -0.484375 -1.34375 -0.484375q-0.84375 0 -1.359375 0.5q-0.5 0.5 -0.5 1.3125l-1.375 0l-0.015625 -0.046875q-0.046875 -1.203125 0.859375 -2.046875q0.921875 -0.84375 2.390625 -0.84375q1.484375 0 2.359375 0.78125q0.875 0.78125 0.875 2.25q0 0.65625 -0.40625 1.3125q-0.390625 0.65625 -1.1875 1.0q0.96875 0.3125 1.359375 0.984375q0.40625 0.671875 0.40625 1.515625q0 1.453125 -0.96875 2.296875q-0.953125 0.828125 -2.4375 0.828125q-1.453125 0 -2.40625 -0.78125q-0.953125 -0.796875 -0.921875 -2.140625l0.015625 -0.046875l1.375 0q0 0.84375 0.515625 1.34375q0.53125 0.5 1.421875 0.5q0.921875 0 1.4375 -0.5q0.515625 -0.5 0.515625 -1.46875q0 -1.0 -0.46875 -1.46875q-0.453125 -0.46875 -1.4375 -0.46875l-1.265625 0l0 -1.125zm9.157532 5.03125q1.046875 0 1.671875 -0.796875q0.640625 -0.8125 0.640625 -2.375l0 -0.484375q-0.359375 0.515625 -0.90625 0.78125q-0.53125 0.265625 -1.1875 0.265625q-1.546875 0 -2.453125 -0.953125q-0.90625 -0.953125 -0.90625 -2.625q0 -1.609375 0.953125 -2.625q0.96875 -1.03125 2.34375 -1.03125q1.671875 0 2.625 1.046875q0.96875 1.03125 0.96875 3.0625l0 2.546875q0 2.078125 -1.046875 3.203125q-1.03125 1.109375 -2.703125 1.109375q-0.578125 0 -1.15625 -0.109375q-0.578125 -0.109375 -1.046875 -0.328125l0.21875 -1.109375q0.4375 0.234375 0.90625 0.328125q0.46875 0.09375 1.078125 0.09375zm0.21875 -3.734375q0.796875 0 1.328125 -0.34375q0.53125 -0.34375 0.765625 -0.875l0 -0.921875q0 -1.40625 -0.546875 -2.125q-0.53125 -0.71875 -1.5625 -0.71875q-0.78125 0 -1.34375 0.71875q-0.5625 0.703125 -0.5625 1.8125q0 1.09375 0.515625 1.78125q0.515625 0.671875 1.40625 0.671875zm11.907562 0.640625q0 2.046875 -0.90625 3.140625q-0.90625 1.078125 -2.484375 1.078125q-1.578125 0 -2.5 -1.09375q-0.90625 -1.09375 -0.90625 -3.125l0 -2.53125q0 -2.03125 0.90625 -3.125q0.921875 -1.09375 2.484375 -1.09375q1.578125 0 2.484375 1.09375q0.921875 1.09375 0.921875 3.125l0 2.53125zm-1.453125 -2.84375q0 -1.375 -0.5 -2.078125q-0.5 -0.703125 -1.453125 -0.703125q-0.953125 0 -1.453125 0.703125q-0.5 0.703125 -0.5 2.078125l0 3.140625q0 1.375 0.5 2.09375q0.515625 0.703125 1.46875 0.703125q0.953125 0 1.4375 -0.703125q0.5 -0.703125 0.5 -2.09375l0 -3.140625z" fill-rule="nonzero"></path><path fill="#666666" d="m82.82335 233.02937q0.71875 0 1.15625 -0.421875q0.4375 -0.421875 0.4375 -1.125l2.46875 0l0.015625 0.0625q0.046875 1.515625 -1.140625 2.546875q-1.1875 1.015625 -2.9375 1.015625q-2.25 0 -3.46875 -1.40625q-1.203125 -1.421875 -1.203125 -3.65625l0 -0.28125q0 -2.203125 1.203125 -3.625q1.21875 -1.4375 3.453125 -1.4375q1.859375 0 3.0 1.0625q1.140625 1.046875 1.09375 2.765625l-0.015625 0.0625l-2.46875 0q0 -0.78125 -0.421875 -1.296875q-0.421875 -0.515625 -1.1875 -0.515625q-1.0625 0 -1.515625 0.84375q-0.4375 0.828125 -0.4375 2.140625l0 0.28125q0 1.34375 0.4375 2.171875q0.453125 0.8125 1.53125 0.8125zm8.296692 1.890625l-2.71875 0l0 -10.03125l2.71875 0l0 10.03125zm0 -12.4375l-2.71875 0l0 -2.03125l2.71875 0l0 2.03125zm7.40477 4.734375l-0.984375 -0.03125q-0.609375 0 -1.0 0.25q-0.390625 0.25 -0.59375 0.703125l0 6.78125l-2.6875 0l0 -10.03125l2.5 0l0.125 1.484375q0.359375 -0.796875 0.921875 -1.234375q0.5625 -0.4375 1.28125 -0.4375q0.21875 0 0.375 0.03125q0.171875 0.03125 0.359375 0.078125l-0.296875 2.40625zm5.4690094 5.8125q0.71875 0 1.15625 -0.421875q0.4375 -0.421875 0.4375 -1.125l2.46875 0l0.015625 0.0625q0.046875 1.515625 -1.140625 2.546875q-1.1875 1.015625 -2.9375 1.015625q-2.25 0 -3.46875 -1.40625q-1.203125 -1.421875 -1.203125 -3.65625l0 -0.28125q0 -2.203125 1.203125 -3.625q1.21875 -1.4375 3.453125 -1.4375q1.859375 0 3.0 1.0625q1.140625 1.046875 1.09375 2.765625l-0.015625 0.0625l-2.46875 0q0 -0.78125 -0.421875 -1.296875q-0.421875 -0.515625 -1.1875 -0.515625q-1.0625 0 -1.515625 0.84375q-0.4375 0.828125 -0.4375 2.140625l0 0.28125q0 1.34375 0.4375 2.171875q0.453125 0.8125 1.53125 0.8125zm11.577942 0.4375q-0.46875 0.796875 -1.1875 1.21875q-0.703125 0.421875 -1.640625 0.421875q-1.578125 0 -2.484375 -1.015625q-0.890625 -1.015625 -0.890625 -3.15625l0 -6.046875l2.703125 0l0 6.0625q0 1.109375 0.375 1.59375q0.375 0.46875 1.09375 0.46875q0.65625 0 1.109375 -0.203125q0.46875 -0.21875 0.765625 -0.625l0 -7.296875l2.703125 0l0 10.03125l-2.3125 0l-0.234375 -1.453125zm7.2493286 1.453125l-2.71875 0l0 -10.03125l2.71875 0l0 10.03125zm0 -12.4375l-2.71875 0l0 -2.03125l2.71875 0l0 2.03125zm5.357895 -0.0625l0 2.46875l1.6875 0l0 1.890625l-1.6875 0l0 5.109375q0 0.59375 0.234375 0.84375q0.234375 0.25 0.65625 0.25q0.203125 0 0.359375 -0.015625q0.15625 -0.03125 0.359375 -0.09375l0.234375 1.96875q-0.40625 0.140625 -0.796875 0.203125q-0.390625 0.0625 -0.84375 0.0625q-1.40625 0 -2.171875 -0.765625q-0.75 -0.765625 -0.75 -2.4375l0 -5.125l-1.46875 0l0 -1.890625l1.46875 0l0 -2.46875l2.71875 0z" fill-rule="nonzero"></path><path fill="#666666" d="m84.488464 254.15437q0 -0.4375 -0.4375 -0.765625q-0.421875 -0.328125 -1.59375 -0.578125q-1.78125 -0.359375 -2.6875 -1.0625q-0.90625 -0.71875 -0.90625 -1.9375q0 -1.3125 1.09375 -2.203125q1.09375 -0.90625 2.921875 -0.90625q1.90625 0 3.046875 0.90625q1.140625 0.890625 1.09375 2.265625l-0.015625 0.046875l-2.625 0q0 -0.59375 -0.390625 -0.96875q-0.375 -0.390625 -1.109375 -0.390625q-0.671875 0 -1.046875 0.328125q-0.375 0.3125 -0.375 0.796875q0 0.46875 0.390625 0.765625q0.40625 0.296875 1.609375 0.515625q1.859375 0.375 2.75 1.09375q0.90625 0.71875 0.90625 1.984375q0 1.359375 -1.171875 2.2187347q-1.15625 0.84375 -3.046875 0.84375q-2.015625 0 -3.1875 -1.015625q-1.15625 -1.0156097 -1.09375 -2.3124847l0.015625 -0.046875l2.484375 0q0.03125 0.796875 0.53125 1.171875q0.5 0.359375 1.296875 0.359375q0.75 0 1.140625 -0.296875q0.40625 -0.296875 0.40625 -0.8125zm8.635254 2.9531097q-2.171875 0 -3.46875 -1.3906097q-1.296875 -1.390625 -1.296875 -3.53125l0 -0.375q0 -2.234375 1.21875 -3.671875q1.234375 -1.453125 3.296875 -1.4375q2.046875 0 3.15625 1.21875q1.125 1.21875 1.125 3.3125l0 1.46875l-5.984375 0l-0.03125 0.0625q0.078125 1.0 0.671875 1.640625q0.59375 0.625 1.59375 0.625q0.90625 0 1.5 -0.171875q0.59375 -0.1875 1.296875 -0.578125l0.734375 1.671875q-0.609375 0.49998474 -1.609375 0.82810974q-0.984375 0.328125 -2.203125 0.328125zm-0.25 -8.32811q-0.75 0 -1.1875 0.578125q-0.421875 0.578125 -0.53125 1.515625l0.03125 0.046875l3.3125 0l0 -0.25q0 -0.859375 -0.40625 -1.375q-0.390625 -0.515625 -1.21875 -0.515625zm10.95282 0.4375l-0.984375 -0.03125q-0.609375 0 -1.0 0.25q-0.390625 0.25 -0.59375 0.703125l0 6.7812347l-2.6875 0l0 -10.031235l2.5 0l0.125 1.484375q0.359375 -0.796875 0.921875 -1.234375q0.5625 -0.4375 1.28125 -0.4375q0.21875 0 0.375 0.03125q0.171875 0.03125 0.359375 0.078125l-0.296875 2.40625zm4.8908844 3.96875l0.171875 0.921875l0.0625 0l0.171875 -0.921875l1.65625 -6.296875l2.828125 0l-3.40625 10.031235l-2.59375 0l-3.40625 -10.031235l2.828125 0l1.6875 6.296875zm10.341034 3.9218597q-2.171875 0 -3.46875 -1.3906097q-1.296875 -1.390625 -1.296875 -3.53125l0 -0.375q0 -2.234375 1.21875 -3.671875q1.234375 -1.453125 3.296875 -1.4375q2.046875 0 3.15625 1.21875q1.125 1.21875 1.125 3.3125l0 1.46875l-5.984375 0l-0.03125 0.0625q0.078125 1.0 0.671875 1.640625q0.59375 0.625 1.59375 0.625q0.90625 0 1.5 -0.171875q0.59375 -0.1875 1.296875 -0.578125l0.734375 1.671875q-0.609375 0.49998474 -1.609375 0.82810974q-0.984375 0.328125 -2.203125 0.328125zm-0.25 -8.32811q-0.75 0 -1.1875 0.578125q-0.421875 0.578125 -0.53125 1.515625l0.03125 0.046875l3.3125 0l0 -0.25q0 -0.859375 -0.40625 -1.375q-0.390625 -0.515625 -1.21875 -0.515625zm10.95282 0.4375l-0.984375 -0.03125q-0.609375 0 -1.0 0.25q-0.390625 0.25 -0.59375 0.703125l0 6.7812347l-2.6875 0l0 -10.031235l2.5 0l0.125 1.484375q0.359375 -0.796875 0.921875 -1.234375q0.5625 -0.4375 1.28125 -0.4375q0.21875 0 0.375 0.03125q0.171875 0.03125 0.359375 0.078125l-0.296875 2.40625z" fill-rule="nonzero"></path><path fill="#ffffff" d="m264.0 240.0l0 0c0 -30.927948 25.072052 -56.0 56.0 -56.0l0 0c14.852112 0 29.095947 5.8999786 39.597992 16.402023c10.502014 10.502029 16.402008 24.74585 16.402008 39.597977l0 0c0 30.927948 -25.072052 56.0 -56.0 56.0l0 0c-30.927948 0 -56.0 -25.072052 -56.0 -56.0z" fill-rule="nonzero"></path><path fill="#000000" fill-opacity="0.0" d="m232.0 176.0l176.0 0l0 64.0l-176.0 0z" fill-rule="nonzero"></path><path fill="#b7b7b7" d="m248.05893 170.00188l-1.21875 0l4.453125 -11.59375l1.21875 0l-4.453125 11.59375zm9.504791 -7.421875l2.484375 -4.171875l1.75 0l-3.390625 5.296875l3.453125 5.375l-1.71875 0l-2.546875 -4.234375l-2.5625 4.234375l-1.75 0l3.453125 -5.375l-3.375 -5.296875l1.71875 0l2.484375 4.171875zm11.892487 -1.375q0 0.828125 -0.46875 1.453125q-0.46875 0.625 -1.265625 0.9375q0.921875 0.328125 1.46875 1.015625q0.5625 0.6875 0.5625 1.578125q0 1.484375 -0.96875 2.265625q-0.953125 0.78125 -2.5 0.78125q-1.5625 0 -2.515625 -0.78125q-0.953125 -0.78125 -0.953125 -2.265625q0 -0.890625 0.53125 -1.578125q0.546875 -0.6875 1.46875 -1.015625q-0.796875 -0.3125 -1.25 -0.9375q-0.453125 -0.625 -0.453125 -1.453125q0 -1.40625 0.859375 -2.171875q0.875 -0.765625 2.3125 -0.765625q1.40625 0 2.28125 0.765625q0.890625 0.765625 0.890625 2.171875zm-1.140625 4.953125q0 -0.875 -0.578125 -1.4375q-0.578125 -0.5625 -1.453125 -0.5625q-0.90625 0 -1.46875 0.5625q-0.5625 0.5625 -0.5625 1.4375q0 0.921875 0.546875 1.4375q0.5625 0.515625 1.484375 0.515625q0.90625 0 1.46875 -0.515625q0.5625 -0.53125 0.5625 -1.4375zm-0.296875 -4.9375q0 -0.78125 -0.5 -1.296875q-0.484375 -0.53125 -1.234375 -0.53125q-0.78125 0 -1.265625 0.515625q-0.46875 0.5 -0.46875 1.3125q0 0.828125 0.484375 1.3125q0.484375 0.484375 1.25 0.484375q0.765625 0 1.25 -0.484375q0.484375 -0.484375 0.484375 -1.3125zm9.688812 -0.015625q0 0.828125 -0.46875 1.453125q-0.46875 0.625 -1.265625 0.9375q0.921875 0.328125 1.46875 1.015625q0.5625 0.6875 0.5625 1.578125q0 1.484375 -0.96875 2.265625q-0.953125 0.78125 -2.5 0.78125q-1.5625 0 -2.515625 -0.78125q-0.953125 -0.78125 -0.953125 -2.265625q0 -0.890625 0.53125 -1.578125q0.546875 -0.6875 1.46875 -1.015625q-0.796875 -0.3125 -1.25 -0.9375q-0.453125 -0.625 -0.453125 -1.453125q0 -1.40625 0.859375 -2.171875q0.875 -0.765625 2.3125 -0.765625q1.40625 0 2.28125 0.765625q0.890625 0.765625 0.890625 2.171875zm-1.140625 4.953125q0 -0.875 -0.578125 -1.4375q-0.578125 -0.5625 -1.453125 -0.5625q-0.90625 0 -1.46875 0.5625q-0.5625 0.5625 -0.5625 1.4375q0 0.921875 0.546875 1.4375q0.5625 0.515625 1.484375 0.515625q0.90625 0 1.46875 -0.515625q0.5625 -0.53125 0.5625 -1.4375zm-0.296875 -4.9375q0 -0.78125 -0.5 -1.296875q-0.484375 -0.53125 -1.234375 -0.53125q-0.78125 0 -1.265625 0.515625q-0.46875 0.5 -0.46875 1.3125q0 0.828125 0.484375 1.3125q0.484375 0.484375 1.25 0.484375q0.765625 0 1.25 -0.484375q0.484375 -0.484375 0.484375 -1.3125zm3.5794067 3.046875l0.609375 -5.859375l5.34375 0l0 1.296875l-4.109375 0l-0.359375 2.984375q0.34375 -0.25 0.75 -0.40625q0.421875 -0.171875 0.953125 -0.1875q1.484375 -0.015625 2.328125 0.96875q0.84375 0.96875 0.84375 2.609375q0 1.609375 -0.859375 2.59375q-0.859375 0.96875 -2.515625 0.96875q-1.34375 0 -2.25 -0.734375q-0.90625 -0.75 -0.859375 -2.1875l0.015625 -0.046875l1.296875 0q0 0.875 0.5 1.359375q0.5 0.484375 1.296875 0.484375q0.921875 0 1.421875 -0.640625q0.515625 -0.65625 0.515625 -1.78125q0 -1.015625 -0.515625 -1.671875q-0.515625 -0.671875 -1.421875 -0.671875q-0.84375 0 -1.234375 0.265625q-0.375 0.25 -0.546875 0.78125l-1.203125 -0.125zm8.251312 0l0.609375 -5.859375l5.34375 0l0 1.296875l-4.109375 0l-0.359375 2.984375q0.34375 -0.25 0.75 -0.40625q0.421875 -0.171875 0.953125 -0.1875q1.484375 -0.015625 2.328125 0.96875q0.84375 0.96875 0.84375 2.609375q0 1.609375 -0.859375 2.59375q-0.859375 0.96875 -2.515625 0.96875q-1.34375 0 -2.25 -0.734375q-0.90625 -0.75 -0.859375 -2.1875l0.015625 -0.046875l1.296875 0q0 0.875 0.5 1.359375q0.5 0.484375 1.296875 0.484375q0.921875 0 1.421875 -0.640625q0.515625 -0.65625 0.515625 -1.78125q0 -1.015625 -0.515625 -1.671875q-0.515625 -0.671875 -1.421875 -0.671875q-0.84375 0 -1.234375 0.265625q-0.375 0.25 -0.546875 0.78125l-1.203125 -0.125zm14.595032 0.75q0 2.046875 -0.90625 3.140625q-0.90625 1.078125 -2.484375 1.078125q-1.578125 0 -2.5 -1.09375q-0.90625 -1.09375 -0.90625 -3.125l0 -2.53125q0 -2.03125 0.90625 -3.125q0.921875 -1.09375 2.484375 -1.09375q1.578125 0 2.484375 1.09375q0.921875 1.09375 0.921875 3.125l0 2.53125zm-1.453125 -2.84375q0 -1.375 -0.5 -2.078125q-0.5 -0.703125 -1.453125 -0.703125q-0.953125 0 -1.453125 0.703125q-0.5 0.703125 -0.5 2.078125l0 3.140625q0 1.375 0.5 2.09375q0.515625 0.703125 1.46875 0.703125q0.953125 0 1.4375 -0.703125q0.5 -0.703125 0.5 -2.09375l0 -3.140625zm9.711578 2.84375q0 2.046875 -0.90625 3.140625q-0.90625 1.078125 -2.484375 1.078125q-1.578125 0 -2.5 -1.09375q-0.90625 -1.09375 -0.90625 -3.125l0 -2.53125q0 -2.03125 0.90625 -3.125q0.921875 -1.09375 2.484375 -1.09375q1.578125 0 2.484375 1.09375q0.921875 1.09375 0.921875 3.125l0 2.53125zm-1.453125 -2.84375q0 -1.375 -0.5 -2.078125q-0.5 -0.703125 -1.453125 -0.703125q-0.953125 0 -1.453125 0.703125q-0.5 0.703125 -0.5 2.078125l0 3.140625q0 1.375 0.5 2.09375q0.515625 0.703125 1.46875 0.703125q0.953125 0 1.4375 -0.703125q0.5 -0.703125 0.5 -2.09375l0 -3.140625zm7.0709534 6.90625l-1.4375 0l0 -9.265625l-2.1875 0.03125l0 -1.03125l3.625 -0.40625l0 10.671875zm9.891937 -3.59375l1.46875 0l0 1.125l-1.46875 0l0 2.46875l-1.4375 0l0 -2.46875l-4.78125 0l0 -0.8125l4.703125 -7.390625l1.515625 0l0 7.078125zm-4.6875 0l3.25 0l0 -5.0l-0.03125 0l-0.140625 0.359375l-3.078125 4.640625zm7.0325317 -0.21875q0 -1.921875 0.8125 -3.09375q0.8125 -1.171875 2.296875 -1.171875q0.6875 0 1.21875 0.265625q0.546875 0.25 0.9375 0.75l0 -4.359375l1.4375 0l0 11.421875l-1.1875 0l-0.15625 -0.96875q-0.390625 0.546875 -0.953125 0.84375q-0.5625 0.28125 -1.3125 0.28125q-1.453125 0 -2.28125 -1.046875q-0.8125 -1.0625 -0.8125 -2.765625l0 -0.15625zm1.4375 0.15625q0 1.1875 0.484375 1.921875q0.5 0.71875 1.53125 0.71875q0.640625 0 1.078125 -0.296875q0.453125 -0.296875 0.734375 -0.8125l0 -3.703125q-0.28125 -0.5 -0.734375 -0.78125q-0.4375 -0.296875 -1.0625 -0.296875q-1.03125 0 -1.53125 0.859375q-0.5 0.859375 -0.5 2.234375l0 0.15625zm12.798767 0.0625l1.46875 0l0 1.125l-1.46875 0l0 2.46875l-1.4375 0l0 -2.46875l-4.78125 0l0 -0.8125l4.703125 -7.390625l1.515625 0l0 7.078125zm-4.6875 0l3.25 0l0 -5.0l-0.03125 0l-0.140625 0.359375l-3.078125 4.640625zm10.579437 2.625q0.71875 0 1.265625 -0.4375q0.546875 -0.453125 0.546875 -1.09375l1.296875 0l0.015625 0.03125q0.03125 1.03125 -0.921875 1.828125q-0.9375 0.796875 -2.203125 0.796875q-1.71875 0 -2.640625 -1.125q-0.921875 -1.140625 -0.921875 -2.84375l0 -0.296875q0 -1.703125 0.921875 -2.828125q0.921875 -1.140625 2.640625 -1.140625q1.390625 0 2.265625 0.828125q0.890625 0.8125 0.859375 2.015625l0 0.046875l-1.3125 0q0 -0.734375 -0.515625 -1.234375q-0.515625 -0.515625 -1.296875 -0.515625q-1.125 0 -1.625 0.828125q-0.484375 0.8125 -0.484375 2.0l0 0.296875q0 1.21875 0.484375 2.03125q0.484375 0.8125 1.625 0.8125zm10.903961 -6.90625q0 0.828125 -0.46875 1.453125q-0.46875 0.625 -1.265625 0.9375q0.921875 0.328125 1.46875 1.015625q0.5625 0.6875 0.5625 1.578125q0 1.484375 -0.96875 2.265625q-0.953125 0.78125 -2.5 0.78125q-1.5625 0 -2.515625 -0.78125q-0.953125 -0.78125 -0.953125 -2.265625q0 -0.890625 0.53125 -1.578125q0.546875 -0.6875 1.46875 -1.015625q-0.796875 -0.3125 -1.25 -0.9375q-0.453125 -0.625 -0.453125 -1.453125q0 -1.40625 0.859375 -2.171875q0.875 -0.765625 2.3125 -0.765625q1.40625 0 2.28125 0.765625q0.890625 0.765625 0.890625 2.171875zm-1.140625 4.953125q0 -0.875 -0.578125 -1.4375q-0.578125 -0.5625 -1.453125 -0.5625q-0.90625 0 -1.46875 0.5625q-0.5625 0.5625 -0.5625 1.4375q0 0.921875 0.546875 1.4375q0.5625 0.515625 1.484375 0.515625q0.90625 0 1.46875 -0.515625q0.5625 -0.53125 0.5625 -1.4375zm-0.296875 -4.9375q0 -0.78125 -0.5 -1.296875q-0.484375 -0.53125 -1.234375 -0.53125q-0.78125 0 -1.265625 0.515625q-0.46875 0.5 -0.46875 1.3125q0 0.828125 0.484375 1.3125q0.484375 0.484375 1.25 0.484375q0.765625 0 1.25 -0.484375q0.484375 -0.484375 0.484375 -1.3125zm10.079437 7.859375l-6.921875 0l0 -0.984375l3.5 -3.890625q0.9375 -1.046875 1.265625 -1.65625q0.34375 -0.625 0.34375 -1.265625q0 -0.796875 -0.46875 -1.34375q-0.46875 -0.546875 -1.234375 -0.546875q-1.109375 0 -1.640625 0.578125q-0.515625 0.5625 -0.515625 1.59375l-1.390625 0l-0.015625 -0.046875q-0.03125 -1.375 0.921875 -2.3125q0.953125 -0.9375 2.640625 -0.9375q1.4375 0 2.28125 0.84375q0.859375 0.828125 0.859375 2.125q0 0.875 -0.515625 1.75q-0.515625 0.875 -1.453125 1.875l-2.796875 3.046875l0.015625 0.046875l5.125 0l0 1.125zm4.8137817 0.15625q-1.65625 0 -2.640625 -1.09375q-0.984375 -1.109375 -0.984375 -2.875l0 -0.3125q0 -1.703125 1.0 -2.828125q1.015625 -1.125 2.390625 -1.125q1.609375 0 2.421875 0.96875q0.828125 0.96875 0.828125 2.578125l0 0.90625l-5.140625 0l-0.015625 0.03125q0.015625 1.140625 0.5625 1.890625q0.5625 0.734375 1.578125 0.734375q0.71875 0 1.265625 -0.203125q0.5625 -0.21875 0.96875 -0.59375l0.5625 0.9375q-0.421875 0.421875 -1.125 0.703125q-0.6875 0.28125 -1.671875 0.28125zm-0.234375 -7.09375q-0.71875 0 -1.234375 0.609375q-0.515625 0.609375 -0.625 1.53125l0.015625 0.046875l3.65625 0l0 -0.1875q0 -0.859375 -0.453125 -1.421875q-0.453125 -0.578125 -1.359375 -0.578125zm10.265991 3.34375l1.46875 0l0 1.125l-1.46875 0l0 2.46875l-1.4375 0l0 -2.46875l-4.78125 0l0 -0.8125l4.703125 -7.390625l1.515625 0l0 7.078125zm-4.6875 0l3.25 0l0 -5.0l-0.03125 0l-0.140625 0.359375l-3.078125 4.640625zm7.0325317 -0.21875q0 -1.921875 0.8125 -3.09375q0.8125 -1.171875 2.296875 -1.171875q0.6875 0 1.21875 0.265625q0.546875 0.25 0.9375 0.75l0 -4.359375l1.4375 0l0 11.421875l-1.1875 0l-0.15625 -0.96875q-0.390625 0.546875 -0.953125 0.84375q-0.5625 0.28125 -1.3125 0.28125q-1.453125 0 -2.28125 -1.046875q-0.8125 -1.0625 -0.8125 -2.765625l0 -0.15625zm1.4375 0.15625q0 1.1875 0.484375 1.921875q0.5 0.71875 1.53125 0.71875q0.640625 0 1.078125 -0.296875q0.453125 -0.296875 0.734375 -0.8125l0 -3.703125q-0.28125 -0.5 -0.734375 -0.78125q-0.4375 -0.296875 -1.0625 -0.296875q-1.03125 0 -1.53125 0.859375q-0.5 0.859375 -0.5 2.234375l0 0.15625z" fill-rule="nonzero"></path><path fill="#666666" d="m298.82336 233.02937q0.71875 0 1.15625 -0.421875q0.4375 -0.421875 0.4375 -1.125l2.46875 0l0.015625 0.0625q0.046875 1.515625 -1.140625 2.546875q-1.1875 1.015625 -2.9375 1.015625q-2.25 0 -3.46875 -1.40625q-1.203125 -1.421875 -1.203125 -3.65625l0 -0.28125q0 -2.203125 1.203125 -3.625q1.21875 -1.4375 3.453125 -1.4375q1.859375 0 3.0 1.0625q1.140625 1.046875 1.09375 2.765625l-0.015625 0.0625l-2.46875 0q0 -0.78125 -0.421875 -1.296875q-0.421875 -0.515625 -1.1875 -0.515625q-1.0625 0 -1.515625 0.84375q-0.4375 0.828125 -0.4375 2.140625l0 0.28125q0 1.34375 0.4375 2.171875q0.453125 0.8125 1.53125 0.8125zm8.296692 1.890625l-2.71875 0l0 -10.03125l2.71875 0l0 10.03125zm0 -12.4375l-2.71875 0l0 -2.03125l2.71875 0l0 2.03125zm7.4047546 4.734375l-0.984375 -0.03125q-0.609375 0 -1.0 0.25q-0.390625 0.25 -0.59375 0.703125l0 6.78125l-2.6875 0l0 -10.03125l2.5 0l0.125 1.484375q0.359375 -0.796875 0.921875 -1.234375q0.5625 -0.4375 1.28125 -0.4375q0.21875 0 0.375 0.03125q0.171875 0.03125 0.359375 0.078125l-0.296875 2.40625zm5.4690247 5.8125q0.71875 0 1.15625 -0.421875q0.4375 -0.421875 0.4375 -1.125l2.46875 0l0.015625 0.0625q0.046875 1.515625 -1.140625 2.546875q-1.1875 1.015625 -2.9375 1.015625q-2.25 0 -3.46875 -1.40625q-1.203125 -1.421875 -1.203125 -3.65625l0 -0.28125q0 -2.203125 1.203125 -3.625q1.21875 -1.4375 3.453125 -1.4375q1.859375 0 3.0 1.0625q1.140625 1.046875 1.09375 2.765625l-0.015625 0.0625l-2.46875 0q0 -0.78125 -0.421875 -1.296875q-0.421875 -0.515625 -1.1875 -0.515625q-1.0625 0 -1.515625 0.84375q-0.4375 0.828125 -0.4375 2.140625l0 0.28125q0 1.34375 0.4375 2.171875q0.453125 0.8125 1.53125 0.8125zm11.577942 0.4375q-0.46875 0.796875 -1.1875 1.21875q-0.703125 0.421875 -1.640625 0.421875q-1.578125 0 -2.484375 -1.015625q-0.890625 -1.015625 -0.890625 -3.15625l0 -6.046875l2.703125 0l0 6.0625q0 1.109375 0.375 1.59375q0.375 0.46875 1.09375 0.46875q0.65625 0 1.109375 -0.203125q0.46875 -0.21875 0.765625 -0.625l0 -7.296875l2.703125 0l0 10.03125l-2.3125 0l-0.234375 -1.453125zm7.2493286 1.453125l-2.71875 0l0 -10.03125l2.71875 0l0 10.03125zm0 -12.4375l-2.71875 0l0 -2.03125l2.71875 0l0 2.03125zm5.3578796 -0.0625l0 2.46875l1.6875 0l0 1.890625l-1.6875 0l0 5.109375q0 0.59375 0.234375 0.84375q0.234375 0.25 0.65625 0.25q0.203125 0 0.359375 -0.015625q0.15625 -0.03125 0.359375 -0.09375l0.234375 1.96875q-0.40625 0.140625 -0.796875 0.203125q-0.390625 0.0625 -0.84375 0.0625q-1.40625 0 -2.171875 -0.765625q-0.75 -0.765625 -0.75 -2.4375l0 -5.125l-1.46875 0l0 -1.890625l1.46875 0l0 -2.46875l2.71875 0z" fill-rule="nonzero"></path><path fill="#666666" d="m300.48846 254.15437q0 -0.4375 -0.4375 -0.765625q-0.421875 -0.328125 -1.59375 -0.578125q-1.78125 -0.359375 -2.6875 -1.0625q-0.90625 -0.71875 -0.90625 -1.9375q0 -1.3125 1.09375 -2.203125q1.09375 -0.90625 2.921875 -0.90625q1.90625 0 3.046875 0.90625q1.140625 0.890625 1.09375 2.265625l-0.015625 0.046875l-2.625 0q0 -0.59375 -0.390625 -0.96875q-0.375 -0.390625 -1.109375 -0.390625q-0.671875 0 -1.046875 0.328125q-0.375 0.3125 -0.375 0.796875q0 0.46875 0.390625 0.765625q0.40625 0.296875 1.609375 0.515625q1.859375 0.375 2.75 1.09375q0.90625 0.71875 0.90625 1.984375q0 1.359375 -1.171875 2.2187653q-1.15625 0.84375 -3.046875 0.84375q-2.015625 0 -3.1875 -1.015625q-1.15625 -1.0156403 -1.09375 -2.3125153l0.015625 -0.046875l2.484375 0q0.03125 0.796875 0.53125 1.171875q0.5 0.359375 1.296875 0.359375q0.75 0 1.140625 -0.296875q0.40625 -0.296875 0.40625 -0.8125zm8.635254 2.9531403q-2.171875 0 -3.46875 -1.3906403q-1.296875 -1.390625 -1.296875 -3.53125l0 -0.375q0 -2.234375 1.21875 -3.671875q1.234375 -1.453125 3.296875 -1.4375q2.046875 0 3.15625 1.21875q1.125 1.21875 1.125 3.3125l0 1.46875l-5.984375 0l-0.03125 0.0625q0.078125 1.0 0.671875 1.640625q0.59375 0.625 1.59375 0.625q0.90625 0 1.5 -0.171875q0.59375 -0.1875 1.296875 -0.578125l0.734375 1.671875q-0.609375 0.50001526 -1.609375 0.82814026q-0.984375 0.328125 -2.203125 0.328125zm-0.25 -8.32814q-0.75 0 -1.1875 0.578125q-0.421875 0.578125 -0.53125 1.515625l0.03125 0.046875l3.3125 0l0 -0.25q0 -0.859375 -0.40625 -1.375q-0.390625 -0.515625 -1.21875 -0.515625zm10.95282 0.4375l-0.984375 -0.03125q-0.609375 0 -1.0 0.25q-0.390625 0.25 -0.59375 0.703125l0 6.7812653l-2.6875 0l0 -10.031265l2.5 0l0.125 1.484375q0.359375 -0.796875 0.921875 -1.234375q0.5625 -0.4375 1.28125 -0.4375q0.21875 0 0.375 0.03125q0.171875 0.03125 0.359375 0.078125l-0.296875 2.40625zm4.890869 3.96875l0.171875 0.921875l0.0625 0l0.171875 -0.921875l1.65625 -6.296875l2.828125 0l-3.40625 10.031265l-2.59375 0l-3.40625 -10.031265l2.828125 0l1.6875 6.296875zm10.341064 3.9218903q-2.171875 0 -3.46875 -1.3906403q-1.296875 -1.390625 -1.296875 -3.53125l0 -0.375q0 -2.234375 1.21875 -3.671875q1.234375 -1.453125 3.296875 -1.4375q2.046875 0 3.15625 1.21875q1.125 1.21875 1.125 3.3125l0 1.46875l-5.984375 0l-0.03125 0.0625q0.078125 1.0 0.671875 1.640625q0.59375 0.625 1.59375 0.625q0.90625 0 1.5 -0.171875q0.59375 -0.1875 1.296875 -0.578125l0.734375 1.671875q-0.609375 0.50001526 -1.609375 0.82814026q-0.984375 0.328125 -2.203125 0.328125zm-0.25 -8.32814q-0.75 0 -1.1875 0.578125q-0.421875 0.578125 -0.53125 1.515625l0.03125 0.046875l3.3125 0l0 -0.25q0 -0.859375 -0.40625 -1.375q-0.390625 -0.515625 -1.21875 -0.515625zm10.95282 0.4375l-0.984375 -0.03125q-0.609375 0 -1.0 0.25q-0.390625 0.25 -0.59375 0.703125l0 6.7812653l-2.6875 0l0 -10.031265l2.5 0l0.125 1.484375q0.359375 -0.796875 0.921875 -1.234375q0.5625 -0.4375 1.28125 -0.4375q0.21875 0 0.375 0.03125q0.171875 0.03125 0.359375 0.078125l-0.296875 2.40625z" fill-rule="nonzero"></path><path fill="#000000" fill-opacity="0.0" d="m234.05832 292.6825c-13.574081 3.5131836 -27.7184 4.2453003 -41.582657 2.1523132l15.524338 -102.83481z" fill-rule="nonzero"></path><path fill="#000000" fill-opacity="0.0" d="m234.05832 292.6825c-13.574081 3.5131836 -27.7184 4.2453003 -41.582657 2.1523132" fill-rule="nonzero"></path><path stroke="#666666" stroke-width="4.0" stroke-linejoin="round" stroke-linecap="butt" d="m234.05832 292.6825c-13.574081 3.5131836 -27.7184 4.2453003 -41.582657 2.1523132" fill-rule="nonzero"></path></g></svg>

