<?xml version="1.0" standalone="yes"?>

<svg version="1.1" viewBox="0.0 0.0 772.0 594.0" fill="none" stroke="none" stroke-linecap="square" stroke-miterlimit="10" xmlns="http://www.w3.org/2000/svg" xmlns:xlink="http://www.w3.org/1999/xlink"><clipPath id="p.0"><path d="m0 0l772.0 0l0 594.0l-772.0 0l0 -594.0z" clip-rule="nonzero"></path></clipPath><g clip-path="url(#p.0)"><path fill="#000000" fill-opacity="0.0" d="m0 0l772.22833 0l0 594.979l-772.22833 0z" fill-rule="nonzero"></path><path fill="#666666" d="m80.0 171.99792l0 0c0 -6.6262665 5.3716507 -11.997925 11.997917 -11.997925l152.00415 0c3.1820526 0 6.2337646 1.2640686 8.48381 3.5141144c2.2500458 2.2500458 3.5141144 5.301758 3.5141144 8.48381l0 328.00415c0 6.626251 -5.3716583 11.997925 -11.997925 11.997925l-152.00415 0l0 0c-6.6262665 0 -11.997917 -5.3716736 -11.997917 -11.997925z" fill-rule="nonzero"></path><path fill="#000000" fill-opacity="0.0" d="m199.81003 350.28293l0 0c-1.3621674 22.506683 -10.001999 43.96106 -24.61766 61.130463l-79.192375 -67.41339z" fill-rule="nonzero"></path><path fill="#000000" fill-opacity="0.0" d="m199.81003 350.28293l0 0c-1.3621674 22.506683 -10.001999 43.96106 -24.61766 61.130463" fill-rule="nonzero"></path><path stroke="#ffffff" stroke-width="4.0" stroke-linejoin="round" stroke-linecap="butt" d="m199.81003 350.28293l0 0c-1.3621674 22.506683 -10.001999 43.96106 -24.61766 61.130463" fill-rule="nonzero"></path><path fill="#000000" fill-opacity="0.0" d="m130.67241 413.54453l0 0c-26.01429 -28.92566 -33.709663 -69.95166 -19.94625 -106.33853l97.27384 36.794006z" fill-rule="nonzero"></path><path fill="#000000" fill-opacity="0.0" d="m130.67241 413.54453l0 0c-26.01429 -28.92566 -33.709663 -69.95166 -19.94625 -106.33853" fill-rule="nonzero"></path><path stroke="#ffffff" stroke-width="4.0" stroke-linejoin="round" stroke-linecap="butt" d="m130.67241 413.54453l0 0c-26.01429 -28.92566 -33.709663 -69.95166 -19.94625 -106.33853" fill-rule="nonzero"></path><path fill="#000000" fill-opacity="0.0" d="m88.0 168.0l160.0 0l0 56.0l-160.0 0z" fill-rule="nonzero"></path><path fill="#ffffff" d="m160.38997 202.92l-2.78125 0l0 -5.796875l-5.4375 0l0 5.796875l-2.78125 0l0 -13.515625l2.78125 0l0 5.484375l5.4375 0l0 -5.484375l2.78125 0l0 13.515625zm1.5876923 -5.109375q0 -1.5 0.578125 -2.65625q0.578125 -1.171875 1.65625 -1.8125q1.078125 -0.640625 2.515625 -0.640625q2.03125 0 3.3125 1.25q1.28125 1.234375 1.4375 3.359375l0.015625 0.6875q0 2.3125 -1.296875 3.71875q-1.28125 1.390625 -3.453125 1.390625q-2.171875 0 -3.46875 -1.390625q-1.296875 -1.390625 -1.296875 -3.78125l0 -0.125zm2.6875 0.1875q0 1.4375 0.53125 2.203125q0.546875 0.75 1.546875 0.75q0.96875 0 1.515625 -0.75q0.546875 -0.75 0.546875 -2.390625q0 -1.40625 -0.546875 -2.171875q-0.546875 -0.765625 -1.53125 -0.765625q-0.984375 0 -1.53125 0.765625q-0.53125 0.765625 -0.53125 2.359375zm13.720673 2.140625q0 -0.484375 -0.484375 -0.765625q-0.484375 -0.28125 -1.5625 -0.5q-3.59375 -0.765625 -3.59375 -3.046875q0 -1.34375 1.109375 -2.234375q1.109375 -0.890625 2.90625 -0.890625q1.90625 0 3.046875 0.90625q1.15625 0.890625 1.15625 2.328125l-2.6875 0q0 -0.578125 -0.375 -0.953125q-0.359375 -0.375 -1.15625 -0.375q-0.671875 0 -1.046875 0.3125q-0.359375 0.296875 -0.359375 0.765625q0 0.453125 0.421875 0.734375q0.421875 0.265625 1.421875 0.46875q1.0 0.203125 1.6875 0.453125q2.125 0.765625 2.125 2.6875q0 1.375 -1.1875 2.234375q-1.171875 0.84375 -3.03125 0.84375q-1.265625 0 -2.25 -0.453125q-0.96875 -0.453125 -1.53125 -1.234375q-0.5625 -0.78125 -0.5625 -1.6875l2.546875 0q0.03125 0.703125 0.515625 1.09375q0.5 0.375 1.328125 0.375q0.765625 0 1.15625 -0.28125q0.40625 -0.296875 0.40625 -0.78125zm7.3579254 -9.71875l0 2.46875l1.71875 0l0 1.953125l-1.71875 0l0 5.015625q0 0.5625 0.21875 0.8125q0.21875 0.234375 0.8125 0.234375q0.453125 0 0.796875 -0.078125l0 2.03125q-0.796875 0.25 -1.625 0.25q-2.828125 0 -2.875 -2.84375l0 -5.421875l-1.46875 0l0 -1.953125l1.46875 0l0 -2.46875l2.671875 0z" fill-rule="nonzero"></path><path fill="#666666" d="m296.0 171.99792l0 0c0 -6.6262665 5.371643 -11.997925 11.997925 -11.997925l152.00415 0c3.1820374 0 6.2337646 1.2640686 8.483795 3.5141144c2.250061 2.2500458 3.5141296 5.301758 3.5141296 8.48381l0 328.00415c0 6.626251 -5.371643 11.997925 -11.997925 11.997925l-152.00415 0l0 0c-6.6262817 0 -11.997925 -5.3716736 -11.997925 -11.997925z" fill-rule="nonzero"></path><path fill="#000000" fill-opacity="0.0" d="m356.51254 406.01486c-10.433716 -14.046387 -17.154785 -30.4982 -19.540955 -47.832275l103.02841 -14.182587z" fill-rule="nonzero"></path><path fill="#000000" fill-opacity="0.0" d="m356.51254 406.01486c-10.433716 -14.046387 -17.154785 -30.4982 -19.540955 -47.832275" fill-rule="nonzero"></path><path stroke="#ffffff" stroke-width="4.0" stroke-linejoin="round" stroke-linecap="butt" d="m356.51254 406.01486c-10.433716 -14.046387 -17.154785 -30.4982 -19.540955 -47.832275" fill-rule="nonzero"></path><path fill="#000000" fill-opacity="0.0" d="m304.0 168.0l160.0 0l0 56.0l-160.0 0z" fill-rule="nonzero"></path><path fill="#ffffff" d="m376.38995 202.92l-2.78125 0l0 -5.796875l-5.4375 0l0 5.796875l-2.78125 0l0 -13.515625l2.78125 0l0 5.484375l5.4375 0l0 -5.484375l2.78125 0l0 13.515625zm1.5877075 -5.109375q0 -1.5 0.578125 -2.65625q0.578125 -1.171875 1.65625 -1.8125q1.078125 -0.640625 2.515625 -0.640625q2.03125 0 3.3125 1.25q1.28125 1.234375 1.4375 3.359375l0.015625 0.6875q0 2.3125 -1.296875 3.71875q-1.28125 1.390625 -3.453125 1.390625q-2.171875 0 -3.46875 -1.390625q-1.296875 -1.390625 -1.296875 -3.78125l0 -0.125zm2.6875 0.1875q0 1.4375 0.53125 2.203125q0.546875 0.75 1.546875 0.75q0.96875 0 1.515625 -0.75q0.546875 -0.75 0.546875 -2.390625q0 -1.40625 -0.546875 -2.171875q-0.546875 -0.765625 -1.53125 -0.765625q-0.984375 0 -1.53125 0.765625q-0.53125 0.765625 -0.53125 2.359375zm13.720673 2.140625q0 -0.484375 -0.484375 -0.765625q-0.484375 -0.28125 -1.5625 -0.5q-3.59375 -0.765625 -3.59375 -3.046875q0 -1.34375 1.109375 -2.234375q1.109375 -0.890625 2.90625 -0.890625q1.90625 0 3.046875 0.90625q1.15625 0.890625 1.15625 2.328125l-2.6875 0q0 -0.578125 -0.375 -0.953125q-0.359375 -0.375 -1.15625 -0.375q-0.671875 0 -1.046875 0.3125q-0.359375 0.296875 -0.359375 0.765625q0 0.453125 0.421875 0.734375q0.421875 0.265625 1.421875 0.46875q1.0 0.203125 1.6875 0.453125q2.125 0.765625 2.125 2.6875q0 1.375 -1.1875 2.234375q-1.171875 0.84375 -3.03125 0.84375q-1.265625 0 -2.25 -0.453125q-0.96875 -0.453125 -1.53125 -1.234375q-0.5625 -0.78125 -0.5625 -1.6875l2.546875 0q0.03125 0.703125 0.515625 1.09375q0.5 0.375 1.328125 0.375q0.765625 0 1.15625 -0.28125q0.40625 -0.296875 0.40625 -0.78125zm7.3579407 -9.71875l0 2.46875l1.71875 0l0 1.953125l-1.71875 0l0 5.015625q0 0.5625 0.21875 0.8125q0.21875 0.234375 0.8125 0.234375q0.453125 0 0.796875 -0.078125l0 2.03125q-0.796875 0.25 -1.625 0.25q-2.828125 0 -2.875 -2.84375l0 -5.421875l-1.46875 0l0 -1.953125l1.46875 0l0 -2.46875l2.671875 0z" fill-rule="nonzero"></path><path fill="#000000" fill-opacity="0.0" d="m423.81003 342.28293l0 0c-1.3621826 22.506683 -10.001984 43.96106 -24.617645 61.130463l-79.19238 -67.41339z" fill-rule="nonzero"></path><path fill="#000000" fill-opacity="0.0" d="m423.81003 342.28293l0 0c-1.3621826 22.506683 -10.001984 43.96106 -24.617645 61.130463" fill-rule="nonzero"></path><path stroke="#ffffff" stroke-width="4.0" stroke-linejoin="round" stroke-linecap="butt" d="m423.81003 342.28293l0 0c-1.3621826 22.506683 -10.001984 43.96106 -24.617645 61.130463" fill-rule="nonzero"></path><path fill="#000000" fill-opacity="0.0" d="m375.99896 392.46194c-0.25335693 57.036102 -46.39737 103.22623 -103.4332 103.5365c-57.035843 0.31030273 -103.67967 -45.37506 -104.55356 -102.40503l103.98779 -1.5934143z" fill-rule="nonzero"></path><path fill="#000000" fill-opacity="0.0" d="m375.99896 392.46194c-0.25335693 57.036102 -46.39737 103.22623 -103.4332 103.5365c-57.035843 0.31030273 -103.67967 -45.37506 -104.55356 -102.40503" fill-rule="nonzero"></path><path stroke="#ffffff" stroke-width="4.0" stroke-linejoin="round" stroke-linecap="butt" d="m375.99896 392.46194c-0.25335693 57.036102 -46.39737 103.22623 -103.4332 103.5365c-57.035843 0.31030273 -103.67967 -45.37506 -104.55356 -102.40503" fill-rule="nonzero"></path><path fill="#ffffff" d="m112.0 440.0l0 0c0 -30.927948 25.072052 -56.0 56.0 -56.0l0 0c14.852127 0 29.095947 5.899994 39.597977 16.402008c10.502045 10.502045 16.402023 24.74588 16.402023 39.597992l0 0c0 30.927948 -25.072052 56.0 -56.0 56.0l0 0c-30.927948 0 -56.0 -25.072052 -56.0 -56.0z" fill-rule="nonzero"></path><path fill="#000000" fill-opacity="0.0" d="m88.0 408.0l160.0 0l0 64.0l-160.0 0z" fill-rule="nonzero"></path><path fill="#666666" d="m146.7537 433.95123q0.75 0 1.203125 -0.40625q0.46875 -0.421875 0.484375 -1.09375l2.515625 0q-0.015625 1.015625 -0.5625 1.875q-0.546875 0.84375 -1.5 1.3125q-0.9375 0.46875 -2.09375 0.46875q-2.15625 0 -3.40625 -1.359375q-1.234375 -1.375 -1.234375 -3.796875l0 -0.171875q0 -2.3125 1.234375 -3.6875q1.234375 -1.390625 3.390625 -1.390625q1.875 0 3.015625 1.078125q1.140625 1.0625 1.15625 2.84375l-2.515625 0q-0.015625 -0.78125 -0.484375 -1.265625q-0.453125 -0.484375 -1.21875 -0.484375q-0.9375 0 -1.421875 0.6875q-0.46875 0.671875 -0.46875 2.203125l0 0.28125q0 1.546875 0.46875 2.234375q0.46875 0.671875 1.4375 0.671875zm8.385193 1.96875l-2.6875 0l0 -10.03125l2.6875 0l0 10.03125zm-2.84375 -12.640625q0 -0.59375 0.390625 -0.984375q0.40625 -0.390625 1.109375 -0.390625q0.6875 0 1.09375 0.390625q0.40625 0.390625 0.40625 0.984375q0 0.609375 -0.421875 1.0q-0.40625 0.390625 -1.078125 0.390625q-0.671875 0 -1.09375 -0.390625q-0.40625 -0.390625 -0.40625 -1.0zm10.602722 5.109375q-0.546875 -0.0625 -0.96875 -0.0625q-1.515625 0 -1.984375 1.03125l0 6.5625l-2.6875 0l0 -10.03125l2.53125 0l0.078125 1.1875q0.796875 -1.375 2.234375 -1.375q0.4375 0 0.828125 0.109375l-0.03125 2.578125zm5.336029 5.5625q0.75 0 1.203125 -0.40625q0.46875 -0.421875 0.484375 -1.09375l2.515625 0q-0.015625 1.015625 -0.5625 1.875q-0.546875 0.84375 -1.5 1.3125q-0.9375 0.46875 -2.09375 0.46875q-2.15625 0 -3.40625 -1.359375q-1.234375 -1.375 -1.234375 -3.796875l0 -0.171875q0 -2.3125 1.234375 -3.6875q1.234375 -1.390625 3.390625 -1.390625q1.875 0 3.015625 1.078125q1.140625 1.0625 1.15625 2.84375l-2.515625 0q-0.015625 -0.78125 -0.484375 -1.265625q-0.453125 -0.484375 -1.21875 -0.484375q-0.9375 0 -1.421875 0.6875q-0.46875 0.671875 -0.46875 2.203125l0 0.28125q0 1.546875 0.46875 2.234375q0.46875 0.671875 1.4375 0.671875zm11.572693 0.953125q-1.0 1.203125 -2.75 1.203125q-1.609375 0 -2.46875 -0.921875q-0.84375 -0.9375 -0.859375 -2.71875l0 -6.578125l2.671875 0l0 6.484375q0 1.5625 1.4375 1.5625q1.359375 0 1.875 -0.953125l0 -7.09375l2.6875 0l0 10.03125l-2.53125 0l-0.0625 -1.015625zm7.2519836 1.015625l-2.6875 0l0 -10.03125l2.6875 0l0 10.03125zm-2.84375 -12.640625q0 -0.59375 0.390625 -0.984375q0.40625 -0.390625 1.109375 -0.390625q0.6875 0 1.09375 0.390625q0.40625 0.390625 0.40625 0.984375q0 0.609375 -0.421875 1.0q-0.40625 0.390625 -1.078125 0.390625q-0.671875 0 -1.09375 -0.390625q-0.40625 -0.390625 -0.40625 -1.0zm8.165222 0.140625l0 2.46875l1.71875 0l0 1.953125l-1.71875 0l0 5.015625q0 0.5625 0.21875 0.8125q0.21875 0.234375 0.8125 0.234375q0.453125 0 0.796875 -0.078125l0 2.03125q-0.796875 0.25 -1.625 0.25q-2.828125 0 -2.875 -2.84375l0 -5.421875l-1.46875 0l0 -1.953125l1.46875 0l0 -2.46875l2.671875 0z" fill-rule="nonzero"></path><path fill="#666666" d="m148.06943 455.13873q0 -0.484375 -0.484375 -0.765625q-0.484375 -0.28125 -1.5625 -0.5q-3.59375 -0.765625 -3.59375 -3.046875q0 -1.34375 1.109375 -2.234375q1.109375 -0.890625 2.90625 -0.890625q1.90625 0 3.046875 0.90625q1.15625 0.890625 1.15625 2.328125l-2.6875 0q0 -0.578125 -0.375 -0.953125q-0.359375 -0.375 -1.15625 -0.375q-0.671875 0 -1.046875 0.3125q-0.359375 0.296875 -0.359375 0.765625q0 0.453125 0.421875 0.734375q0.421875 0.265625 1.421875 0.46875q1.0 0.203125 1.6875 0.453125q2.125 0.765625 2.125 2.6875q0 1.375 -1.1875 2.234375q-1.171875 0.84375 -3.03125 0.84375q-1.265625 0 -2.25 -0.453125q-0.96875 -0.453125 -1.53125 -1.234375q-0.5625 -0.78125 -0.5625 -1.6875l2.546875 0q0.03125 0.703125 0.515625 1.09375q0.5 0.375 1.328125 0.375q0.765625 0 1.15625 -0.28125q0.40625 -0.296875 0.40625 -0.78125zm8.7798 2.96875q-2.21875 0 -3.609375 -1.359375q-1.375 -1.359375 -1.375 -3.609375l0 -0.25q0 -1.515625 0.578125 -2.703125q0.59375 -1.203125 1.65625 -1.84375q1.078125 -0.640625 2.453125 -0.640625q2.046875 0 3.234375 1.296875q1.1875 1.296875 1.1875 3.6875l0 1.09375l-6.390625 0q0.125 0.984375 0.78125 1.578125q0.65625 0.59375 1.65625 0.59375q1.546875 0 2.421875 -1.125l1.3125 1.46875q-0.59375 0.859375 -1.625 1.34375q-1.03125 0.46875 -2.28125 0.46875zm-0.3125 -8.234375q-0.796875 0 -1.296875 0.53125q-0.5 0.53125 -0.625 1.546875l3.71875 0l0 -0.21875q-0.015625 -0.890625 -0.484375 -1.375q-0.453125 -0.484375 -1.3125 -0.484375zm11.412338 0.515625q-0.546875 -0.0625 -0.96875 -0.0625q-1.515625 0 -1.984375 1.03125l0 6.5625l-2.6875 0l0 -10.03125l2.53125 0l0.078125 1.1875q0.796875 -1.375 2.234375 -1.375q0.4375 0 0.828125 0.109375l-0.03125 2.578125zm4.9141693 4.25l1.875 -6.75l2.796875 0l-3.390625 10.03125l-2.5625 0l-3.375 -10.03125l2.796875 0l1.859375 6.75zm10.303329 3.46875q-2.21875 0 -3.609375 -1.359375q-1.375 -1.359375 -1.375 -3.609375l0 -0.25q0 -1.515625 0.578125 -2.703125q0.59375 -1.203125 1.65625 -1.84375q1.078125 -0.640625 2.453125 -0.640625q2.046875 0 3.234375 1.296875q1.1875 1.296875 1.1875 3.6875l0 1.09375l-6.390625 0q0.125 0.984375 0.78125 1.578125q0.65625 0.59375 1.65625 0.59375q1.546875 0 2.421875 -1.125l1.3125 1.46875q-0.59375 0.859375 -1.625 1.34375q-1.03125 0.46875 -2.28125 0.46875zm-0.3125 -8.234375q-0.796875 0 -1.296875 0.53125q-0.5 0.53125 -0.625 1.546875l3.71875 0l0 -0.21875q-0.015625 -0.890625 -0.484375 -1.375q-0.453125 -0.484375 -1.3125 -0.484375zm11.412338 0.515625q-0.546875 -0.0625 -0.96875 -0.0625q-1.515625 0 -1.984375 1.03125l0 6.5625l-2.6875 0l0 -10.03125l2.53125 0l0.078125 1.1875q0.796875 -1.375 2.234375 -1.375q0.4375 0 0.828125 0.109375l-0.03125 2.578125z" fill-rule="nonzero"></path><path fill="#000000" fill-opacity="0.0" d="m298.05832 492.6825c-13.574066 3.5131836 -27.718414 4.2453003 -41.582672 2.1522827l15.524353 -102.83478z" fill-rule="nonzero"></path><path fill="#000000" fill-opacity="0.0" d="m298.05832 492.6825c-13.574066 3.5131836 -27.718414 4.2453003 -41.582672 2.1522827" fill-rule="nonzero"></path><path stroke="#666666" stroke-width="4.0" stroke-linejoin="round" stroke-linecap="butt" d="m298.05832 492.6825c-13.574066 3.5131836 -27.718414 4.2453003 -41.582672 2.1522827" fill-rule="nonzero"></path><path fill="#6d9eeb" d="m96.0 284.0l0 0c0 -24.300537 19.69947 -44.0 44.0 -44.0l0 0c11.669525 0 22.8611 4.6356964 31.112701 12.887299c8.251602 8.251617 12.887299 19.443176 12.887299 31.112701l0 0c0 24.300537 -19.699478 44.0 -44.0 44.0l0 0c-24.30053 0 -44.0 -19.699463 -44.0 -44.0z" fill-rule="nonzero"></path><path fill="#000000" fill-opacity="0.0" d="m96.0 248.0l88.0 0l0 72.0l-88.0 0z" fill-rule="nonzero"></path><path fill="#ffffff" d="m121.28906 281.40686l0.078125 0.9375q0.890625 -1.09375 2.421875 -1.09375q1.640625 0 2.25 1.28125q0.890625 -1.28125 2.53125 -1.28125q1.375 0 2.046875 0.796875q0.671875 0.796875 0.671875 2.40625l0 5.40625l-2.265625 0l0 -5.390625q0 -0.71875 -0.28125 -1.046875q-0.28125 -0.34375 -0.984375 -0.34375q-1.015625 0 -1.40625 0.96875l0 5.8125l-2.25 0l0 -5.390625q0 -0.734375 -0.296875 -1.0625q-0.28125 -0.328125 -0.984375 -0.328125q-0.953125 0 -1.390625 0.796875l0 5.984375l-2.25 0l0 -8.453125l2.109375 0zm14.8984375 5.25l1.5625 -5.25l2.421875 0l-3.40625 9.765625l-0.1875 0.453125q-0.75 1.65625 -2.5 1.65625q-0.484375 0 -1.0 -0.15625l0 -1.703125l0.34375 0q0.640625 0 0.953125 -0.203125q0.328125 -0.1875 0.5 -0.640625l0.265625 -0.6875l-2.953125 -8.484375l2.421875 0l1.578125 5.25zm9.453125 0.859375q0 -0.40625 -0.421875 -0.640625q-0.40625 -0.25 -1.3125 -0.4375q-3.015625 -0.625 -3.015625 -2.5625q0 -1.125 0.9375 -1.875q0.9375 -0.75 2.4375 -0.75q1.609375 0 2.578125 0.765625q0.96875 0.75 0.96875 1.953125l-2.265625 0q0 -0.484375 -0.3125 -0.796875q-0.3125 -0.3125 -0.96875 -0.3125q-0.578125 0 -0.890625 0.265625q-0.3125 0.25 -0.3125 0.640625q0 0.375 0.359375 0.609375q0.359375 0.234375 1.203125 0.40625q0.84375 0.15625 1.421875 0.375q1.78125 0.65625 1.78125 2.265625q0 1.15625 -1.0 1.875q-0.984375 0.71875 -2.546875 0.71875q-1.0625 0 -1.890625 -0.375q-0.828125 -0.390625 -1.296875 -1.046875q-0.46875 -0.65625 -0.46875 -1.421875l2.140625 0q0.03125 0.59375 0.4375 0.921875q0.421875 0.3125 1.125 0.3125q0.640625 0 0.96875 -0.234375q0.34375 -0.25 0.34375 -0.65625zm3.2890625 -1.96875q0 -1.984375 0.890625 -3.140625q0.890625 -1.15625 2.4375 -1.15625q1.359375 0 2.15625 1.03125l0.15625 -0.875l1.984375 0l0 11.703125l-2.265625 0l0 -3.984375q-0.78125 0.890625 -2.046875 0.890625q-1.515625 0 -2.421875 -1.171875q-0.890625 -1.171875 -0.890625 -3.296875zm2.265625 0.171875q0 1.203125 0.421875 1.84375q0.421875 0.625 1.203125 0.625q1.03125 0 1.46875 -0.828125l0 -3.484375q-0.421875 -0.796875 -1.453125 -0.796875q-0.78125 0 -1.21875 0.640625q-0.421875 0.625 -0.421875 2.0zm9.5078125 4.140625l-2.265625 0l0 -12.0l2.265625 0l0 12.0z" fill-rule="nonzero"></path><path fill="#6d9eeb" d="m176.0 340.0l0 0c0 -15.463959 12.536026 -28.0 28.0 -28.0l0 0c7.426056 0 14.547974 2.9499817 19.798996 8.201019c5.251007 5.251007 8.201004 12.372925 8.201004 19.79898l0 0c0 15.463959 -12.536026 28.0 -28.0 28.0l0 0c-15.463974 0 -28.0 -12.536041 -28.0 -28.0z" fill-rule="nonzero"></path><path fill="#6d9eeb" d="m320.0 276.0l0 0c0 -15.463959 12.536041 -28.0 28.0 -28.0l0 0c7.426056 0 14.547974 2.949997 19.79898 8.201019c5.2510376 5.251007 8.201019 12.372925 8.201019 19.79898l0 0c0 15.463959 -12.536041 28.0 -28.0 28.0l0 0c-15.463959 0 -28.0 -12.536041 -28.0 -28.0z" fill-rule="nonzero"></path><path fill="#6d9eeb" d="m392.0 324.0l0 0c0 -15.463959 12.536041 -28.0 28.0 -28.0l0 0c7.426056 0 14.547974 2.9499817 19.79898 8.201019c5.2510376 5.251007 8.201019 12.372925 8.201019 19.79898l0 0c0 15.463959 -12.536041 28.0 -28.0 28.0l0 0c-15.463959 0 -28.0 -12.536041 -28.0 -28.0z" fill-rule="nonzero"></path><path fill="#6d9eeb" d="m312.0 348.0l0 0c0 -15.463959 12.536041 -28.0 28.0 -28.0l0 0c7.426056 0 14.547974 2.9499817 19.79898 8.201019c5.2510376 5.251007 8.201019 12.372925 8.201019 19.79898l0 0c0 15.463959 -12.536041 28.0 -28.0 28.0l0 0c-15.463959 0 -28.0 -12.536041 -28.0 -28.0z" fill-rule="nonzero"></path><path fill="#000000" fill-opacity="0.0" d="m174.80539 276.9237l0 0c46.699097 -25.780594 102.86633 -27.851639 151.33722 -5.5802307l-70.14261 152.65652z" fill-rule="nonzero"></path><path fill="#000000" fill-opacity="0.0" d="m174.80539 276.9237l0 0c46.699097 -25.780594 102.86633 -27.851639 151.33722 -5.5802307" fill-rule="nonzero"></path><path stroke="#6d9eeb" stroke-width="4.0" stroke-linejoin="round" stroke-linecap="butt" d="m174.80539 276.9237l0 0c46.699097 -25.780594 102.86633 -27.851639 151.33722 -5.5802307" fill-rule="nonzero"></path><path fill="#000000" fill-opacity="0.0" d="m360.1765 289.6706l0 0c20.937897 7.4289246 40.194366 18.937012 56.654755 33.858124l-112.83127 124.47128z" fill-rule="nonzero"></path><path fill="#000000" fill-opacity="0.0" d="m360.1765 289.6706l0 0c20.937897 7.4289246 40.194366 18.937012 56.654755 33.858124" fill-rule="nonzero"></path><path stroke="#6d9eeb" stroke-width="4.0" stroke-linejoin="round" stroke-linecap="butt" d="m360.1765 289.6706l0 0c20.937897 7.4289246 40.194366 18.937012 56.654755 33.858124" fill-rule="nonzero"></path><path fill="#666666" d="m512.0 171.99792l0 0c0 -6.6262665 5.371643 -11.997925 11.997925 -11.997925l152.00415 0c3.1820679 0 6.2337646 1.2640686 8.483826 3.5141144c2.250061 2.2500458 3.5140991 5.301758 3.5140991 8.48381l0 328.00415c0 6.626251 -5.371643 11.997925 -11.997925 11.997925l-152.00415 0l0 0c-6.6262817 0 -11.997925 -5.3716736 -11.997925 -11.997925z" fill-rule="nonzero"></path><path fill="#000000" fill-opacity="0.0" d="m592.7637 305.88458l0 0c11.057739 28.072235 9.379272 59.562958 -4.5998535 86.30075l-92.16382 -48.185333z" fill-rule="nonzero"></path><path fill="#000000" fill-opacity="0.0" d="m592.7637 305.88458l0 0c11.057739 28.072235 9.379272 59.562958 -4.5998535 86.30075" fill-rule="nonzero"></path><path stroke="#ffffff" stroke-width="4.0" stroke-linejoin="round" stroke-linecap="butt" d="m592.7637 305.88458l0 0c11.057739 28.072235 9.379272 59.562958 -4.5998535 86.30075" fill-rule="nonzero"></path><path fill="#000000" fill-opacity="0.0" d="m591.99896 392.46194c-0.25335693 57.036102 -46.3974 103.22623 -103.4332 103.5365c-57.035828 0.31030273 -103.67969 -45.37506 -104.55356 -102.40503l103.98779 -1.5934143z" fill-rule="nonzero"></path><path fill="#000000" fill-opacity="0.0" d="m591.99896 392.46194c-0.25335693 57.036102 -46.3974 103.22623 -103.4332 103.5365c-57.035828 0.31030273 -103.67969 -45.37506 -104.55356 -102.40503" fill-rule="nonzero"></path><path stroke="#ffffff" stroke-width="4.0" stroke-linejoin="round" stroke-linecap="butt" d="m591.99896 392.46194c-0.25335693 57.036102 -46.3974 103.22623 -103.4332 103.5365c-57.035828 0.31030273 -103.67969 -45.37506 -104.55356 -102.40503" fill-rule="nonzero"></path><path fill="#000000" fill-opacity="0.0" d="m520.0 168.0l160.0 0l0 56.0l-160.0 0z" fill-rule="nonzero"></path><path fill="#ffffff" d="m592.38995 202.92l-2.78125 0l0 -5.796875l-5.4375 0l0 5.796875l-2.78125 0l0 -13.515625l2.78125 0l0 5.484375l5.4375 0l0 -5.484375l2.78125 0l0 13.515625zm1.5877075 -5.109375q0 -1.5 0.578125 -2.65625q0.578125 -1.171875 1.65625 -1.8125q1.078125 -0.640625 2.515625 -0.640625q2.03125 0 3.3125 1.25q1.28125 1.234375 1.4375 3.359375l0.015625 0.6875q0 2.3125 -1.296875 3.71875q-1.28125 1.390625 -3.453125 1.390625q-2.171875 0 -3.46875 -1.390625q-1.296875 -1.390625 -1.296875 -3.78125l0 -0.125zm2.6875 0.1875q0 1.4375 0.53125 2.203125q0.546875 0.75 1.546875 0.75q0.96875 0 1.515625 -0.75q0.546875 -0.75 0.546875 -2.390625q0 -1.40625 -0.546875 -2.171875q-0.546875 -0.765625 -1.53125 -0.765625q-0.984375 0 -1.53125 0.765625q-0.53125 0.765625 -0.53125 2.359375zm13.720703 2.140625q0 -0.484375 -0.484375 -0.765625q-0.484375 -0.28125 -1.5625 -0.5q-3.59375 -0.765625 -3.59375 -3.046875q0 -1.34375 1.109375 -2.234375q1.109375 -0.890625 2.90625 -0.890625q1.90625 0 3.046875 0.90625q1.15625 0.890625 1.15625 2.328125l-2.6875 0q0 -0.578125 -0.375 -0.953125q-0.359375 -0.375 -1.15625 -0.375q-0.671875 0 -1.046875 0.3125q-0.359375 0.296875 -0.359375 0.765625q0 0.453125 0.421875 0.734375q0.421875 0.265625 1.421875 0.46875q1.0 0.203125 1.6875 0.453125q2.125 0.765625 2.125 2.6875q0 1.375 -1.1875 2.234375q-1.171875 0.84375 -3.03125 0.84375q-1.265625 0 -2.25 -0.453125q-0.96875 -0.453125 -1.53125 -1.234375q-0.5625 -0.78125 -0.5625 -1.6875l2.546875 0q0.03125 0.703125 0.515625 1.09375q0.5 0.375 1.328125 0.375q0.765625 0 1.15625 -0.28125q0.40625 -0.296875 0.40625 -0.78125zm7.35791 -9.71875l0 2.46875l1.71875 0l0 1.953125l-1.71875 0l0 5.015625q0 0.5625 0.21875 0.8125q0.21875 0.234375 0.8125 0.234375q0.453125 0 0.796875 -0.078125l0 2.03125q-0.796875 0.25 -1.625 0.25q-2.828125 0 -2.875 -2.84375l0 -5.421875l-1.46875 0l0 -1.953125l1.46875 0l0 -2.46875l2.671875 0z" fill-rule="nonzero"></path><path fill="#000000" fill-opacity="0.0" d="m514.0583 492.6825c-13.574036 3.5131836 -27.718384 4.2453003 -41.58264 2.1522827l15.524353 -102.83478z" fill-rule="nonzero"></path><path fill="#000000" fill-opacity="0.0" d="m514.0583 492.6825c-13.574036 3.5131836 -27.718384 4.2453003 -41.58264 2.1522827" fill-rule="nonzero"></path><path stroke="#666666" stroke-width="4.0" stroke-linejoin="round" stroke-linecap="butt" d="m514.0583 492.6825c-13.574036 3.5131836 -27.718384 4.2453003 -41.58264 2.1522827" fill-rule="nonzero"></path><path fill="#ffffff" d="m544.0 440.0l0 0c0 -30.927948 25.072083 -56.0 56.0 -56.0l0 0c14.852112 0 29.095947 5.899994 39.59796 16.402008c10.502075 10.502045 16.402039 24.74588 16.402039 39.597992l0 0c0 30.927948 -25.072083 56.0 -56.0 56.0l0 0c-30.927917 0 -56.0 -25.072052 -56.0 -56.0z" fill-rule="nonzero"></path><path fill="#000000" fill-opacity="0.0" d="m520.0 408.0l160.0 0l0 64.0l-160.0 0z" fill-rule="nonzero"></path><path fill="#666666" d="m578.7537 433.95123q0.75 0 1.203125 -0.40625q0.46875 -0.421875 0.484375 -1.09375l2.515625 0q-0.015625 1.015625 -0.5625 1.875q-0.546875 0.84375 -1.5 1.3125q-0.9375 0.46875 -2.09375 0.46875q-2.15625 0 -3.40625 -1.359375q-1.234375 -1.375 -1.234375 -3.796875l0 -0.171875q0 -2.3125 1.234375 -3.6875q1.234375 -1.390625 3.390625 -1.390625q1.875 0 3.015625 1.078125q1.140625 1.0625 1.15625 2.84375l-2.515625 0q-0.015625 -0.78125 -0.484375 -1.265625q-0.453125 -0.484375 -1.21875 -0.484375q-0.9375 0 -1.421875 0.6875q-0.46875 0.671875 -0.46875 2.203125l0 0.28125q0 1.546875 0.46875 2.234375q0.46875 0.671875 1.4375 0.671875zm8.385193 1.96875l-2.6875 0l0 -10.03125l2.6875 0l0 10.03125zm-2.84375 -12.640625q0 -0.59375 0.390625 -0.984375q0.40625 -0.390625 1.109375 -0.390625q0.6875 0 1.09375 0.390625q0.40625 0.390625 0.40625 0.984375q0 0.609375 -0.421875 1.0q-0.40625 0.390625 -1.078125 0.390625q-0.671875 0 -1.09375 -0.390625q-0.40625 -0.390625 -0.40625 -1.0zm10.602661 5.109375q-0.546875 -0.0625 -0.96875 -0.0625q-1.515625 0 -1.984375 1.03125l0 6.5625l-2.6875 0l0 -10.03125l2.53125 0l0.078125 1.1875q0.796875 -1.375 2.234375 -1.375q0.4375 0 0.828125 0.109375l-0.03125 2.578125zm5.3360596 5.5625q0.75 0 1.203125 -0.40625q0.46875 -0.421875 0.484375 -1.09375l2.515625 0q-0.015625 1.015625 -0.5625 1.875q-0.546875 0.84375 -1.5 1.3125q-0.9375 0.46875 -2.09375 0.46875q-2.15625 0 -3.40625 -1.359375q-1.234375 -1.375 -1.234375 -3.796875l0 -0.171875q0 -2.3125 1.234375 -3.6875q1.234375 -1.390625 3.390625 -1.390625q1.875 0 3.015625 1.078125q1.140625 1.0625 1.15625 2.84375l-2.515625 0q-0.015625 -0.78125 -0.484375 -1.265625q-0.453125 -0.484375 -1.21875 -0.484375q-0.9375 0 -1.421875 0.6875q-0.46875 0.671875 -0.46875 2.203125l0 0.28125q0 1.546875 0.46875 2.234375q0.46875 0.671875 1.4375 0.671875zm11.572693 0.953125q-1.0 1.203125 -2.75 1.203125q-1.609375 0 -2.46875 -0.921875q-0.84375 -0.9375 -0.859375 -2.71875l0 -6.578125l2.671875 0l0 6.484375q0 1.5625 1.4375 1.5625q1.359375 0 1.875 -0.953125l0 -7.09375l2.6875 0l0 10.03125l-2.53125 0l-0.0625 -1.015625zm7.252014 1.015625l-2.6875 0l0 -10.03125l2.6875 0l0 10.03125zm-2.84375 -12.640625q0 -0.59375 0.390625 -0.984375q0.40625 -0.390625 1.109375 -0.390625q0.6875 0 1.09375 0.390625q0.40625 0.390625 0.40625 0.984375q0 0.609375 -0.421875 1.0q-0.40625 0.390625 -1.078125 0.390625q-0.671875 0 -1.09375 -0.390625q-0.40625 -0.390625 -0.40625 -1.0zm8.165161 0.140625l0 2.46875l1.71875 0l0 1.953125l-1.71875 0l0 5.015625q0 0.5625 0.21875 0.8125q0.21875 0.234375 0.8125 0.234375q0.453125 0 0.796875 -0.078125l0 2.03125q-0.796875 0.25 -1.625 0.25q-2.828125 0 -2.875 -2.84375l0 -5.421875l-1.46875 0l0 -1.953125l1.46875 0l0 -2.46875l2.671875 0z" fill-rule="nonzero"></path><path fill="#666666" d="m580.06946 455.13873q0 -0.484375 -0.484375 -0.765625q-0.484375 -0.28125 -1.5625 -0.5q-3.59375 -0.765625 -3.59375 -3.046875q0 -1.34375 1.109375 -2.234375q1.109375 -0.890625 2.90625 -0.890625q1.90625 0 3.046875 0.90625q1.15625 0.890625 1.15625 2.328125l-2.6875 0q0 -0.578125 -0.375 -0.953125q-0.359375 -0.375 -1.15625 -0.375q-0.671875 0 -1.046875 0.3125q-0.359375 0.296875 -0.359375 0.765625q0 0.453125 0.421875 0.734375q0.421875 0.265625 1.421875 0.46875q1.0 0.203125 1.6875 0.453125q2.125 0.765625 2.125 2.6875q0 1.375 -1.1875 2.234375q-1.171875 0.84375 -3.03125 0.84375q-1.265625 0 -2.25 -0.453125q-0.96875 -0.453125 -1.53125 -1.234375q-0.5625 -0.78125 -0.5625 -1.6875l2.546875 0q0.03125 0.703125 0.515625 1.09375q0.5 0.375 1.328125 0.375q0.765625 0 1.15625 -0.28125q0.40625 -0.296875 0.40625 -0.78125zm8.779785 2.96875q-2.21875 0 -3.609375 -1.359375q-1.375 -1.359375 -1.375 -3.609375l0 -0.25q0 -1.515625 0.578125 -2.703125q0.59375 -1.203125 1.65625 -1.84375q1.078125 -0.640625 2.453125 -0.640625q2.046875 0 3.234375 1.296875q1.1875 1.296875 1.1875 3.6875l0 1.09375l-6.390625 0q0.125 0.984375 0.78125 1.578125q0.65625 0.59375 1.65625 0.59375q1.546875 0 2.421875 -1.125l1.3125 1.46875q-0.59375 0.859375 -1.625 1.34375q-1.03125 0.46875 -2.28125 0.46875zm-0.3125 -8.234375q-0.796875 0 -1.296875 0.53125q-0.5 0.53125 -0.625 1.546875l3.71875 0l0 -0.21875q-0.015625 -0.890625 -0.484375 -1.375q-0.453125 -0.484375 -1.3125 -0.484375zm11.4123535 0.515625q-0.546875 -0.0625 -0.96875 -0.0625q-1.515625 0 -1.984375 1.03125l0 6.5625l-2.6875 0l0 -10.03125l2.53125 0l0.078125 1.1875q0.796875 -1.375 2.234375 -1.375q0.4375 0 0.828125 0.109375l-0.03125 2.578125zm4.9141235 4.25l1.875 -6.75l2.796875 0l-3.390625 10.03125l-2.5625 0l-3.375 -10.03125l2.796875 0l1.859375 6.75zm10.303345 3.46875q-2.21875 0 -3.609375 -1.359375q-1.375 -1.359375 -1.375 -3.609375l0 -0.25q0 -1.515625 0.578125 -2.703125q0.59375 -1.203125 1.65625 -1.84375q1.078125 -0.640625 2.453125 -0.640625q2.046875 0 3.234375 1.296875q1.1875 1.296875 1.1875 3.6875l0 1.09375l-6.390625 0q0.125 0.984375 0.78125 1.578125q0.65625 0.59375 1.65625 0.59375q1.546875 0 2.421875 -1.125l1.3125 1.46875q-0.59375 0.859375 -1.625 1.34375q-1.03125 0.46875 -2.28125 0.46875zm-0.3125 -8.234375q-0.796875 0 -1.296875 0.53125q-0.5 0.53125 -0.625 1.546875l3.71875 0l0 -0.21875q-0.015625 -0.890625 -0.484375 -1.375q-0.453125 -0.484375 -1.3125 -0.484375zm11.4123535 0.515625q-0.546875 -0.0625 -0.96875 -0.0625q-1.515625 0 -1.984375 1.03125l0 6.5625l-2.6875 0l0 -10.03125l2.53125 0l0.078125 1.1875q0.796875 -1.375 2.234375 -1.375q0.4375 0 0.828125 0.109375l-0.03125 2.578125z" fill-rule="nonzero"></path><path fill="#ffffff" d="m328.0 440.0l0 0c0 -30.927948 25.072052 -56.0 56.0 -56.0l0 0c14.852112 0 29.095947 5.899994 39.597992 16.402008c10.502014 10.502045 16.402008 24.74588 16.402008 39.597992l0 0c0 30.927948 -25.072052 56.0 -56.0 56.0l0 0c-30.927948 0 -56.0 -25.072052 -56.0 -56.0z" fill-rule="nonzero"></path><path fill="#000000" fill-opacity="0.0" d="m304.0 408.0l160.0 0l0 64.0l-160.0 0z" fill-rule="nonzero"></path><path fill="#666666" d="m362.7537 433.95123q0.75 0 1.203125 -0.40625q0.46875 -0.421875 0.484375 -1.09375l2.515625 0q-0.015625 1.015625 -0.5625 1.875q-0.546875 0.84375 -1.5 1.3125q-0.9375 0.46875 -2.09375 0.46875q-2.15625 0 -3.40625 -1.359375q-1.234375 -1.375 -1.234375 -3.796875l0 -0.171875q0 -2.3125 1.234375 -3.6875q1.234375 -1.390625 3.390625 -1.390625q1.875 0 3.015625 1.078125q1.140625 1.0625 1.15625 2.84375l-2.515625 0q-0.015625 -0.78125 -0.484375 -1.265625q-0.453125 -0.484375 -1.21875 -0.484375q-0.9375 0 -1.421875 0.6875q-0.46875 0.671875 -0.46875 2.203125l0 0.28125q0 1.546875 0.46875 2.234375q0.46875 0.671875 1.4375 0.671875zm8.385193 1.96875l-2.6875 0l0 -10.03125l2.6875 0l0 10.03125zm-2.84375 -12.640625q0 -0.59375 0.390625 -0.984375q0.40625 -0.390625 1.109375 -0.390625q0.6875 0 1.09375 0.390625q0.40625 0.390625 0.40625 0.984375q0 0.609375 -0.421875 1.0q-0.40625 0.390625 -1.078125 0.390625q-0.671875 0 -1.09375 -0.390625q-0.40625 -0.390625 -0.40625 -1.0zm10.602722 5.109375q-0.546875 -0.0625 -0.96875 -0.0625q-1.515625 0 -1.984375 1.03125l0 6.5625l-2.6875 0l0 -10.03125l2.53125 0l0.078125 1.1875q0.796875 -1.375 2.234375 -1.375q0.4375 0 0.828125 0.109375l-0.03125 2.578125zm5.336029 5.5625q0.75 0 1.203125 -0.40625q0.46875 -0.421875 0.484375 -1.09375l2.515625 0q-0.015625 1.015625 -0.5625 1.875q-0.546875 0.84375 -1.5 1.3125q-0.9375 0.46875 -2.09375 0.46875q-2.15625 0 -3.40625 -1.359375q-1.234375 -1.375 -1.234375 -3.796875l0 -0.171875q0 -2.3125 1.234375 -3.6875q1.234375 -1.390625 3.390625 -1.390625q1.875 0 3.015625 1.078125q1.140625 1.0625 1.15625 2.84375l-2.515625 0q-0.015625 -0.78125 -0.484375 -1.265625q-0.453125 -0.484375 -1.21875 -0.484375q-0.9375 0 -1.421875 0.6875q-0.46875 0.671875 -0.46875 2.203125l0 0.28125q0 1.546875 0.46875 2.234375q0.46875 0.671875 1.4375 0.671875zm11.572693 0.953125q-1.0 1.203125 -2.75 1.203125q-1.609375 0 -2.46875 -0.921875q-0.84375 -0.9375 -0.859375 -2.71875l0 -6.578125l2.671875 0l0 6.484375q0 1.5625 1.4375 1.5625q1.359375 0 1.875 -0.953125l0 -7.09375l2.6875 0l0 10.03125l-2.53125 0l-0.0625 -1.015625zm7.2519836 1.015625l-2.6875 0l0 -10.03125l2.6875 0l0 10.03125zm-2.84375 -12.640625q0 -0.59375 0.390625 -0.984375q0.40625 -0.390625 1.109375 -0.390625q0.6875 0 1.09375 0.390625q0.40625 0.390625 0.40625 0.984375q0 0.609375 -0.421875 1.0q-0.40625 0.390625 -1.078125 0.390625q-0.671875 0 -1.09375 -0.390625q-0.40625 -0.390625 -0.40625 -1.0zm8.165222 0.140625l0 2.46875l1.71875 0l0 1.953125l-1.71875 0l0 5.015625q0 0.5625 0.21875 0.8125q0.21875 0.234375 0.8125 0.234375q0.453125 0 0.796875 -0.078125l0 2.03125q-0.796875 0.25 -1.625 0.25q-2.828125 0 -2.875 -2.84375l0 -5.421875l-1.46875 0l0 -1.953125l1.46875 0l0 -2.46875l2.671875 0z" fill-rule="nonzero"></path><path fill="#666666" d="m364.06943 455.13873q0 -0.484375 -0.484375 -0.765625q-0.484375 -0.28125 -1.5625 -0.5q-3.59375 -0.765625 -3.59375 -3.046875q0 -1.34375 1.109375 -2.234375q1.109375 -0.890625 2.90625 -0.890625q1.90625 0 3.046875 0.90625q1.15625 0.890625 1.15625 2.328125l-2.6875 0q0 -0.578125 -0.375 -0.953125q-0.359375 -0.375 -1.15625 -0.375q-0.671875 0 -1.046875 0.3125q-0.359375 0.296875 -0.359375 0.765625q0 0.453125 0.421875 0.734375q0.421875 0.265625 1.421875 0.46875q1.0 0.203125 1.6875 0.453125q2.125 0.765625 2.125 2.6875q0 1.375 -1.1875 2.234375q-1.171875 0.84375 -3.03125 0.84375q-1.265625 0 -2.25 -0.453125q-0.96875 -0.453125 -1.53125 -1.234375q-0.5625 -0.78125 -0.5625 -1.6875l2.546875 0q0.03125 0.703125 0.515625 1.09375q0.5 0.375 1.328125 0.375q0.765625 0 1.15625 -0.28125q0.40625 -0.296875 0.40625 -0.78125zm8.779816 2.96875q-2.21875 0 -3.609375 -1.359375q-1.375 -1.359375 -1.375 -3.609375l0 -0.25q0 -1.515625 0.578125 -2.703125q0.59375 -1.203125 1.65625 -1.84375q1.078125 -0.640625 2.453125 -0.640625q2.046875 0 3.234375 1.296875q1.1875 1.296875 1.1875 3.6875l0 1.09375l-6.390625 0q0.125 0.984375 0.78125 1.578125q0.65625 0.59375 1.65625 0.59375q1.546875 0 2.421875 -1.125l1.3125 1.46875q-0.59375 0.859375 -1.625 1.34375q-1.03125 0.46875 -2.28125 0.46875zm-0.3125 -8.234375q-0.796875 0 -1.296875 0.53125q-0.5 0.53125 -0.625 1.546875l3.71875 0l0 -0.21875q-0.015625 -0.890625 -0.484375 -1.375q-0.453125 -0.484375 -1.3125 -0.484375zm11.412323 0.515625q-0.546875 -0.0625 -0.96875 -0.0625q-1.515625 0 -1.984375 1.03125l0 6.5625l-2.6875 0l0 -10.03125l2.53125 0l0.078125 1.1875q0.796875 -1.375 2.234375 -1.375q0.4375 0 0.828125 0.109375l-0.03125 2.578125zm4.914154 4.25l1.875 -6.75l2.796875 0l-3.390625 10.03125l-2.5625 0l-3.375 -10.03125l2.796875 0l1.859375 6.75zm10.303345 3.46875q-2.21875 0 -3.609375 -1.359375q-1.375 -1.359375 -1.375 -3.609375l0 -0.25q0 -1.515625 0.578125 -2.703125q0.59375 -1.203125 1.65625 -1.84375q1.078125 -0.640625 2.453125 -0.640625q2.046875 0 3.234375 1.296875q1.1875 1.296875 1.1875 3.6875l0 1.09375l-6.390625 0q0.125 0.984375 0.78125 1.578125q0.65625 0.59375 1.65625 0.59375q1.546875 0 2.421875 -1.125l1.3125 1.46875q-0.59375 0.859375 -1.625 1.34375q-1.03125 0.46875 -2.28125 0.46875zm-0.3125 -8.234375q-0.796875 0 -1.296875 0.53125q-0.5 0.53125 -0.625 1.546875l3.71875 0l0 -0.21875q-0.015625 -0.890625 -0.484375 -1.375q-0.453125 -0.484375 -1.3125 -0.484375zm11.4123535 0.515625q-0.546875 -0.0625 -0.96875 -0.0625q-1.515625 0 -1.984375 1.03125l0 6.5625l-2.6875 0l0 -10.03125l2.53125 0l0.078125 1.1875q0.796875 -1.375 2.234375 -1.375q0.4375 0 0.828125 0.109375l-0.03125 2.578125z" fill-rule="nonzero"></path><path fill="#000000" fill-opacity="0.0" d="m647.81006 350.28293l0 0c-1.3621826 22.506683 -10.002014 43.96106 -24.617676 61.130463l-79.19238 -67.41339z" fill-rule="nonzero"></path><path fill="#000000" fill-opacity="0.0" d="m647.81006 350.28293l0 0c-1.3621826 22.506683 -10.002014 43.96106 -24.617676 61.130463" fill-rule="nonzero"></path><path stroke="#ffffff" stroke-width="4.0" stroke-linejoin="round" stroke-linecap="butt" d="m647.81006 350.28293l0 0c-1.3621826 22.506683 -10.002014 43.96106 -24.617676 61.130463" fill-rule="nonzero"></path><path fill="#6d9eeb" d="m616.0 332.0l0 0c0 -15.463959 12.536011 -28.0 28.0 -28.0l0 0c7.4260864 0 14.547974 2.9499817 19.799011 8.201019c5.2509766 5.251007 8.200989 12.372925 8.200989 19.79898l0 0c0 15.463959 -12.536011 28.0 -28.0 28.0l0 0c-15.463989 0 -28.0 -12.536041 -28.0 -28.0z" fill-rule="nonzero"></path><path fill="#000000" fill-opacity="0.0" d="m578.6724 413.54453l0 0c-13.013489 -14.469879 -21.705933 -32.30081 -25.08899 -51.465454l102.416565 -18.079071z" fill-rule="nonzero"></path><path fill="#000000" fill-opacity="0.0" d="m578.6724 413.54453l0 0c-13.013489 -14.469879 -21.705933 -32.30081 -25.08899 -51.465454" fill-rule="nonzero"></path><path stroke="#ffffff" stroke-width="4.0" stroke-linejoin="round" stroke-linecap="butt" d="m578.6724 413.54453l0 0c-13.013489 -14.469879 -21.705933 -32.30081 -25.08899 -51.465454" fill-rule="nonzero"></path><path fill="#6d9eeb" d="m520.0 348.0l0 0c0 -15.463959 12.536011 -28.0 28.0 -28.0l0 0c7.4260864 0 14.547974 2.9499817 19.799011 8.201019c5.2509766 5.251007 8.200989 12.372925 8.200989 19.79898l0 0c0 15.463959 -12.536011 28.0 -28.0 28.0l0 0c-15.463989 0 -28.0 -12.536041 -28.0 -28.0z" fill-rule="nonzero"></path><path fill="#000000" fill-opacity="0.0" d="m42.527557 32.0l682.9291 0l0 80.0l-682.9291 0z" fill-rule="nonzero"></path><path fill="#666666" d="m202.07803 64.14188q-0.265625 3.671875 -2.71875 5.78125q-2.4375 2.109375 -6.4375 2.109375q-4.375 0 -6.890625 -2.9375q-2.5 -2.953125 -2.5 -8.09375l0 -1.390625q0 -3.28125 1.15625 -5.78125q1.15625 -2.5 3.296875 -3.828125q2.15625 -1.34375 5.0 -1.34375q3.9375 0 6.34375 2.109375q2.40625 2.109375 2.78125 5.921875l-4.6875 0q-0.171875 -2.203125 -1.234375 -3.1875q-1.046875 -1.0 -3.203125 -1.0q-2.34375 0 -3.515625 1.6875q-1.15625 1.671875 -1.1875 5.203125l0 1.71875q0 3.6875 1.109375 5.390625q1.125 1.703125 3.53125 1.703125q2.171875 0 3.234375 -0.984375q1.078125 -1.0 1.234375 -3.078125l4.6875 0zm7.546875 7.578125l-4.53125 0l0 -16.90625l4.53125 0l0 16.90625zm-4.796875 -21.28125q0 -1.015625 0.671875 -1.671875q0.6875 -0.65625 1.859375 -0.65625q1.15625 0 1.84375 0.65625q0.6875 0.65625 0.6875 1.671875q0 1.03125 -0.703125 1.6875q-0.6875 0.65625 -1.828125 0.65625q-1.140625 0 -1.84375 -0.65625q-0.6875 -0.65625 -0.6875 -1.6875zm18.015625 8.609375q-0.921875 -0.125 -1.625 -0.125q-2.5625 0 -3.359375 1.734375l0 11.0625l-4.515625 0l0 -16.90625l4.265625 0l0.125 2.015625q1.359375 -2.328125 3.765625 -2.328125q0.75 0 1.40625 0.203125l-0.0625 4.34375zm9.203125 9.34375q1.25 0 2.03125 -0.6875q0.78125 -0.6875 0.8125 -1.828125l4.234375 0q-0.015625 1.71875 -0.9375 3.15625q-0.921875 1.421875 -2.53125 2.21875q-1.59375 0.78125 -3.53125 0.78125q-3.625 0 -5.71875 -2.296875q-2.09375 -2.3125 -2.09375 -6.375l0 -0.296875q0 -3.90625 2.078125 -6.234375q2.078125 -2.328125 5.703125 -2.328125q3.171875 0 5.078125 1.8125q1.921875 1.796875 1.953125 4.796875l-4.234375 0q-0.03125 -1.3125 -0.8125 -2.125q-0.78125 -0.828125 -2.0625 -0.828125q-1.578125 0 -2.390625 1.15625q-0.796875 1.140625 -0.796875 3.71875l0 0.46875q0 2.609375 0.796875 3.75q0.796875 1.140625 2.421875 1.140625zm19.78125 1.609375q-1.671875 2.03125 -4.625 2.03125q-2.71875 0 -4.15625 -1.5625q-1.421875 -1.5625 -1.453125 -4.578125l0 -11.078125l4.515625 0l0 10.921875q0 2.640625 2.40625 2.640625q2.296875 0 3.15625 -1.59375l0 -11.96875l4.53125 0l0 16.90625l-4.25 0l-0.125 -1.71875zm12.546875 1.71875l-4.53125 0l0 -16.90625l4.53125 0l0 16.90625zm-4.796875 -21.28125q0 -1.015625 0.671875 -1.671875q0.6875 -0.65625 1.859375 -0.65625q1.15625 0 1.84375 0.65625q0.6875 0.65625 0.6875 1.671875q0 1.03125 -0.703125 1.6875q-0.6875 0.65625 -1.828125 0.65625q-1.140625 0 -1.84375 -0.65625q-0.6875 -0.65625 -0.6875 -1.6875zm13.921875 0.21875l0 4.15625l2.890625 0l0 3.3125l-2.890625 0l0 8.4375q0 0.9375 0.359375 1.34375q0.359375 0.40625 1.375 0.40625q0.75 0 1.328125 -0.109375l0 3.421875q-1.328125 0.40625 -2.734375 0.40625q-4.75 0 -4.84375 -4.796875l0 -9.109375l-2.46875 0l0 -3.3125l2.46875 0l0 -4.15625l4.515625 0zm6.703125 5.296875l-2.125 -1.234375q1.34375 -2.109375 1.390625 -4.359375l0 -2.640625l3.59375 0l0 2.421875q0 1.40625 -0.78125 3.046875q-0.78125 1.640625 -2.078125 2.765625zm15.203125 11.09375q0 -0.828125 -0.828125 -1.296875q-0.8125 -0.484375 -2.625 -0.859375q-6.03125 -1.265625 -6.03125 -5.125q0 -2.25 1.859375 -3.75q1.875 -1.515625 4.890625 -1.515625q3.21875 0 5.140625 1.515625q1.9375 1.515625 1.9375 3.9375l-4.515625 0q0 -0.96875 -0.625 -1.59375q-0.625 -0.640625 -1.953125 -0.640625q-1.140625 0 -1.765625 0.515625q-0.625 0.515625 -0.625 1.3125q0 0.75 0.703125 1.21875q0.71875 0.453125 2.40625 0.796875q1.6875 0.328125 2.84375 0.75q3.578125 1.3125 3.578125 4.546875q0 2.3125 -1.984375 3.75q-1.984375 1.421875 -5.125 1.421875q-2.125 0 -3.78125 -0.75q-1.640625 -0.765625 -2.578125 -2.078125q-0.9375 -1.328125 -0.9375 -2.859375l4.28125 0q0.0625 1.203125 0.890625 1.84375q0.828125 0.640625 2.21875 0.640625q1.296875 0 1.953125 -0.484375q0.671875 -0.5 0.671875 -1.296875zm30.484375 -3.625q0 3.90625 -1.78125 6.265625q-1.765625 2.34375 -4.78125 2.34375q-2.5625 0 -4.140625 -1.78125l0 7.96875l-4.515625 0l0 -23.40625l4.1875 0l0.15625 1.65625q1.640625 -1.96875 4.28125 -1.96875q3.125 0 4.859375 2.3125q1.734375 2.3125 1.734375 6.375l0 0.234375zm-4.515625 -0.328125q0 -2.359375 -0.84375 -3.640625q-0.828125 -1.28125 -2.421875 -1.28125q-2.125 0 -2.921875 1.625l0 6.921875q0.828125 1.671875 2.953125 1.671875q3.234375 0 3.234375 -5.296875zm16.8125 -4.046875q-0.921875 -0.125 -1.625 -0.125q-2.5625 0 -3.359375 1.734375l0 11.0625l-4.515625 0l0 -16.90625l4.265625 0l0.125 2.015625q1.359375 -2.328125 3.765625 -2.328125q0.75 0 1.40625 0.203125l-0.0625 4.34375zm1.46875 4.0625q0 -2.515625 0.96875 -4.484375q0.96875 -1.96875 2.78125 -3.046875q1.828125 -1.078125 4.234375 -1.078125q3.421875 0 5.578125 2.09375q2.171875 2.09375 2.421875 5.6875l0.03125 1.15625q0 3.890625 -2.171875 6.25q-2.171875 2.34375 -5.828125 2.34375q-3.65625 0 -5.84375 -2.34375q-2.171875 -2.34375 -2.171875 -6.375l0 -0.203125zm4.515625 0.328125q0 2.40625 0.90625 3.6875q0.90625 1.265625 2.59375 1.265625q1.640625 0 2.5625 -1.25q0.921875 -1.265625 0.921875 -4.03125q0 -2.359375 -0.921875 -3.65625q-0.921875 -1.296875 -2.59375 -1.296875q-1.65625 0 -2.5625 1.296875q-0.90625 1.28125 -0.90625 3.984375zm13.625 -0.296875q0 -3.890625 1.84375 -6.265625q1.859375 -2.375 5.0 -2.375q2.78125 0 4.328125 1.90625l0.1875 -1.59375l4.09375 0l0 16.34375q0 2.21875 -1.015625 3.859375q-1.0 1.640625 -2.828125 2.5q-1.828125 0.859375 -4.28125 0.859375q-1.859375 0 -3.625 -0.75q-1.765625 -0.734375 -2.671875 -1.90625l2.0 -2.75q1.6875 1.890625 4.09375 1.890625q1.796875 0 2.796875 -0.96875q1.0 -0.953125 1.0 -2.71875l0 -0.90625q-1.5625 1.765625 -4.109375 1.765625q-3.046875 0 -4.9375 -2.375q-1.875 -2.390625 -1.875 -6.328125l0 -0.1875zm4.515625 0.328125q0 2.296875 0.921875 3.609375q0.921875 1.296875 2.53125 1.296875q2.0625 0 2.953125 -1.546875l0 -7.109375q-0.90625 -1.546875 -2.921875 -1.546875q-1.625 0 -2.5625 1.328125q-0.921875 1.328125 -0.921875 3.96875zm23.90625 -4.421875q-0.921875 -0.125 -1.625 -0.125q-2.5625 0 -3.359375 1.734375l0 11.0625l-4.515625 0l0 -16.90625l4.265625 0l0.125 2.015625q1.359375 -2.328125 3.765625 -2.328125q0.75 0 1.40625 0.203125l-0.0625 4.34375zm11.96875 12.671875q-0.3125 -0.609375 -0.453125 -1.515625q-1.640625 1.828125 -4.265625 1.828125q-2.484375 0 -4.125 -1.4375q-1.625 -1.4375 -1.625 -3.625q0 -2.6875 1.984375 -4.125q2.0 -1.4375 5.765625 -1.453125l2.078125 0l0 -0.96875q0 -1.171875 -0.609375 -1.875q-0.59375 -0.703125 -1.890625 -0.703125q-1.140625 0 -1.796875 0.546875q-0.640625 0.546875 -0.640625 1.5l-4.515625 0q0 -1.46875 0.90625 -2.71875q0.90625 -1.25 2.5625 -1.953125q1.65625 -0.71875 3.71875 -0.71875q3.125 0 4.953125 1.578125q1.84375 1.5625 1.84375 4.40625l0 7.328125q0.015625 2.40625 0.671875 3.640625l0 0.265625l-4.5625 0zm-3.734375 -3.140625q1.0 0 1.84375 -0.4375q0.84375 -0.453125 1.25 -1.203125l0 -2.90625l-1.6875 0q-3.390625 0 -3.609375 2.34375l-0.015625 0.265625q0 0.84375 0.59375 1.390625q0.59375 0.546875 1.625 0.546875zm15.328125 -13.765625l0.140625 1.890625q1.796875 -2.203125 4.859375 -2.203125q3.265625 0 4.484375 2.578125q1.78125 -2.578125 5.078125 -2.578125q2.75 0 4.09375 1.609375q1.34375 1.59375 1.34375 4.8125l0 10.796875l-4.53125 0l0 -10.78125q0 -1.4375 -0.5625 -2.09375q-0.5625 -0.671875 -1.984375 -0.671875q-2.03125 0 -2.8125 1.9375l0.015625 11.609375l-4.515625 0l0 -10.765625q0 -1.46875 -0.578125 -2.125q-0.578125 -0.65625 -1.96875 -0.65625q-1.921875 0 -2.78125 1.59375l0 11.953125l-4.515625 0l0 -16.90625l4.234375 0zm27.703125 0l0.140625 1.890625q1.796875 -2.203125 4.859375 -2.203125q3.265625 0 4.484375 2.578125q1.78125 -2.578125 5.078125 -2.578125q2.75 0 4.09375 1.609375q1.34375 1.59375 1.34375 4.8125l0 10.796875l-4.53125 0l0 -10.78125q0 -1.4375 -0.5625 -2.09375q-0.5625 -0.671875 -1.984375 -0.671875q-2.03125 0 -2.8125 1.9375l0.015625 11.609375l-4.515625 0l0 -10.765625q0 -1.46875 -0.578125 -2.125q-0.578125 -0.65625 -1.96875 -0.65625q-1.921875 0 -2.78125 1.59375l0 11.953125l-4.515625 0l0 -16.90625l4.234375 0zm33.265625 16.90625q-0.3125 -0.609375 -0.453125 -1.515625q-1.640625 1.828125 -4.265625 1.828125q-2.484375 0 -4.125 -1.4375q-1.625 -1.4375 -1.625 -3.625q0 -2.6875 1.984375 -4.125q2.0 -1.4375 5.765625 -1.453125l2.078125 0l0 -0.96875q0 -1.171875 -0.609375 -1.875q-0.59375 -0.703125 -1.890625 -0.703125q-1.140625 0 -1.796875 0.546875q-0.640625 0.546875 -0.640625 1.5l-4.515625 0q0 -1.46875 0.90625 -2.71875q0.90625 -1.25 2.5625 -1.953125q1.65625 -0.71875 3.71875 -0.71875q3.125 0 4.953125 1.578125q1.84375 1.5625 1.84375 4.40625l0 7.328125q0.015625 2.40625 0.671875 3.640625l0 0.265625l-4.5625 0zm-3.734375 -3.140625q1.0 0 1.84375 -0.4375q0.84375 -0.453125 1.25 -1.203125l0 -2.90625l-1.6875 0q-3.390625 0 -3.609375 2.34375l-0.015625 0.265625q0 0.84375 0.59375 1.390625q0.59375 0.546875 1.625 0.546875zm16.5 -17.921875l0 4.15625l2.890625 0l0 3.3125l-2.890625 0l0 8.4375q0 0.9375 0.359375 1.34375q0.359375 0.40625 1.375 0.40625q0.75 0 1.328125 -0.109375l0 3.421875q-1.328125 0.40625 -2.734375 0.40625q-4.75 0 -4.84375 -4.796875l0 -9.109375l-2.46875 0l0 -3.3125l2.46875 0l0 -4.15625l4.515625 0zm10.171875 21.0625l-4.53125 0l0 -16.90625l4.53125 0l0 16.90625zm-4.796875 -21.28125q0 -1.015625 0.671875 -1.671875q0.6875 -0.65625 1.859375 -0.65625q1.15625 0 1.84375 0.65625q0.6875 0.65625 0.6875 1.671875q0 1.03125 -0.703125 1.6875q-0.6875 0.65625 -1.828125 0.65625q-1.140625 0 -1.84375 -0.65625q-0.6875 -0.65625 -0.6875 -1.6875zm15.546875 17.953125q1.25 0 2.03125 -0.6875q0.78125 -0.6875 0.8125 -1.828125l4.234375 0q-0.015625 1.71875 -0.9375 3.15625q-0.921875 1.421875 -2.53125 2.21875q-1.59375 0.78125 -3.53125 0.78125q-3.625 0 -5.71875 -2.296875q-2.09375 -2.3125 -2.09375 -6.375l0 -0.296875q0 -3.90625 2.078125 -6.234375q2.078125 -2.328125 5.703125 -2.328125q3.171875 0 5.078125 1.8125q1.921875 1.796875 1.953125 4.796875l-4.234375 0q-0.03125 -1.3125 -0.8125 -2.125q-0.78125 -0.828125 -2.0625 -0.828125q-1.578125 0 -2.390625 1.15625q-0.796875 1.140625 -0.796875 3.71875l0 0.46875q0 2.609375 0.796875 3.75q0.796875 1.140625 2.421875 1.140625zm23.953156 -2.1875l3.140625 -11.390625l4.71875 0l-5.703125 16.90625l-4.3125 0l-5.703125 -16.90625l4.71875 0l3.140625 11.390625zm14.609375 5.515625l-4.53125 0l0 -16.90625l4.53125 0l0 16.90625zm-4.796875 -21.28125q0 -1.015625 0.671875 -1.671875q0.6875 -0.65625 1.859375 -0.65625q1.15625 0 1.84375 0.65625q0.6875 0.65625 0.6875 1.671875q0 1.03125 -0.703125 1.6875q-0.6875 0.65625 -1.828125 0.65625q-1.140625 0 -1.84375 -0.65625q-0.6875 -0.65625 -0.6875 -1.6875zm16.296875 21.59375q-3.71875 0 -6.0625 -2.28125q-2.328125 -2.28125 -2.328125 -6.078125l0 -0.4375q0 -2.546875 0.984375 -4.546875q0.984375 -2.015625 2.78125 -3.09375q1.8125 -1.09375 4.125 -1.09375q3.46875 0 5.453125 2.1875q2.0 2.1875 2.0 6.203125l0 1.84375l-10.765625 0q0.21875 1.65625 1.3125 2.65625q1.109375 1.0 2.796875 1.0q2.609375 0 4.078125 -1.890625l2.21875 2.484375q-1.015625 1.4375 -2.75 2.25q-1.734375 0.796875 -3.84375 0.796875zm-0.515625 -13.875q-1.34375 0 -2.1875 0.90625q-0.828125 0.90625 -1.0625 2.59375l6.28125 0l0 -0.359375q-0.03125 -1.5 -0.8125 -2.3125q-0.78125 -0.828125 -2.21875 -0.828125zm24.734375 7.421875l2.21875 -10.765625l4.359375 0l-4.3125 16.90625l-3.78125 0l-3.203125 -10.640625l-3.203125 10.640625l-3.765625 0l-4.3125 -16.90625l4.359375 0l2.203125 10.75l3.09375 -10.75l3.265625 0l3.078125 10.765625z" fill-rule="nonzero"></path><path fill="#666666" d="m177.92062 91.81062q0 -1.5 0.578125 -2.65625q0.578125 -1.171875 1.65625 -1.8125q1.078125 -0.640625 2.515625 -0.640625q2.03125 0 3.3125 1.25q1.28125 1.234375 1.4375 3.359375l0.015625 0.6875q0 2.3125 -1.296875 3.71875q-1.28125 1.390625 -3.453125 1.390625q-2.171875 0 -3.46875 -1.390625q-1.296875 -1.390625 -1.296875 -3.78125l0 -0.125zm2.6875 0.1875q0 1.4375 0.53125 2.203125q0.546875 0.75 1.546875 0.75q0.96875 0 1.515625 -0.75q0.546875 -0.75 0.546875 -2.390625q0 -1.40625 -0.546875 -2.171875q-0.546875 -0.765625 -1.53125 -0.765625q-0.984375 0 -1.53125 0.765625q-0.53125 0.765625 -0.53125 2.359375zm9.017548 4.921875l0 -8.078125l-1.5 0l0 -1.953125l1.5 0l0 -0.859375q0 -1.6875 0.96875 -2.609375q0.96875 -0.9375 2.71875 -0.9375q0.546875 0 1.359375 0.171875l-0.03125 2.078125q-0.328125 -0.078125 -0.8125 -0.078125q-1.515625 0 -1.515625 1.421875l0 0.8125l2.0 0l0 1.953125l-2.0 0l0 8.078125l-2.6875 0zm13.207214 -8.9375q1.078125 -1.28125 2.6875 -1.28125q3.265625 0 3.3125 3.796875l0 6.421875l-2.6875 0l0 -6.359375q0 -0.859375 -0.375 -1.265625q-0.359375 -0.421875 -1.21875 -0.421875q-1.1875 0 -1.71875 0.90625l0 7.140625l-2.671875 0l0 -14.25l2.671875 0l0 5.3125zm7.4082336 3.828125q0 -1.5 0.578125 -2.65625q0.578125 -1.171875 1.65625 -1.8125q1.078125 -0.640625 2.515625 -0.640625q2.03125 0 3.3125 1.25q1.28125 1.234375 1.4375 3.359375l0.015625 0.6875q0 2.3125 -1.296875 3.71875q-1.28125 1.390625 -3.453125 1.390625q-2.171875 0 -3.46875 -1.390625q-1.296875 -1.390625 -1.296875 -3.78125l0 -0.125zm2.6875 0.1875q0 1.4375 0.53125 2.203125q0.546875 0.75 1.546875 0.75q0.96875 0 1.515625 -0.75q0.546875 -0.75 0.546875 -2.390625q0 -1.40625 -0.546875 -2.171875q-0.546875 -0.765625 -1.53125 -0.765625q-0.984375 0 -1.53125 0.765625q-0.53125 0.765625 -0.53125 2.359375zm13.720673 2.140625q0 -0.484375 -0.484375 -0.765625q-0.484375 -0.28125 -1.5625 -0.5q-3.59375 -0.765625 -3.59375 -3.046875q0 -1.34375 1.109375 -2.234375q1.109375 -0.890625 2.90625 -0.890625q1.90625 0 3.046875 0.90625q1.15625 0.890625 1.15625 2.328125l-2.6875 0q0 -0.578125 -0.375 -0.953125q-0.359375 -0.375 -1.15625 -0.375q-0.671875 0 -1.046875 0.3125q-0.359375 0.296875 -0.359375 0.765625q0 0.453125 0.421875 0.734375q0.421875 0.265625 1.421875 0.46875q1.0 0.203125 1.6875 0.453125q2.125 0.765625 2.125 2.6875q0 1.375 -1.1875 2.234375q-1.171875 0.84375 -3.03125 0.84375q-1.265625 0 -2.25 -0.453125q-0.96875 -0.453125 -1.53125 -1.234375q-0.5625 -0.78125 -0.5625 -1.6875l2.546875 0q0.03125 0.703125 0.515625 1.09375q0.5 0.375 1.328125 0.375q0.765625 0 1.15625 -0.28125q0.40625 -0.296875 0.40625 -0.78125zm7.3579254 -9.71875l0 2.46875l1.71875 0l0 1.953125l-1.71875 0l0 5.015625q0 0.5625 0.21875 0.8125q0.21875 0.234375 0.8125 0.234375q0.453125 0 0.796875 -0.078125l0 2.03125q-0.796875 0.25 -1.625 0.25q-2.828125 0 -2.875 -2.84375l0 -5.421875l-1.46875 0l0 -1.953125l1.46875 0l0 -2.46875l2.671875 0zm8.538147 9.71875q0 -0.484375 -0.484375 -0.765625q-0.484375 -0.28125 -1.5625 -0.5q-3.59375 -0.765625 -3.59375 -3.046875q0 -1.34375 1.109375 -2.234375q1.109375 -0.890625 2.90625 -0.890625q1.90625 0 3.046875 0.90625q1.15625 0.890625 1.15625 2.328125l-2.6875 0q0 -0.578125 -0.375 -0.953125q-0.359375 -0.375 -1.15625 -0.375q-0.671875 0 -1.046875 0.3125q-0.359375 0.296875 -0.359375 0.765625q0 0.453125 0.421875 0.734375q0.421875 0.265625 1.421875 0.46875q1.0 0.203125 1.6875 0.453125q2.125 0.765625 2.125 2.6875q0 1.375 -1.1875 2.234375q-1.171875 0.84375 -3.03125 0.84375q-1.265625 0 -2.25 -0.453125q-0.96875 -0.453125 -1.53125 -1.234375q-0.5625 -0.78125 -0.5625 -1.6875l2.546875 0q0.03125 0.703125 0.515625 1.09375q0.5 0.375 1.328125 0.375q0.765625 0 1.15625 -0.28125q0.40625 -0.296875 0.40625 -0.78125zm4.8423004 6.171875l-1.390625 -0.734375l0.328125 -0.609375q0.625 -1.125 0.640625 -2.25l0 -2.078125l2.265625 0l-0.015625 1.859375q0 1.03125 -0.515625 2.078125q-0.5 1.046875 -1.3125 1.734375zm17.544342 -8.3125q0 2.3125 -1.0625 3.71875q-1.046875 1.390625 -2.828125 1.390625q-1.53125 0 -2.453125 -1.0625l0 4.734375l-2.6875 0l0 -13.890625l2.484375 0l0.09375 0.96875q0.96875 -1.15625 2.546875 -1.15625q1.84375 0 2.875 1.375q1.03125 1.359375 1.03125 3.78125l0 0.140625zm-2.671875 -0.203125q0 -1.390625 -0.5 -2.15625q-0.5 -0.765625 -1.4375 -0.765625q-1.265625 0 -1.734375 0.96875l0 4.109375q0.484375 1.0 1.75 1.0q1.921875 0 1.921875 -3.15625zm9.784515 -2.40625q-0.546875 -0.0625 -0.96875 -0.0625q-1.515625 0 -1.984375 1.03125l0 6.5625l-2.6875 0l0 -10.03125l2.53125 0l0.078125 1.1875q0.796875 -1.375 2.234375 -1.375q0.4375 0 0.828125 0.109375l-0.03125 2.578125zm0.74227905 2.421875q0 -1.5 0.578125 -2.65625q0.578125 -1.171875 1.65625 -1.8125q1.078125 -0.640625 2.515625 -0.640625q2.03125 0 3.3125 1.25q1.28125 1.234375 1.4375 3.359375l0.015625 0.6875q0 2.3125 -1.296875 3.71875q-1.28125 1.390625 -3.453125 1.390625q-2.171875 0 -3.46875 -1.390625q-1.296875 -1.390625 -1.296875 -3.78125l0 -0.125zm2.6875 0.1875q0 1.4375 0.53125 2.203125q0.546875 0.75 1.546875 0.75q0.96875 0 1.515625 -0.75q0.546875 -0.75 0.546875 -2.390625q0 -1.40625 -0.546875 -2.171875q-0.546875 -0.765625 -1.53125 -0.765625q-0.984375 0 -1.53125 0.765625q-0.53125 0.765625 -0.53125 2.359375zm12.455048 2.953125q0.75 0 1.203125 -0.40625q0.46875 -0.421875 0.484375 -1.09375l2.515625 0q-0.015625 1.015625 -0.5625 1.875q-0.546875 0.84375 -1.5 1.3125q-0.9375 0.46875 -2.09375 0.46875q-2.15625 0 -3.40625 -1.359375q-1.234375 -1.375 -1.234375 -3.796875l0 -0.171875q0 -2.3125 1.234375 -3.6875q1.234375 -1.390625 3.390625 -1.390625q1.875 0 3.015625 1.078125q1.140625 1.0625 1.15625 2.84375l-2.515625 0q-0.015625 -0.78125 -0.484375 -1.265625q-0.453125 -0.484375 -1.21875 -0.484375q-0.9375 0 -1.421875 0.6875q-0.46875 0.671875 -0.46875 2.203125l0 0.28125q0 1.546875 0.46875 2.234375q0.46875 0.671875 1.4375 0.671875zm10.182068 2.15625q-2.21875 0 -3.609375 -1.359375q-1.375 -1.359375 -1.375 -3.609375l0 -0.25q0 -1.515625 0.578125 -2.703125q0.59375 -1.203125 1.65625 -1.84375q1.078125 -0.640625 2.453125 -0.640625q2.046875 0 3.234375 1.296875q1.1875 1.296875 1.1875 3.6875l0 1.09375l-6.390625 0q0.125 0.984375 0.78125 1.578125q0.65625 0.59375 1.65625 0.59375q1.546875 0 2.421875 -1.125l1.3125 1.46875q-0.59375 0.859375 -1.625 1.34375q-1.03125 0.46875 -2.28125 0.46875zm-0.3125 -8.234375q-0.796875 0 -1.296875 0.53125q-0.5 0.53125 -0.625 1.546875l3.71875 0l0 -0.21875q-0.015625 -0.890625 -0.484375 -1.375q-0.453125 -0.484375 -1.3125 -0.484375zm11.2092285 5.265625q0 -0.484375 -0.484375 -0.765625q-0.484375 -0.28125 -1.5625 -0.5q-3.59375 -0.765625 -3.59375 -3.046875q0 -1.34375 1.109375 -2.234375q1.109375 -0.890625 2.90625 -0.890625q1.90625 0 3.046875 0.90625q1.15625 0.890625 1.15625 2.328125l-2.6875 0q0 -0.578125 -0.375 -0.953125q-0.359375 -0.375 -1.15625 -0.375q-0.671875 0 -1.046875 0.3125q-0.359375 0.296875 -0.359375 0.765625q0 0.453125 0.421875 0.734375q0.421875 0.265625 1.421875 0.46875q1.0 0.203125 1.6875 0.453125q2.125 0.765625 2.125 2.6875q0 1.375 -1.1875 2.234375q-1.171875 0.84375 -3.03125 0.84375q-1.265625 0 -2.25 -0.453125q-0.96875 -0.453125 -1.53125 -1.234375q-0.5625 -0.78125 -0.5625 -1.6875l2.546875 0q0.03125 0.703125 0.515625 1.09375q0.5 0.375 1.328125 0.375q0.765625 0 1.15625 -0.28125q0.40625 -0.296875 0.40625 -0.78125zm9.592285 0q0 -0.484375 -0.484375 -0.765625q-0.484375 -0.28125 -1.5625 -0.5q-3.59375 -0.765625 -3.59375 -3.046875q0 -1.34375 1.109375 -2.234375q1.109375 -0.890625 2.90625 -0.890625q1.90625 0 3.046875 0.90625q1.15625 0.890625 1.15625 2.328125l-2.6875 0q0 -0.578125 -0.375 -0.953125q-0.359375 -0.375 -1.15625 -0.375q-0.671875 0 -1.046875 0.3125q-0.359375 0.296875 -0.359375 0.765625q0 0.453125 0.421875 0.734375q0.421875 0.265625 1.421875 0.46875q1.0 0.203125 1.6875 0.453125q2.125 0.765625 2.125 2.6875q0 1.375 -1.1875 2.234375q-1.171875 0.84375 -3.03125 0.84375q-1.265625 0 -2.25 -0.453125q-0.96875 -0.453125 -1.53125 -1.234375q-0.5625 -0.78125 -0.5625 -1.6875l2.546875 0q0.03125 0.703125 0.515625 1.09375q0.5 0.375 1.328125 0.375q0.765625 0 1.15625 -0.28125q0.40625 -0.296875 0.40625 -0.78125zm8.779785 2.96875q-2.21875 0 -3.609375 -1.359375q-1.375 -1.359375 -1.375 -3.609375l0 -0.25q0 -1.515625 0.578125 -2.703125q0.59375 -1.203125 1.65625 -1.84375q1.078125 -0.640625 2.453125 -0.640625q2.046875 0 3.234375 1.296875q1.1875 1.296875 1.1875 3.6875l0 1.09375l-6.390625 0q0.125 0.984375 0.78125 1.578125q0.65625 0.59375 1.65625 0.59375q1.546875 0 2.421875 -1.125l1.3125 1.46875q-0.59375 0.859375 -1.625 1.34375q-1.03125 0.46875 -2.28125 0.46875zm-0.3125 -8.234375q-0.796875 0 -1.296875 0.53125q-0.5 0.53125 -0.625 1.546875l3.71875 0l0 -0.21875q-0.015625 -0.890625 -0.484375 -1.375q-0.453125 -0.484375 -1.3125 -0.484375zm11.2092285 5.265625q0 -0.484375 -0.484375 -0.765625q-0.484375 -0.28125 -1.5625 -0.5q-3.59375 -0.765625 -3.59375 -3.046875q0 -1.34375 1.109375 -2.234375q1.109375 -0.890625 2.90625 -0.890625q1.90625 0 3.046875 0.90625q1.15625 0.890625 1.15625 2.328125l-2.6875 0q0 -0.578125 -0.375 -0.953125q-0.359375 -0.375 -1.15625 -0.375q-0.671875 0 -1.046875 0.3125q-0.359375 0.296875 -0.359375 0.765625q0 0.453125 0.421875 0.734375q0.421875 0.265625 1.421875 0.46875q1.0 0.203125 1.6875 0.453125q2.125 0.765625 2.125 2.6875q0 1.375 -1.1875 2.234375q-1.171875 0.84375 -3.03125 0.84375q-1.265625 0 -2.25 -0.453125q-0.96875 -0.453125 -1.53125 -1.234375q-0.5625 -0.78125 -0.5625 -1.6875l2.546875 0q0.03125 0.703125 0.515625 1.09375q0.5 0.375 1.328125 0.375q0.765625 0 1.15625 -0.28125q0.40625 -0.296875 0.40625 -0.78125zm4.842285 6.171875l-1.390625 -0.734375l0.328125 -0.609375q0.625 -1.125 0.640625 -2.25l0 -2.078125l2.265625 0l-0.015625 1.859375q0 1.03125 -0.515625 2.078125q-0.5 1.046875 -1.3125 1.734375zm12.684998 -5.359375q0.75 0 1.203125 -0.40625q0.46875 -0.421875 0.484375 -1.09375l2.515625 0q-0.015625 1.015625 -0.5625 1.875q-0.546875 0.84375 -1.5 1.3125q-0.9375 0.46875 -2.09375 0.46875q-2.15625 0 -3.40625 -1.359375q-1.234375 -1.375 -1.234375 -3.796875l0 -0.171875q0 -2.3125 1.234375 -3.6875q1.234375 -1.390625 3.390625 -1.390625q1.875 0 3.015625 1.078125q1.140625 1.0625 1.15625 2.84375l-2.515625 0q-0.015625 -0.78125 -0.484375 -1.265625q-0.453125 -0.484375 -1.21875 -0.484375q-0.9375 0 -1.421875 0.6875q-0.46875 0.671875 -0.46875 2.203125l0 0.28125q0 1.546875 0.46875 2.234375q0.46875 0.671875 1.4375 0.671875zm5.135193 -3.140625q0 -1.5 0.578125 -2.65625q0.578125 -1.171875 1.65625 -1.8125q1.078125 -0.640625 2.515625 -0.640625q2.03125 0 3.3125 1.25q1.28125 1.234375 1.4375 3.359375l0.015625 0.6875q0 2.3125 -1.296875 3.71875q-1.28125 1.390625 -3.453125 1.390625q-2.171875 0 -3.46875 -1.390625q-1.296875 -1.390625 -1.296875 -3.78125l0 -0.125zm2.6875 0.1875q0 1.4375 0.53125 2.203125q0.546875 0.75 1.546875 0.75q0.96875 0 1.515625 -0.75q0.546875 -0.75 0.546875 -2.390625q0 -1.40625 -0.546875 -2.171875q-0.546875 -0.765625 -1.53125 -0.765625q-0.984375 0 -1.53125 0.765625q-0.53125 0.765625 -0.53125 2.359375zm10.751892 -5.109375l0.078125 1.15625q1.078125 -1.34375 2.890625 -1.34375q1.59375 0 2.375 0.9375q0.78125 0.9375 0.796875 2.796875l0 6.484375l-2.6875 0l0 -6.421875q0 -0.859375 -0.375 -1.234375q-0.359375 -0.390625 -1.21875 -0.390625q-1.140625 0 -1.703125 0.96875l0 7.078125l-2.6875 0l0 -10.03125l2.53125 0zm11.182983 -2.46875l0 2.46875l1.71875 0l0 1.953125l-1.71875 0l0 5.015625q0 0.5625 0.21875 0.8125q0.21875 0.234375 0.8125 0.234375q0.453125 0 0.796875 -0.078125l0 2.03125q-0.796875 0.25 -1.625 0.25q-2.828125 0 -2.875 -2.84375l0 -5.421875l-1.46875 0l0 -1.953125l1.46875 0l0 -2.46875l2.671875 0zm8.913147 12.5q-0.1875 -0.359375 -0.265625 -0.90625q-0.96875 1.09375 -2.53125 1.09375q-1.484375 0 -2.453125 -0.84375q-0.96875 -0.859375 -0.96875 -2.171875q0 -1.59375 1.1875 -2.4375q1.1875 -0.859375 3.421875 -0.859375l1.234375 0l0 -0.578125q0 -0.703125 -0.359375 -1.109375q-0.359375 -0.421875 -1.125 -0.421875q-0.671875 0 -1.0625 0.328125q-0.390625 0.3125 -0.390625 0.890625l-2.671875 0q0 -0.875 0.53125 -1.609375q0.546875 -0.75 1.515625 -1.171875q0.984375 -0.421875 2.21875 -0.421875q1.859375 0 2.9375 0.9375q1.09375 0.921875 1.09375 2.609375l0 4.359375q0.015625 1.421875 0.40625 2.15625l0 0.15625l-2.71875 0zm-2.21875 -1.859375q0.59375 0 1.09375 -0.265625q0.5 -0.265625 0.75 -0.71875l0 -1.71875l-1.0 0q-2.015625 0 -2.140625 1.390625l-0.015625 0.15625q0 0.5 0.34375 0.828125q0.359375 0.328125 0.96875 0.328125zm9.236603 1.859375l-2.6875 0l0 -10.03125l2.6875 0l0 10.03125zm-2.84375 -12.640625q0 -0.59375 0.390625 -0.984375q0.40625 -0.390625 1.109375 -0.390625q0.6875 0 1.09375 0.390625q0.40625 0.390625 0.40625 0.984375q0 0.609375 -0.421875 1.0q-0.40625 0.390625 -1.078125 0.390625q-0.671875 0 -1.09375 -0.390625q-0.40625 -0.390625 -0.40625 -1.0zm7.4308167 2.609375l0.078125 1.15625q1.078125 -1.34375 2.890625 -1.34375q1.59375 0 2.375 0.9375q0.78125 0.9375 0.796875 2.796875l0 6.484375l-2.6875 0l0 -6.421875q0 -0.859375 -0.375 -1.234375q-0.359375 -0.390625 -1.21875 -0.390625q-1.140625 0 -1.703125 0.96875l0 7.078125l-2.6875 0l0 -10.03125l2.53125 0zm12.604858 10.21875q-2.21875 0 -3.609375 -1.359375q-1.375 -1.359375 -1.375 -3.609375l0 -0.25q0 -1.515625 0.578125 -2.703125q0.59375 -1.203125 1.65625 -1.84375q1.078125 -0.640625 2.453125 -0.640625q2.046875 0 3.234375 1.296875q1.1875 1.296875 1.1875 3.6875l0 1.09375l-6.390625 0q0.125 0.984375 0.78125 1.578125q0.65625 0.59375 1.65625 0.59375q1.546875 0 2.421875 -1.125l1.3125 1.46875q-0.59375 0.859375 -1.625 1.34375q-1.03125 0.46875 -2.28125 0.46875zm-0.3125 -8.234375q-0.796875 0 -1.296875 0.53125q-0.5 0.53125 -0.625 1.546875l3.71875 0l0 -0.21875q-0.015625 -0.890625 -0.484375 -1.375q-0.453125 -0.484375 -1.3125 -0.484375zm11.4123535 0.515625q-0.546875 -0.0625 -0.96875 -0.0625q-1.515625 0 -1.984375 1.03125l0 6.5625l-2.6875 0l0 -10.03125l2.53125 0l0.078125 1.1875q0.796875 -1.375 2.234375 -1.375q0.4375 0 0.828125 0.109375l-0.03125 2.578125zm6.601654 4.75q0 -0.484375 -0.484375 -0.765625q-0.484375 -0.28125 -1.5625 -0.5q-3.59375 -0.765625 -3.59375 -3.046875q0 -1.34375 1.109375 -2.234375q1.109375 -0.890625 2.90625 -0.890625q1.90625 0 3.046875 0.90625q1.15625 0.890625 1.15625 2.328125l-2.6875 0q0 -0.578125 -0.375 -0.953125q-0.359375 -0.375 -1.15625 -0.375q-0.671875 0 -1.046875 0.3125q-0.359375 0.296875 -0.359375 0.765625q0 0.453125 0.421875 0.734375q0.421875 0.265625 1.421875 0.46875q1.0 0.203125 1.6875 0.453125q2.125 0.765625 2.125 2.6875q0 1.375 -1.1875 2.234375q-1.171875 0.84375 -3.03125 0.84375q-1.265625 0 -2.25 -0.453125q-0.96875 -0.453125 -1.53125 -1.234375q-0.5625 -0.78125 -0.5625 -1.6875l2.546875 0q0.03125 0.703125 0.515625 1.09375q0.5 0.375 1.328125 0.375q0.765625 0 1.15625 -0.28125q0.40625 -0.296875 0.40625 -0.78125zm14.613159 2.78125q-0.1875 -0.359375 -0.265625 -0.90625q-0.96875 1.09375 -2.53125 1.09375q-1.484375 0 -2.453125 -0.84375q-0.96875 -0.859375 -0.96875 -2.171875q0 -1.59375 1.1875 -2.4375q1.1875 -0.859375 3.421875 -0.859375l1.234375 0l0 -0.578125q0 -0.703125 -0.359375 -1.109375q-0.359375 -0.421875 -1.125 -0.421875q-0.671875 0 -1.0625 0.328125q-0.390625 0.3125 -0.390625 0.890625l-2.671875 0q0 -0.875 0.53125 -1.609375q0.546875 -0.75 1.515625 -1.171875q0.984375 -0.421875 2.21875 -0.421875q1.859375 0 2.9375 0.9375q1.09375 0.921875 1.09375 2.609375l0 4.359375q0.015625 1.421875 0.40625 2.15625l0 0.15625l-2.71875 0zm-2.21875 -1.859375q0.59375 0 1.09375 -0.265625q0.5 -0.265625 0.75 -0.71875l0 -1.71875l-1.0 0q-2.015625 0 -2.140625 1.390625l-0.015625 0.15625q0 0.5 0.34375 0.828125q0.359375 0.328125 0.96875 0.328125zm8.877228 -8.171875l0.078125 1.15625q1.078125 -1.34375 2.890625 -1.34375q1.59375 0 2.375 0.9375q0.78125 0.9375 0.796875 2.796875l0 6.484375l-2.6875 0l0 -6.421875q0 -0.859375 -0.375 -1.234375q-0.359375 -0.390625 -1.21875 -0.390625q-1.140625 0 -1.703125 0.96875l0 7.078125l-2.6875 0l0 -10.03125l2.53125 0zm7.5579834 4.9375q0 -2.34375 1.046875 -3.734375q1.0625 -1.390625 2.890625 -1.390625q1.46875 0 2.421875 1.09375l0 -5.125l2.6875 0l0 14.25l-2.421875 0l-0.125 -1.0625q-1.0 1.25 -2.578125 1.25q-1.78125 0 -2.859375 -1.390625q-1.0625 -1.40625 -1.0625 -3.890625zm2.6875 0.1875q0 1.421875 0.484375 2.171875q0.5 0.75 1.4375 0.75q1.234375 0 1.75 -1.046875l0 -3.96875q-0.5 -1.046875 -1.734375 -1.046875q-1.9375 0 -1.9375 3.140625zm13.064453 4.90625l0 -13.515625l4.15625 0q1.78125 0 3.1875 0.8125q1.40625 0.796875 2.1875 2.28125q0.796875 1.484375 0.796875 3.359375l0 0.625q0 1.875 -0.78125 3.34375q-0.765625 1.46875 -2.1875 2.28125q-1.40625 0.796875 -3.171875 0.8125l-4.1875 0zm2.78125 -11.25l0 9.015625l1.34375 0q1.640625 0 2.5 -1.0625q0.859375 -1.078125 0.890625 -3.0625l0 -0.703125q0 -2.0625 -0.859375 -3.125q-0.859375 -1.0625 -2.5 -1.0625l-1.375 0zm20.32788 11.25l-2.78125 0l-5.421875 -8.890625l0 8.890625l-2.78125 0l0 -13.515625l2.78125 0l5.4375 8.90625l0 -8.90625l2.765625 0l0 13.515625zm9.187958 -3.546875q0 -0.78125 -0.5625 -1.203125q-0.546875 -0.421875 -2.0 -0.890625q-1.4375 -0.46875 -2.28125 -0.921875q-2.296875 -1.25 -2.296875 -3.359375q0 -1.09375 0.609375 -1.953125q0.625 -0.859375 1.78125 -1.328125q1.15625 -0.484375 2.59375 -0.484375q1.4375 0 2.5625 0.53125q1.140625 0.515625 1.765625 1.46875q0.625 0.953125 0.625 2.171875l-2.78125 0q0 -0.9375 -0.59375 -1.4375q-0.578125 -0.515625 -1.625 -0.515625q-1.03125 0 -1.59375 0.4375q-0.5625 0.421875 -0.5625 1.125q0 0.65625 0.65625 1.109375q0.671875 0.4375 1.953125 0.828125q2.375 0.71875 3.453125 1.78125q1.09375 1.046875 1.09375 2.625q0 1.75 -1.328125 2.75q-1.328125 1.0 -3.5625 1.0q-1.5625 0 -2.84375 -0.5625q-1.28125 -0.578125 -1.953125 -1.5625q-0.671875 -1.0 -0.671875 -2.3125l2.796875 0q0 2.234375 2.671875 2.234375q0.984375 0 1.53125 -0.40625q0.5625 -0.40625 0.5625 -1.125zm14.583435 -3.984375q-0.546875 -0.0625 -0.96875 -0.0625q-1.515625 0 -1.984375 1.03125l0 6.5625l-2.6875 0l0 -10.03125l2.53125 0l0.078125 1.1875q0.796875 -1.375 2.234375 -1.375q0.4375 0 0.828125 0.109375l-0.03125 2.578125zm5.7891846 7.71875q-2.21875 0 -3.609375 -1.359375q-1.375 -1.359375 -1.375 -3.609375l0 -0.25q0 -1.515625 0.578125 -2.703125q0.59375 -1.203125 1.65625 -1.84375q1.078125 -0.640625 2.453125 -0.640625q2.046875 0 3.234375 1.296875q1.1875 1.296875 1.1875 3.6875l0 1.09375l-6.390625 0q0.125 0.984375 0.78125 1.578125q0.65625 0.59375 1.65625 0.59375q1.546875 0 2.421875 -1.125l1.3125 1.46875q-0.59375 0.859375 -1.625 1.34375q-1.03125 0.46875 -2.28125 0.46875zm-0.3125 -8.234375q-0.796875 0 -1.296875 0.53125q-0.5 0.53125 -0.625 1.546875l3.71875 0l0 -0.21875q-0.015625 -0.890625 -0.484375 -1.375q-0.453125 -0.484375 -1.3125 -0.484375zm9.9436035 6.078125q0.75 0 1.203125 -0.40625q0.46875 -0.421875 0.484375 -1.09375l2.515625 0q-0.015625 1.015625 -0.5625 1.875q-0.546875 0.84375 -1.5 1.3125q-0.9375 0.46875 -2.09375 0.46875q-2.15625 0 -3.40625 -1.359375q-1.234375 -1.375 -1.234375 -3.796875l0 -0.171875q0 -2.3125 1.234375 -3.6875q1.234375 -1.390625 3.390625 -1.390625q1.875 0 3.015625 1.078125q1.140625 1.0625 1.15625 2.84375l-2.515625 0q-0.015625 -0.78125 -0.484375 -1.265625q-0.453125 -0.484375 -1.21875 -0.484375q-0.9375 0 -1.421875 0.6875q-0.46875 0.671875 -0.46875 2.203125l0 0.28125q0 1.546875 0.46875 2.234375q0.46875 0.671875 1.4375 0.671875zm5.135193 -3.140625q0 -1.5 0.578125 -2.65625q0.578125 -1.171875 1.65625 -1.8125q1.078125 -0.640625 2.515625 -0.640625q2.03125 0 3.3125 1.25q1.28125 1.234375 1.4375 3.359375l0.015625 0.6875q0 2.3125 -1.296875 3.71875q-1.28125 1.390625 -3.453125 1.390625q-2.171875 0 -3.46875 -1.390625q-1.296875 -1.390625 -1.296875 -3.78125l0 -0.125zm2.6875 0.1875q0 1.4375 0.53125 2.203125q0.546875 0.75 1.546875 0.75q0.96875 0 1.515625 -0.75q0.546875 -0.75 0.546875 -2.390625q0 -1.40625 -0.546875 -2.171875q-0.546875 -0.765625 -1.53125 -0.765625q-0.984375 0 -1.53125 0.765625q-0.53125 0.765625 -0.53125 2.359375zm13.923828 -2.609375q-0.546875 -0.0625 -0.96875 -0.0625q-1.515625 0 -1.984375 1.03125l0 6.5625l-2.6875 0l0 -10.03125l2.53125 0l0.078125 1.1875q0.796875 -1.375 2.234375 -1.375q0.4375 0 0.828125 0.109375l-0.03125 2.578125zm0.74224854 2.4375q0 -2.34375 1.046875 -3.734375q1.0625 -1.390625 2.890625 -1.390625q1.46875 0 2.421875 1.09375l0 -5.125l2.6875 0l0 14.25l-2.421875 0l-0.125 -1.0625q-1.0 1.25 -2.578125 1.25q-1.78125 0 -2.859375 -1.390625q-1.0625 -1.40625 -1.0625 -3.890625zm2.6875 0.1875q0 1.421875 0.484375 2.171875q0.5 0.75 1.4375 0.75q1.234375 0 1.75 -1.046875l0 -3.96875q-0.5 -1.046875 -1.734375 -1.046875q-1.9375 0 -1.9375 3.140625zm13.684265 2.125q0 -0.484375 -0.484375 -0.765625q-0.484375 -0.28125 -1.5625 -0.5q-3.59375 -0.765625 -3.59375 -3.046875q0 -1.34375 1.109375 -2.234375q1.109375 -0.890625 2.90625 -0.890625q1.90625 0 3.046875 0.90625q1.15625 0.890625 1.15625 2.328125l-2.6875 0q0 -0.578125 -0.375 -0.953125q-0.359375 -0.375 -1.15625 -0.375q-0.671875 0 -1.046875 0.3125q-0.359375 0.296875 -0.359375 0.765625q0 0.453125 0.421875 0.734375q0.421875 0.265625 1.421875 0.46875q1.0 0.203125 1.6875 0.453125q2.125 0.765625 2.125 2.6875q0 1.375 -1.1875 2.234375q-1.171875 0.84375 -3.03125 0.84375q-1.265625 0 -2.25 -0.453125q-0.96875 -0.453125 -1.53125 -1.234375q-0.5625 -0.78125 -0.5625 -1.6875l2.546875 0q0.03125 0.703125 0.515625 1.09375q0.5 0.375 1.328125 0.375q0.765625 0 1.15625 -0.28125q0.40625 -0.296875 0.40625 -0.78125zm4.29541 1.46875q0 -0.640625 0.421875 -1.03125q0.4375 -0.40625 1.09375 -0.40625q0.65625 0 1.078125 0.40625q0.4375 0.390625 0.4375 1.03125q0 0.625 -0.4375 1.03125q-0.421875 0.390625 -1.078125 0.390625q-0.671875 0 -1.09375 -0.390625q-0.421875 -0.40625 -0.421875 -1.03125z" fill-rule="nonzero"></path><path fill="#000000" fill-opacity="0.0" d="m160.0 304.0l88.0 0l0 72.0l-88.0 0z" fill-rule="nonzero"></path><path fill="#ffffff" d="m187.23438 337.40686l0.0625 0.96875q0.90625 -1.125 2.4375 -1.125q1.34375 0 2.0 0.796875q0.65625 0.78125 0.671875 2.34375l0 5.46875l-2.265625 0l0 -5.40625q0 -0.71875 -0.3125 -1.046875q-0.3125 -0.328125 -1.03125 -0.328125q-0.953125 0 -1.4375 0.8125l0 5.96875l-2.25 0l0 -8.453125l2.125 0zm6.5546875 4.15625q0 -1.9375 0.921875 -3.125q0.921875 -1.1875 2.5 -1.1875q1.390625 0 2.15625 0.953125l0.09375 -0.796875l2.046875 0l0 8.171875q0 1.109375 -0.5 1.921875q-0.5 0.828125 -1.421875 1.25q-0.90625 0.4375 -2.140625 0.4375q-0.921875 0 -1.8125 -0.375q-0.875 -0.359375 -1.328125 -0.953125l1.0 -1.375q0.84375 0.953125 2.046875 0.953125q0.890625 0 1.390625 -0.484375q0.5 -0.484375 0.5 -1.375l0 -0.453125q-0.78125 0.890625 -2.046875 0.890625q-1.53125 0 -2.46875 -1.1875q-0.9375 -1.203125 -0.9375 -3.171875l0 -0.09375zm2.25 0.171875q0 1.140625 0.453125 1.796875q0.46875 0.65625 1.28125 0.65625q1.03125 0 1.46875 -0.78125l0 -3.546875q-0.453125 -0.78125 -1.453125 -0.78125q-0.8125 0 -1.28125 0.671875q-0.46875 0.65625 -0.46875 1.984375zm9.5859375 4.125l-2.265625 0l0 -8.453125l2.265625 0l0 8.453125zm-2.390625 -10.640625q0 -0.515625 0.328125 -0.84375q0.34375 -0.328125 0.9375 -0.328125q0.578125 0 0.921875 0.328125q0.34375 0.328125 0.34375 0.84375q0 0.515625 -0.359375 0.84375q-0.34375 0.328125 -0.921875 0.328125q-0.5625 0 -0.90625 -0.328125q-0.34375 -0.328125 -0.34375 -0.84375zm6.3359375 2.1875l0.0625 0.96875q0.90625 -1.125 2.4375 -1.125q1.34375 0 2.0 0.796875q0.65625 0.78125 0.671875 2.34375l0 5.46875l-2.265625 0l0 -5.40625q0 -0.71875 -0.3125 -1.046875q-0.3125 -0.328125 -1.03125 -0.328125q-0.953125 0 -1.4375 0.8125l0 5.96875l-2.25 0l0 -8.453125l2.125 0zm10.1015625 2.515625l1.421875 -2.515625l2.40625 0l-2.40625 4.140625l2.515625 4.3125l-2.421875 0l-1.515625 -2.65625l-1.5 2.65625l-2.421875 0l2.5 -4.3125l-2.390625 -4.140625l2.421875 0l1.390625 2.515625z" fill-rule="nonzero"></path><path fill="#000000" fill-opacity="0.0" d="m296.0 312.0l88.0 0l0 72.0l-88.0 0z" fill-rule="nonzero"></path><path fill="#ffffff" d="m324.8086 335.90686l0.078125 0.9375q0.890625 -1.09375 2.421875 -1.09375q1.640625 0 2.25 1.28125q0.890625 -1.28125 2.53125 -1.28125q1.375 0 2.046875 0.796875q0.671875 0.796875 0.671875 2.40625l0 5.40625l-2.265625 0l0 -5.390625q0 -0.71875 -0.28125 -1.046875q-0.28125 -0.34375 -0.984375 -0.34375q-1.015625 0 -1.40625 0.96875l0 5.8125l-2.25 0l0 -5.390625q0 -0.734375 -0.296875 -1.0625q-0.28125 -0.328125 -0.984375 -0.328125q-0.953125 0 -1.390625 0.796875l0 5.984375l-2.25 0l0 -8.453125l2.109375 0zm15.6328125 8.609375q-1.859375 0 -3.03125 -1.140625q-1.171875 -1.140625 -1.171875 -3.046875l0 -0.21875q0 -1.265625 0.484375 -2.265625q0.5 -1.015625 1.40625 -1.546875q0.90625 -0.546875 2.0625 -0.546875q1.734375 0 2.71875 1.09375q1.0 1.09375 1.0 3.09375l0 0.921875l-5.375 0q0.109375 0.828125 0.65625 1.328125q0.546875 0.5 1.390625 0.5q1.3125 0 2.046875 -0.9375l1.109375 1.234375q-0.515625 0.71875 -1.390625 1.125q-0.859375 0.40625 -1.90625 0.40625zm-0.265625 -6.9375q-0.671875 0 -1.09375 0.453125q-0.40625 0.453125 -0.53125 1.296875l3.140625 0l0 -0.1875q-0.015625 -0.75 -0.40625 -1.15625q-0.390625 -0.40625 -1.109375 -0.40625zm7.1328125 -1.671875l0.078125 0.9375q0.890625 -1.09375 2.421875 -1.09375q1.640625 0 2.25 1.28125q0.890625 -1.28125 2.53125 -1.28125q1.375 0 2.046875 0.796875q0.671875 0.796875 0.671875 2.40625l0 5.40625l-2.265625 0l0 -5.390625q0 -0.71875 -0.28125 -1.046875q-0.28125 -0.34375 -0.984375 -0.34375q-1.015625 0 -1.40625 0.96875l0 5.8125l-2.25 0l0 -5.390625q0 -0.734375 -0.296875 -1.0625q-0.28125 -0.328125 -0.984375 -0.328125q-0.953125 0 -1.390625 0.796875l0 5.984375l-2.25 0l0 -8.453125l2.109375 0z" fill-rule="nonzero"></path><path fill="#ffffff" d="m322.95703 361.6881q0.625 0 1.015625 -0.34375q0.390625 -0.34375 0.40625 -0.90625l2.109375 0q0 0.859375 -0.46875 1.578125q-0.453125 0.703125 -1.265625 1.109375q-0.796875 0.390625 -1.765625 0.390625q-1.8125 0 -2.859375 -1.15625q-1.046875 -1.15625 -1.046875 -3.1875l0 -0.140625q0 -1.953125 1.03125 -3.109375q1.046875 -1.171875 2.859375 -1.171875q1.59375 0 2.546875 0.90625q0.953125 0.890625 0.96875 2.390625l-2.109375 0q-0.015625 -0.65625 -0.40625 -1.0625q-0.390625 -0.40625 -1.03125 -0.40625q-0.796875 0 -1.203125 0.578125q-0.390625 0.5625 -0.390625 1.859375l0 0.234375q0 1.296875 0.390625 1.875q0.40625 0.5625 1.21875 0.5625zm9.71875 1.671875q-0.15625 -0.3125 -0.21875 -0.765625q-0.828125 0.921875 -2.140625 0.921875q-1.234375 0 -2.0625 -0.71875q-0.8125 -0.71875 -0.8125 -1.8125q0 -1.34375 1.0 -2.0625q1.0 -0.71875 2.875 -0.734375l1.046875 0l0 -0.484375q0 -0.578125 -0.3125 -0.921875q-0.296875 -0.359375 -0.9375 -0.359375q-0.578125 0 -0.90625 0.28125q-0.3125 0.265625 -0.3125 0.734375l-2.265625 0q0 -0.734375 0.453125 -1.359375q0.453125 -0.625 1.28125 -0.96875q0.828125 -0.359375 1.859375 -0.359375q1.5625 0 2.484375 0.78125q0.921875 0.78125 0.921875 2.203125l0 3.671875q0 1.203125 0.328125 1.8125l0 0.140625l-2.28125 0zm-1.859375 -1.578125q0.5 0 0.921875 -0.21875q0.421875 -0.21875 0.625 -0.59375l0 -1.453125l-0.84375 0q-1.703125 0 -1.8125 1.171875l0 0.125q0 0.421875 0.296875 0.703125q0.296875 0.265625 0.8125 0.265625zm9.0625 -0.09375q0.625 0 1.015625 -0.34375q0.390625 -0.34375 0.40625 -0.90625l2.109375 0q0 0.859375 -0.46875 1.578125q-0.453125 0.703125 -1.265625 1.109375q-0.796875 0.390625 -1.765625 0.390625q-1.8125 0 -2.859375 -1.15625q-1.046875 -1.15625 -1.046875 -3.1875l0 -0.140625q0 -1.953125 1.03125 -3.109375q1.046875 -1.171875 2.859375 -1.171875q1.59375 0 2.546875 0.90625q0.953125 0.890625 0.96875 2.390625l-2.109375 0q-0.015625 -0.65625 -0.40625 -1.0625q-0.390625 -0.40625 -1.03125 -0.40625q-0.796875 0 -1.203125 0.578125q-0.390625 0.5625 -0.390625 1.859375l0 0.234375q0 1.296875 0.390625 1.875q0.40625 0.5625 1.21875 0.5625zm7.03125 -5.859375q0.890625 -1.078125 2.25 -1.078125q2.75 0 2.796875 3.1875l0 5.421875l-2.265625 0l0 -5.359375q0 -0.71875 -0.3125 -1.0625q-0.3125 -0.359375 -1.03125 -0.359375q-1.0 0 -1.4375 0.765625l0 6.015625l-2.265625 0l0 -12.0l2.265625 0l0 4.46875zm10.640625 7.6875q-1.859375 0 -3.03125 -1.140625q-1.171875 -1.140625 -1.171875 -3.046875l0 -0.21875q0 -1.265625 0.484375 -2.265625q0.5 -1.015625 1.40625 -1.546875q0.90625 -0.546875 2.0625 -0.546875q1.734375 0 2.71875 1.09375q1.0 1.09375 1.0 3.09375l0 0.921875l-5.375 0q0.109375 0.828125 0.65625 1.328125q0.546875 0.5 1.390625 0.5q1.3125 0 2.046875 -0.9375l1.109375 1.234375q-0.515625 0.71875 -1.390625 1.125q-0.859375 0.40625 -1.90625 0.40625zm-0.265625 -6.9375q-0.671875 0 -1.09375 0.453125q-0.40625 0.453125 -0.53125 1.296875l3.140625 0l0 -0.1875q-0.015625 -0.75 -0.40625 -1.15625q-0.390625 -0.40625 -1.109375 -0.40625z" fill-rule="nonzero"></path><path fill="#000000" fill-opacity="0.0" d="m304.0 240.0l88.0 0l0 72.0l-88.0 0z" fill-rule="nonzero"></path><path fill="#ffffff" d="m329.3711 274.32874q0.890625 -1.078125 2.25 -1.078125q2.75 0 2.796875 3.1875l0 5.421875l-2.265625 0l0 -5.359375q0 -0.71875 -0.3125 -1.0625q-0.3125 -0.359375 -1.03125 -0.359375q-1.0 0 -1.4375 0.765625l0 6.015625l-2.265625 0l0 -12.0l2.265625 0l0 4.46875zm14.359375 3.375q0 2.03125 -0.875 3.171875q-0.859375 1.140625 -2.40625 1.140625q-1.375 0 -2.203125 -1.0625l-0.09375 0.90625l-2.03125 0l0 -12.0l2.25 0l0 4.296875q0.78125 -0.90625 2.0625 -0.90625q1.546875 0 2.421875 1.140625q0.875 1.125 0.875 3.1875l0 0.125zm-2.25 -0.15625q0 -1.28125 -0.40625 -1.875q-0.40625 -0.59375 -1.21875 -0.59375q-1.078125 0 -1.484375 0.890625l0 3.328125q0.421875 0.890625 1.5 0.890625q1.09375 0 1.4375 -1.078125q0.171875 -0.515625 0.171875 -1.5625zm8.5390625 4.3125q-0.15625 -0.3125 -0.21875 -0.765625q-0.828125 0.921875 -2.140625 0.921875q-1.234375 0 -2.0625 -0.71875q-0.8125 -0.71875 -0.8125 -1.8125q0 -1.34375 1.0 -2.0625q1.0 -0.71875 2.875 -0.734375l1.046875 0l0 -0.484375q0 -0.578125 -0.3125 -0.921875q-0.296875 -0.359375 -0.9375 -0.359375q-0.578125 0 -0.90625 0.28125q-0.3125 0.265625 -0.3125 0.734375l-2.265625 0q0 -0.734375 0.453125 -1.359375q0.453125 -0.625 1.28125 -0.96875q0.828125 -0.359375 1.859375 -0.359375q1.5625 0 2.484375 0.78125q0.921875 0.78125 0.921875 2.203125l0 3.671875q0 1.203125 0.328125 1.8125l0 0.140625l-2.28125 0zm-1.859375 -1.578125q0.5 0 0.921875 -0.21875q0.421875 -0.21875 0.625 -0.59375l0 -1.453125l-0.84375 0q-1.703125 0 -1.8125 1.171875l0 0.125q0 0.421875 0.296875 0.703125q0.296875 0.265625 0.8125 0.265625zm10.125 -0.765625q0 -0.40625 -0.421875 -0.640625q-0.40625 -0.25 -1.3125 -0.4375q-3.015625 -0.625 -3.015625 -2.5625q0 -1.125 0.9375 -1.875q0.9375 -0.75 2.4375 -0.75q1.609375 0 2.578125 0.765625q0.96875 0.75 0.96875 1.953125l-2.265625 0q0 -0.484375 -0.3125 -0.796875q-0.3125 -0.3125 -0.96875 -0.3125q-0.578125 0 -0.890625 0.265625q-0.3125 0.25 -0.3125 0.640625q0 0.375 0.359375 0.609375q0.359375 0.234375 1.203125 0.40625q0.84375 0.15625 1.421875 0.375q1.78125 0.65625 1.78125 2.265625q0 1.15625 -1.0 1.875q-0.984375 0.71875 -2.546875 0.71875q-1.0625 0 -1.890625 -0.375q-0.828125 -0.390625 -1.296875 -1.046875q-0.46875 -0.65625 -0.46875 -1.421875l2.140625 0q0.03125 0.59375 0.4375 0.921875q0.421875 0.3125 1.125 0.3125q0.640625 0 0.96875 -0.234375q0.34375 -0.25 0.34375 -0.65625zm7.5390625 2.5q-1.859375 0 -3.03125 -1.140625q-1.171875 -1.140625 -1.171875 -3.046875l0 -0.21875q0 -1.265625 0.484375 -2.265625q0.5 -1.015625 1.40625 -1.546875q0.90625 -0.546875 2.0625 -0.546875q1.734375 0 2.71875 1.09375q1.0 1.09375 1.0 3.09375l0 0.921875l-5.375 0q0.109375 0.828125 0.65625 1.328125q0.546875 0.5 1.390625 0.5q1.3125 0 2.046875 -0.9375l1.109375 1.234375q-0.515625 0.71875 -1.390625 1.125q-0.859375 0.40625 -1.90625 0.40625zm-0.265625 -6.9375q-0.671875 0 -1.09375 0.453125q-0.40625 0.453125 -0.53125 1.296875l3.140625 0l0 -0.1875q-0.015625 -0.75 -0.40625 -1.15625q-0.390625 -0.40625 -1.109375 -0.40625z" fill-rule="nonzero"></path><path fill="#000000" fill-opacity="0.0" d="m504.0 312.0l88.0 0l0 72.0l-88.0 0z" fill-rule="nonzero"></path><path fill="#ffffff" d="m529.3711 346.32874q0.890625 -1.078125 2.25 -1.078125q2.75 0 2.796875 3.1875l0 5.421875l-2.265625 0l0 -5.359375q0 -0.71875 -0.3125 -1.0625q-0.3125 -0.359375 -1.03125 -0.359375q-1.0 0 -1.4375 0.765625l0 6.015625l-2.265625 0l0 -12.0l2.265625 0l0 4.46875zm14.359375 3.375q0 2.03125 -0.875 3.171875q-0.859375 1.140625 -2.40625 1.140625q-1.375 0 -2.203125 -1.0625l-0.09375 0.90625l-2.03125 0l0 -12.0l2.25 0l0 4.296875q0.78125 -0.90625 2.0625 -0.90625q1.546875 0 2.421875 1.140625q0.875 1.125 0.875 3.1875l0 0.125zm-2.25 -0.15625q0 -1.28125 -0.40625 -1.875q-0.40625 -0.59375 -1.21875 -0.59375q-1.078125 0 -1.484375 0.890625l0 3.328125q0.421875 0.890625 1.5 0.890625q1.09375 0 1.4375 -1.078125q0.171875 -0.515625 0.171875 -1.5625zm8.5390625 4.3125q-0.15625 -0.3125 -0.21875 -0.765625q-0.828125 0.921875 -2.140625 0.921875q-1.234375 0 -2.0625 -0.71875q-0.8125 -0.71875 -0.8125 -1.8125q0 -1.34375 1.0 -2.0625q1.0 -0.71875 2.875 -0.734375l1.046875 0l0 -0.484375q0 -0.578125 -0.3125 -0.921875q-0.296875 -0.359375 -0.9375 -0.359375q-0.578125 0 -0.90625 0.28125q-0.3125 0.265625 -0.3125 0.734375l-2.265625 0q0 -0.734375 0.453125 -1.359375q0.453125 -0.625 1.28125 -0.96875q0.828125 -0.359375 1.859375 -0.359375q1.5625 0 2.484375 0.78125q0.921875 0.78125 0.921875 2.203125l0 3.671875q0 1.203125 0.328125 1.8125l0 0.140625l-2.28125 0zm-1.859375 -1.578125q0.5 0 0.921875 -0.21875q0.421875 -0.21875 0.625 -0.59375l0 -1.453125l-0.84375 0q-1.703125 0 -1.8125 1.171875l0 0.125q0 0.421875 0.296875 0.703125q0.296875 0.265625 0.8125 0.265625zm10.125 -0.765625q0 -0.40625 -0.421875 -0.640625q-0.40625 -0.25 -1.3125 -0.4375q-3.015625 -0.625 -3.015625 -2.5625q0 -1.125 0.9375 -1.875q0.9375 -0.75 2.4375 -0.75q1.609375 0 2.578125 0.765625q0.96875 0.75 0.96875 1.953125l-2.265625 0q0 -0.484375 -0.3125 -0.796875q-0.3125 -0.3125 -0.96875 -0.3125q-0.578125 0 -0.890625 0.265625q-0.3125 0.25 -0.3125 0.640625q0 0.375 0.359375 0.609375q0.359375 0.234375 1.203125 0.40625q0.84375 0.15625 1.421875 0.375q1.78125 0.65625 1.78125 2.265625q0 1.15625 -1.0 1.875q-0.984375 0.71875 -2.546875 0.71875q-1.0625 0 -1.890625 -0.375q-0.828125 -0.390625 -1.296875 -1.046875q-0.46875 -0.65625 -0.46875 -1.421875l2.140625 0q0.03125 0.59375 0.4375 0.921875q0.421875 0.3125 1.125 0.3125q0.640625 0 0.96875 -0.234375q0.34375 -0.25 0.34375 -0.65625zm7.5390625 2.5q-1.859375 0 -3.03125 -1.140625q-1.171875 -1.140625 -1.171875 -3.046875l0 -0.21875q0 -1.265625 0.484375 -2.265625q0.5 -1.015625 1.40625 -1.546875q0.90625 -0.546875 2.0625 -0.546875q1.734375 0 2.71875 1.09375q1.0 1.09375 1.0 3.09375l0 0.921875l-5.375 0q0.109375 0.828125 0.65625 1.328125q0.546875 0.5 1.390625 0.5q1.3125 0 2.046875 -0.9375l1.109375 1.234375q-0.515625 0.71875 -1.390625 1.125q-0.859375 0.40625 -1.90625 0.40625zm-0.265625 -6.9375q-0.671875 0 -1.09375 0.453125q-0.40625 0.453125 -0.53125 1.296875l3.140625 0l0 -0.1875q-0.015625 -0.75 -0.40625 -1.15625q-0.390625 -0.40625 -1.109375 -0.40625z" fill-rule="nonzero"></path><path fill="#000000" fill-opacity="0.0" d="m376.0 288.0l88.0 0l0 72.0l-88.0 0z" fill-rule="nonzero"></path><path fill="#ffffff" d="m396.2539 322.32874q0.890625 -1.078125 2.25 -1.078125q2.75 0 2.796875 3.1875l0 5.421875l-2.265625 0l0 -5.359375q0 -0.71875 -0.3125 -1.0625q-0.3125 -0.359375 -1.03125 -0.359375q-1.0 0 -1.4375 0.765625l0 6.015625l-2.265625 0l0 -12.0l2.265625 0l0 4.46875zm11.640625 7.53125q-0.15625 -0.3125 -0.21875 -0.765625q-0.828125 0.921875 -2.140625 0.921875q-1.234375 0 -2.0625 -0.71875q-0.8125 -0.71875 -0.8125 -1.8125q0 -1.34375 1.0 -2.0625q1.0 -0.71875 2.875 -0.734375l1.046875 0l0 -0.484375q0 -0.578125 -0.3125 -0.921875q-0.296875 -0.359375 -0.9375 -0.359375q-0.578125 0 -0.90625 0.28125q-0.3125 0.265625 -0.3125 0.734375l-2.265625 0q0 -0.734375 0.453125 -1.359375q0.453125 -0.625 1.28125 -0.96875q0.828125 -0.359375 1.859375 -0.359375q1.5625 0 2.484375 0.78125q0.921875 0.78125 0.921875 2.203125l0 3.671875q0 1.203125 0.328125 1.8125l0 0.140625l-2.28125 0zm-1.859375 -1.578125q0.5 0 0.921875 -0.21875q0.421875 -0.21875 0.625 -0.59375l0 -1.453125l-0.84375 0q-1.703125 0 -1.8125 1.171875l0 0.125q0 0.421875 0.296875 0.703125q0.296875 0.265625 0.8125 0.265625zm5.1875 -2.71875q0 -1.96875 0.890625 -3.140625q0.890625 -1.171875 2.421875 -1.171875q1.234375 0 2.046875 0.921875l0 -4.3125l2.265625 0l0 12.0l-2.046875 0l-0.109375 -0.90625q-0.84375 1.0625 -2.171875 1.0625q-1.484375 0 -2.390625 -1.171875q-0.90625 -1.1875 -0.90625 -3.28125zm2.265625 0.171875q0 1.1875 0.40625 1.828125q0.421875 0.625 1.203125 0.625q1.046875 0 1.484375 -0.890625l0 -3.328125q-0.421875 -0.890625 -1.46875 -0.890625q-1.625 0 -1.625 2.65625zm6.75 -0.1875q0 -1.25 0.484375 -2.234375q0.484375 -0.984375 1.390625 -1.515625q0.921875 -0.546875 2.125 -0.546875q1.703125 0 2.78125 1.046875q1.09375 1.046875 1.21875 2.84375l0.015625 0.578125q0 1.9375 -1.09375 3.125q-1.078125 1.171875 -2.90625 1.171875q-1.828125 0 -2.921875 -1.171875q-1.09375 -1.171875 -1.09375 -3.1875l0 -0.109375zm2.265625 0.171875q0 1.203125 0.453125 1.84375q0.453125 0.625 1.296875 0.625q0.8125 0 1.265625 -0.625q0.46875 -0.625 0.46875 -2.015625q0 -1.171875 -0.46875 -1.8125q-0.453125 -0.65625 -1.28125 -0.65625q-0.828125 0 -1.28125 0.640625q-0.453125 0.640625 -0.453125 2.0zm6.78125 -0.171875q0 -1.25 0.484375 -2.234375q0.484375 -0.984375 1.390625 -1.515625q0.921875 -0.546875 2.125 -0.546875q1.703125 0 2.78125 1.046875q1.09375 1.046875 1.21875 2.84375l0.015625 0.578125q0 1.9375 -1.09375 3.125q-1.078125 1.171875 -2.90625 1.171875q-1.828125 0 -2.921875 -1.171875q-1.09375 -1.171875 -1.09375 -3.1875l0 -0.109375zm2.265625 0.171875q0 1.203125 0.453125 1.84375q0.453125 0.625 1.296875 0.625q0.8125 0 1.265625 -0.625q0.46875 -0.625 0.46875 -2.015625q0 -1.171875 -0.46875 -1.8125q-0.453125 -0.65625 -1.28125 -0.65625q-0.828125 0 -1.28125 0.640625q-0.453125 0.640625 -0.453125 2.0zm14.75 -0.015625q0 1.953125 -0.890625 3.140625q-0.890625 1.171875 -2.390625 1.171875q-1.28125 0 -2.078125 -0.890625l0 3.984375l-2.25 0l0 -11.703125l2.09375 0l0.078125 0.828125q0.8125 -0.984375 2.140625 -0.984375q1.5625 0 2.421875 1.15625q0.875 1.15625 0.875 3.1875l0 0.109375zm-2.265625 -0.15625q0 -1.1875 -0.421875 -1.828125q-0.40625 -0.640625 -1.203125 -0.640625q-1.0625 0 -1.46875 0.8125l0 3.46875q0.421875 0.828125 1.484375 0.828125q1.609375 0 1.609375 -2.640625z" fill-rule="nonzero"></path><path fill="#000000" fill-opacity="0.0" d="m600.0 296.0l88.0 0l0 72.0l-88.0 0z" fill-rule="nonzero"></path><path fill="#ffffff" d="m634.10547 327.5006q-0.84375 1.015625 -2.3125 1.015625q-1.359375 0 -2.078125 -0.78125q-0.71875 -0.78125 -0.734375 -2.296875l0 -5.53125l2.265625 0l0 5.453125q0 1.328125 1.203125 1.328125q1.140625 0 1.578125 -0.796875l0 -5.984375l2.265625 0l0 8.453125l-2.125 0l-0.0625 -0.859375zm8.46875 -1.484375q0 -0.40625 -0.421875 -0.640625q-0.40625 -0.25 -1.3125 -0.4375q-3.015625 -0.625 -3.015625 -2.5625q0 -1.125 0.9375 -1.875q0.9375 -0.75 2.4375 -0.75q1.609375 0 2.578125 0.765625q0.96875 0.75 0.96875 1.953125l-2.265625 0q0 -0.484375 -0.3125 -0.796875q-0.3125 -0.3125 -0.96875 -0.3125q-0.578125 0 -0.890625 0.265625q-0.3125 0.25 -0.3125 0.640625q0 0.375 0.359375 0.609375q0.359375 0.234375 1.203125 0.40625q0.84375 0.15625 1.421875 0.375q1.78125 0.65625 1.78125 2.265625q0 1.15625 -1.0 1.875q-0.984375 0.71875 -2.546875 0.71875q-1.0625 0 -1.890625 -0.375q-0.828125 -0.390625 -1.296875 -1.046875q-0.46875 -0.65625 -0.46875 -1.421875l2.140625 0q0.03125 0.59375 0.4375 0.921875q0.421875 0.3125 1.125 0.3125q0.640625 0 0.96875 -0.234375q0.34375 -0.25 0.34375 -0.65625zm7.5390625 2.5q-1.859375 0 -3.03125 -1.140625q-1.171875 -1.140625 -1.171875 -3.046875l0 -0.21875q0 -1.265625 0.484375 -2.265625q0.5 -1.015625 1.40625 -1.546875q0.90625 -0.546875 2.0625 -0.546875q1.734375 0 2.71875 1.09375q1.0 1.09375 1.0 3.09375l0 0.921875l-5.375 0q0.109375 0.828125 0.65625 1.328125q0.546875 0.5 1.390625 0.5q1.3125 0 2.046875 -0.9375l1.109375 1.234375q-0.515625 0.71875 -1.390625 1.125q-0.859375 0.40625 -1.90625 0.40625zm-0.265625 -6.9375q-0.671875 0 -1.09375 0.453125q-0.40625 0.453125 -0.53125 1.296875l3.140625 0l0 -0.1875q-0.015625 -0.75 -0.40625 -1.15625q-0.390625 -0.40625 -1.109375 -0.40625zm9.7734375 0.4375q-0.46875 -0.0625 -0.8125 -0.0625q-1.28125 0 -1.6875 0.875l0 5.53125l-2.25 0l0 -8.453125l2.125 0l0.0625 1.0q0.6875 -1.15625 1.890625 -1.15625q0.375 0 0.703125 0.09375l-0.03125 2.171875z" fill-rule="nonzero"></path><path fill="#ffffff" d="m636.46875 347.36q-0.15625 -0.3125 -0.21875 -0.765625q-0.828125 0.921875 -2.140625 0.921875q-1.234375 0 -2.0625 -0.71875q-0.8125 -0.71875 -0.8125 -1.8125q0 -1.34375 1.0 -2.0625q1.0 -0.71875 2.875 -0.734375l1.046875 0l0 -0.484375q0 -0.578125 -0.3125 -0.921875q-0.296875 -0.359375 -0.9375 -0.359375q-0.578125 0 -0.90625 0.28125q-0.3125 0.265625 -0.3125 0.734375l-2.265625 0q0 -0.734375 0.453125 -1.359375q0.453125 -0.625 1.28125 -0.96875q0.828125 -0.359375 1.859375 -0.359375q1.5625 0 2.484375 0.78125q0.921875 0.78125 0.921875 2.203125l0 3.671875q0 1.203125 0.328125 1.8125l0 0.140625l-2.28125 0zm-1.859375 -1.578125q0.5 0 0.921875 -0.21875q0.421875 -0.21875 0.625 -0.59375l0 -1.453125l-0.84375 0q-1.703125 0 -1.8125 1.171875l0 0.125q0 0.421875 0.296875 0.703125q0.296875 0.265625 0.8125 0.265625zm13.15625 -2.578125q0 1.953125 -0.890625 3.140625q-0.890625 1.171875 -2.390625 1.171875q-1.28125 0 -2.078125 -0.890625l0 3.984375l-2.25 0l0 -11.703125l2.09375 0l0.078125 0.828125q0.8125 -0.984375 2.140625 -0.984375q1.5625 0 2.421875 1.15625q0.875 1.15625 0.875 3.1875l0 0.109375zm-2.265625 -0.15625q0 -1.1875 -0.421875 -1.828125q-0.40625 -0.640625 -1.203125 -0.640625q-1.0625 0 -1.46875 0.8125l0 3.46875q0.421875 0.828125 1.484375 0.828125q1.609375 0 1.609375 -2.640625zm11.2734375 0.15625q0 1.953125 -0.890625 3.140625q-0.890625 1.171875 -2.390625 1.171875q-1.28125 0 -2.078125 -0.890625l0 3.984375l-2.25 0l0 -11.703125l2.09375 0l0.078125 0.828125q0.8125 -0.984375 2.140625 -0.984375q1.5625 0 2.421875 1.15625q0.875 1.15625 0.875 3.1875l0 0.109375zm-2.265625 -0.15625q0 -1.1875 -0.421875 -1.828125q-0.40625 -0.640625 -1.203125 -0.640625q-1.0625 0 -1.46875 0.8125l0 3.46875q0.421875 0.828125 1.484375 0.828125q1.609375 0 1.609375 -2.640625z" fill-rule="nonzero"></path><path fill="#6d9eeb" d="m544.0 268.0l0 0c0 -24.300537 19.699463 -44.0 44.0 -44.0l0 0c11.669495 0 22.861084 4.6356964 31.11267 12.887299c8.251648 8.251602 12.887329 19.443176 12.887329 31.112701l0 0c0 24.300537 -19.699463 44.0 -44.0 44.0l0 0c-24.300537 0 -44.0 -19.699463 -44.0 -44.0z" fill-rule="nonzero"></path><path fill="#000000" fill-opacity="0.0" d="m544.0 232.0l88.0 0l0 72.0l-88.0 0z" fill-rule="nonzero"></path><path fill="#ffffff" d="m556.7539 269.5631q0 -1.9375 0.921875 -3.125q0.921875 -1.1875 2.5 -1.1875q1.390625 0 2.15625 0.953125l0.09375 -0.796875l2.046875 0l0 8.171875q0 1.109375 -0.5 1.921875q-0.5 0.828125 -1.421875 1.25q-0.90625 0.4375 -2.140625 0.4375q-0.921875 0 -1.8125 -0.375q-0.875 -0.359375 -1.328125 -0.953125l1.0 -1.375q0.84375 0.953125 2.046875 0.953125q0.890625 0 1.390625 -0.484375q0.5 -0.484375 0.5 -1.375l0 -0.453125q-0.78125 0.890625 -2.046875 0.890625q-1.53125 0 -2.46875 -1.1875q-0.9375 -1.203125 -0.9375 -3.171875l0 -0.09375zm2.25 0.171875q0 1.140625 0.453125 1.796875q0.46875 0.65625 1.28125 0.65625q1.03125 0 1.46875 -0.78125l0 -3.546875q-0.453125 -0.78125 -1.453125 -0.78125q-0.8125 0 -1.28125 0.671875q-0.46875 0.65625 -0.46875 1.984375zm11.1015625 4.28125q-1.859375 0 -3.03125 -1.140625q-1.171875 -1.140625 -1.171875 -3.046875l0 -0.21875q0 -1.265625 0.484375 -2.265625q0.5 -1.015625 1.40625 -1.546875q0.90625 -0.546875 2.0625 -0.546875q1.734375 0 2.71875 1.09375q1.0 1.09375 1.0 3.09375l0 0.921875l-5.375 0q0.109375 0.828125 0.65625 1.328125q0.546875 0.5 1.390625 0.5q1.3125 0 2.046875 -0.9375l1.109375 1.234375q-0.515625 0.71875 -1.390625 1.125q-0.859375 0.40625 -1.90625 0.40625zm-0.265625 -6.9375q-0.671875 0 -1.09375 0.453125q-0.40625 0.453125 -0.53125 1.296875l3.140625 0l0 -0.1875q-0.015625 -0.75 -0.40625 -1.15625q-0.390625 -0.40625 -1.109375 -0.40625zm9.9140625 6.78125q-0.15625 -0.3125 -0.21875 -0.765625q-0.828125 0.921875 -2.140625 0.921875q-1.234375 0 -2.0625 -0.71875q-0.8125 -0.71875 -0.8125 -1.8125q0 -1.34375 1.0 -2.0625q1.0 -0.71875 2.875 -0.734375l1.046875 0l0 -0.484375q0 -0.578125 -0.3125 -0.921875q-0.296875 -0.359375 -0.9375 -0.359375q-0.578125 0 -0.90625 0.28125q-0.3125 0.265625 -0.3125 0.734375l-2.265625 0q0 -0.734375 0.453125 -1.359375q0.453125 -0.625 1.28125 -0.96875q0.828125 -0.359375 1.859375 -0.359375q1.5625 0 2.484375 0.78125q0.921875 0.78125 0.921875 2.203125l0 3.671875q0 1.203125 0.328125 1.8125l0 0.140625l-2.28125 0zm-1.859375 -1.578125q0.5 0 0.921875 -0.21875q0.421875 -0.21875 0.625 -0.59375l0 -1.453125l-0.84375 0q-1.703125 0 -1.8125 1.171875l0 0.125q0 0.421875 0.296875 0.703125q0.296875 0.265625 0.8125 0.265625zm10.296875 -4.765625q-0.46875 -0.0625 -0.8125 -0.0625q-1.28125 0 -1.6875 0.875l0 5.53125l-2.25 0l0 -8.453125l2.125 0l0.0625 1.0q0.6875 -1.15625 1.890625 -1.15625q0.375 0 0.703125 0.09375l-0.03125 2.171875zm3.1953125 -2.109375l0.078125 0.9375q0.890625 -1.09375 2.421875 -1.09375q1.640625 0 2.25 1.28125q0.890625 -1.28125 2.53125 -1.28125q1.375 0 2.046875 0.796875q0.671875 0.796875 0.671875 2.40625l0 5.40625l-2.265625 0l0 -5.390625q0 -0.71875 -0.28125 -1.046875q-0.28125 -0.34375 -0.984375 -0.34375q-1.015625 0 -1.40625 0.96875l0 5.8125l-2.25 0l0 -5.390625q0 -0.734375 -0.296875 -1.0625q-0.28125 -0.328125 -0.984375 -0.328125q-0.953125 0 -1.390625 0.796875l0 5.984375l-2.25 0l0 -8.453125l2.109375 0zm16.632812 8.453125q-0.15625 -0.3125 -0.21875 -0.765625q-0.828125 0.921875 -2.140625 0.921875q-1.234375 0 -2.0625 -0.71875q-0.8125 -0.71875 -0.8125 -1.8125q0 -1.34375 1.0 -2.0625q1.0 -0.71875 2.875 -0.734375l1.046875 0l0 -0.484375q0 -0.578125 -0.3125 -0.921875q-0.296875 -0.359375 -0.9375 -0.359375q-0.578125 0 -0.90625 0.28125q-0.3125 0.265625 -0.3125 0.734375l-2.265625 0q0 -0.734375 0.453125 -1.359375q0.453125 -0.625 1.28125 -0.96875q0.828125 -0.359375 1.859375 -0.359375q1.5625 0 2.484375 0.78125q0.921875 0.78125 0.921875 2.203125l0 3.671875q0 1.203125 0.328125 1.8125l0 0.140625l-2.28125 0zm-1.859375 -1.578125q0.5 0 0.921875 -0.21875q0.421875 -0.21875 0.625 -0.59375l0 -1.453125l-0.84375 0q-1.703125 0 -1.8125 1.171875l0 0.125q0 0.421875 0.296875 0.703125q0.296875 0.265625 0.8125 0.265625zm7.625 -6.875l0.0625 0.96875q0.90625 -1.125 2.4375 -1.125q1.34375 0 2.0 0.796875q0.65625 0.78125 0.671875 2.34375l0 5.46875l-2.265625 0l0 -5.40625q0 -0.71875 -0.3125 -1.046875q-0.3125 -0.328125 -1.03125 -0.328125q-0.953125 0 -1.4375 0.8125l0 5.96875l-2.25 0l0 -8.453125l2.125 0z" fill-rule="nonzero"></path></g></svg>

