<?xml version="1.0" standalone="yes"?>

<svg version="1.1" viewBox="0.0 0.0 425.0 329.0" fill="none" stroke="none" stroke-linecap="square" stroke-miterlimit="10" xmlns="http://www.w3.org/2000/svg" xmlns:xlink="http://www.w3.org/1999/xlink"><clipPath id="p.0"><path d="m0 0l425.0 0l0 329.0l-425.0 0l0 -329.0z" clip-rule="nonzero"></path></clipPath><g clip-path="url(#p.0)"><path fill="#000000" fill-opacity="0.0" d="m0 0l425.14697 0l0 329.7874l-425.14697 0z" fill-rule="nonzero"></path><path fill="#666666" d="m16.0 27.99792l0 0c0 -6.6262684 5.3716507 -11.997919 11.997919 -11.997919l152.00415 0c3.1820526 0 6.2337646 1.2640629 8.48381 3.5141087c2.2500458 2.2500477 3.5141144 5.3017654 3.5141144 8.48381l0 272.00415c0 6.6262817 -5.3716583 11.997925 -11.997925 11.997925l-152.00415 0l0 0c-6.6262684 0 -11.997919 -5.371643 -11.997919 -11.997925z" fill-rule="nonzero"></path><path fill="#000000" fill-opacity="0.0" d="m24.0 32.0l160.0 0l0 56.0l-160.0 0z" fill-rule="nonzero"></path><path fill="#ffffff" d="m96.38997 55.92l-2.78125 0l0 -5.796875l-5.4375 0l0 5.796875l-2.78125 0l0 -13.515625l2.78125 0l0 5.484375l5.4375 0l0 -5.484375l2.78125 0l0 13.515625zm1.5876923 -5.109375q0 -1.5 0.578125 -2.65625q0.578125 -1.171875 1.65625 -1.8125q1.078125 -0.640625 2.515625 -0.640625q2.03125 0 3.3125 1.25q1.28125 1.234375 1.4375 3.359375l0.015625 0.6875q0 2.3125 -1.296875 3.71875q-1.28125 1.390625 -3.453125 1.390625q-2.171875 0 -3.46875 -1.390625q-1.296875 -1.390625 -1.296875 -3.78125l0 -0.125zm2.6875 0.1875q0 1.4375 0.53125 2.203125q0.546875 0.75 1.546875 0.75q0.96875 0 1.515625 -0.75q0.546875 -0.75 0.546875 -2.390625q0 -1.40625 -0.546875 -2.171875q-0.546875 -0.765625 -1.53125 -0.765625q-0.984375 0 -1.53125 0.765625q-0.53125 0.765625 -0.53125 2.359375zm13.720673 2.140625q0 -0.484375 -0.484375 -0.765625q-0.484375 -0.28125 -1.5625 -0.5q-3.59375 -0.765625 -3.59375 -3.046875q0 -1.34375 1.109375 -2.234375q1.109375 -0.890625 2.90625 -0.890625q1.90625 0 3.046875 0.90625q1.15625 0.890625 1.15625 2.328125l-2.6875 0q0 -0.578125 -0.375 -0.953125q-0.359375 -0.375 -1.15625 -0.375q-0.671875 0 -1.046875 0.3125q-0.359375 0.296875 -0.359375 0.765625q0 0.453125 0.421875 0.734375q0.421875 0.265625 1.421875 0.46875q1.0 0.203125 1.6875 0.453125q2.125 0.765625 2.125 2.6875q0 1.375 -1.1875 2.234375q-1.171875 0.84375 -3.03125 0.84375q-1.265625 0 -2.25 -0.453125q-0.96875 -0.453125 -1.53125 -1.234375q-0.5625 -0.78125 -0.5625 -1.6875l2.546875 0q0.03125 0.703125 0.515625 1.09375q0.5 0.375 1.328125 0.375q0.765625 0 1.15625 -0.28125q0.40625 -0.296875 0.40625 -0.78125zm7.3579254 -9.71875l0 2.46875l1.71875 0l0 1.953125l-1.71875 0l0 5.015625q0 0.5625 0.21875 0.8125q0.21875 0.234375 0.8125 0.234375q0.453125 0 0.796875 -0.078125l0 2.03125q-0.796875 0.25 -1.625 0.25q-2.828125 0 -2.875 -2.84375l0 -5.421875l-1.46875 0l0 -1.953125l1.46875 0l0 -2.46875l2.671875 0z" fill-rule="nonzero"></path><path fill="#ffffff" d="m76.54813 77.92l-2.6875 0l0 -10.328125l-3.203125 0.984375l0 -2.171875l5.59375 -2.015625l0.296875 0l0 13.53125zm13.281784 -5.578125q0 2.796875 -1.171875 4.28125q-1.15625 1.484375 -3.390625 1.484375q-2.203125 0 -3.375 -1.453125q-1.171875 -1.46875 -1.203125 -4.1875l0 -2.484375q0 -2.828125 1.171875 -4.28125q1.1875 -1.46875 3.390625 -1.46875q2.203125 0 3.375 1.453125q1.171875 1.4375 1.203125 4.15625l0 2.5zm-2.6875 -2.734375q0 -1.671875 -0.46875 -2.4375q-0.453125 -0.765625 -1.421875 -0.765625q-0.953125 0 -1.40625 0.734375q-0.4375 0.71875 -0.46875 2.265625l0 3.28125q0 1.65625 0.453125 2.46875q0.453125 0.796875 1.4375 0.796875q0.984375 0 1.421875 -0.765625q0.4375 -0.78125 0.453125 -2.375l0 -3.203125zm4.547409 7.0q0 -0.640625 0.421875 -1.03125q0.4375 -0.40625 1.09375 -0.40625q0.65625 0 1.078125 0.40625q0.4375 0.390625 0.4375 1.03125q0 0.625 -0.4375 1.03125q-0.421875 0.390625 -1.078125 0.390625q-0.671875 0 -1.09375 -0.390625q-0.421875 -0.40625 -0.421875 -1.03125zm14.263901 -4.265625q0 2.796875 -1.171875 4.28125q-1.15625 1.484375 -3.390625 1.484375q-2.203125 0 -3.375 -1.453125q-1.171875 -1.46875 -1.203125 -4.1875l0 -2.484375q0 -2.828125 1.171875 -4.28125q1.1875 -1.46875 3.390625 -1.46875q2.203125 0 3.375 1.453125q1.171875 1.4375 1.203125 4.15625l0 2.5zm-2.6875 -2.734375q0 -1.671875 -0.46875 -2.4375q-0.453125 -0.765625 -1.421875 -0.765625q-0.953125 0 -1.40625 0.734375q-0.4375 0.71875 -0.46875 2.265625l0 3.28125q0 1.65625 0.453125 2.46875q0.453125 0.796875 1.4375 0.796875q0.984375 0 1.421875 -0.765625q0.4375 -0.78125 0.453125 -2.375l0 -3.203125zm4.547409 7.0q0 -0.640625 0.421875 -1.03125q0.4375 -0.40625 1.09375 -0.40625q0.65625 0 1.078125 0.40625q0.4375 0.390625 0.4375 1.03125q0 0.625 -0.4375 1.03125q-0.421875 0.390625 -1.078125 0.390625q-0.671875 0 -1.09375 -0.390625q-0.421875 -0.40625 -0.421875 -1.03125zm14.263901 -4.265625q0 2.796875 -1.171875 4.28125q-1.15625 1.484375 -3.390625 1.484375q-2.203125 0 -3.375 -1.453125q-1.171875 -1.46875 -1.203125 -4.1875l0 -2.484375q0 -2.828125 1.171875 -4.28125q1.1875 -1.46875 3.390625 -1.46875q2.203125 0 3.375 1.453125q1.171875 1.4375 1.203125 4.15625l0 2.5zm-2.6875 -2.734375q0 -1.671875 -0.46875 -2.4375q-0.453125 -0.765625 -1.421875 -0.765625q-0.953125 0 -1.40625 0.734375q-0.4375 0.71875 -0.46875 2.265625l0 3.28125q0 1.65625 0.453125 2.46875q0.453125 0.796875 1.4375 0.796875q0.984375 0 1.421875 -0.765625q0.4375 -0.78125 0.453125 -2.375l0 -3.203125zm4.547409 7.0q0 -0.640625 0.421875 -1.03125q0.4375 -0.40625 1.09375 -0.40625q0.65625 0 1.078125 0.40625q0.4375 0.390625 0.4375 1.03125q0 0.625 -0.4375 1.03125q-0.421875 0.390625 -1.078125 0.390625q-0.671875 0 -1.09375 -0.390625q-0.421875 -0.40625 -0.421875 -1.03125zm11.685776 1.3125l-2.6875 0l0 -10.328125l-3.203125 0.984375l0 -2.171875l5.59375 -2.015625l0.296875 0l0 13.53125z" fill-rule="nonzero"></path><path fill="#666666" d="m232.0 27.99792l0 0c0 -6.6262684 5.3716583 -11.997919 11.997925 -11.997919l152.00415 0c3.1820374 0 6.2337646 1.2640629 8.483795 3.5141087c2.250061 2.2500477 3.5141296 5.3017654 3.5141296 8.48381l0 272.00415c0 6.6262817 -5.371643 11.997925 -11.997925 11.997925l-152.00415 0l0 0c-6.6262665 0 -11.997925 -5.371643 -11.997925 -11.997925z" fill-rule="nonzero"></path><path fill="#000000" fill-opacity="0.0" d="m240.0 32.0l160.0 0l0 56.0l-160.0 0z" fill-rule="nonzero"></path><path fill="#ffffff" d="m312.38995 55.92l-2.78125 0l0 -5.796875l-5.4375 0l0 5.796875l-2.78125 0l0 -13.515625l2.78125 0l0 5.484375l5.4375 0l0 -5.484375l2.78125 0l0 13.515625zm1.5877075 -5.109375q0 -1.5 0.578125 -2.65625q0.578125 -1.171875 1.65625 -1.8125q1.078125 -0.640625 2.515625 -0.640625q2.03125 0 3.3125 1.25q1.28125 1.234375 1.4375 3.359375l0.015625 0.6875q0 2.3125 -1.296875 3.71875q-1.28125 1.390625 -3.453125 1.390625q-2.171875 0 -3.46875 -1.390625q-1.296875 -1.390625 -1.296875 -3.78125l0 -0.125zm2.6875 0.1875q0 1.4375 0.53125 2.203125q0.546875 0.75 1.546875 0.75q0.96875 0 1.515625 -0.75q0.546875 -0.75 0.546875 -2.390625q0 -1.40625 -0.546875 -2.171875q-0.546875 -0.765625 -1.53125 -0.765625q-0.984375 0 -1.53125 0.765625q-0.53125 0.765625 -0.53125 2.359375zm13.720673 2.140625q0 -0.484375 -0.484375 -0.765625q-0.484375 -0.28125 -1.5625 -0.5q-3.59375 -0.765625 -3.59375 -3.046875q0 -1.34375 1.109375 -2.234375q1.109375 -0.890625 2.90625 -0.890625q1.90625 0 3.046875 0.90625q1.15625 0.890625 1.15625 2.328125l-2.6875 0q0 -0.578125 -0.375 -0.953125q-0.359375 -0.375 -1.15625 -0.375q-0.671875 0 -1.046875 0.3125q-0.359375 0.296875 -0.359375 0.765625q0 0.453125 0.421875 0.734375q0.421875 0.265625 1.421875 0.46875q1.0 0.203125 1.6875 0.453125q2.125 0.765625 2.125 2.6875q0 1.375 -1.1875 2.234375q-1.171875 0.84375 -3.03125 0.84375q-1.265625 0 -2.25 -0.453125q-0.96875 -0.453125 -1.53125 -1.234375q-0.5625 -0.78125 -0.5625 -1.6875l2.546875 0q0.03125 0.703125 0.515625 1.09375q0.5 0.375 1.328125 0.375q0.765625 0 1.15625 -0.28125q0.40625 -0.296875 0.40625 -0.78125zm7.3579407 -9.71875l0 2.46875l1.71875 0l0 1.953125l-1.71875 0l0 5.015625q0 0.5625 0.21875 0.8125q0.21875 0.234375 0.8125 0.234375q0.453125 0 0.796875 -0.078125l0 2.03125q-0.796875 0.25 -1.625 0.25q-2.828125 0 -2.875 -2.84375l0 -5.421875l-1.46875 0l0 -1.953125l1.46875 0l0 -2.46875l2.671875 0z" fill-rule="nonzero"></path><path fill="#ffffff" d="m292.54813 77.92l-2.6875 0l0 -10.328125l-3.203125 0.984375l0 -2.171875l5.59375 -2.015625l0.296875 0l0 13.53125zm13.281769 -5.578125q0 2.796875 -1.171875 4.28125q-1.15625 1.484375 -3.390625 1.484375q-2.203125 0 -3.375 -1.453125q-1.171875 -1.46875 -1.203125 -4.1875l0 -2.484375q0 -2.828125 1.171875 -4.28125q1.1875 -1.46875 3.390625 -1.46875q2.203125 0 3.375 1.453125q1.171875 1.4375 1.203125 4.15625l0 2.5zm-2.6875 -2.734375q0 -1.671875 -0.46875 -2.4375q-0.453125 -0.765625 -1.421875 -0.765625q-0.953125 0 -1.40625 0.734375q-0.4375 0.71875 -0.46875 2.265625l0 3.28125q0 1.65625 0.453125 2.46875q0.453125 0.796875 1.4375 0.796875q0.984375 0 1.421875 -0.765625q0.4375 -0.78125 0.453125 -2.375l0 -3.203125zm4.5474243 7.0q0 -0.640625 0.421875 -1.03125q0.4375 -0.40625 1.09375 -0.40625q0.65625 0 1.078125 0.40625q0.4375 0.390625 0.4375 1.03125q0 0.625 -0.4375 1.03125q-0.421875 0.390625 -1.078125 0.390625q-0.671875 0 -1.09375 -0.390625q-0.421875 -0.40625 -0.421875 -1.03125zm14.263916 -4.265625q0 2.796875 -1.171875 4.28125q-1.15625 1.484375 -3.390625 1.484375q-2.203125 0 -3.375 -1.453125q-1.171875 -1.46875 -1.203125 -4.1875l0 -2.484375q0 -2.828125 1.171875 -4.28125q1.1875 -1.46875 3.390625 -1.46875q2.203125 0 3.375 1.453125q1.171875 1.4375 1.203125 4.15625l0 2.5zm-2.6875 -2.734375q0 -1.671875 -0.46875 -2.4375q-0.453125 -0.765625 -1.421875 -0.765625q-0.953125 0 -1.40625 0.734375q-0.4375 0.71875 -0.46875 2.265625l0 3.28125q0 1.65625 0.453125 2.46875q0.453125 0.796875 1.4375 0.796875q0.984375 0 1.421875 -0.765625q0.4375 -0.78125 0.453125 -2.375l0 -3.203125zm4.547394 7.0q0 -0.640625 0.421875 -1.03125q0.4375 -0.40625 1.09375 -0.40625q0.65625 0 1.078125 0.40625q0.4375 0.390625 0.4375 1.03125q0 0.625 -0.4375 1.03125q-0.421875 0.390625 -1.078125 0.390625q-0.671875 0 -1.09375 -0.390625q-0.421875 -0.40625 -0.421875 -1.03125zm14.2638855 -4.265625q0 2.796875 -1.171875 4.28125q-1.15625 1.484375 -3.390625 1.484375q-2.203125 0 -3.375 -1.453125q-1.171875 -1.46875 -1.203125 -4.1875l0 -2.484375q0 -2.828125 1.171875 -4.28125q1.1875 -1.46875 3.390625 -1.46875q2.203125 0 3.375 1.453125q1.171875 1.4375 1.203125 4.15625l0 2.5zm-2.6875 -2.734375q0 -1.671875 -0.46875 -2.4375q-0.453125 -0.765625 -1.421875 -0.765625q-0.953125 0 -1.40625 0.734375q-0.4375 0.71875 -0.46875 2.265625l0 3.28125q0 1.65625 0.453125 2.46875q0.453125 0.796875 1.4375 0.796875q0.984375 0 1.421875 -0.765625q0.4375 -0.78125 0.453125 -2.375l0 -3.203125zm4.5474243 7.0q0 -0.640625 0.421875 -1.03125q0.4375 -0.40625 1.09375 -0.40625q0.65625 0 1.078125 0.40625q0.4375 0.390625 0.4375 1.03125q0 0.625 -0.4375 1.03125q-0.421875 0.390625 -1.078125 0.390625q-0.671875 0 -1.09375 -0.390625q-0.421875 -0.40625 -0.421875 -1.03125zm14.420166 1.3125l-9.25 0l0 -1.84375l4.359375 -4.65625q0.90625 -0.984375 1.328125 -1.703125q0.4375 -0.734375 0.4375 -1.40625q0 -0.890625 -0.453125 -1.40625q-0.453125 -0.515625 -1.296875 -0.515625q-0.90625 0 -1.4375 0.625q-0.515625 0.625 -0.515625 1.640625l-2.6875 0q0 -1.234375 0.578125 -2.25q0.59375 -1.015625 1.671875 -1.59375q1.078125 -0.578125 2.4375 -0.578125q2.09375 0 3.234375 1.0q1.15625 1.0 1.15625 2.828125q0 1.0 -0.515625 2.046875q-0.515625 1.03125 -1.78125 2.40625l-3.0625 3.25l5.796875 0l0 2.15625z" fill-rule="nonzero"></path><path fill="#000000" fill-opacity="0.0" d="m311.99896 192.46194c-0.25335693 57.036118 -46.39737 103.22623 -103.4332 103.5365c-57.035843 0.31030273 -103.67968 -45.375046 -104.55356 -102.40503l103.98779 -1.5934143z" fill-rule="nonzero"></path><path fill="#000000" fill-opacity="0.0" d="m311.99896 192.46194c-0.25335693 57.036118 -46.39737 103.22623 -103.4332 103.5365c-57.035843 0.31030273 -103.67968 -45.375046 -104.55356 -102.40503" fill-rule="nonzero"></path><path stroke="#ffffff" stroke-width="4.0" stroke-linejoin="round" stroke-linecap="butt" d="m311.99896 192.46194c-0.25335693 57.036118 -46.39737 103.22623 -103.4332 103.5365c-57.035843 0.31030273 -103.67968 -45.375046 -104.55356 -102.40503" fill-rule="nonzero"></path><path fill="#ffffff" d="m48.0 240.0l0 0c0 -30.927948 25.072052 -56.0 56.0 -56.0l0 0c14.852127 0 29.095947 5.8999786 39.597977 16.402023c10.502045 10.502029 16.402023 24.74585 16.402023 39.597977l0 0c0 30.927948 -25.072052 56.0 -56.0 56.0l0 0c-30.927948 0 -56.0 -25.072052 -56.0 -56.0z" fill-rule="nonzero"></path><path fill="#000000" fill-opacity="0.0" d="m16.0 176.0l176.0 0l0 64.0l-176.0 0z" fill-rule="nonzero"></path><path fill="#b7b7b7" d="m31.600555 170.00188l-1.171875 0l4.453125 -11.59375l1.171875 0l-4.453125 11.59375zm9.461853 -7.5l2.546875 -4.09375l1.65625 0l-3.359375 5.296875l3.453125 5.375l-1.671875 0l-2.625 -4.15625l-2.640625 4.15625l-1.65625 0l3.453125 -5.375l-3.375 -5.296875l1.640625 0l2.578125 4.09375zm10.548157 1.890625q-0.421875 0.5 -1.015625 0.8125q-0.59375 0.3125 -1.296875 0.3125q-0.921875 0 -1.609375 -0.453125q-0.671875 -0.453125 -1.046875 -1.28125q-0.375 -0.828125 -0.375 -1.828125q0 -1.0625 0.40625 -1.921875q0.40625 -0.859375 1.15625 -1.3125q0.75 -0.453125 1.734375 -0.453125q1.59375 0 2.5 1.1875q0.90625 1.1875 0.90625 3.21875l0 0.40625q0 3.109375 -1.234375 4.546875q-1.21875 1.421875 -3.703125 1.453125l-0.265625 0l0 -1.140625l0.28125 0q1.6875 -0.03125 2.578125 -0.875q0.90625 -0.84375 0.984375 -2.671875zm-2.09375 0q0.6875 0 1.265625 -0.40625q0.578125 -0.421875 0.84375 -1.046875l0 -0.546875q0 -1.328125 -0.59375 -2.15625q-0.578125 -0.84375 -1.453125 -0.84375q-0.890625 0 -1.4375 0.6875q-0.546875 0.6875 -0.546875 1.8125q0 1.09375 0.515625 1.796875q0.53125 0.703125 1.40625 0.703125zm7.104828 -1.296875l1.015625 0q0.953125 -0.015625 1.5 -0.5q0.5625 -0.5 0.5625 -1.34375q0 -1.875 -1.875 -1.875q-0.875 0 -1.40625 0.515625q-0.515625 0.5 -0.515625 1.328125l-1.359375 0q0 -1.28125 0.921875 -2.109375q0.9375 -0.84375 2.359375 -0.84375q1.515625 0 2.359375 0.796875q0.859375 0.796875 0.859375 2.21875q0 0.703125 -0.453125 1.359375q-0.4375 0.640625 -1.21875 0.96875q0.875 0.28125 1.359375 0.921875q0.484375 0.640625 0.484375 1.578125q0 1.4375 -0.9375 2.28125q-0.9375 0.828125 -2.4375 0.828125q-1.5 0 -2.453125 -0.8125q-0.9375 -0.8125 -0.9375 -2.140625l1.359375 0q0 0.84375 0.546875 1.359375q0.5625 0.5 1.484375 0.5q0.96875 0 1.484375 -0.515625q0.53125 -0.515625 0.53125 -1.46875q0 -0.9375 -0.578125 -1.4375q-0.5625 -0.5 -1.640625 -0.515625l-1.015625 0l0 -1.09375zm12.729828 -1.890625q0 0.796875 -0.421875 1.421875q-0.421875 0.609375 -1.140625 0.96875q0.828125 0.359375 1.3125 1.046875q0.5 0.6875 0.5 1.5625q0 1.375 -0.9375 2.203125q-0.9375 0.8125 -2.453125 0.8125q-1.546875 0 -2.46875 -0.8125q-0.921875 -0.828125 -0.921875 -2.203125q0 -0.875 0.46875 -1.5625q0.46875 -0.703125 1.296875 -1.0625q-0.703125 -0.34375 -1.125 -0.96875q-0.40625 -0.625 -0.40625 -1.40625q0 -1.359375 0.859375 -2.140625q0.875 -0.796875 2.296875 -0.796875q1.40625 0 2.265625 0.796875q0.875 0.78125 0.875 2.140625zm-1.109375 4.96875q0 -0.890625 -0.578125 -1.453125q-0.5625 -0.5625 -1.484375 -0.5625q-0.90625 0 -1.46875 0.5625q-0.546875 0.546875 -0.546875 1.453125q0 0.90625 0.53125 1.4375q0.546875 0.515625 1.515625 0.515625q0.9375 0 1.484375 -0.515625q0.546875 -0.53125 0.546875 -1.4375zm-2.03125 -6.796875q-0.8125 0 -1.3125 0.5q-0.484375 0.5 -0.484375 1.34375q0 0.8125 0.484375 1.3125q0.5 0.5 1.3125 0.5q0.8125 0 1.296875 -0.5q0.484375 -0.5 0.484375 -1.3125q0 -0.8125 -0.515625 -1.328125q-0.5 -0.515625 -1.265625 -0.515625zm5.698578 9.703125l0 -6.875l-1.25 0l0 -1.046875l1.25 0l0 -0.8125q0 -1.28125 0.671875 -1.96875q0.6875 -0.703125 1.9375 -0.703125q0.46875 0 0.9375 0.125l-0.078125 1.09375q-0.34375 -0.0625 -0.734375 -0.0625q-0.65625 0 -1.015625 0.390625q-0.359375 0.375 -0.359375 1.09375l0 0.84375l1.6875 0l0 1.046875l-1.6875 0l0 6.875l-1.359375 0zm7.7131805 0.140625q-1.609375 0 -2.625 -1.046875q-1.0 -1.0625 -1.0 -2.84375l0 -0.234375q0 -1.1875 0.4375 -2.109375q0.453125 -0.9375 1.265625 -1.453125q0.8125 -0.53125 1.75 -0.53125q1.546875 0 2.40625 1.03125q0.859375 1.015625 0.859375 2.90625l0 0.5625l-5.375 0q0.03125 1.171875 0.6875 1.90625q0.65625 0.71875 1.671875 0.71875q0.71875 0 1.203125 -0.296875q0.5 -0.296875 0.875 -0.78125l0.828125 0.640625q-0.984375 1.53125 -2.984375 1.53125zm-0.171875 -7.09375q-0.8125 0 -1.375 0.59375q-0.546875 0.59375 -0.6875 1.671875l3.96875 0l0 -0.109375q-0.0625 -1.03125 -0.5625 -1.59375q-0.484375 -0.5625 -1.34375 -0.5625zm9.702164 2.265625q-0.421875 0.5 -1.015625 0.8125q-0.59375 0.3125 -1.296875 0.3125q-0.921875 0 -1.609375 -0.453125q-0.671875 -0.453125 -1.046875 -1.28125q-0.375 -0.828125 -0.375 -1.828125q0 -1.0625 0.40625 -1.921875q0.40625 -0.859375 1.15625 -1.3125q0.75 -0.453125 1.734375 -0.453125q1.59375 0 2.5 1.1875q0.90625 1.1875 0.90625 3.21875l0 0.40625q0 3.109375 -1.234375 4.546875q-1.21875 1.421875 -3.703125 1.453125l-0.265625 0l0 -1.140625l0.28125 0q1.6875 -0.03125 2.578125 -0.875q0.90625 -0.84375 0.984375 -2.671875zm-2.09375 0q0.6875 0 1.265625 -0.40625q0.578125 -0.421875 0.84375 -1.046875l0 -0.546875q0 -1.328125 -0.59375 -2.15625q-0.578125 -0.84375 -1.453125 -0.84375q-0.890625 0 -1.4375 0.6875q-0.546875 0.6875 -0.546875 1.8125q0 1.09375 0.515625 1.796875q0.53125 0.703125 1.40625 0.703125zm12.120453 4.6875l-6.984375 0l0 -0.96875l3.6875 -4.109375q0.8125 -0.921875 1.125 -1.5q0.3125 -0.59375 0.3125 -1.21875q0 -0.828125 -0.5 -1.359375q-0.5 -0.546875 -1.34375 -0.546875q-1.015625 0 -1.578125 0.578125q-0.5625 0.578125 -0.5625 1.609375l-1.34375 0q0 -1.484375 0.9375 -2.390625q0.953125 -0.90625 2.546875 -0.90625q1.484375 0 2.34375 0.78125q0.875 0.78125 0.875 2.078125q0 1.578125 -2.015625 3.75l-2.859375 3.09375l5.359375 0l0 1.109375zm3.214203 -5.984375l1.015625 0q0.953125 -0.015625 1.5 -0.5q0.5625 -0.5 0.5625 -1.34375q0 -1.875 -1.875 -1.875q-0.875 0 -1.40625 0.515625q-0.515625 0.5 -0.515625 1.328125l-1.359375 0q0 -1.28125 0.921875 -2.109375q0.9375 -0.84375 2.359375 -0.84375q1.515625 0 2.359375 0.796875q0.859375 0.796875 0.859375 2.21875q0 0.703125 -0.453125 1.359375q-0.4375 0.640625 -1.21875 0.96875q0.875 0.28125 1.359375 0.921875q0.484375 0.640625 0.484375 1.578125q0 1.4375 -0.9375 2.28125q-0.9375 0.828125 -2.4375 0.828125q-1.5 0 -2.453125 -0.8125q-0.9375 -0.8125 -0.9375 -2.140625l1.359375 0q0 0.84375 0.546875 1.359375q0.5625 0.5 1.484375 0.5q0.96875 0 1.484375 -0.515625q0.53125 -0.515625 0.53125 -1.46875q0 -0.9375 -0.578125 -1.4375q-0.5625 -0.5 -1.640625 -0.515625l-1.015625 0l0 -1.09375zm13.104828 2.109375q0 1.8125 -0.84375 2.921875q-0.828125 1.09375 -2.234375 1.09375q-1.5 0 -2.3125 -1.0625l-0.078125 0.921875l-1.234375 0l0 -11.25l1.34375 0l0 4.203125q0.828125 -1.03125 2.265625 -1.03125q1.453125 0 2.265625 1.09375q0.828125 1.09375 0.828125 3.0l0 0.109375zm-1.359375 -0.15625q0 -1.375 -0.53125 -2.125q-0.53125 -0.765625 -1.53125 -0.765625q-1.34375 0 -1.9375 1.25l0 3.421875q0.625 1.25 1.953125 1.25q0.96875 0 1.5 -0.75q0.546875 -0.765625 0.546875 -2.28125zm6.0507965 3.078125q0.71875 0 1.265625 -0.4375q0.546875 -0.453125 0.609375 -1.109375l1.28125 0q-0.046875 0.6875 -0.484375 1.296875q-0.421875 0.609375 -1.140625 0.984375q-0.71875 0.359375 -1.53125 0.359375q-1.625 0 -2.578125 -1.078125q-0.953125 -1.078125 -0.953125 -2.953125l0 -0.21875q0 -1.171875 0.421875 -2.0625q0.4375 -0.90625 1.21875 -1.40625q0.796875 -0.5 1.890625 -0.5q1.328125 0 2.203125 0.8125q0.890625 0.796875 0.953125 2.0625l-1.28125 0q-0.0625 -0.765625 -0.59375 -1.25q-0.515625 -0.5 -1.28125 -0.5q-1.03125 0 -1.609375 0.75q-0.5625 0.734375 -0.5625 2.140625l0 0.25q0 1.375 0.5625 2.125q0.5625 0.734375 1.609375 0.734375zm4.171631 -3.078125q0 -1.828125 0.859375 -2.9375q0.859375 -1.109375 2.265625 -1.109375q1.390625 0 2.203125 0.953125l0 -4.125l1.359375 0l0 11.25l-1.25 0l-0.0625 -0.84375q-0.8125 0.984375 -2.265625 0.984375q-1.375 0 -2.25 -1.125q-0.859375 -1.125 -0.859375 -2.9375l0 -0.109375zm1.34375 0.15625q0 1.34375 0.5625 2.109375q0.5625 0.765625 1.53125 0.765625q1.296875 0 1.890625 -1.15625l0 -3.640625q-0.609375 -1.125 -1.875 -1.125q-0.984375 0 -1.546875 0.765625q-0.5625 0.765625 -0.5625 2.28125zm10.531235 4.015625q-1.609375 0 -2.625 -1.046875q-1.0 -1.0625 -1.0 -2.84375l0 -0.234375q0 -1.1875 0.4375 -2.109375q0.453125 -0.9375 1.265625 -1.453125q0.8125 -0.53125 1.75 -0.53125q1.546875 0 2.40625 1.03125q0.859375 1.015625 0.859375 2.90625l0 0.5625l-5.375 0q0.03125 1.171875 0.6875 1.90625q0.65625 0.71875 1.671875 0.71875q0.71875 0 1.203125 -0.296875q0.5 -0.296875 0.875 -0.78125l0.828125 0.640625q-0.984375 1.53125 -2.984375 1.53125zm-0.171875 -7.09375q-0.8125 0 -1.375 0.59375q-0.546875 0.59375 -0.6875 1.671875l3.96875 0l0 -0.109375q-0.0625 -1.03125 -0.5625 -1.59375q-0.484375 -0.5625 -1.34375 -0.5625zm5.3115387 6.953125l0 -6.875l-1.25 0l0 -1.046875l1.25 0l0 -0.8125q0 -1.28125 0.671875 -1.96875q0.6875 -0.703125 1.9375 -0.703125q0.46875 0 0.9375 0.125l-0.078125 1.09375q-0.34375 -0.0625 -0.734375 -0.0625q-0.65625 0 -1.015625 0.390625q-0.359375 0.375 -0.359375 1.09375l0 0.84375l1.6875 0l0 1.046875l-1.6875 0l0 6.875l-1.359375 0zm11.275681 0l-6.984375 0l0 -0.96875l3.6875 -4.109375q0.8125 -0.921875 1.125 -1.5q0.3125 -0.59375 0.3125 -1.21875q0 -0.828125 -0.5 -1.359375q-0.5 -0.546875 -1.34375 -0.546875q-1.015625 0 -1.578125 0.578125q-0.5625 0.578125 -0.5625 1.609375l-1.34375 0q0 -1.484375 0.9375 -2.390625q0.953125 -0.90625 2.546875 -0.90625q1.484375 0 2.34375 0.78125q0.875 0.78125 0.875 2.078125q0 1.578125 -2.015625 3.75l-2.859375 3.09375l5.359375 0l0 1.109375zm3.214203 -5.984375l1.015625 0q0.953125 -0.015625 1.5 -0.5q0.5625 -0.5 0.5625 -1.34375q0 -1.875 -1.875 -1.875q-0.875 0 -1.40625 0.515625q-0.515625 0.5 -0.515625 1.328125l-1.359375 0q0 -1.28125 0.921875 -2.109375q0.9375 -0.84375 2.359375 -0.84375q1.515625 0 2.359375 0.796875q0.859375 0.796875 0.859375 2.21875q0 0.703125 -0.453125 1.359375q-0.4375 0.640625 -1.21875 0.96875q0.875 0.28125 1.359375 0.921875q0.484375 0.640625 0.484375 1.578125q0 1.4375 -0.9375 2.28125q-0.9375 0.828125 -2.4375 0.828125q-1.5 0 -2.453125 -0.8125q-0.9375 -0.8125 -0.9375 -2.140625l1.359375 0q0 0.84375 0.546875 1.359375q0.5625 0.5 1.484375 0.5q0.96875 0 1.484375 -0.515625q0.53125 -0.515625 0.53125 -1.46875q0 -0.9375 -0.578125 -1.4375q-0.5625 -0.5 -1.640625 -0.515625l-1.015625 0l0 -1.09375zm11.448578 1.296875q-0.421875 0.5 -1.015625 0.8125q-0.59375 0.3125 -1.296875 0.3125q-0.921875 0 -1.609375 -0.453125q-0.671875 -0.453125 -1.046875 -1.28125q-0.375 -0.828125 -0.375 -1.828125q0 -1.0625 0.40625 -1.921875q0.40625 -0.859375 1.15625 -1.3125q0.75 -0.453125 1.734375 -0.453125q1.59375 0 2.5 1.1875q0.90625 1.1875 0.90625 3.21875l0 0.40625q0 3.109375 -1.234375 4.546875q-1.21875 1.421875 -3.703125 1.453125l-0.265625 0l0 -1.140625l0.28125 0q1.6875 -0.03125 2.578125 -0.875q0.90625 -0.84375 0.984375 -2.671875zm-2.09375 0q0.6875 0 1.265625 -0.40625q0.578125 -0.421875 0.84375 -1.046875l0 -0.546875q0 -1.328125 -0.59375 -2.15625q-0.578125 -0.84375 -1.453125 -0.84375q-0.890625 0 -1.4375 0.6875q-0.546875 0.6875 -0.546875 1.8125q0 1.09375 0.515625 1.796875q0.53125 0.703125 1.40625 0.703125zm11.823578 0.140625q0 2.375 -0.8125 3.53125q-0.8125 1.15625 -2.546875 1.15625q-1.703125 0 -2.53125 -1.125q-0.8125 -1.125 -0.84375 -3.375l0 -1.8125q0 -2.359375 0.8125 -3.5q0.8125 -1.140625 2.546875 -1.140625q1.71875 0 2.53125 1.109375q0.8125 1.09375 0.84375 3.390625l0 1.765625zm-1.359375 -1.859375q0 -1.71875 -0.484375 -2.5q-0.484375 -0.796875 -1.53125 -0.796875q-1.03125 0 -1.515625 0.796875q-0.46875 0.78125 -0.484375 2.40625l0 2.15625q0 1.734375 0.5 2.5625q0.5 0.828125 1.515625 0.828125q1.0 0 1.484375 -0.78125q0.5 -0.78125 0.515625 -2.453125l0 -2.21875z" fill-rule="nonzero"></path><path fill="#666666" d="m82.7537 232.95125q0.75 0 1.203125 -0.40625q0.46875 -0.421875 0.484375 -1.09375l2.515625 0q-0.015625 1.015625 -0.5625 1.875q-0.546875 0.84375 -1.5 1.3125q-0.9375 0.46875 -2.09375 0.46875q-2.15625 0 -3.40625 -1.359375q-1.234375 -1.375 -1.234375 -3.796875l0 -0.171875q0 -2.3125 1.234375 -3.6875q1.234375 -1.390625 3.390625 -1.390625q1.875 0 3.015625 1.078125q1.140625 1.0625 1.15625 2.84375l-2.515625 0q-0.015625 -0.78125 -0.484375 -1.265625q-0.453125 -0.484375 -1.21875 -0.484375q-0.9375 0 -1.421875 0.6875q-0.46875 0.671875 -0.46875 2.203125l0 0.28125q0 1.546875 0.46875 2.234375q0.46875 0.671875 1.4375 0.671875zm8.385193 1.96875l-2.6875 0l0 -10.03125l2.6875 0l0 10.03125zm-2.84375 -12.640625q0 -0.59375 0.390625 -0.984375q0.40625 -0.390625 1.109375 -0.390625q0.6875 0 1.09375 0.390625q0.40625 0.390625 0.40625 0.984375q0 0.609375 -0.421875 1.0q-0.40625 0.390625 -1.078125 0.390625q-0.671875 0 -1.09375 -0.390625q-0.40625 -0.390625 -0.40625 -1.0zm10.602707 5.109375q-0.546875 -0.0625 -0.96875 -0.0625q-1.515625 0 -1.984375 1.03125l0 6.5625l-2.6875 0l0 -10.03125l2.53125 0l0.078125 1.1875q0.796875 -1.375 2.234375 -1.375q0.4375 0 0.828125 0.109375l-0.03125 2.578125zm5.3360443 5.5625q0.75 0 1.203125 -0.40625q0.46875 -0.421875 0.484375 -1.09375l2.515625 0q-0.015625 1.015625 -0.5625 1.875q-0.546875 0.84375 -1.5 1.3125q-0.9375 0.46875 -2.09375 0.46875q-2.15625 0 -3.40625 -1.359375q-1.234375 -1.375 -1.234375 -3.796875l0 -0.171875q0 -2.3125 1.234375 -3.6875q1.234375 -1.390625 3.390625 -1.390625q1.875 0 3.015625 1.078125q1.140625 1.0625 1.15625 2.84375l-2.515625 0q-0.015625 -0.78125 -0.484375 -1.265625q-0.453125 -0.484375 -1.21875 -0.484375q-0.9375 0 -1.421875 0.6875q-0.46875 0.671875 -0.46875 2.203125l0 0.28125q0 1.546875 0.46875 2.234375q0.46875 0.671875 1.4375 0.671875zm11.572693 0.953125q-1.0 1.203125 -2.75 1.203125q-1.609375 0 -2.46875 -0.921875q-0.84375 -0.9375 -0.859375 -2.71875l0 -6.578125l2.671875 0l0 6.484375q0 1.5625 1.4375 1.5625q1.359375 0 1.875 -0.953125l0 -7.09375l2.6875 0l0 10.03125l-2.53125 0l-0.0625 -1.015625zm7.2519836 1.015625l-2.6875 0l0 -10.03125l2.6875 0l0 10.03125zm-2.84375 -12.640625q0 -0.59375 0.390625 -0.984375q0.40625 -0.390625 1.109375 -0.390625q0.6875 0 1.09375 0.390625q0.40625 0.390625 0.40625 0.984375q0 0.609375 -0.421875 1.0q-0.40625 0.390625 -1.078125 0.390625q-0.671875 0 -1.09375 -0.390625q-0.40625 -0.390625 -0.40625 -1.0zm8.165215 0.140625l0 2.46875l1.71875 0l0 1.953125l-1.71875 0l0 5.015625q0 0.5625 0.21875 0.8125q0.21875 0.234375 0.8125 0.234375q0.453125 0 0.796875 -0.078125l0 2.03125q-0.796875 0.25 -1.625 0.25q-2.8281326 0 -2.8750076 -2.84375l0 -5.421875l-1.46875 0l0 -1.953125l1.46875 0l0 -2.46875l2.6718826 0z" fill-rule="nonzero"></path><path fill="#666666" d="m84.06943 254.13875q0 -0.484375 -0.484375 -0.765625q-0.484375 -0.28125 -1.5625 -0.5q-3.59375 -0.765625 -3.59375 -3.046875q0 -1.34375 1.109375 -2.234375q1.109375 -0.890625 2.90625 -0.890625q1.90625 0 3.046875 0.90625q1.15625 0.890625 1.15625 2.328125l-2.6875 0q0 -0.578125 -0.375 -0.953125q-0.359375 -0.375 -1.15625 -0.375q-0.671875 0 -1.046875 0.3125q-0.359375 0.296875 -0.359375 0.765625q0 0.453125 0.421875 0.734375q0.421875 0.265625 1.421875 0.46875q1.0 0.203125 1.6875 0.453125q2.125 0.765625 2.125 2.6875q0 1.375 -1.1875 2.2343597q-1.171875 0.84375 -3.03125 0.84375q-1.265625 0 -2.25 -0.453125q-0.96875 -0.453125 -1.53125 -1.2343597q-0.5625 -0.78125 -0.5625 -1.6875l2.546875 0q0.03125 0.703125 0.515625 1.09375q0.5 0.375 1.328125 0.375q0.765625 0 1.15625 -0.28125q0.40625 -0.296875 0.40625 -0.78125zm8.7798 2.9687347q-2.21875 0 -3.609375 -1.3593597q-1.375 -1.359375 -1.375 -3.609375l0 -0.25q0 -1.515625 0.578125 -2.703125q0.59375 -1.203125 1.65625 -1.84375q1.078125 -0.640625 2.453125 -0.640625q2.046875 0 3.234375 1.296875q1.1875 1.296875 1.1875 3.6875l0 1.09375l-6.390625 0q0.125 0.984375 0.78125 1.578125q0.65625 0.59375 1.65625 0.59375q1.546875 0 2.421875 -1.125l1.3125 1.46875q-0.59375 0.85935974 -1.625 1.3437347q-1.03125 0.46875 -2.28125 0.46875zm-0.3125 -8.23436q-0.796875 0 -1.296875 0.53125q-0.5 0.53125 -0.625 1.546875l3.71875 0l0 -0.21875q-0.015625 -0.890625 -0.484375 -1.375q-0.453125 -0.484375 -1.3125 -0.484375zm11.412338 0.515625q-0.546875 -0.0625 -0.96875 -0.0625q-1.515625 0 -1.984375 1.03125l0 6.5624847l-2.6875 0l0 -10.031235l2.53125 0l0.078125 1.1875q0.796875 -1.375 2.234375 -1.375q0.4375 0 0.828125 0.109375l-0.03125 2.578125zm4.9141693 4.25l1.875 -6.75l2.796875 0l-3.390625 10.031235l-2.5625 0l-3.375 -10.031235l2.796875 0l1.859375 6.75zm10.303329 3.4687347q-2.21875 0 -3.609375 -1.3593597q-1.375 -1.359375 -1.375 -3.609375l0 -0.25q0 -1.515625 0.578125 -2.703125q0.59375 -1.203125 1.65625 -1.84375q1.078125 -0.640625 2.453125 -0.640625q2.046875 0 3.234375 1.296875q1.1875 1.296875 1.1875 3.6875l0 1.09375l-6.390625 0q0.125 0.984375 0.78125 1.578125q0.65625 0.59375 1.65625 0.59375q1.546875 0 2.421875 -1.125l1.3125 1.46875q-0.59375 0.85935974 -1.625 1.3437347q-1.03125 0.46875 -2.28125 0.46875zm-0.3125 -8.23436q-0.796875 0 -1.296875 0.53125q-0.5 0.53125 -0.625 1.546875l3.71875 0l0 -0.21875q-0.015625 -0.890625 -0.484375 -1.375q-0.453125 -0.484375 -1.3125 -0.484375zm11.412338 0.515625q-0.546875 -0.0625 -0.96875 -0.0625q-1.515625 0 -1.984375 1.03125l0 6.5624847l-2.6875 0l0 -10.031235l2.53125 0l0.078125 1.1875q0.796875 -1.375 2.234375 -1.375q0.4375 0 0.828125 0.109375l-0.03125 2.578125z" fill-rule="nonzero"></path><path fill="#ffffff" d="m264.0 240.0l0 0c0 -30.927948 25.072052 -56.0 56.0 -56.0l0 0c14.852112 0 29.095947 5.8999786 39.597992 16.402023c10.502014 10.502029 16.402008 24.74585 16.402008 39.597977l0 0c0 30.927948 -25.072052 56.0 -56.0 56.0l0 0c-30.927948 0 -56.0 -25.072052 -56.0 -56.0z" fill-rule="nonzero"></path><path fill="#000000" fill-opacity="0.0" d="m232.0 176.0l176.0 0l0 64.0l-176.0 0z" fill-rule="nonzero"></path><path fill="#b7b7b7" d="m248.31976 170.00188l-1.171875 0l4.453125 -11.59375l1.171875 0l-4.453125 11.59375zm9.461853 -7.5l2.546875 -4.09375l1.65625 0l-3.359375 5.296875l3.453125 5.375l-1.671875 0l-2.625 -4.15625l-2.640625 4.15625l-1.65625 0l3.453125 -5.375l-3.375 -5.296875l1.640625 0l2.578125 4.09375zm11.829407 -1.296875q0 0.796875 -0.421875 1.421875q-0.421875 0.609375 -1.140625 0.96875q0.828125 0.359375 1.3125 1.046875q0.5 0.6875 0.5 1.5625q0 1.375 -0.9375 2.203125q-0.9375 0.8125 -2.453125 0.8125q-1.546875 0 -2.46875 -0.8125q-0.921875 -0.828125 -0.921875 -2.203125q0 -0.875 0.46875 -1.5625q0.46875 -0.703125 1.296875 -1.0625q-0.703125 -0.34375 -1.125 -0.96875q-0.40625 -0.625 -0.40625 -1.40625q0 -1.359375 0.859375 -2.140625q0.875 -0.796875 2.296875 -0.796875q1.40625 0 2.265625 0.796875q0.875 0.78125 0.875 2.140625zm-1.109375 4.96875q0 -0.890625 -0.578125 -1.453125q-0.5625 -0.5625 -1.484375 -0.5625q-0.90625 0 -1.46875 0.5625q-0.546875 0.546875 -0.546875 1.453125q0 0.90625 0.53125 1.4375q0.546875 0.515625 1.515625 0.515625q0.9375 0 1.484375 -0.515625q0.546875 -0.53125 0.546875 -1.4375zm-2.03125 -6.796875q-0.8125 0 -1.3125 0.5q-0.484375 0.5 -0.484375 1.34375q0 0.8125 0.484375 1.3125q0.5 0.5 1.3125 0.5q0.8125 0 1.296875 -0.5q0.484375 -0.5 0.484375 -1.3125q0 -0.8125 -0.515625 -1.328125q-0.5 -0.515625 -1.265625 -0.515625zm11.370453 1.828125q0 0.796875 -0.421875 1.421875q-0.421875 0.609375 -1.140625 0.96875q0.828125 0.359375 1.3125 1.046875q0.5 0.6875 0.5 1.5625q0 1.375 -0.9375 2.203125q-0.9375 0.8125 -2.453125 0.8125q-1.546875 0 -2.46875 -0.8125q-0.921875 -0.828125 -0.921875 -2.203125q0 -0.875 0.46875 -1.5625q0.46875 -0.703125 1.296875 -1.0625q-0.703125 -0.34375 -1.125 -0.96875q-0.40625 -0.625 -0.40625 -1.40625q0 -1.359375 0.859375 -2.140625q0.875 -0.796875 2.296875 -0.796875q1.40625 0 2.265625 0.796875q0.875 0.78125 0.875 2.140625zm-1.109375 4.96875q0 -0.890625 -0.578125 -1.453125q-0.5625 -0.5625 -1.484375 -0.5625q-0.90625 0 -1.46875 0.5625q-0.546875 0.546875 -0.546875 1.453125q0 0.90625 0.53125 1.4375q0.546875 0.515625 1.515625 0.515625q0.9375 0 1.484375 -0.515625q0.546875 -0.53125 0.546875 -1.4375zm-2.03125 -6.796875q-0.8125 0 -1.3125 0.5q-0.484375 0.5 -0.484375 1.34375q0 0.8125 0.484375 1.3125q0.5 0.5 1.3125 0.5q0.8125 0 1.296875 -0.5q0.484375 -0.5 0.484375 -1.3125q0 -0.8125 -0.515625 -1.328125q-0.5 -0.515625 -1.265625 -0.515625zm5.526703 4.359375l0.53125 -5.328125l5.46875 0l0 1.265625l-4.3125 0l-0.328125 2.90625q0.78125 -0.46875 1.78125 -0.46875q1.453125 0 2.3125 0.96875q0.859375 0.953125 0.859375 2.59375q0 1.65625 -0.890625 2.609375q-0.890625 0.9375 -2.484375 0.9375q-1.40625 0 -2.3125 -0.78125q-0.890625 -0.78125 -1.015625 -2.171875l1.28125 0q0.125 0.921875 0.65625 1.390625q0.53125 0.46875 1.390625 0.46875q0.9375 0 1.46875 -0.640625q0.546875 -0.65625 0.546875 -1.796875q0 -1.0625 -0.578125 -1.703125q-0.578125 -0.65625 -1.546875 -0.65625q-0.890625 0 -1.390625 0.390625l-0.359375 0.296875l-1.078125 -0.28125zm8.229828 0l0.53125 -5.328125l5.46875 0l0 1.265625l-4.3125 0l-0.328125 2.90625q0.78125 -0.46875 1.78125 -0.46875q1.453125 0 2.3125 0.96875q0.859375 0.953125 0.859375 2.59375q0 1.65625 -0.890625 2.609375q-0.890625 0.9375 -2.484375 0.9375q-1.40625 0 -2.3125 -0.78125q-0.890625 -0.78125 -1.015625 -2.171875l1.28125 0q0.125 0.921875 0.65625 1.390625q0.53125 0.46875 1.390625 0.46875q0.9375 0 1.46875 -0.640625q0.546875 -0.65625 0.546875 -1.796875q0 -1.0625 -0.578125 -1.703125q-0.578125 -0.65625 -1.546875 -0.65625q-0.890625 0 -1.390625 0.390625l-0.359375 0.296875l-1.078125 -0.28125zm14.292328 0.796875q0 2.375 -0.8125 3.53125q-0.8125 1.15625 -2.546875 1.15625q-1.703125 0 -2.53125 -1.125q-0.8125 -1.125 -0.84375 -3.375l0 -1.8125q0 -2.359375 0.8125 -3.5q0.8125 -1.140625 2.546875 -1.140625q1.71875 0 2.53125 1.109375q0.8125 1.09375 0.84375 3.390625l0 1.765625zm-1.359375 -1.859375q0 -1.71875 -0.484375 -2.5q-0.484375 -0.796875 -1.53125 -0.796875q-1.03125 0 -1.515625 0.796875q-0.46875 0.78125 -0.484375 2.40625l0 2.15625q0 1.734375 0.5 2.5625q0.5 0.828125 1.515625 0.828125q1.0 0 1.484375 -0.78125q0.5 -0.78125 0.515625 -2.453125l0 -2.21875zm9.589203 1.859375q0 2.375 -0.8125 3.53125q-0.8125 1.15625 -2.546875 1.15625q-1.703125 0 -2.53125 -1.125q-0.8125 -1.125 -0.84375 -3.375l0 -1.8125q0 -2.359375 0.8125 -3.5q0.8125 -1.140625 2.546875 -1.140625q1.71875 0 2.53125 1.109375q0.8125 1.09375 0.84375 3.390625l0 1.765625zm-1.359375 -1.859375q0 -1.71875 -0.484375 -2.5q-0.484375 -0.796875 -1.53125 -0.796875q-1.03125 0 -1.515625 0.796875q-0.46875 0.78125 -0.484375 2.40625l0 2.15625q0 1.734375 0.5 2.5625q0.5 0.828125 1.515625 0.828125q1.0 0 1.484375 -0.78125q0.5 -0.78125 0.515625 -2.453125l0 -2.21875zm7.354828 6.40625l-1.359375 0l0 -9.03125l-2.734375 1.0l0 -1.234375l3.875 -1.453125l0.21875 0l0 10.71875zm9.495453 -3.578125l1.484375 0l0 1.109375l-1.484375 0l0 2.46875l-1.359375 0l0 -2.46875l-4.859375 0l0 -0.8125l4.765625 -7.390625l1.453125 0l0 7.09375zm-4.6875 0l3.328125 0l0 -5.234375l-0.171875 0.296875l-3.15625 4.9375zm7.011078 -0.453125q0 -1.828125 0.859375 -2.9375q0.859375 -1.109375 2.265625 -1.109375q1.390625 0 2.203125 0.953125l0 -4.125l1.359375 0l0 11.25l-1.25 0l-0.0625 -0.84375q-0.8125 0.984375 -2.265625 0.984375q-1.375 0 -2.25 -1.125q-0.859375 -1.125 -0.859375 -2.9375l0 -0.109375zm1.34375 0.15625q0 1.34375 0.5625 2.109375q0.5625 0.765625 1.53125 0.765625q1.296875 0 1.890625 -1.15625l0 -3.640625q-0.609375 -1.125 -1.875 -1.125q-0.984375 0 -1.546875 0.765625q-0.5625 0.765625 -0.5625 2.28125zm12.828125 0.296875l1.484375 0l0 1.109375l-1.484375 0l0 2.46875l-1.359375 0l0 -2.46875l-4.859375 0l0 -0.8125l4.765625 -7.390625l1.453125 0l0 7.09375zm-4.6875 0l3.328125 0l0 -5.234375l-0.171875 0.296875l-3.15625 4.9375zm10.511078 2.625q0.71875 0 1.265625 -0.4375q0.546875 -0.453125 0.609375 -1.109375l1.28125 0q-0.046875 0.6875 -0.484375 1.296875q-0.421875 0.609375 -1.140625 0.984375q-0.71875 0.359375 -1.53125 0.359375q-1.625 0 -2.578125 -1.078125q-0.953125 -1.078125 -0.953125 -2.953125l0 -0.21875q0 -1.171875 0.421875 -2.0625q0.4375 -0.90625 1.21875 -1.40625q0.796875 -0.5 1.890625 -0.5q1.328125 0 2.203125 0.8125q0.890625 0.796875 0.953125 2.0625l-1.28125 0q-0.0625 -0.765625 -0.59375 -1.25q-0.515625 -0.5 -1.28125 -0.5q-1.03125 0 -1.609375 0.75q-0.5625 0.734375 -0.5625 2.140625l0 0.25q0 1.375 0.5625 2.125q0.5625 0.734375 1.609375 0.734375zm10.827881 -6.921875q0 0.796875 -0.421875 1.421875q-0.421875 0.609375 -1.140625 0.96875q0.828125 0.359375 1.3125 1.046875q0.5 0.6875 0.5 1.5625q0 1.375 -0.9375 2.203125q-0.9375 0.8125 -2.453125 0.8125q-1.546875 0 -2.46875 -0.8125q-0.921875 -0.828125 -0.921875 -2.203125q0 -0.875 0.46875 -1.5625q0.46875 -0.703125 1.296875 -1.0625q-0.703125 -0.34375 -1.125 -0.96875q-0.40625 -0.625 -0.40625 -1.40625q0 -1.359375 0.859375 -2.140625q0.875 -0.796875 2.296875 -0.796875q1.40625 0 2.265625 0.796875q0.875 0.78125 0.875 2.140625zm-1.109375 4.96875q0 -0.890625 -0.578125 -1.453125q-0.5625 -0.5625 -1.484375 -0.5625q-0.90625 0 -1.46875 0.5625q-0.546875 0.546875 -0.546875 1.453125q0 0.90625 0.53125 1.4375q0.546875 0.515625 1.515625 0.515625q0.9375 0 1.484375 -0.515625q0.546875 -0.53125 0.546875 -1.4375zm-2.03125 -6.796875q-0.8125 0 -1.3125 0.5q-0.484375 0.5 -0.484375 1.34375q0 0.8125 0.484375 1.3125q0.5 0.5 1.3125 0.5q0.8125 0 1.296875 -0.5q0.484375 -0.5 0.484375 -1.3125q0 -0.8125 -0.515625 -1.328125q-0.5 -0.515625 -1.265625 -0.515625zm11.886078 9.703125l-6.984375 0l0 -0.96875l3.6875 -4.109375q0.8125 -0.921875 1.125 -1.5q0.3125 -0.59375 0.3125 -1.21875q0 -0.828125 -0.5 -1.359375q-0.5 -0.546875 -1.34375 -0.546875q-1.015625 0 -1.578125 0.578125q-0.5625 0.578125 -0.5625 1.609375l-1.34375 0q0 -1.484375 0.9375 -2.390625q0.953125 -0.90625 2.546875 -0.90625q1.484375 0 2.34375 0.78125q0.875 0.78125 0.875 2.078125q0 1.578125 -2.015625 3.75l-2.859375 3.09375l5.359375 0l0 1.109375zm4.667328 0.140625q-1.609375 0 -2.625 -1.046875q-1.0 -1.0625 -1.0 -2.84375l0 -0.234375q0 -1.1875 0.4375 -2.109375q0.453125 -0.9375 1.265625 -1.453125q0.8125 -0.53125 1.75 -0.53125q1.546875 0 2.40625 1.03125q0.859375 1.015625 0.859375 2.90625l0 0.5625l-5.375 0q0.03125 1.171875 0.6875 1.90625q0.65625 0.71875 1.671875 0.71875q0.71875 0 1.203125 -0.296875q0.5 -0.296875 0.875 -0.78125l0.828125 0.640625q-0.984375 1.53125 -2.984375 1.53125zm-0.171875 -7.09375q-0.8125 0 -1.375 0.59375q-0.546875 0.59375 -0.6875 1.671875l3.96875 0l0 -0.109375q-0.0625 -1.03125 -0.5625 -1.59375q-0.484375 -0.5625 -1.34375 -0.5625zm10.233398 3.375l1.484375 0l0 1.109375l-1.484375 0l0 2.46875l-1.359375 0l0 -2.46875l-4.859375 0l0 -0.8125l4.765625 -7.390625l1.453125 0l0 7.09375zm-4.6875 0l3.328125 0l0 -5.234375l-0.171875 0.296875l-3.15625 4.9375zm7.011078 -0.453125q0 -1.828125 0.859375 -2.9375q0.859375 -1.109375 2.265625 -1.109375q1.390625 0 2.203125 0.953125l0 -4.125l1.359375 0l0 11.25l-1.25 0l-0.0625 -0.84375q-0.8125 0.984375 -2.265625 0.984375q-1.375 0 -2.25 -1.125q-0.859375 -1.125 -0.859375 -2.9375l0 -0.109375zm1.34375 0.15625q0 1.34375 0.5625 2.109375q0.5625 0.765625 1.53125 0.765625q1.296875 0 1.890625 -1.15625l0 -3.640625q-0.609375 -1.125 -1.875 -1.125q-0.984375 0 -1.546875 0.765625q-0.5625 0.765625 -0.5625 2.28125z" fill-rule="nonzero"></path><path fill="#666666" d="m298.7537 232.95125q0.75 0 1.203125 -0.40625q0.46875 -0.421875 0.484375 -1.09375l2.515625 0q-0.015625 1.015625 -0.5625 1.875q-0.546875 0.84375 -1.5 1.3125q-0.9375 0.46875 -2.09375 0.46875q-2.15625 0 -3.40625 -1.359375q-1.234375 -1.375 -1.234375 -3.796875l0 -0.171875q0 -2.3125 1.234375 -3.6875q1.234375 -1.390625 3.390625 -1.390625q1.875 0 3.015625 1.078125q1.140625 1.0625 1.15625 2.84375l-2.515625 0q-0.015625 -0.78125 -0.484375 -1.265625q-0.453125 -0.484375 -1.21875 -0.484375q-0.9375 0 -1.421875 0.6875q-0.46875 0.671875 -0.46875 2.203125l0 0.28125q0 1.546875 0.46875 2.234375q0.46875 0.671875 1.4375 0.671875zm8.385193 1.96875l-2.6875 0l0 -10.03125l2.6875 0l0 10.03125zm-2.84375 -12.640625q0 -0.59375 0.390625 -0.984375q0.40625 -0.390625 1.109375 -0.390625q0.6875 0 1.09375 0.390625q0.40625 0.390625 0.40625 0.984375q0 0.609375 -0.421875 1.0q-0.40625 0.390625 -1.078125 0.390625q-0.671875 0 -1.09375 -0.390625q-0.40625 -0.390625 -0.40625 -1.0zm10.602722 5.109375q-0.546875 -0.0625 -0.96875 -0.0625q-1.515625 0 -1.984375 1.03125l0 6.5625l-2.6875 0l0 -10.03125l2.53125 0l0.078125 1.1875q0.796875 -1.375 2.234375 -1.375q0.4375 0 0.828125 0.109375l-0.03125 2.578125zm5.336029 5.5625q0.75 0 1.203125 -0.40625q0.46875 -0.421875 0.484375 -1.09375l2.515625 0q-0.015625 1.015625 -0.5625 1.875q-0.546875 0.84375 -1.5 1.3125q-0.9375 0.46875 -2.09375 0.46875q-2.15625 0 -3.40625 -1.359375q-1.234375 -1.375 -1.234375 -3.796875l0 -0.171875q0 -2.3125 1.234375 -3.6875q1.234375 -1.390625 3.390625 -1.390625q1.875 0 3.015625 1.078125q1.140625 1.0625 1.15625 2.84375l-2.515625 0q-0.015625 -0.78125 -0.484375 -1.265625q-0.453125 -0.484375 -1.21875 -0.484375q-0.9375 0 -1.421875 0.6875q-0.46875 0.671875 -0.46875 2.203125l0 0.28125q0 1.546875 0.46875 2.234375q0.46875 0.671875 1.4375 0.671875zm11.572693 0.953125q-1.0 1.203125 -2.75 1.203125q-1.609375 0 -2.46875 -0.921875q-0.84375 -0.9375 -0.859375 -2.71875l0 -6.578125l2.671875 0l0 6.484375q0 1.5625 1.4375 1.5625q1.359375 0 1.875 -0.953125l0 -7.09375l2.6875 0l0 10.03125l-2.53125 0l-0.0625 -1.015625zm7.2519836 1.015625l-2.6875 0l0 -10.03125l2.6875 0l0 10.03125zm-2.84375 -12.640625q0 -0.59375 0.390625 -0.984375q0.40625 -0.390625 1.109375 -0.390625q0.6875 0 1.09375 0.390625q0.40625 0.390625 0.40625 0.984375q0 0.609375 -0.421875 1.0q-0.40625 0.390625 -1.078125 0.390625q-0.671875 0 -1.09375 -0.390625q-0.40625 -0.390625 -0.40625 -1.0zm8.165222 0.140625l0 2.46875l1.71875 0l0 1.953125l-1.71875 0l0 5.015625q0 0.5625 0.21875 0.8125q0.21875 0.234375 0.8125 0.234375q0.453125 0 0.796875 -0.078125l0 2.03125q-0.796875 0.25 -1.625 0.25q-2.828125 0 -2.875 -2.84375l0 -5.421875l-1.46875 0l0 -1.953125l1.46875 0l0 -2.46875l2.671875 0z" fill-rule="nonzero"></path><path fill="#666666" d="m300.06943 254.13875q0 -0.484375 -0.484375 -0.765625q-0.484375 -0.28125 -1.5625 -0.5q-3.59375 -0.765625 -3.59375 -3.046875q0 -1.34375 1.109375 -2.234375q1.109375 -0.890625 2.90625 -0.890625q1.90625 0 3.046875 0.90625q1.15625 0.890625 1.15625 2.328125l-2.6875 0q0 -0.578125 -0.375 -0.953125q-0.359375 -0.375 -1.15625 -0.375q-0.671875 0 -1.046875 0.3125q-0.359375 0.296875 -0.359375 0.765625q0 0.453125 0.421875 0.734375q0.421875 0.265625 1.421875 0.46875q1.0 0.203125 1.6875 0.453125q2.125 0.765625 2.125 2.6875q0 1.375 -1.1875 2.2343597q-1.171875 0.84375 -3.03125 0.84375q-1.265625 0 -2.25 -0.453125q-0.96875 -0.453125 -1.53125 -1.2343597q-0.5625 -0.78125 -0.5625 -1.6875l2.546875 0q0.03125 0.703125 0.515625 1.09375q0.5 0.375 1.328125 0.375q0.765625 0 1.15625 -0.28125q0.40625 -0.296875 0.40625 -0.78125zm8.779816 2.9687347q-2.21875 0 -3.609375 -1.3593597q-1.375 -1.359375 -1.375 -3.609375l0 -0.25q0 -1.515625 0.578125 -2.703125q0.59375 -1.203125 1.65625 -1.84375q1.078125 -0.640625 2.453125 -0.640625q2.046875 0 3.234375 1.296875q1.1875 1.296875 1.1875 3.6875l0 1.09375l-6.390625 0q0.125 0.984375 0.78125 1.578125q0.65625 0.59375 1.65625 0.59375q1.546875 0 2.421875 -1.125l1.3125 1.46875q-0.59375 0.85935974 -1.625 1.3437347q-1.03125 0.46875 -2.28125 0.46875zm-0.3125 -8.23436q-0.796875 0 -1.296875 0.53125q-0.5 0.53125 -0.625 1.546875l3.71875 0l0 -0.21875q-0.015625 -0.890625 -0.484375 -1.375q-0.453125 -0.484375 -1.3125 -0.484375zm11.412323 0.515625q-0.546875 -0.0625 -0.96875 -0.0625q-1.515625 0 -1.984375 1.03125l0 6.5624847l-2.6875 0l0 -10.031235l2.53125 0l0.078125 1.1875q0.796875 -1.375 2.234375 -1.375q0.4375 0 0.828125 0.109375l-0.03125 2.578125zm4.914154 4.25l1.875 -6.75l2.796875 0l-3.390625 10.031235l-2.5625 0l-3.375 -10.031235l2.796875 0l1.859375 6.75zm10.303345 3.4687347q-2.21875 0 -3.609375 -1.3593597q-1.375 -1.359375 -1.375 -3.609375l0 -0.25q0 -1.515625 0.578125 -2.703125q0.59375 -1.203125 1.65625 -1.84375q1.078125 -0.640625 2.453125 -0.640625q2.046875 0 3.234375 1.296875q1.1875 1.296875 1.1875 3.6875l0 1.09375l-6.390625 0q0.125 0.984375 0.78125 1.578125q0.65625 0.59375 1.65625 0.59375q1.546875 0 2.421875 -1.125l1.3125 1.46875q-0.59375 0.85935974 -1.625 1.3437347q-1.03125 0.46875 -2.28125 0.46875zm-0.3125 -8.23436q-0.796875 0 -1.296875 0.53125q-0.5 0.53125 -0.625 1.546875l3.71875 0l0 -0.21875q-0.015625 -0.890625 -0.484375 -1.375q-0.453125 -0.484375 -1.3125 -0.484375zm11.4123535 0.515625q-0.546875 -0.0625 -0.96875 -0.0625q-1.515625 0 -1.984375 1.03125l0 6.5624847l-2.6875 0l0 -10.031235l2.53125 0l0.078125 1.1875q0.796875 -1.375 2.234375 -1.375q0.4375 0 0.828125 0.109375l-0.03125 2.578125z" fill-rule="nonzero"></path><path fill="#000000" fill-opacity="0.0" d="m234.05832 292.6825c-13.574081 3.5131836 -27.7184 4.2453003 -41.582657 2.1522827l15.524338 -102.83478z" fill-rule="nonzero"></path><path fill="#000000" fill-opacity="0.0" d="m234.05832 292.6825c-13.574081 3.5131836 -27.7184 4.2453003 -41.582657 2.1522827" fill-rule="nonzero"></path><path stroke="#666666" stroke-width="4.0" stroke-linejoin="round" stroke-linecap="butt" d="m234.05832 292.6825c-13.574081 3.5131836 -27.7184 4.2453003 -41.582657 2.1522827" fill-rule="nonzero"></path></g></svg>

