<?xml version="1.0" standalone="yes"?>

<svg version="1.1" viewBox="0.0 0.0 665.0 448.0" fill="none" stroke="none" stroke-linecap="square" stroke-miterlimit="10" xmlns="http://www.w3.org/2000/svg" xmlns:xlink="http://www.w3.org/1999/xlink"><clipPath id="p.0"><path d="m0 0l665.0 0l0 448.0l-665.0 0l0 -448.0z" clip-rule="nonzero"></path></clipPath><g clip-path="url(#p.0)"><path fill="#000000" fill-opacity="0.0" d="m0 0l665.4304 0l0 448.71127l-665.4304 0z" fill-rule="nonzero"></path><path fill="#666666" d="m16.0 27.99792l0 0c0 -6.6262684 5.3716507 -11.997919 11.997919 -11.997919l152.00415 0c3.1820526 0 6.2337646 1.2640629 8.48381 3.5141087c2.2500458 2.2500477 3.5141144 5.3017654 3.5141144 8.48381l0 272.00415c0 6.6262817 -5.3716583 11.997925 -11.997925 11.997925l-152.00415 0l0 0c-6.6262684 0 -11.997919 -5.371643 -11.997919 -11.997925z" fill-rule="nonzero"></path><path fill="#000000" fill-opacity="0.0" d="m24.0 32.0l160.0 0l0 56.0l-160.0 0z" fill-rule="nonzero"></path><path fill="#ffffff" d="m88.71522 55.92l-2.78125 0l0 -5.796875l-5.4375 0l0 5.796875l-2.78125 0l0 -13.515625l2.78125 0l0 5.484375l5.4375 0l0 -5.484375l2.78125 0l0 13.515625zm1.5876923 -5.109375q0 -1.5 0.578125 -2.65625q0.578125 -1.171875 1.65625 -1.8125q1.078125 -0.640625 2.515625 -0.640625q2.03125 0 3.3125 1.25q1.28125 1.234375 1.4375 3.359375l0.015625 0.6875q0 2.3125 -1.296875 3.71875q-1.28125 1.390625 -3.453125 1.390625q-2.171875 0 -3.46875 -1.390625q-1.296875 -1.390625 -1.296875 -3.78125l0 -0.125zm2.6875 0.1875q0 1.4375 0.53125 2.203125q0.546875 0.75 1.546875 0.75q0.96875 0 1.515625 -0.75q0.546875 -0.75 0.546875 -2.390625q0 -1.40625 -0.546875 -2.171875q-0.546875 -0.765625 -1.53125 -0.765625q-0.984375 0 -1.53125 0.765625q-0.53125 0.765625 -0.53125 2.359375zm13.720673 2.140625q0 -0.484375 -0.484375 -0.765625q-0.484375 -0.28125 -1.5625 -0.5q-3.59375 -0.765625 -3.59375 -3.046875q0 -1.34375 1.109375 -2.234375q1.109375 -0.890625 2.90625 -0.890625q1.90625 0 3.046875 0.90625q1.15625 0.890625 1.15625 2.328125l-2.6875 0q0 -0.578125 -0.375 -0.953125q-0.359375 -0.375 -1.15625 -0.375q-0.671875 0 -1.046875 0.3125q-0.359375 0.296875 -0.359375 0.765625q0 0.453125 0.421875 0.734375q0.421875 0.265625 1.421875 0.46875q1.0 0.203125 1.6875 0.453125q2.125 0.765625 2.125 2.6875q0 1.375 -1.1875 2.234375q-1.171875 0.84375 -3.03125 0.84375q-1.265625 0 -2.25 -0.453125q-0.96875 -0.453125 -1.53125 -1.234375q-0.5625 -0.78125 -0.5625 -1.6875l2.546875 0q0.03125 0.703125 0.515625 1.09375q0.5 0.375 1.328125 0.375q0.765625 0 1.15625 -0.28125q0.40625 -0.296875 0.40625 -0.78125zm7.3579254 -9.71875l0 2.46875l1.71875 0l0 1.953125l-1.71875 0l0 5.015625q0 0.5625 0.21875 0.8125q0.21875 0.234375 0.8125 0.234375q0.453125 0 0.796875 -0.078125l0 2.03125q-0.796875 0.25 -1.625 0.25q-2.828125 0 -2.875 -2.84375l0 -5.421875l-1.46875 0l0 -1.953125l1.46875 0l0 -2.46875l2.671875 0zm14.152733 12.5l-2.6874924 0l0 -10.328125l-3.203125 0.984375l0 -2.171875l5.59375 -2.015625l0.29686737 0l0 13.53125z" fill-rule="nonzero"></path><path fill="#666666" d="m232.0 27.99792l0 0c0 -6.6262684 5.3716583 -11.997919 11.997925 -11.997919l152.00415 0c3.1820374 0 6.2337646 1.2640629 8.483795 3.5141087c2.250061 2.2500477 3.5141296 5.3017654 3.5141296 8.48381l0 272.00415c0 6.6262817 -5.371643 11.997925 -11.997925 11.997925l-152.00415 0l0 0c-6.6262665 0 -11.997925 -5.371643 -11.997925 -11.997925z" fill-rule="nonzero"></path><path fill="#000000" fill-opacity="0.0" d="m240.0 32.0l160.0 0l0 56.0l-160.0 0z" fill-rule="nonzero"></path><path fill="#ffffff" d="m304.7152 55.92l-2.78125 0l0 -5.796875l-5.4375 0l0 5.796875l-2.78125 0l0 -13.515625l2.78125 0l0 5.484375l5.4375 0l0 -5.484375l2.78125 0l0 13.515625zm1.5877075 -5.109375q0 -1.5 0.578125 -2.65625q0.578125 -1.171875 1.65625 -1.8125q1.078125 -0.640625 2.515625 -0.640625q2.03125 0 3.3125 1.25q1.28125 1.234375 1.4375 3.359375l0.015625 0.6875q0 2.3125 -1.296875 3.71875q-1.28125 1.390625 -3.453125 1.390625q-2.171875 0 -3.46875 -1.390625q-1.296875 -1.390625 -1.296875 -3.78125l0 -0.125zm2.6875 0.1875q0 1.4375 0.53125 2.203125q0.546875 0.75 1.546875 0.75q0.96875 0 1.515625 -0.75q0.546875 -0.75 0.546875 -2.390625q0 -1.40625 -0.546875 -2.171875q-0.546875 -0.765625 -1.53125 -0.765625q-0.984375 0 -1.53125 0.765625q-0.53125 0.765625 -0.53125 2.359375zm13.720673 2.140625q0 -0.484375 -0.484375 -0.765625q-0.484375 -0.28125 -1.5625 -0.5q-3.59375 -0.765625 -3.59375 -3.046875q0 -1.34375 1.109375 -2.234375q1.109375 -0.890625 2.90625 -0.890625q1.90625 0 3.046875 0.90625q1.15625 0.890625 1.15625 2.328125l-2.6875 0q0 -0.578125 -0.375 -0.953125q-0.359375 -0.375 -1.15625 -0.375q-0.671875 0 -1.046875 0.3125q-0.359375 0.296875 -0.359375 0.765625q0 0.453125 0.421875 0.734375q0.421875 0.265625 1.421875 0.46875q1.0 0.203125 1.6875 0.453125q2.125 0.765625 2.125 2.6875q0 1.375 -1.1875 2.234375q-1.171875 0.84375 -3.03125 0.84375q-1.265625 0 -2.25 -0.453125q-0.96875 -0.453125 -1.53125 -1.234375q-0.5625 -0.78125 -0.5625 -1.6875l2.546875 0q0.03125 0.703125 0.515625 1.09375q0.5 0.375 1.328125 0.375q0.765625 0 1.15625 -0.28125q0.40625 -0.296875 0.40625 -0.78125zm7.35791 -9.71875l0 2.46875l1.71875 0l0 1.953125l-1.71875 0l0 5.015625q0 0.5625 0.21875 0.8125q0.21875 0.234375 0.8125 0.234375q0.453125 0 0.796875 -0.078125l0 2.03125q-0.796875 0.25 -1.625 0.25q-2.828125 0 -2.875 -2.84375l0 -5.421875l-1.46875 0l0 -1.953125l1.46875 0l0 -2.46875l2.671875 0zm16.887115 12.5l-9.25 0l0 -1.84375l4.359375 -4.65625q0.90625 -0.984375 1.328125 -1.703125q0.4375 -0.734375 0.4375 -1.40625q0 -0.890625 -0.453125 -1.40625q-0.453125 -0.515625 -1.296875 -0.515625q-0.90625 0 -1.4375 0.625q-0.515625 0.625 -0.515625 1.640625l-2.6875 0q0 -1.234375 0.578125 -2.25q0.59375 -1.015625 1.671875 -1.59375q1.078125 -0.578125 2.4375 -0.578125q2.09375 0 3.234375 1.0q1.15625 1.0 1.15625 2.828125q0 1.0 -0.515625 2.046875q-0.515625 1.03125 -1.78125 2.40625l-3.0625 3.25l5.796875 0l0 2.15625z" fill-rule="nonzero"></path><path fill="#000000" fill-opacity="0.0" d="m307.01968 223.79784c-14.736572 45.890213 -59.072952 75.642075 -107.124695 71.88585c-48.051727 -3.7562256 -87.22638 -40.03618 -94.652985 -87.658905l102.757996 -16.02478z" fill-rule="nonzero"></path><path fill="#000000" fill-opacity="0.0" d="m307.01968 223.79784c-14.736572 45.890213 -59.072952 75.642075 -107.124695 71.88585c-48.051727 -3.7562256 -87.22638 -40.03618 -94.652985 -87.658905" fill-rule="nonzero"></path><path stroke="#ffffff" stroke-width="4.0" stroke-linejoin="round" stroke-linecap="butt" d="m307.01968 223.79784c-14.736572 45.890213 -59.072952 75.642075 -107.124695 71.88585c-48.051727 -3.7562256 -87.22638 -40.03618 -94.652985 -87.658905" fill-rule="nonzero"></path><path fill="#ffffff" d="m64.0 240.0l0 0c0 -22.091385 17.908607 -40.0 40.0 -40.0l0 0c10.608658 0 20.782814 4.214279 28.284271 11.715729c7.5014496 7.5014496 11.715729 17.675613 11.715729 28.284271l0 0c0 22.0914 -17.908607 40.0 -40.0 40.0l0 0c-22.091393 0 -40.0 -17.9086 -40.0 -40.0z" fill-rule="nonzero"></path><path fill="#000000" fill-opacity="0.0" d="m24.0 208.0l160.0 0l0 64.0l-160.0 0z" fill-rule="nonzero"></path><path fill="#666666" d="m82.7537 244.95125q0.75 0 1.203125 -0.40625q0.46875 -0.421875 0.484375 -1.09375l2.515625 0q-0.015625 1.015625 -0.5625 1.875q-0.546875 0.84375 -1.5 1.3125q-0.9375 0.46875 -2.09375 0.46875q-2.15625 0 -3.40625 -1.359375q-1.234375 -1.375 -1.234375 -3.796875l0 -0.171875q0 -2.3125 1.234375 -3.6875q1.234375 -1.390625 3.390625 -1.390625q1.875 0 3.015625 1.078125q1.140625 1.0625 1.15625 2.84375l-2.515625 0q-0.015625 -0.78125 -0.484375 -1.265625q-0.453125 -0.484375 -1.21875 -0.484375q-0.9375 0 -1.421875 0.6875q-0.46875 0.671875 -0.46875 2.203125l0 0.28125q0 1.546875 0.46875 2.234375q0.46875 0.671875 1.4375 0.671875zm8.385193 1.96875l-2.6875 0l0 -10.03125l2.6875 0l0 10.03125zm-2.84375 -12.640625q0 -0.59375 0.390625 -0.984375q0.40625 -0.390625 1.109375 -0.390625q0.6875 0 1.09375 0.390625q0.40625 0.390625 0.40625 0.984375q0 0.609375 -0.421875 1.0q-0.40625 0.390625 -1.078125 0.390625q-0.671875 0 -1.09375 -0.390625q-0.40625 -0.390625 -0.40625 -1.0zm10.602707 5.109375q-0.546875 -0.0625 -0.96875 -0.0625q-1.515625 0 -1.984375 1.03125l0 6.5625l-2.6875 0l0 -10.03125l2.53125 0l0.078125 1.1875q0.796875 -1.375 2.234375 -1.375q0.4375 0 0.828125 0.109375l-0.03125 2.578125zm5.3360443 5.5625q0.75 0 1.203125 -0.40625q0.46875 -0.421875 0.484375 -1.09375l2.515625 0q-0.015625 1.015625 -0.5625 1.875q-0.546875 0.84375 -1.5 1.3125q-0.9375 0.46875 -2.09375 0.46875q-2.15625 0 -3.40625 -1.359375q-1.234375 -1.375 -1.234375 -3.796875l0 -0.171875q0 -2.3125 1.234375 -3.6875q1.234375 -1.390625 3.390625 -1.390625q1.875 0 3.015625 1.078125q1.140625 1.0625 1.15625 2.84375l-2.515625 0q-0.015625 -0.78125 -0.484375 -1.265625q-0.453125 -0.484375 -1.21875 -0.484375q-0.9375 0 -1.421875 0.6875q-0.46875 0.671875 -0.46875 2.203125l0 0.28125q0 1.546875 0.46875 2.234375q0.46875 0.671875 1.4375 0.671875zm11.572693 0.953125q-1.0 1.203125 -2.75 1.203125q-1.609375 0 -2.46875 -0.921875q-0.84375 -0.9375 -0.859375 -2.71875l0 -6.578125l2.671875 0l0 6.484375q0 1.5625 1.4375 1.5625q1.359375 0 1.875 -0.953125l0 -7.09375l2.6875 0l0 10.03125l-2.53125 0l-0.0625 -1.015625zm7.2519836 1.015625l-2.6875 0l0 -10.03125l2.6875 0l0 10.03125zm-2.84375 -12.640625q0 -0.59375 0.390625 -0.984375q0.40625 -0.390625 1.109375 -0.390625q0.6875 0 1.09375 0.390625q0.40625 0.390625 0.40625 0.984375q0 0.609375 -0.421875 1.0q-0.40625 0.390625 -1.078125 0.390625q-0.671875 0 -1.09375 -0.390625q-0.40625 -0.390625 -0.40625 -1.0zm8.165215 0.140625l0 2.46875l1.71875 0l0 1.953125l-1.71875 0l0 5.015625q0 0.5625 0.21875 0.8125q0.21875 0.234375 0.8125 0.234375q0.453125 0 0.796875 -0.078125l0 2.03125q-0.796875 0.25 -1.625 0.25q-2.8281326 0 -2.8750076 -2.84375l0 -5.421875l-1.46875 0l0 -1.953125l1.46875 0l0 -2.46875l2.6718826 0z" fill-rule="nonzero"></path><path fill="#000000" fill-opacity="0.0" d="m231.85515 293.2271l0 0c-13.075607 3.0813904 -26.62436 3.6003418 -39.897354 1.5281677l16.042206 -102.75528z" fill-rule="nonzero"></path><path fill="#000000" fill-opacity="0.0" d="m231.85515 293.2271l0 0c-13.075607 3.0813904 -26.62436 3.6003418 -39.897354 1.5281677" fill-rule="nonzero"></path><path stroke="#666666" stroke-width="4.0" stroke-linejoin="round" stroke-linecap="butt" d="m231.85515 293.2271l0 0c-13.075607 3.0813904 -26.62436 3.6003418 -39.897354 1.5281677" fill-rule="nonzero"></path><path fill="#ffffff" d="m280.0 240.0l0 0c0 -22.091385 17.9086 -40.0 40.0 -40.0l0 0c10.608673 0 20.782806 4.214279 28.284271 11.715729c7.501465 7.5014496 11.715729 17.675613 11.715729 28.284271l0 0c0 22.0914 -17.9086 40.0 -40.0 40.0l0 0c-22.0914 0 -40.0 -17.9086 -40.0 -40.0z" fill-rule="nonzero"></path><path fill="#000000" fill-opacity="0.0" d="m240.0 208.0l160.0 0l0 64.0l-160.0 0z" fill-rule="nonzero"></path><path fill="#666666" d="m298.7537 244.95125q0.75 0 1.203125 -0.40625q0.46875 -0.421875 0.484375 -1.09375l2.515625 0q-0.015625 1.015625 -0.5625 1.875q-0.546875 0.84375 -1.5 1.3125q-0.9375 0.46875 -2.09375 0.46875q-2.15625 0 -3.40625 -1.359375q-1.234375 -1.375 -1.234375 -3.796875l0 -0.171875q0 -2.3125 1.234375 -3.6875q1.234375 -1.390625 3.390625 -1.390625q1.875 0 3.015625 1.078125q1.140625 1.0625 1.15625 2.84375l-2.515625 0q-0.015625 -0.78125 -0.484375 -1.265625q-0.453125 -0.484375 -1.21875 -0.484375q-0.9375 0 -1.421875 0.6875q-0.46875 0.671875 -0.46875 2.203125l0 0.28125q0 1.546875 0.46875 2.234375q0.46875 0.671875 1.4375 0.671875zm8.385193 1.96875l-2.6875 0l0 -10.03125l2.6875 0l0 10.03125zm-2.84375 -12.640625q0 -0.59375 0.390625 -0.984375q0.40625 -0.390625 1.109375 -0.390625q0.6875 0 1.09375 0.390625q0.40625 0.390625 0.40625 0.984375q0 0.609375 -0.421875 1.0q-0.40625 0.390625 -1.078125 0.390625q-0.671875 0 -1.09375 -0.390625q-0.40625 -0.390625 -0.40625 -1.0zm10.602722 5.109375q-0.546875 -0.0625 -0.96875 -0.0625q-1.515625 0 -1.984375 1.03125l0 6.5625l-2.6875 0l0 -10.03125l2.53125 0l0.078125 1.1875q0.796875 -1.375 2.234375 -1.375q0.4375 0 0.828125 0.109375l-0.03125 2.578125zm5.336029 5.5625q0.75 0 1.203125 -0.40625q0.46875 -0.421875 0.484375 -1.09375l2.515625 0q-0.015625 1.015625 -0.5625 1.875q-0.546875 0.84375 -1.5 1.3125q-0.9375 0.46875 -2.09375 0.46875q-2.15625 0 -3.40625 -1.359375q-1.234375 -1.375 -1.234375 -3.796875l0 -0.171875q0 -2.3125 1.234375 -3.6875q1.234375 -1.390625 3.390625 -1.390625q1.875 0 3.015625 1.078125q1.140625 1.0625 1.15625 2.84375l-2.515625 0q-0.015625 -0.78125 -0.484375 -1.265625q-0.453125 -0.484375 -1.21875 -0.484375q-0.9375 0 -1.421875 0.6875q-0.46875 0.671875 -0.46875 2.203125l0 0.28125q0 1.546875 0.46875 2.234375q0.46875 0.671875 1.4375 0.671875zm11.572693 0.953125q-1.0 1.203125 -2.75 1.203125q-1.609375 0 -2.46875 -0.921875q-0.84375 -0.9375 -0.859375 -2.71875l0 -6.578125l2.671875 0l0 6.484375q0 1.5625 1.4375 1.5625q1.359375 0 1.875 -0.953125l0 -7.09375l2.6875 0l0 10.03125l-2.53125 0l-0.0625 -1.015625zm7.2519836 1.015625l-2.6875 0l0 -10.03125l2.6875 0l0 10.03125zm-2.84375 -12.640625q0 -0.59375 0.390625 -0.984375q0.40625 -0.390625 1.109375 -0.390625q0.6875 0 1.09375 0.390625q0.40625 0.390625 0.40625 0.984375q0 0.609375 -0.421875 1.0q-0.40625 0.390625 -1.078125 0.390625q-0.671875 0 -1.09375 -0.390625q-0.40625 -0.390625 -0.40625 -1.0zm8.165222 0.140625l0 2.46875l1.71875 0l0 1.953125l-1.71875 0l0 5.015625q0 0.5625 0.21875 0.8125q0.21875 0.234375 0.8125 0.234375q0.453125 0 0.796875 -0.078125l0 2.03125q-0.796875 0.25 -1.625 0.25q-2.828125 0 -2.875 -2.84375l0 -5.421875l-1.46875 0l0 -1.953125l1.46875 0l0 -2.46875l2.671875 0z" fill-rule="nonzero"></path><path fill="#6d9eeb" d="m323.6509 383.99738l0 0c0 -24.491882 19.854584 -44.346466 44.346466 -44.346466l0 0c11.761414 0 23.041107 4.6722107 31.357666 12.9888c8.316589 8.316559 12.9888 19.596252 12.9888 31.357666l0 0c0 24.491882 -19.854584 44.346466 -44.346466 44.346466l0 0c-24.491882 0 -44.346466 -19.854584 -44.346466 -44.346466z" fill-rule="nonzero"></path><path fill="#000000" fill-opacity="0.0" d="m288.0 352.0l160.0 0l0 64.0l-160.0 0z" fill-rule="nonzero"></path><path fill="#ffffff" d="m346.7537 377.95123q0.75 0 1.203125 -0.40625q0.46875 -0.421875 0.484375 -1.09375l2.515625 0q-0.015625 1.015625 -0.5625 1.875q-0.546875 0.84375 -1.5 1.3125q-0.9375 0.46875 -2.09375 0.46875q-2.15625 0 -3.40625 -1.359375q-1.234375 -1.375 -1.234375 -3.796875l0 -0.171875q0 -2.3125 1.234375 -3.6875q1.234375 -1.390625 3.390625 -1.390625q1.875 0 3.015625 1.078125q1.140625 1.0625 1.15625 2.84375l-2.515625 0q-0.015625 -0.78125 -0.484375 -1.265625q-0.453125 -0.484375 -1.21875 -0.484375q-0.9375 0 -1.421875 0.6875q-0.46875 0.671875 -0.46875 2.203125l0 0.28125q0 1.546875 0.46875 2.234375q0.46875 0.671875 1.4375 0.671875zm8.385193 1.96875l-2.6875 0l0 -10.03125l2.6875 0l0 10.03125zm-2.84375 -12.640625q0 -0.59375 0.390625 -0.984375q0.40625 -0.390625 1.109375 -0.390625q0.6875 0 1.09375 0.390625q0.40625 0.390625 0.40625 0.984375q0 0.609375 -0.421875 1.0q-0.40625 0.390625 -1.078125 0.390625q-0.671875 0 -1.09375 -0.390625q-0.40625 -0.390625 -0.40625 -1.0zm10.602722 5.109375q-0.546875 -0.0625 -0.96875 -0.0625q-1.515625 0 -1.984375 1.03125l0 6.5625l-2.6875 0l0 -10.03125l2.53125 0l0.078125 1.1875q0.796875 -1.375 2.234375 -1.375q0.4375 0 0.828125 0.109375l-0.03125 2.578125zm5.336029 5.5625q0.75 0 1.203125 -0.40625q0.46875 -0.421875 0.484375 -1.09375l2.515625 0q-0.015625 1.015625 -0.5625 1.875q-0.546875 0.84375 -1.5 1.3125q-0.9375 0.46875 -2.09375 0.46875q-2.15625 0 -3.40625 -1.359375q-1.234375 -1.375 -1.234375 -3.796875l0 -0.171875q0 -2.3125 1.234375 -3.6875q1.234375 -1.390625 3.390625 -1.390625q1.875 0 3.015625 1.078125q1.140625 1.0625 1.15625 2.84375l-2.515625 0q-0.015625 -0.78125 -0.484375 -1.265625q-0.453125 -0.484375 -1.21875 -0.484375q-0.9375 0 -1.421875 0.6875q-0.46875 0.671875 -0.46875 2.203125l0 0.28125q0 1.546875 0.46875 2.234375q0.46875 0.671875 1.4375 0.671875zm11.572693 0.953125q-1.0 1.203125 -2.75 1.203125q-1.609375 0 -2.46875 -0.921875q-0.84375 -0.9375 -0.859375 -2.71875l0 -6.578125l2.671875 0l0 6.484375q0 1.5625 1.4375 1.5625q1.359375 0 1.875 -0.953125l0 -7.09375l2.6875 0l0 10.03125l-2.53125 0l-0.0625 -1.015625zm7.2519836 1.015625l-2.6875 0l0 -10.03125l2.6875 0l0 10.03125zm-2.84375 -12.640625q0 -0.59375 0.390625 -0.984375q0.40625 -0.390625 1.109375 -0.390625q0.6875 0 1.09375 0.390625q0.40625 0.390625 0.40625 0.984375q0 0.609375 -0.421875 1.0q-0.40625 0.390625 -1.078125 0.390625q-0.671875 0 -1.09375 -0.390625q-0.40625 -0.390625 -0.40625 -1.0zm8.165222 0.140625l0 2.46875l1.71875 0l0 1.953125l-1.71875 0l0 5.015625q0 0.5625 0.21875 0.8125q0.21875 0.234375 0.8125 0.234375q0.453125 0 0.796875 -0.078125l0 2.03125q-0.796875 0.25 -1.625 0.25q-2.828125 0 -2.875 -2.84375l0 -5.421875l-1.46875 0l0 -1.953125l1.46875 0l0 -2.46875l2.671875 0z" fill-rule="nonzero"></path><path fill="#ffffff" d="m359.3394 401.91998q-0.1875 -0.359375 -0.265625 -0.90625q-0.96875 1.09375 -2.53125 1.09375q-1.484375 0 -2.453125 -0.84375q-0.96875 -0.859375 -0.96875 -2.171875q0 -1.59375 1.1875 -2.4375q1.1875 -0.859375 3.421875 -0.859375l1.234375 0l0 -0.578125q0 -0.703125 -0.359375 -1.109375q-0.359375 -0.421875 -1.125 -0.421875q-0.671875 0 -1.0625 0.328125q-0.390625 0.3125 -0.390625 0.890625l-2.671875 0q0 -0.875 0.53125 -1.609375q0.546875 -0.75 1.515625 -1.171875q0.984375 -0.421875 2.21875 -0.421875q1.859375 0 2.9375 0.9375q1.09375 0.921875 1.09375 2.609375l0 4.359375q0.015625 1.421875 0.40625 2.15625l0 0.15625l-2.71875 0zm-2.21875 -1.859375q0.59375 0 1.09375 -0.265625q0.5 -0.265625 0.75 -0.71875l0 -1.71875l-1.0 0q-2.015625 0 -2.140625 1.390625l-0.015625 0.15625q0 0.5 0.34375 0.828125q0.359375 0.328125 0.96875 0.328125zm15.439728 -3.0625q0 2.3125 -1.0625 3.71875q-1.046875 1.390625 -2.828125 1.390625q-1.53125 0 -2.453125 -1.0625l0 4.734375l-2.6875 0l0 -13.890625l2.484375 0l0.09375 0.96875q0.96875 -1.15625 2.546875 -1.15625q1.84375 0 2.875 1.375q1.03125 1.359375 1.03125 3.78125l0 0.140625zm-2.671875 -0.203125q0 -1.390625 -0.5 -2.15625q-0.5 -0.765625 -1.4375 -0.765625q-1.265625 0 -1.734375 0.96875l0 4.109375q0.484375 1.0 1.75 1.0q1.921875 0 1.921875 -3.15625zm13.17511 0.203125q0 2.3125 -1.0625 3.71875q-1.046875 1.390625 -2.828125 1.390625q-1.53125 0 -2.453125 -1.0625l0 4.734375l-2.6875 0l0 -13.890625l2.484375 0l0.09375 0.96875q0.96875 -1.15625 2.546875 -1.15625q1.84375 0 2.875 1.375q1.03125 1.359375 1.03125 3.78125l0 0.140625zm-2.671875 -0.203125q0 -1.390625 -0.5 -2.15625q-0.5 -0.765625 -1.4375 -0.765625q-1.265625 0 -1.734375 0.96875l0 4.109375q0.484375 1.0 1.75 1.0q1.921875 0 1.921875 -3.15625z" fill-rule="nonzero"></path><path fill="#000000" fill-opacity="0.0" d="m349.32327 360.3836c-13.135193 -13.551331 -22.335358 -30.421417 -26.614563 -48.80237l101.29129 -23.581238z" fill-rule="nonzero"></path><path fill="#000000" fill-opacity="0.0" d="m349.32327 360.3836c-13.135193 -13.551331 -22.335358 -30.421417 -26.614563 -48.80237" fill-rule="nonzero"></path><path stroke="#6d9eeb" stroke-width="4.0" stroke-linejoin="round" stroke-linecap="butt" d="m349.32327 360.3836c-13.135193 -13.551331 -22.335358 -30.421417 -26.614563 -48.80237" fill-rule="nonzero"></path><path fill="#000000" fill-opacity="0.0" d="m322.97778 312.7086l0 0c-2.734558 -11.180389 -3.5941772 -22.737152 -2.5438538 -34.199066l103.56607 9.4904785z" fill-rule="nonzero"></path><path fill="#000000" fill-opacity="0.0" d="m322.97778 312.7086l0 0c-2.734558 -11.180389 -3.5941772 -22.737152 -2.5438538 -34.199066" fill-rule="nonzero"></path><path stroke="#ffffff" stroke-width="4.0" stroke-linejoin="round" stroke-linecap="butt" d="m322.97778 312.7086l0 0c-2.734558 -11.180389 -3.5941772 -22.737152 -2.5438538 -34.199066" fill-rule="nonzero"></path><path fill="#e06666" d="m270.7244 131.48557l0 0c0 -27.214157 22.061462 -49.27559 49.275604 -49.27559l0 0c13.068695 0 25.602142 5.1915207 34.84311 14.4324875c9.240967 9.240959 14.432495 21.774399 14.432495 34.8431l0 0c0 27.214157 -22.061432 49.27559 -49.275604 49.27559l0 0c-27.214142 0 -49.275604 -22.061432 -49.275604 -49.27559z" fill-rule="nonzero"></path><path fill="#e06666" d="m475.01837 112.819084l0 0c0 -5.1547623 4.178772 -9.333519 9.333527 -9.333519l149.33298 0c2.4754028 0 4.8494263 0.98335266 6.5997925 2.7337265c1.7503662 1.7503738 2.7337036 4.1243896 2.7337036 6.5997925l0 37.332954c0 5.15477 -4.178772 9.333527 -9.333496 9.333527l-149.33298 0c-5.1547546 0 -9.333527 -4.1787567 -9.333527 -9.333527z" fill-rule="nonzero"></path><path fill="#ffffff" d="m501.59265 122.12431l0 5.28125l-1.78125 0l0 -13.515625l4.984375 0q2.21875 0 3.46875 1.140625q1.265625 1.125 1.265625 3.0q0 1.96875 -1.234375 3.03125q-1.21875 1.0625 -3.515625 1.0625l-3.1875 0zm0 -1.46875l3.203125 0q1.4375 0 2.1875 -0.671875q0.765625 -0.671875 0.765625 -1.9375q0 -1.203125 -0.765625 -1.921875q-0.75 -0.734375 -2.078125 -0.765625l-3.3125 0l0 5.296875zm15.92572 5.75q-1.0 1.1875 -2.9375 1.1875q-1.609375 0 -2.453125 -0.921875q-0.84375 -0.9375 -0.84375 -2.765625l0 -6.53125l1.71875 0l0 6.484375q0 2.28125 1.84375 2.28125q1.96875 0 2.625 -1.46875l0 -7.296875l1.71875 0l0 10.03125l-1.640625 0l-0.03125 -1.0zm12.581482 -3.90625q0 2.296875 -1.0625 3.703125q-1.046875 1.390625 -2.828125 1.390625q-1.90625 0 -2.953125 -1.34375l-0.078125 1.15625l-1.578125 0l0 -14.25l1.71875 0l0 5.3125q1.03125 -1.28125 2.859375 -1.28125q1.828125 0 2.875 1.390625q1.046875 1.375 1.046875 3.765625l0 0.15625zm-1.71875 -0.203125q0 -1.75 -0.6875 -2.703125q-0.671875 -0.953125 -1.9375 -0.953125q-1.703125 0 -2.4375 1.578125l0 4.34375q0.78125 1.578125 2.453125 1.578125q1.234375 0 1.921875 -0.953125q0.6875 -0.96875 0.6875 -2.890625zm5.544983 5.109375l-1.703125 0l0 -14.25l1.703125 0l0 14.25zm4.527405 0l-1.703125 0l0 -10.03125l1.703125 0l0 10.03125zm-1.84375 -12.703125q0 -0.421875 0.25 -0.703125q0.25 -0.28125 0.75 -0.28125q0.515625 0 0.765625 0.28125q0.265625 0.28125 0.265625 0.703125q0 0.421875 -0.265625 0.703125q-0.25 0.265625 -0.765625 0.265625q-0.5 0 -0.75 -0.265625q-0.25 -0.28125 -0.25 -0.703125zm8.54303 11.484375q0.921875 0 1.59375 -0.546875q0.6875 -0.5625 0.765625 -1.390625l1.625 0q-0.046875 0.859375 -0.59375 1.640625q-0.546875 0.765625 -1.46875 1.234375q-0.90625 0.46875 -1.921875 0.46875q-2.046875 0 -3.265625 -1.359375q-1.203125 -1.375 -1.203125 -3.75l0 -0.296875q0 -1.46875 0.53125 -2.609375q0.546875 -1.140625 1.546875 -1.765625q1.0 -0.625 2.375 -0.625q1.6875 0 2.796875 1.015625q1.125 1.0 1.203125 2.609375l-1.625 0q-0.078125 -0.96875 -0.734375 -1.59375q-0.65625 -0.625 -1.640625 -0.625q-1.296875 0 -2.03125 0.9375q-0.71875 0.9375 -0.71875 2.71875l0 0.328125q0 1.734375 0.71875 2.671875q0.71875 0.9375 2.046875 0.9375zm15.571411 -4.25l-3.171875 0l0 5.46875l-1.78125 0l0 -13.515625l4.46875 0q2.28125 0 3.5 1.046875q1.234375 1.03125 1.234375 3.03125q0 1.25 -0.6875 2.1875q-0.671875 0.9375 -1.890625 1.40625l3.171875 5.734375l0 0.109375l-1.90625 0l-2.9375 -5.46875zm-3.171875 -1.453125l2.75 0q1.3125 0 2.09375 -0.6875q0.796875 -0.6875 0.796875 -1.828125q0 -1.265625 -0.75 -1.921875q-0.75 -0.671875 -2.15625 -0.6875l-2.734375 0l0 5.125zm17.346436 0.671875l-5.859375 0l0 4.796875l6.8125 0l0 1.453125l-8.59375 0l0 -13.515625l8.5 0l0 1.46875l-6.71875 0l0 4.34375l5.859375 0l0 1.453125zm6.9472046 0.234375q-2.296875 -0.671875 -3.34375 -1.625q-1.03125 -0.953125 -1.03125 -2.375q0 -1.59375 1.265625 -2.625q1.28125 -1.046875 3.328125 -1.046875q1.390625 0 2.46875 0.53125q1.09375 0.53125 1.6875 1.484375q0.609375 0.953125 0.609375 2.0625l-1.796875 0q0 -1.21875 -0.78125 -1.921875q-0.765625 -0.703125 -2.1875 -0.703125q-1.328125 0 -2.0625 0.59375q-0.734375 0.578125 -0.734375 1.609375q0 0.8125 0.703125 1.390625q0.703125 0.5625 2.375 1.046875q1.6875 0.46875 2.640625 1.046875q0.953125 0.5625 1.40625 1.328125q0.46875 0.75 0.46875 1.78125q0 1.640625 -1.28125 2.640625q-1.28125 0.984375 -3.421875 0.984375q-1.390625 0 -2.609375 -0.53125q-1.203125 -0.53125 -1.859375 -1.453125q-0.640625 -0.9375 -0.640625 -2.125l1.78125 0q0 1.234375 0.90625 1.953125q0.90625 0.703125 2.421875 0.703125q1.40625 0 2.15625 -0.578125q0.75 -0.578125 0.75 -1.5625q0 -1.0 -0.703125 -1.546875q-0.6875 -0.546875 -2.515625 -1.0625zm16.42743 -6.03125l-4.34375 0l0 12.046875l-1.78125 0l0 -12.046875l-4.328125 0l0 -1.46875l10.453125 0l0 1.46875zm2.36615 12.046875l0 -8.71875l-1.578125 0l0 -1.3125l1.578125 0l0 -1.03125q0 -1.625 0.859375 -2.5q0.875 -0.875 2.453125 -0.875q0.59375 0 1.171875 0.15625l-0.09375 1.390625q-0.4375 -0.09375 -0.921875 -0.09375q-0.84375 0 -1.296875 0.5q-0.453125 0.484375 -0.453125 1.390625l0 1.0625l2.140625 0l0 1.3125l-2.140625 0l0 8.71875l-1.71875 0zm11.836243 -1.0q-1.0 1.1875 -2.9375 1.1875q-1.609375 0 -2.453125 -0.921875q-0.84375 -0.9375 -0.84375 -2.765625l0 -6.53125l1.71875 0l0 6.484375q0 2.28125 1.84375 2.28125q1.96875 0 2.625 -1.46875l0 -7.296875l1.71875 0l0 10.03125l-1.640625 0l-0.03125 -1.0zm5.940857 1.0l-1.703125 0l0 -14.25l1.703125 0l0 14.25z" fill-rule="nonzero"></path><path fill="#ffffff" d="m553.5427 145.87431l-5.65625 0l-1.28125 3.53125l-1.828125 0l5.15625 -13.515625l1.5625 0l5.15625 13.515625l-1.828125 0l-1.28125 -3.53125zm-5.125 -1.453125l4.59375 0l-2.296875 -6.328125l-2.296875 6.328125zm11.607788 -0.296875l0 5.28125l-1.78125 0l0 -13.515625l4.984375 0q2.21875 0 3.46875 1.140625q1.265625 1.125 1.265625 3.0q0 1.96875 -1.234375 3.03125q-1.21875 1.0625 -3.515625 1.0625l-3.1875 0zm0 -1.46875l3.203125 0q1.4375 0 2.1875 -0.671875q0.765625 -0.671875 0.765625 -1.9375q0 -1.203125 -0.765625 -1.921875q-0.75 -0.734375 -2.078125 -0.765625l-3.3125 0l0 5.296875zm11.910095 6.75l-1.78125 0l0 -13.515625l1.78125 0l0 13.515625z" fill-rule="nonzero"></path><path fill="#e06666" d="m482.87665 122.05249l-53.073486 -9.328079l51.97113 21.475067z" fill-rule="nonzero"></path><path fill="#000000" fill-opacity="0.0" d="m140.00854 117.54273l0 0c40.490936 -18.12394 104.90364 -18.047226 145.19138 0.17292023l-72.78784 34.284348z" fill-rule="nonzero"></path><path fill="#000000" fill-opacity="0.0" d="m140.00854 117.54273l0 0c40.490936 -18.12394 104.90364 -18.047226 145.19138 0.17292023" fill-rule="nonzero"></path><path stroke="#e06666" stroke-width="4.0" stroke-linejoin="round" stroke-linecap="butt" d="m140.00854 117.54273l0 0c40.490936 -18.12394 104.90364 -18.047226 145.19138 0.17292023" fill-rule="nonzero"></path><path fill="#000000" fill-opacity="0.0" d="m240.0 99.485565l160.0 0l0 64.0l-160.0 0z" fill-rule="nonzero"></path><path fill="#ffffff" d="m292.77368 128.37431l0.078125 1.15625q1.078125 -1.34375 2.890625 -1.34375q1.59375 0 2.375 0.9375q0.78125 0.9375 0.796875 2.796875l0 6.484375l-2.6875 0l0 -6.421875q0 -0.859375 -0.375 -1.234375q-0.359375 -0.390625 -1.21875 -0.390625q-1.140625 0 -1.703125 0.96875l0 7.078125l-2.6875 0l0 -10.03125l2.53125 0zm7.557953 4.921875q0 -1.5 0.578125 -2.65625q0.578125 -1.171875 1.65625 -1.8125q1.078125 -0.640625 2.515625 -0.640625q2.03125 0 3.3125 1.25q1.28125 1.234375 1.4375 3.359375l0.015625 0.6875q0 2.3125 -1.296875 3.71875q-1.28125 1.390625 -3.453125 1.390625q-2.171875 0 -3.46875 -1.390625q-1.296875 -1.390625 -1.296875 -3.78125l0 -0.125zm2.6875 0.1875q0 1.4375 0.53125 2.203125q0.546875 0.75 1.546875 0.75q0.96875 0 1.515625 -0.75q0.546875 -0.75 0.546875 -2.390625q0 -1.40625 -0.546875 -2.171875q-0.546875 -0.765625 -1.53125 -0.765625q-0.984375 0 -1.53125 0.765625q-0.53125 0.765625 -0.53125 2.359375zm7.8612976 -0.171875q0 -2.34375 1.046875 -3.734375q1.0625 -1.390625 2.890625 -1.390625q1.46875 0 2.421875 1.09375l0 -5.125l2.6875 0l0 14.25l-2.421875 0l-0.125 -1.0625q-1.0 1.25 -2.578125 1.25q-1.78125 0 -2.859375 -1.390625q-1.0625 -1.40625 -1.0625 -3.890625zm2.6875 0.1875q0 1.421875 0.484375 2.171875q0.5 0.75 1.4375 0.75q1.234375 0 1.75 -1.046875l0 -3.96875q-0.5 -1.046875 -1.734375 -1.046875q-1.9375 0 -1.9375 3.140625zm12.871735 5.09375q-2.21875 0 -3.609375 -1.359375q-1.375 -1.359375 -1.375 -3.609375l0 -0.25q0 -1.515625 0.578125 -2.703125q0.59375 -1.203125 1.65625 -1.84375q1.078125 -0.640625 2.453125 -0.640625q2.046875 0 3.234375 1.296875q1.1875 1.296875 1.1875 3.6875l0 1.09375l-6.390625 0q0.125 0.984375 0.78125 1.578125q0.65625 0.59375 1.65625 0.59375q1.546875 0 2.421875 -1.125l1.3125 1.46875q-0.59375 0.859375 -1.625 1.34375q-1.03125 0.46875 -2.28125 0.46875zm-0.3125 -8.234375q-0.796875 0 -1.296875 0.53125q-0.5 0.53125 -0.625 1.546875l3.71875 0l0 -0.21875q-0.015625 -0.890625 -0.484375 -1.375q-0.453125 -0.484375 -1.3125 -0.484375zm5.912323 6.734375q0 -0.640625 0.421875 -1.03125q0.4375 -0.40625 1.09375 -0.40625q0.65625 0 1.078125 0.40625q0.4375 0.390625 0.4375 1.03125q0 0.625 -0.4375 1.03125q-0.421875 0.390625 -1.078125 0.390625q-0.671875 0 -1.09375 -0.390625q-0.421875 -0.40625 -0.421875 -1.03125zm8.123291 -8.71875l0 10.578125q0 1.65625 -0.890625 2.578125q-0.875 0.921875 -2.53125 0.921875q-0.703125 0 -1.328125 -0.15625l0 -2.125q0.46875 0.09375 0.84375 0.09375q1.203125 0 1.203125 -1.296875l0 -10.59375l2.703125 0zm-2.90625 -2.609375q0 -0.59375 0.390625 -0.984375q0.40625 -0.390625 1.09375 -0.390625q0.703125 0 1.109375 0.390625q0.40625 0.390625 0.40625 0.984375q0 0.609375 -0.421875 1.0q-0.40625 0.390625 -1.078125 0.390625q-0.671875 0 -1.09375 -0.390625q-0.40625 -0.390625 -0.40625 -1.0zm10.346252 9.859375q0 -0.484375 -0.484375 -0.765625q-0.484375 -0.28125 -1.5625 -0.5q-3.59375 -0.765625 -3.59375 -3.046875q0 -1.34375 1.109375 -2.234375q1.109375 -0.890625 2.90625 -0.890625q1.90625 0 3.046875 0.90625q1.15625 0.890625 1.15625 2.328125l-2.6875 0q0 -0.578125 -0.375 -0.953125q-0.359375 -0.375 -1.15625 -0.375q-0.671875 0 -1.046875 0.3125q-0.359375 0.296875 -0.359375 0.765625q0 0.453125 0.421875 0.734375q0.421875 0.265625 1.421875 0.46875q1.0 0.203125 1.6875 0.453125q2.125 0.765625 2.125 2.6875q0 1.375 -1.1875 2.234375q-1.171875 0.84375 -3.03125 0.84375q-1.265625 0 -2.25 -0.453125q-0.96875 -0.453125 -1.53125 -1.234375q-0.5625 -0.78125 -0.5625 -1.6875l2.546875 0q0.03125 0.703125 0.515625 1.09375q0.5 0.375 1.328125 0.375q0.765625 0 1.15625 -0.28125q0.40625 -0.296875 0.40625 -0.78125z" fill-rule="nonzero"></path><path fill="#000000" fill-opacity="0.0" d="m24.0 99.485565l160.0 0l0 64.0l-160.0 0z" fill-rule="nonzero"></path><path fill="#ffffff" d="m76.77367 128.37431l0.078125 1.15625q1.078125 -1.34375 2.890625 -1.34375q1.59375 0 2.375 0.9375q0.78125 0.9375 0.796875 2.796875l0 6.484375l-2.6875 0l0 -6.421875q0 -0.859375 -0.375 -1.234375q-0.359375 -0.390625 -1.21875 -0.390625q-1.140625 0 -1.703125 0.96875l0 7.078125l-2.6875 0l0 -10.03125l2.53125 0zm7.557968 4.921875q0 -1.5 0.578125 -2.65625q0.578125 -1.171875 1.65625 -1.8125q1.078125 -0.640625 2.515625 -0.640625q2.03125 0 3.3125 1.25q1.28125 1.234375 1.4375 3.359375l0.015625 0.6875q0 2.3125 -1.296875 3.71875q-1.28125 1.390625 -3.453125 1.390625q-2.171875 0 -3.46875 -1.390625q-1.296875 -1.390625 -1.296875 -3.78125l0 -0.125zm2.6875 0.1875q0 1.4375 0.53125 2.203125q0.546875 0.75 1.546875 0.75q0.96875 0 1.515625 -0.75q0.546875 -0.75 0.546875 -2.390625q0 -1.40625 -0.546875 -2.171875q-0.546875 -0.765625 -1.53125 -0.765625q-0.984375 0 -1.53125 0.765625q-0.53125 0.765625 -0.53125 2.359375zm7.8612976 -0.171875q0 -2.34375 1.046875 -3.734375q1.0625 -1.390625 2.890625 -1.390625q1.46875 0 2.421875 1.09375l0 -5.125l2.6875 0l0 14.25l-2.421875 0l-0.125 -1.0625q-1.0 1.25 -2.578125 1.25q-1.78125 0 -2.859375 -1.390625q-1.0625 -1.40625 -1.0625 -3.890625zm2.6875 0.1875q0 1.421875 0.484375 2.171875q0.5 0.75 1.4375 0.75q1.234375 0 1.75 -1.046875l0 -3.96875q-0.5 -1.046875 -1.734375 -1.046875q-1.9375 0 -1.9375 3.140625zm12.871735 5.09375q-2.21875 0 -3.609375 -1.359375q-1.375 -1.359375 -1.375 -3.609375l0 -0.25q0 -1.515625 0.578125 -2.703125q0.59375 -1.203125 1.65625 -1.84375q1.078125 -0.640625 2.453125 -0.640625q2.046875 0 3.234375 1.296875q1.1875 1.296875 1.1875 3.6875l0 1.09375l-6.390625 0q0.125 0.984375 0.78125 1.578125q0.65625 0.59375 1.65625 0.59375q1.546875 0 2.421875 -1.125l1.3125 1.46875q-0.59375 0.859375 -1.625 1.34375q-1.03125 0.46875 -2.28125 0.46875zm-0.3125 -8.234375q-0.796875 0 -1.296875 0.53125q-0.5 0.53125 -0.625 1.546875l3.71875 0l0 -0.21875q-0.015625 -0.890625 -0.484375 -1.375q-0.453125 -0.484375 -1.3125 -0.484375zm5.9123383 6.734375q0 -0.640625 0.421875 -1.03125q0.4375 -0.40625 1.09375 -0.40625q0.65625 0 1.078125 0.40625q0.4375 0.390625 0.4375 1.03125q0 0.625 -0.4375 1.03125q-0.421875 0.390625 -1.078125 0.390625q-0.671875 0 -1.09375 -0.390625q-0.421875 -0.40625 -0.421875 -1.03125zm8.123276 -8.71875l0 10.578125q0 1.65625 -0.890625 2.578125q-0.875 0.921875 -2.53125 0.921875q-0.703125 0 -1.328125 -0.15625l0 -2.125q0.46875 0.09375 0.84375 0.09375q1.203125 0 1.203125 -1.296875l0 -10.59375l2.703125 0zm-2.90625 -2.609375q0 -0.59375 0.390625 -0.984375q0.40625 -0.390625 1.09375 -0.390625q0.703125 0 1.109375 0.390625q0.40625 0.390625 0.40625 0.984375q0 0.609375 -0.421875 1.0q-0.40625 0.390625 -1.078125 0.390625q-0.671875 0 -1.09375 -0.390625q-0.40625 -0.390625 -0.40625 -1.0zm10.346252 9.859375q0 -0.484375 -0.484375 -0.765625q-0.484375 -0.28125 -1.5625 -0.5q-3.59375 -0.765625 -3.59375 -3.046875q0 -1.34375 1.109375 -2.234375q1.109375 -0.890625 2.90625 -0.890625q1.90625 0 3.046875 0.90625q1.15625 0.890625 1.15625 2.328125l-2.6875 0q0 -0.578125 -0.375 -0.953125q-0.359375 -0.375 -1.15625 -0.375q-0.671875 0 -1.046875 0.3125q-0.359375 0.296875 -0.359375 0.765625q0 0.453125 0.421875 0.734375q0.421875 0.265625 1.421875 0.46875q1.0 0.203125 1.6875 0.453125q2.125 0.765625 2.125 2.6875q0 1.375 -1.1875 2.234375q-1.171875 0.84375 -3.03125 0.84375q-1.265625 0 -2.25 -0.453125q-0.96875 -0.453125 -1.53125 -1.234375q-0.5625 -0.78125 -0.5625 -1.6875l2.546875 0q0.03125 0.703125 0.515625 1.09375q0.5 0.375 1.328125 0.375q0.765625 0 1.15625 -0.28125q0.40625 -0.296875 0.40625 -0.78125z" fill-rule="nonzero"></path><path fill="#e06666" d="m54.72441 131.48557l0 0c0 -27.214157 22.061432 -49.27559 49.27559 -49.27559l0 0c13.068703 0 25.602142 5.1915207 34.84311 14.4324875c9.240967 9.240959 14.43248 21.774399 14.43248 34.8431l0 0c0 27.214157 -22.061432 49.27559 -49.27559 49.27559l0 0c-27.214157 0 -49.27559 -22.061432 -49.27559 -49.27559z" fill-rule="nonzero"></path><path fill="#000000" fill-opacity="0.0" d="m24.0 99.485565l160.0 0l0 64.0l-160.0 0z" fill-rule="nonzero"></path><path fill="#ffffff" d="m82.2498 128.37431l0.078125 1.109375q1.0625 -1.296875 2.890625 -1.296875q1.9375 0 2.65625 1.53125q1.0625 -1.53125 3.015625 -1.53125q1.640625 0 2.4375 0.953125q0.796875 0.9375 0.796875 2.859375l0 6.40625l-2.6875 0l0 -6.40625q0 -0.84375 -0.34375 -1.234375q-0.328125 -0.40625 -1.171875 -0.40625q-1.203125 0 -1.671875 1.15625l0.015625 6.890625l-2.6875 0l0 -6.390625q0 -0.875 -0.34375 -1.265625q-0.34375 -0.390625 -1.171875 -0.390625q-1.140625 0 -1.640625 0.953125l0 7.09375l-2.6875 0l0 -10.03125l2.515625 0zm17.385513 6.234375l1.859375 -6.234375l2.875 0l-4.046875 11.59375l-0.21875 0.53125q-0.90625 1.953125 -2.96875 1.953125q-0.578125 0 -1.1875 -0.171875l0 -2.03125l0.40625 0.015625q0.765625 0 1.140625 -0.234375q0.375 -0.234375 0.59375 -0.765625l0.3125 -0.828125l-3.515625 -10.0625l2.875 0l1.875 6.234375zm11.052063 1.015625q0 -0.484375 -0.484375 -0.765625q-0.484375 -0.28125 -1.5625 -0.5q-3.59375 -0.765625 -3.59375 -3.046875q0 -1.34375 1.109375 -2.234375q1.109375 -0.890625 2.90625 -0.890625q1.90625 0 3.046875 0.90625q1.15625 0.890625 1.15625 2.328125l-2.6875 0q0 -0.578125 -0.375 -0.953125q-0.359375 -0.375 -1.15625 -0.375q-0.671875 0 -1.046875 0.3125q-0.359375 0.296875 -0.359375 0.765625q0 0.453125 0.421875 0.734375q0.421875 0.265625 1.421875 0.46875q1.0 0.203125 1.6875 0.453125q2.125 0.765625 2.125 2.6875q0 1.375 -1.1875 2.234375q-1.171875 0.84375 -3.03125 0.84375q-1.265625 0 -2.25 -0.453125q-0.96875 -0.453125 -1.53125 -1.234375q-0.5625 -0.78125 -0.5625 -1.6875l2.546875 0q0.03125 0.703125 0.515625 1.09375q0.5 0.375 1.328125 0.375q0.765625 0 1.15625 -0.28125q0.40625 -0.296875 0.40625 -0.78125zm3.7329254 -2.328125q0 -2.375 1.046875 -3.734375q1.0625 -1.375 2.90625 -1.375q1.609375 0 2.5625 1.234375l0.171875 -1.046875l2.359375 0l0 13.890625l-2.6875 0l0 -4.71875q-0.921875 1.046875 -2.4375 1.046875q-1.78125 0 -2.859375 -1.390625q-1.0625 -1.390625 -1.0625 -3.90625zm2.6875 0.1875q0 1.4375 0.5 2.203125q0.515625 0.75 1.421875 0.75q1.234375 0 1.75 -0.984375l0 -4.15625q-0.5 -0.9375 -1.734375 -0.9375q-0.921875 0 -1.4375 0.75q-0.5 0.75 -0.5 2.375zm11.102188 4.921875l-2.6875 0l0 -14.25l2.6875 0l0 14.25z" fill-rule="nonzero"></path><path fill="#000000" fill-opacity="0.0" d="m356.00854 117.54273l0 0c21.56015 -9.650421 51.106934 -14.5278015 81.0372 -13.377045l-8.633667 47.834312z" fill-rule="nonzero"></path><path fill="#000000" fill-opacity="0.0" d="m356.00854 117.54273l0 0c21.56015 -9.650421 51.106934 -14.5278015 81.0372 -13.377045" fill-rule="nonzero"></path><path stroke="#e06666" stroke-width="4.0" stroke-linejoin="round" stroke-linecap="butt" d="m356.00854 117.54273l0 0c10.78009 -4.8252106 23.556824 -8.457161 37.37982 -10.738968c6.911499 -1.1408997 14.084564 -1.9442673 21.40039 -2.39048c0.9144592 -0.055778503 1.8311462 -0.10597229 2.749878 -0.15055084c0.4593506 -0.022285461 0.91922 -0.043174744 1.3795471 -0.06265259l0.127594 -0.0049972534" fill-rule="evenodd"></path><path fill="#e06666" stroke="#e06666" stroke-width="4.0" stroke-linecap="butt" d="m419.05298 108.61819l12.145142 -4.442955l-12.159607 -4.4032516z" fill-rule="evenodd"></path></g></svg>

