<?xml version="1.0" standalone="yes"?>

<svg version="1.1" viewBox="0.0 0.0 639.0 460.0" fill="none" stroke="none" stroke-linecap="square" stroke-miterlimit="10" xmlns="http://www.w3.org/2000/svg" xmlns:xlink="http://www.w3.org/1999/xlink"><clipPath id="p.0"><path d="m0 0l639.0 0l0 460.0l-639.0 0l0 -460.0z" clip-rule="nonzero"></path></clipPath><g clip-path="url(#p.0)"><path fill="#000000" fill-opacity="0.0" d="m0 0l639.1155 0l0 460.4462l-639.1155 0z" fill-rule="nonzero"></path><path fill="#d0e0e3" d="m17.057743 17.516806l0 0c0 -4.616728 3.7425976 -8.359325 8.3593235 -8.359325l585.58057 0c2.217041 0 4.3432617 0.8807125 5.9109497 2.44839c1.567688 1.5676775 2.4483643 3.693904 2.4483643 5.9109354l0 363.94275c0 4.6167297 -3.7425537 8.3593445 -8.359314 8.3593445l-585.58057 0c-4.616726 0 -8.3593235 -3.7426147 -8.3593235 -8.3593445z" fill-rule="nonzero"></path><path fill="#666666" d="m40.0 43.99792l0 0c0 -6.6262703 5.3716507 -11.997921 11.997921 -11.997921l152.00415 0c3.1820526 0 6.2337646 1.2640648 8.48381 3.5141106c2.2500458 2.2500458 3.5141144 5.3017616 3.5141144 8.48381l0 272.00415c0 6.6262817 -5.3716583 11.997925 -11.997925 11.997925l-152.00415 0l0 0c-6.6262703 0 -11.997921 -5.371643 -11.997921 -11.997925z" fill-rule="nonzero"></path><path fill="#000000" fill-opacity="0.0" d="m48.0 48.0l160.0 0l0 56.0l-160.0 0z" fill-rule="nonzero"></path><path fill="#ffffff" d="m112.71522 71.92l-2.78125 0l0 -5.796875l-5.4375 0l0 5.796875l-2.78125 0l0 -13.515625l2.78125 0l0 5.484375l5.4375 0l0 -5.484375l2.78125 0l0 13.515625zm1.5876923 -5.109375q0 -1.5 0.578125 -2.65625q0.578125 -1.171875 1.65625 -1.8125q1.078125 -0.640625 2.515625 -0.640625q2.03125 0 3.3125 1.25q1.28125 1.234375 1.4375 3.359375l0.015625 0.6875q0 2.3125 -1.296875 3.71875q-1.28125 1.390625 -3.453125 1.390625q-2.171875 0 -3.46875 -1.390625q-1.296875 -1.390625 -1.296875 -3.78125l0 -0.125zm2.6875 0.1875q0 1.4375 0.53125 2.203125q0.546875 0.75 1.546875 0.75q0.96875 0 1.515625 -0.75q0.546875 -0.75 0.546875 -2.390625q0 -1.40625 -0.546875 -2.171875q-0.546875 -0.765625 -1.53125 -0.765625q-0.984375 0 -1.53125 0.765625q-0.53125 0.765625 -0.53125 2.359375zm13.72068 2.140625q0 -0.484375 -0.484375 -0.765625q-0.484375 -0.28125 -1.5625 -0.5q-3.5937576 -0.765625 -3.5937576 -3.046875q0 -1.34375 1.109375 -2.234375q1.109375 -0.890625 2.9062576 -0.890625q1.90625 0 3.046875 0.90625q1.15625 0.890625 1.15625 2.328125l-2.6875 0q0 -0.578125 -0.375 -0.953125q-0.359375 -0.375 -1.15625 -0.375q-0.671875 0 -1.046875 0.3125q-0.35938263 0.296875 -0.35938263 0.765625q0 0.453125 0.42188263 0.734375q0.421875 0.265625 1.421875 0.46875q1.0 0.203125 1.6875 0.453125q2.125 0.765625 2.125 2.6875q0 1.375 -1.1875 2.234375q-1.171875 0.84375 -3.03125 0.84375q-1.2656326 0 -2.2500076 -0.453125q-0.96875 -0.453125 -1.53125 -1.234375q-0.5625 -0.78125 -0.5625 -1.6875l2.546875 0q0.03125 0.703125 0.515625 1.09375q0.5000076 0.375 1.3281326 0.375q0.765625 0 1.15625 -0.28125q0.40625 -0.296875 0.40625 -0.78125zm7.35791 -9.71875l0 2.46875l1.71875 0l0 1.953125l-1.71875 0l0 5.015625q0 0.5625 0.21875 0.8125q0.21875 0.234375 0.8125 0.234375q0.453125 0 0.796875 -0.078125l0 2.03125q-0.796875 0.25 -1.625 0.25q-2.828125 0 -2.875 -2.84375l0 -5.421875l-1.46875 0l0 -1.953125l1.46875 0l0 -2.46875l2.671875 0zm14.1527405 12.5l-2.6875 0l0 -10.328125l-3.203125 0.984375l0 -2.171875l5.59375 -2.015625l0.296875 0l0 13.53125z" fill-rule="nonzero"></path><path fill="#666666" d="m256.0 43.99792l0 0c0 -6.6262703 5.371643 -11.997921 11.997925 -11.997921l152.00415 0c3.1820374 0 6.2337646 1.2640648 8.483826 3.5141106c2.2500305 2.2500458 3.5140991 5.3017616 3.5140991 8.48381l0 272.00415c0 6.6262817 -5.371643 11.997925 -11.997925 11.997925l-152.00415 0l0 0c-6.6262817 0 -11.997925 -5.371643 -11.997925 -11.997925z" fill-rule="nonzero"></path><path fill="#000000" fill-opacity="0.0" d="m264.0 48.0l160.0 0l0 56.0l-160.0 0z" fill-rule="nonzero"></path><path fill="#ffffff" d="m328.7152 71.92l-2.78125 0l0 -5.796875l-5.4375 0l0 5.796875l-2.78125 0l0 -13.515625l2.78125 0l0 5.484375l5.4375 0l0 -5.484375l2.78125 0l0 13.515625zm1.5877075 -5.109375q0 -1.5 0.578125 -2.65625q0.578125 -1.171875 1.65625 -1.8125q1.078125 -0.640625 2.515625 -0.640625q2.03125 0 3.3125 1.25q1.28125 1.234375 1.4375 3.359375l0.015625 0.6875q0 2.3125 -1.296875 3.71875q-1.28125 1.390625 -3.453125 1.390625q-2.171875 0 -3.46875 -1.390625q-1.296875 -1.390625 -1.296875 -3.78125l0 -0.125zm2.6875 0.1875q0 1.4375 0.53125 2.203125q0.546875 0.75 1.546875 0.75q0.96875 0 1.515625 -0.75q0.546875 -0.75 0.546875 -2.390625q0 -1.40625 -0.546875 -2.171875q-0.546875 -0.765625 -1.53125 -0.765625q-0.984375 0 -1.53125 0.765625q-0.53125 0.765625 -0.53125 2.359375zm13.720673 2.140625q0 -0.484375 -0.484375 -0.765625q-0.484375 -0.28125 -1.5625 -0.5q-3.59375 -0.765625 -3.59375 -3.046875q0 -1.34375 1.109375 -2.234375q1.109375 -0.890625 2.90625 -0.890625q1.90625 0 3.046875 0.90625q1.15625 0.890625 1.15625 2.328125l-2.6875 0q0 -0.578125 -0.375 -0.953125q-0.359375 -0.375 -1.15625 -0.375q-0.671875 0 -1.046875 0.3125q-0.359375 0.296875 -0.359375 0.765625q0 0.453125 0.421875 0.734375q0.421875 0.265625 1.421875 0.46875q1.0 0.203125 1.6875 0.453125q2.125 0.765625 2.125 2.6875q0 1.375 -1.1875 2.234375q-1.171875 0.84375 -3.03125 0.84375q-1.265625 0 -2.25 -0.453125q-0.96875 -0.453125 -1.53125 -1.234375q-0.5625 -0.78125 -0.5625 -1.6875l2.546875 0q0.03125 0.703125 0.515625 1.09375q0.5 0.375 1.328125 0.375q0.765625 0 1.15625 -0.28125q0.40625 -0.296875 0.40625 -0.78125zm7.35791 -9.71875l0 2.46875l1.71875 0l0 1.953125l-1.71875 0l0 5.015625q0 0.5625 0.21875 0.8125q0.21875 0.234375 0.8125 0.234375q0.453125 0 0.796875 -0.078125l0 2.03125q-0.796875 0.25 -1.625 0.25q-2.828125 0 -2.875 -2.84375l0 -5.421875l-1.46875 0l0 -1.953125l1.46875 0l0 -2.46875l2.671875 0zm16.887115 12.5l-9.25 0l0 -1.84375l4.359375 -4.65625q0.90625 -0.984375 1.328125 -1.703125q0.4375 -0.734375 0.4375 -1.40625q0 -0.890625 -0.453125 -1.40625q-0.453125 -0.515625 -1.296875 -0.515625q-0.90625 0 -1.4375 0.625q-0.515625 0.625 -0.515625 1.640625l-2.6875 0q0 -1.234375 0.578125 -2.25q0.59375 -1.015625 1.671875 -1.59375q1.078125 -0.578125 2.4375 -0.578125q2.09375 0 3.234375 1.0q1.15625 1.0 1.15625 2.828125q0 1.0 -0.515625 2.046875q-0.515625 1.03125 -1.78125 2.40625l-3.0625 3.25l5.796875 0l0 2.15625z" fill-rule="nonzero"></path><path fill="#000000" fill-opacity="0.0" d="m331.01968 239.79784c-14.736572 45.890213 -59.072968 75.642075 -107.124695 71.88585c-48.051727 -3.7562256 -87.22638 -40.036194 -94.652985 -87.658905l102.757996 -16.02478z" fill-rule="nonzero"></path><path fill="#000000" fill-opacity="0.0" d="m331.01968 239.79784c-14.736572 45.890213 -59.072968 75.642075 -107.124695 71.88585c-48.051727 -3.7562256 -87.22638 -40.036194 -94.652985 -87.658905" fill-rule="nonzero"></path><path stroke="#ffffff" stroke-width="4.0" stroke-linejoin="round" stroke-linecap="butt" d="m331.01968 239.79784c-14.736572 45.890213 -59.072968 75.642075 -107.124695 71.88585c-48.051727 -3.7562256 -87.22638 -40.036194 -94.652985 -87.658905" fill-rule="nonzero"></path><path fill="#ffffff" d="m88.0 256.0l0 0c0 -22.091385 17.908607 -40.0 40.0 -40.0l0 0c10.608658 0 20.782822 4.214279 28.284271 11.715729c7.5014496 7.5014496 11.715729 17.675613 11.715729 28.284271l0 0c0 22.0914 -17.908615 40.0 -40.0 40.0l0 0c-22.091393 0 -40.0 -17.9086 -40.0 -40.0z" fill-rule="nonzero"></path><path fill="#000000" fill-opacity="0.0" d="m48.0 224.0l160.0 0l0 64.0l-160.0 0z" fill-rule="nonzero"></path><path fill="#666666" d="m109.70703 260.1881q0.625 0 1.015625 -0.34375q0.390625 -0.34375 0.40625 -0.90625l2.109375 0q0 0.859375 -0.46875 1.578125q-0.453125 0.703125 -1.265625 1.109375q-0.796875 0.390625 -1.765625 0.390625q-1.8125 0 -2.859375 -1.15625q-1.046875 -1.15625 -1.046875 -3.1875l0 -0.140625q0 -1.9531097 1.03125 -3.1093597q1.046875 -1.171875 2.859375 -1.171875q1.59375 0 2.546875 0.90625q0.953125 0.890625 0.96875 2.3906097l-2.109375 0q-0.015625 -0.65623474 -0.40625 -1.0624847q-0.390625 -0.40625 -1.03125 -0.40625q-0.796875 0 -1.203125 0.578125q-0.390625 0.56248474 -0.390625 1.8593597l0 0.234375q0 1.296875 0.390625 1.875q0.40625 0.5625 1.21875 0.5625zm7.203125 1.671875l-2.265625 0l0 -8.45311l2.265625 0l0 8.45311zm-2.390625 -10.64061q0 -0.515625 0.328125 -0.84375q0.34375 -0.328125 0.9375 -0.328125q0.578125 0 0.921875 0.328125q0.34375 0.328125 0.34375 0.84375q0 0.515625 -0.359375 0.84375q-0.34375 0.328125 -0.921875 0.328125q-0.5625 0 -0.90625 -0.328125q-0.34375 -0.328125 -0.34375 -0.84375zm9.0078125 4.296875q-0.46875 -0.0625 -0.8125 -0.0625q-1.28125 0 -1.6875 0.87498474l0 5.53125l-2.25 0l0 -8.45311l2.125 0l0.0625 1.0q0.6875 -1.15625 1.890625 -1.15625q0.375 0 0.703125 0.09375l-0.03125 2.171875zm4.6015625 4.6718597q0.625 0 1.015625 -0.34375q0.390625 -0.34375 0.40625 -0.90625l2.109375 0q0 0.859375 -0.46875 1.578125q-0.453125 0.703125 -1.265625 1.109375q-0.796875 0.390625 -1.765625 0.390625q-1.8125 0 -2.859375 -1.15625q-1.046875 -1.15625 -1.046875 -3.1875l0 -0.140625q0 -1.9531097 1.03125 -3.1093597q1.046875 -1.171875 2.859375 -1.171875q1.59375 0 2.546875 0.90625q0.953125 0.890625 0.96875 2.3906097l-2.109375 0q-0.015625 -0.65623474 -0.40625 -1.0624847q-0.390625 -0.40625 -1.03125 -0.40625q-0.796875 0 -1.203125 0.578125q-0.390625 0.56248474 -0.390625 1.8593597l0 0.234375q0 1.296875 0.390625 1.875q0.40625 0.5625 1.21875 0.5625zm9.890625 0.8125q-0.84375 1.015625 -2.3125 1.015625q-1.359375 0 -2.078125 -0.78125q-0.71875 -0.78125 -0.734375 -2.296875l0 -5.5312347l2.265625 0l0 5.4531097q0 1.328125 1.203125 1.328125q1.140625 0 1.578125 -0.796875l0 -5.9843597l2.265625 0l0 8.45311l-2.125 0l-0.0625 -0.859375zm6.265625 0.859375l-2.265625 0l0 -8.45311l2.265625 0l0 8.45311zm-2.390625 -10.64061q0 -0.515625 0.328125 -0.84375q0.34375 -0.328125 0.9375 -0.328125q0.578125 0 0.921875 0.328125q0.34375 0.328125 0.34375 0.84375q0 0.515625 -0.359375 0.84375q-0.34375 0.328125 -0.921875 0.328125q-0.5625 0 -0.90625 -0.328125q-0.34375 -0.328125 -0.34375 -0.84375zm6.9609375 0.109375l0 2.078125l1.4375 0l0 1.65625l-1.4375 0l0 4.2187347q0 0.46875 0.171875 0.671875q0.1875 0.203125 0.6875 0.203125q0.375 0 0.671875 -0.0625l0 1.71875q-0.671875 0.203125 -1.375 0.203125q-2.375 0 -2.421875 -2.40625l0 -4.5468597l-1.234375 0l0 -1.65625l1.234375 0l0 -2.078125l2.265625 0z" fill-rule="nonzero"></path><path fill="#000000" fill-opacity="0.0" d="m255.85516 309.22714l0 0c-13.075607 3.0813904 -26.624374 3.6003113 -39.89737 1.5281372l16.042206 -102.75528z" fill-rule="nonzero"></path><path fill="#000000" fill-opacity="0.0" d="m255.85516 309.22714l0 0c-13.075607 3.0813904 -26.624374 3.6003113 -39.89737 1.5281372" fill-rule="nonzero"></path><path stroke="#666666" stroke-width="4.0" stroke-linejoin="round" stroke-linecap="butt" d="m255.85516 309.22714l0 0c-13.075607 3.0813904 -26.624374 3.6003113 -39.89737 1.5281372" fill-rule="nonzero"></path><path fill="#ffffff" d="m304.0 256.0l0 0c0 -22.091385 17.9086 -40.0 40.0 -40.0l0 0c10.608673 0 20.782806 4.214279 28.284271 11.715729c7.501465 7.5014496 11.715729 17.675613 11.715729 28.284271l0 0c0 22.0914 -17.9086 40.0 -40.0 40.0l0 0c-22.0914 0 -40.0 -17.9086 -40.0 -40.0z" fill-rule="nonzero"></path><path fill="#000000" fill-opacity="0.0" d="m264.0 224.0l160.0 0l0 64.0l-160.0 0z" fill-rule="nonzero"></path><path fill="#666666" d="m325.70703 260.1881q0.625 0 1.015625 -0.34375q0.390625 -0.34375 0.40625 -0.90625l2.109375 0q0 0.859375 -0.46875 1.578125q-0.453125 0.703125 -1.265625 1.109375q-0.796875 0.390625 -1.765625 0.390625q-1.8125 0 -2.859375 -1.15625q-1.046875 -1.15625 -1.046875 -3.1875l0 -0.140625q0 -1.9531097 1.03125 -3.1093597q1.046875 -1.171875 2.859375 -1.171875q1.59375 0 2.546875 0.90625q0.953125 0.890625 0.96875 2.3906097l-2.109375 0q-0.015625 -0.65623474 -0.40625 -1.0624847q-0.390625 -0.40625 -1.03125 -0.40625q-0.796875 0 -1.203125 0.578125q-0.390625 0.56248474 -0.390625 1.8593597l0 0.234375q0 1.296875 0.390625 1.875q0.40625 0.5625 1.21875 0.5625zm7.203125 1.671875l-2.265625 0l0 -8.45311l2.265625 0l0 8.45311zm-2.390625 -10.64061q0 -0.515625 0.328125 -0.84375q0.34375 -0.328125 0.9375 -0.328125q0.578125 0 0.921875 0.328125q0.34375 0.328125 0.34375 0.84375q0 0.515625 -0.359375 0.84375q-0.34375 0.328125 -0.921875 0.328125q-0.5625 0 -0.90625 -0.328125q-0.34375 -0.328125 -0.34375 -0.84375zm9.0078125 4.296875q-0.46875 -0.0625 -0.8125 -0.0625q-1.28125 0 -1.6875 0.87498474l0 5.53125l-2.25 0l0 -8.45311l2.125 0l0.0625 1.0q0.6875 -1.15625 1.890625 -1.15625q0.375 0 0.703125 0.09375l-0.03125 2.171875zm4.6015625 4.6718597q0.625 0 1.015625 -0.34375q0.390625 -0.34375 0.40625 -0.90625l2.109375 0q0 0.859375 -0.46875 1.578125q-0.453125 0.703125 -1.265625 1.109375q-0.796875 0.390625 -1.765625 0.390625q-1.8125 0 -2.859375 -1.15625q-1.046875 -1.15625 -1.046875 -3.1875l0 -0.140625q0 -1.9531097 1.03125 -3.1093597q1.046875 -1.171875 2.859375 -1.171875q1.59375 0 2.546875 0.90625q0.953125 0.890625 0.96875 2.3906097l-2.109375 0q-0.015625 -0.65623474 -0.40625 -1.0624847q-0.390625 -0.40625 -1.03125 -0.40625q-0.796875 0 -1.203125 0.578125q-0.390625 0.56248474 -0.390625 1.8593597l0 0.234375q0 1.296875 0.390625 1.875q0.40625 0.5625 1.21875 0.5625zm9.890625 0.8125q-0.84375 1.015625 -2.3125 1.015625q-1.359375 0 -2.078125 -0.78125q-0.71875 -0.78125 -0.734375 -2.296875l0 -5.5312347l2.265625 0l0 5.4531097q0 1.328125 1.203125 1.328125q1.140625 0 1.578125 -0.796875l0 -5.9843597l2.265625 0l0 8.45311l-2.125 0l-0.0625 -0.859375zm6.265625 0.859375l-2.265625 0l0 -8.45311l2.265625 0l0 8.45311zm-2.390625 -10.64061q0 -0.515625 0.328125 -0.84375q0.34375 -0.328125 0.9375 -0.328125q0.578125 0 0.921875 0.328125q0.34375 0.328125 0.34375 0.84375q0 0.515625 -0.359375 0.84375q-0.34375 0.328125 -0.921875 0.328125q-0.5625 0 -0.90625 -0.328125q-0.34375 -0.328125 -0.34375 -0.84375zm6.9609375 0.109375l0 2.078125l1.4375 0l0 1.65625l-1.4375 0l0 4.2187347q0 0.46875 0.171875 0.671875q0.1875 0.203125 0.6875 0.203125q0.375 0 0.671875 -0.0625l0 1.71875q-0.671875 0.203125 -1.375 0.203125q-2.375 0 -2.421875 -2.40625l0 -4.5468597l-1.234375 0l0 -1.65625l1.234375 0l0 -2.078125l2.265625 0z" fill-rule="nonzero"></path><path fill="#6d9eeb" d="m347.6509 399.99738l0 0c0 -24.491882 19.854584 -44.346466 44.346466 -44.346466l0 0c11.761414 0 23.041107 4.6722107 31.357666 12.9888c8.316589 8.316559 12.9888 19.596252 12.9888 31.357666l0 0c0 24.491882 -19.854584 44.346466 -44.346466 44.346466l0 0c-24.491882 0 -44.346466 -19.854584 -44.346466 -44.346466z" fill-rule="nonzero"></path><path fill="#000000" fill-opacity="0.0" d="m312.0 368.0l160.0 0l0 64.0l-160.0 0z" fill-rule="nonzero"></path><path fill="#ffffff" d="m373.70703 394.6881q0.625 0 1.015625 -0.34375q0.390625 -0.34375 0.40625 -0.90625l2.109375 0q0 0.859375 -0.46875 1.578125q-0.453125 0.703125 -1.265625 1.109375q-0.796875 0.390625 -1.765625 0.390625q-1.8125 0 -2.859375 -1.15625q-1.046875 -1.15625 -1.046875 -3.1875l0 -0.140625q0 -1.953125 1.03125 -3.109375q1.046875 -1.171875 2.859375 -1.171875q1.59375 0 2.546875 0.90625q0.953125 0.890625 0.96875 2.390625l-2.109375 0q-0.015625 -0.65625 -0.40625 -1.0625q-0.390625 -0.40625 -1.03125 -0.40625q-0.796875 0 -1.203125 0.578125q-0.390625 0.5625 -0.390625 1.859375l0 0.234375q0 1.296875 0.390625 1.875q0.40625 0.5625 1.21875 0.5625zm7.203125 1.671875l-2.265625 0l0 -8.453125l2.265625 0l0 8.453125zm-2.390625 -10.640625q0 -0.515625 0.328125 -0.84375q0.34375 -0.328125 0.9375 -0.328125q0.578125 0 0.921875 0.328125q0.34375 0.328125 0.34375 0.84375q0 0.515625 -0.359375 0.84375q-0.34375 0.328125 -0.921875 0.328125q-0.5625 0 -0.90625 -0.328125q-0.34375 -0.328125 -0.34375 -0.84375zm9.0078125 4.296875q-0.46875 -0.0625 -0.8125 -0.0625q-1.28125 0 -1.6875 0.875l0 5.53125l-2.25 0l0 -8.453125l2.125 0l0.0625 1.0q0.6875 -1.15625 1.890625 -1.15625q0.375 0 0.703125 0.09375l-0.03125 2.171875zm4.6015625 4.671875q0.625 0 1.015625 -0.34375q0.390625 -0.34375 0.40625 -0.90625l2.109375 0q0 0.859375 -0.46875 1.578125q-0.453125 0.703125 -1.265625 1.109375q-0.796875 0.390625 -1.765625 0.390625q-1.8125 0 -2.859375 -1.15625q-1.046875 -1.15625 -1.046875 -3.1875l0 -0.140625q0 -1.953125 1.03125 -3.109375q1.046875 -1.171875 2.859375 -1.171875q1.59375 0 2.546875 0.90625q0.953125 0.890625 0.96875 2.390625l-2.109375 0q-0.015625 -0.65625 -0.40625 -1.0625q-0.390625 -0.40625 -1.03125 -0.40625q-0.796875 0 -1.203125 0.578125q-0.390625 0.5625 -0.390625 1.859375l0 0.234375q0 1.296875 0.390625 1.875q0.40625 0.5625 1.21875 0.5625zm9.890625 0.8125q-0.84375 1.015625 -2.3125 1.015625q-1.359375 0 -2.078125 -0.78125q-0.71875 -0.78125 -0.734375 -2.296875l0 -5.53125l2.265625 0l0 5.453125q0 1.328125 1.203125 1.328125q1.140625 0 1.578125 -0.796875l0 -5.984375l2.265625 0l0 8.453125l-2.125 0l-0.0625 -0.859375zm6.265625 0.859375l-2.265625 0l0 -8.453125l2.265625 0l0 8.453125zm-2.390625 -10.640625q0 -0.515625 0.328125 -0.84375q0.34375 -0.328125 0.9375 -0.328125q0.578125 0 0.921875 0.328125q0.34375 0.328125 0.34375 0.84375q0 0.515625 -0.359375 0.84375q-0.34375 0.328125 -0.921875 0.328125q-0.5625 0 -0.90625 -0.328125q-0.34375 -0.328125 -0.34375 -0.84375zm6.9609375 0.109375l0 2.078125l1.4375 0l0 1.65625l-1.4375 0l0 4.21875q0 0.46875 0.171875 0.671875q0.1875 0.203125 0.6875 0.203125q0.375 0 0.671875 -0.0625l0 1.71875q-0.671875 0.203125 -1.375 0.203125q-2.375 0 -2.421875 -2.40625l0 -4.546875l-1.234375 0l0 -1.65625l1.234375 0l0 -2.078125l2.265625 0z" fill-rule="nonzero"></path><path fill="#ffffff" d="m384.46875 415.36q-0.15625 -0.3125 -0.21875 -0.765625q-0.828125 0.921875 -2.140625 0.921875q-1.234375 0 -2.0625 -0.71875q-0.8125 -0.71875 -0.8125 -1.8125q0 -1.34375 1.0 -2.0625q1.0 -0.71875 2.875 -0.734375l1.046875 0l0 -0.484375q0 -0.578125 -0.3125 -0.921875q-0.296875 -0.359375 -0.9375 -0.359375q-0.578125 0 -0.90625 0.28125q-0.3125 0.265625 -0.3125 0.734375l-2.265625 0q0 -0.734375 0.453125 -1.359375q0.453125 -0.625 1.28125 -0.96875q0.828125 -0.359375 1.859375 -0.359375q1.5625 0 2.484375 0.78125q0.921875 0.78125 0.921875 2.203125l0 3.671875q0 1.203125 0.328125 1.8125l0 0.140625l-2.28125 0zm-1.859375 -1.578125q0.5 0 0.921875 -0.21875q0.421875 -0.21875 0.625 -0.59375l0 -1.453125l-0.84375 0q-1.703125 0 -1.8125 1.171875l0 0.125q0 0.421875 0.296875 0.703125q0.296875 0.265625 0.8125 0.265625zm13.15625 -2.578125q0 1.953125 -0.890625 3.140625q-0.890625 1.171875 -2.390625 1.171875q-1.28125 0 -2.078125 -0.890625l0 3.984375l-2.25 0l0 -11.703125l2.09375 0l0.078125 0.828125q0.8125 -0.984375 2.140625 -0.984375q1.5625 0 2.421875 1.15625q0.875 1.15625 0.875 3.1875l0 0.109375zm-2.265625 -0.15625q0 -1.1875 -0.421875 -1.828125q-0.40625 -0.640625 -1.203125 -0.640625q-1.0625 0 -1.46875 0.8125l0 3.46875q0.421875 0.828125 1.484375 0.828125q1.609375 0 1.609375 -2.640625zm11.2734375 0.15625q0 1.953125 -0.890625 3.140625q-0.890625 1.171875 -2.390625 1.171875q-1.28125 0 -2.078125 -0.890625l0 3.984375l-2.25 0l0 -11.703125l2.09375 0l0.078125 0.828125q0.8125 -0.984375 2.140625 -0.984375q1.5625 0 2.421875 1.15625q0.875 1.15625 0.875 3.1875l0 0.109375zm-2.265625 -0.15625q0 -1.1875 -0.421875 -1.828125q-0.40625 -0.640625 -1.203125 -0.640625q-1.0625 0 -1.46875 0.8125l0 3.46875q0.421875 0.828125 1.484375 0.828125q1.609375 0 1.609375 -2.640625z" fill-rule="nonzero"></path><path fill="#000000" fill-opacity="0.0" d="m373.32327 376.3836c-13.135193 -13.551331 -22.335358 -30.421417 -26.614563 -48.80237l101.29129 -23.581238z" fill-rule="nonzero"></path><path fill="#000000" fill-opacity="0.0" d="m373.32327 376.3836c-13.135193 -13.551331 -22.335358 -30.421417 -26.614563 -48.80237" fill-rule="nonzero"></path><path stroke="#6d9eeb" stroke-width="4.0" stroke-linejoin="round" stroke-linecap="butt" d="m373.32327 376.3836c-13.135193 -13.551331 -22.335358 -30.421417 -26.614563 -48.80237" fill-rule="nonzero"></path><path fill="#000000" fill-opacity="0.0" d="m346.97778 328.7086l0 0c-2.734558 -11.180389 -3.5941772 -22.737152 -2.5438538 -34.199066l103.56607 9.4904785z" fill-rule="nonzero"></path><path fill="#000000" fill-opacity="0.0" d="m346.97778 328.7086l0 0c-2.734558 -11.180389 -3.5941772 -22.737152 -2.5438538 -34.199066" fill-rule="nonzero"></path><path stroke="#ffffff" stroke-width="4.0" stroke-linejoin="round" stroke-linecap="butt" d="m346.97778 328.7086l0 0c-2.734558 -11.180389 -3.5941772 -22.737152 -2.5438538 -34.199066" fill-rule="nonzero"></path><path fill="#8e7cc3" d="m294.7244 147.48557l0 0c0 -27.214157 22.061462 -49.27559 49.275604 -49.27559l0 0c13.068695 0 25.602142 5.1915207 34.84311 14.4324875c9.240967 9.240959 14.432495 21.774406 14.432495 34.8431l0 0c0 27.214157 -22.061432 49.27559 -49.275604 49.27559l0 0c-27.214142 0 -49.275604 -22.061432 -49.275604 -49.27559z" fill-rule="nonzero"></path><path fill="#000000" fill-opacity="0.0" d="m164.00854 133.54274l0 0c40.490936 -18.123947 104.903625 -18.047234 145.19138 0.1729126l-72.78784 34.284348z" fill-rule="nonzero"></path><path fill="#000000" fill-opacity="0.0" d="m164.00854 133.54274l0 0c40.490936 -18.123947 104.903625 -18.047234 145.19138 0.1729126" fill-rule="nonzero"></path><path stroke="#8e7cc3" stroke-width="4.0" stroke-linejoin="round" stroke-linecap="butt" d="m164.00854 133.54274l0 0c40.490936 -18.123947 104.903625 -18.047234 145.19138 0.1729126" fill-rule="nonzero"></path><path fill="#000000" fill-opacity="0.0" d="m264.0 115.485565l160.0 0l0 64.0l-160.0 0z" fill-rule="nonzero"></path><path fill="#ffffff" d="m326.7461 153.34557l-2.34375 0l-4.5625 -7.484375l0 7.484375l-2.34375 0l0 -11.375l2.34375 0l4.578125 7.5l0 -7.5l2.328125 0l0 11.375zm1.546875 -4.3125q0 -1.25 0.484375 -2.234375q0.484375 -0.984375 1.390625 -1.515625q0.921875 -0.546875 2.125 -0.546875q1.703125 0 2.78125 1.046875q1.09375 1.046875 1.21875 2.84375l0.015625 0.578125q0 1.9375 -1.09375 3.125q-1.078125 1.171875 -2.90625 1.171875q-1.828125 0 -2.921875 -1.171875q-1.09375 -1.171875 -1.09375 -3.1875l0 -0.109375zm2.265625 0.171875q0 1.203125 0.453125 1.84375q0.453125 0.625 1.296875 0.625q0.8125 0 1.265625 -0.625q0.46875 -0.625 0.46875 -2.015625q0 -1.171875 -0.46875 -1.8125q-0.453125 -0.65625 -1.28125 -0.65625q-0.828125 0 -1.28125 0.640625q-0.453125 0.640625 -0.453125 2.0zm6.78125 -0.15625q0 -1.96875 0.890625 -3.140625q0.890625 -1.171875 2.421875 -1.171875q1.234375 0 2.046875 0.921875l0 -4.3125l2.265625 0l0 12.0l-2.046875 0l-0.109375 -0.90625q-0.84375 1.0625 -2.171875 1.0625q-1.484375 0 -2.390625 -1.171875q-0.90625 -1.1875 -0.90625 -3.28125zm2.265625 0.171875q0 1.1875 0.40625 1.828125q0.421875 0.625 1.203125 0.625q1.046875 0 1.484375 -0.890625l0 -3.328125q-0.421875 -0.890625 -1.46875 -0.890625q-1.625 0 -1.625 2.65625zm11.0 4.28125q-1.859375 0 -3.03125 -1.140625q-1.171875 -1.140625 -1.171875 -3.046875l0 -0.21875q0 -1.265625 0.484375 -2.265625q0.5 -1.015625 1.40625 -1.546875q0.90625 -0.546875 2.0625 -0.546875q1.734375 0 2.71875 1.09375q1.0 1.09375 1.0 3.09375l0 0.921875l-5.375 0q0.109375 0.828125 0.65625 1.328125q0.546875 0.5 1.390625 0.5q1.3125 0 2.046875 -0.9375l1.109375 1.234375q-0.515625 0.71875 -1.390625 1.125q-0.859375 0.40625 -1.90625 0.40625zm-0.265625 -6.9375q-0.671875 0 -1.09375 0.453125q-0.40625 0.453125 -0.53125 1.296875l3.140625 0l0 -0.1875q-0.015625 -0.75 -0.40625 -1.15625q-0.390625 -0.40625 -1.109375 -0.40625zm5.1328125 5.671875q0 -0.546875 0.359375 -0.875q0.375 -0.34375 0.921875 -0.34375q0.546875 0 0.90625 0.34375q0.375 0.328125 0.375 0.875q0 0.53125 -0.359375 0.875q-0.359375 0.328125 -0.921875 0.328125q-0.5625 0 -0.921875 -0.328125q-0.359375 -0.34375 -0.359375 -0.875zm6.9296875 -7.34375l0 8.921875q0 1.390625 -0.75 2.171875q-0.734375 0.78125 -2.140625 0.78125q-0.59375 0 -1.125 -0.140625l0 -1.78125q0.40625 0.0625 0.71875 0.0625q1.03125 0 1.03125 -1.078125l0 -8.9375l2.265625 0zm-2.453125 -2.1875q0 -0.515625 0.34375 -0.84375q0.34375 -0.328125 0.921875 -0.328125q0.59375 0 0.921875 0.328125q0.34375 0.328125 0.34375 0.84375q0 0.515625 -0.34375 0.84375q-0.34375 0.328125 -0.921875 0.328125q-0.5625 0 -0.921875 -0.328125q-0.34375 -0.328125 -0.34375 -0.84375zm8.796875 8.296875q0 -0.40625 -0.421875 -0.640625q-0.40625 -0.25 -1.3125 -0.4375q-3.015625 -0.625 -3.015625 -2.5625q0 -1.125 0.9375 -1.875q0.9375 -0.75 2.4375 -0.75q1.609375 0 2.578125 0.765625q0.96875 0.75 0.96875 1.953125l-2.265625 0q0 -0.484375 -0.3125 -0.796875q-0.3125 -0.3125 -0.96875 -0.3125q-0.578125 0 -0.890625 0.265625q-0.3125 0.25 -0.3125 0.640625q0 0.375 0.359375 0.609375q0.359375 0.234375 1.203125 0.40625q0.84375 0.15625 1.421875 0.375q1.78125 0.65625 1.78125 2.265625q0 1.15625 -1.0 1.875q-0.984375 0.71875 -2.546875 0.71875q-1.0625 0 -1.890625 -0.375q-0.828125 -0.390625 -1.296875 -1.046875q-0.46875 -0.65625 -0.46875 -1.421875l2.140625 0q0.03125 0.59375 0.4375 0.921875q0.421875 0.3125 1.125 0.3125q0.640625 0 0.96875 -0.234375q0.34375 -0.25 0.34375 -0.65625z" fill-rule="nonzero"></path><path fill="#000000" fill-opacity="0.0" d="m48.0 115.485565l160.0 0l0 64.0l-160.0 0z" fill-rule="nonzero"></path><path fill="#ffffff" d="m100.77367 144.37431l0.078125 1.15625q1.078125 -1.34375 2.890625 -1.34375q1.59375 0 2.375 0.9375q0.78125 0.9375 0.796875 2.796875l0 6.484375l-2.6875 0l0 -6.421875q0 -0.859375 -0.375 -1.234375q-0.359375 -0.390625 -1.21875 -0.390625q-1.140625 0 -1.703125 0.96875l0 7.078125l-2.6875 0l0 -10.03125l2.53125 0zm7.557968 4.921875q0 -1.5 0.578125 -2.65625q0.578125 -1.171875 1.65625 -1.8125q1.078125 -0.640625 2.515625 -0.640625q2.03125 0 3.3125 1.25q1.28125 1.234375 1.4375 3.359375l0.015625 0.6875q0 2.3125 -1.296875 3.71875q-1.28125 1.390625 -3.453125 1.390625q-2.171875 0 -3.46875 -1.390625q-1.296875 -1.390625 -1.296875 -3.78125l0 -0.125zm2.6875 0.1875q0 1.4375 0.53125 2.203125q0.546875 0.75 1.546875 0.75q0.96875 0 1.515625 -0.75q0.546875 -0.75 0.546875 -2.390625q0 -1.40625 -0.546875 -2.171875q-0.546875 -0.765625 -1.53125 -0.765625q-0.984375 0 -1.53125 0.765625q-0.53125 0.765625 -0.53125 2.359375zm7.8612976 -0.171875q0 -2.34375 1.046875 -3.734375q1.0625 -1.390625 2.890625 -1.390625q1.46875 0 2.421875 1.09375l0 -5.125l2.6875 0l0 14.25l-2.421875 0l-0.125 -1.0625q-1.0 1.25 -2.578125 1.25q-1.78125 0 -2.859375 -1.390625q-1.0625 -1.40625 -1.0625 -3.890625zm2.6875 0.1875q0 1.421875 0.484375 2.171875q0.5 0.75 1.4375 0.75q1.234375 0 1.75 -1.046875l0 -3.96875q-0.5 -1.046875 -1.734375 -1.046875q-1.9375 0 -1.9375 3.140625zm12.871735 5.09375q-2.21875 0 -3.609375 -1.359375q-1.375 -1.359375 -1.375 -3.609375l0 -0.25q0 -1.515625 0.578125 -2.703125q0.59375 -1.203125 1.65625 -1.84375q1.078125 -0.640625 2.453125 -0.640625q2.046875 0 3.234375 1.296875q1.1875 1.296875 1.1875 3.6875l0 1.09375l-6.390625 0q0.125 0.984375 0.78125 1.578125q0.65625 0.59375 1.65625 0.59375q1.546875 0 2.421875 -1.125l1.3125 1.46875q-0.59375 0.859375 -1.625 1.34375q-1.03125 0.46875 -2.28125 0.46875zm-0.3125 -8.234375q-0.796875 0 -1.296875 0.53125q-0.5 0.53125 -0.625 1.546875l3.71875 0l0 -0.21875q-0.015625 -0.890625 -0.484375 -1.375q-0.453125 -0.484375 -1.3125 -0.484375zm5.9123383 6.734375q0 -0.640625 0.421875 -1.03125q0.4375 -0.40625 1.09375 -0.40625q0.65625 0 1.078125 0.40625q0.4375 0.390625 0.4375 1.03125q0 0.625 -0.4375 1.03125q-0.421875 0.390625 -1.078125 0.390625q-0.671875 0 -1.09375 -0.390625q-0.421875 -0.40625 -0.421875 -1.03125zm8.123276 -8.71875l0 10.578125q0 1.65625 -0.890625 2.578125q-0.875 0.921875 -2.53125 0.921875q-0.703125 0 -1.328125 -0.15625l0 -2.125q0.46875 0.09375 0.84375 0.09375q1.203125 0 1.203125 -1.296875l0 -10.59375l2.703125 0zm-2.90625 -2.609375q0 -0.59375 0.390625 -0.984375q0.40625 -0.390625 1.09375 -0.390625q0.703125 0 1.109375 0.390625q0.40625 0.390625 0.40625 0.984375q0 0.609375 -0.421875 1.0q-0.40625 0.390625 -1.078125 0.390625q-0.671875 0 -1.09375 -0.390625q-0.40625 -0.390625 -0.40625 -1.0zm10.346252 9.859375q0 -0.484375 -0.484375 -0.765625q-0.484375 -0.28125 -1.5625 -0.5q-3.59375 -0.765625 -3.59375 -3.046875q0 -1.34375 1.109375 -2.234375q1.109375 -0.890625 2.90625 -0.890625q1.90625 0 3.046875 0.90625q1.15625 0.890625 1.15625 2.328125l-2.6875 0q0 -0.578125 -0.375 -0.953125q-0.359375 -0.375 -1.15625 -0.375q-0.671875 0 -1.046875 0.3125q-0.359375 0.296875 -0.359375 0.765625q0 0.453125 0.421875 0.734375q0.421875 0.265625 1.421875 0.46875q1.0 0.203125 1.6875 0.453125q2.125 0.765625 2.125 2.6875q0 1.375 -1.1875 2.234375q-1.171875 0.84375 -3.03125 0.84375q-1.265625 0 -2.25 -0.453125q-0.96875 -0.453125 -1.53125 -1.234375q-0.5625 -0.78125 -0.5625 -1.6875l2.546875 0q0.03125 0.703125 0.515625 1.09375q0.5 0.375 1.328125 0.375q0.765625 0 1.15625 -0.28125q0.40625 -0.296875 0.40625 -0.78125z" fill-rule="nonzero"></path><path fill="#8e7cc3" d="m78.72441 147.48557l0 0c0 -27.214157 22.061432 -49.27559 49.27559 -49.27559l0 0c13.068695 0 25.602142 5.1915207 34.84311 14.4324875c9.240967 9.240959 14.43248 21.774406 14.43248 34.8431l0 0c0 27.214157 -22.061432 49.27559 -49.27559 49.27559l0 0c-27.214157 0 -49.27559 -22.061432 -49.27559 -49.27559z" fill-rule="nonzero"></path><path fill="#000000" fill-opacity="0.0" d="m48.0 115.485565l160.0 0l0 64.0l-160.0 0z" fill-rule="nonzero"></path><path fill="#ffffff" d="m106.28125 141.97057l2.921875 8.25l2.90625 -8.25l3.078125 0l0 11.375l-2.34375 0l0 -3.109375l0.234375 -5.375l-3.078125 8.484375l-1.609375 0l-3.0625 -8.46875l0.234375 5.359375l0 3.109375l-2.34375 0l0 -11.375l3.0625 0zm13.96875 8.171875l1.5625 -5.25l2.421875 0l-3.40625 9.765625l-0.1875 0.453125q-0.75 1.65625 -2.5 1.65625q-0.484375 0 -1.0 -0.15625l0 -1.703125l0.34375 0q0.640625 0 0.953125 -0.203125q0.328125 -0.1875 0.5 -0.640625l0.265625 -0.6875l-2.953125 -8.484375l2.421875 0l1.578125 5.25zm10.921875 0.21875q0 -0.671875 -0.46875 -1.015625q-0.46875 -0.359375 -1.6875 -0.75q-1.21875 -0.40625 -1.9375 -0.78125q-1.9375 -1.046875 -1.9375 -2.828125q0 -0.921875 0.515625 -1.640625q0.53125 -0.71875 1.5 -1.125q0.96875 -0.40625 2.1875 -0.40625q1.21875 0 2.171875 0.4375q0.953125 0.4375 1.46875 1.25q0.53125 0.796875 0.53125 1.828125l-2.34375 0q0 -0.78125 -0.5 -1.21875q-0.484375 -0.4375 -1.375 -0.4375q-0.859375 0 -1.34375 0.375q-0.46875 0.359375 -0.46875 0.953125q0 0.546875 0.5625 0.921875q0.5625 0.375 1.640625 0.703125q2.0 0.609375 2.90625 1.5q0.921875 0.890625 0.921875 2.21875q0 1.46875 -1.125 2.3125q-1.109375 0.84375 -3.0 0.84375q-1.3125 0 -2.390625 -0.484375q-1.078125 -0.484375 -1.640625 -1.3125q-0.5625 -0.84375 -0.5625 -1.9375l2.34375 0q0 1.875 2.25 1.875q0.84375 0 1.3125 -0.328125q0.46875 -0.34375 0.46875 -0.953125zm13.2578125 -2.453125q0 1.59375 -0.515625 2.78125q-0.515625 1.171875 -1.421875 1.875l1.890625 1.5l-1.5 1.3125l-2.421875 -1.9375q-0.40625 0.0625 -0.859375 0.0625q-1.40625 0 -2.515625 -0.671875q-1.109375 -0.6875 -1.71875 -1.953125q-0.609375 -1.265625 -0.625 -2.90625l0 -0.5625q0 -1.671875 0.609375 -2.953125q0.609375 -1.28125 1.703125 -1.953125q1.109375 -0.6875 2.53125 -0.6875q1.421875 0 2.53125 0.6875q1.109375 0.671875 1.703125 1.953125q0.609375 1.28125 0.609375 2.953125l0 0.5zm-2.375 -0.515625q0 -1.78125 -0.640625 -2.703125q-0.640625 -0.9375 -1.828125 -0.9375q-1.171875 0 -1.8125 0.921875q-0.640625 0.90625 -0.65625 2.6875l0 0.546875q0 1.75 0.640625 2.71875q0.640625 0.953125 1.84375 0.953125q1.1875 0 1.8125 -0.921875q0.640625 -0.9375 0.640625 -2.703125l0 -0.5625zm6.4375 4.0625l4.984375 0l0 1.890625l-7.328125 0l0 -11.375l2.34375 0l0 9.484375z" fill-rule="nonzero"></path><path fill="#000000" fill-opacity="0.0" d="m380.00854 133.54274l0 0c21.56015 -9.650429 51.106934 -14.527809 81.0372 -13.377052l-8.633667 47.834312z" fill-rule="nonzero"></path><path fill="#000000" fill-opacity="0.0" d="m380.00854 133.54274l0 0c21.56015 -9.650429 51.106934 -14.527809 81.0372 -13.377052" fill-rule="nonzero"></path><path stroke="#8e7cc3" stroke-width="4.0" stroke-linejoin="round" stroke-linecap="butt" d="m380.00854 133.54274l0 0c10.78009 -4.825226 23.556824 -8.457169 37.37982 -10.738976c6.911499 -1.1408997 14.084564 -1.9442673 21.40039 -2.39048c0.9144592 -0.055778503 1.8311462 -0.10597229 2.749878 -0.15055084c0.4593506 -0.022285461 0.91922 -0.043174744 1.3795471 -0.06265259l0.127594 -0.0049972534" fill-rule="evenodd"></path><path fill="#8e7cc3" stroke="#8e7cc3" stroke-width="4.0" stroke-linecap="butt" d="m443.05298 124.61819l12.145142 -4.442955l-12.159607 -4.4032516z" fill-rule="evenodd"></path><path fill="#000000" fill-opacity="0.0" d="m464.0 3.4855642l160.0 0l0 64.0l-160.0 0z" fill-rule="nonzero"></path><path fill="#76a5af" d="m499.20508 39.624313l-4.875 0l-0.921875 2.78125l-2.96875 0l5.03125 -13.515625l2.578125 0l5.0625 13.515625l-2.96875 0l-0.9375 -2.78125zm-4.125 -2.25l3.375 0l-1.6875 -5.0625l-1.6875 5.0625zm11.396637 -5.0l0.078125 1.109375q1.0625 -1.296875 2.890625 -1.296875q1.9375 0 2.6562195 1.53125q1.0625 -1.53125 3.015625 -1.53125q1.640625 0 2.4375 0.953125q0.796875 0.9375 0.796875 2.859375l0 6.40625l-2.6875 0l0 -6.40625q0 -0.84375 -0.34375 -1.234375q-0.328125 -0.40625 -1.171875 -0.40625q-1.203125 0 -1.671875 1.15625l0.015625 6.890625l-2.6874695 0l0 -6.390625q0 -0.875 -0.34375 -1.265625q-0.34375 -0.390625 -1.171875 -0.390625q-1.140625 0 -1.640625 0.953125l0 7.09375l-2.6875 0l0 -10.03125l2.515625 0zm19.448029 10.03125q-0.1875 -0.359375 -0.265625 -0.90625q-0.96875 1.09375 -2.53125 1.09375q-1.484375 0 -2.453125 -0.84375q-0.96875 -0.859375 -0.96875 -2.171875q0 -1.59375 1.1875 -2.4375q1.1875 -0.859375 3.421875 -0.859375l1.234375 0l0 -0.578125q0 -0.703125 -0.359375 -1.109375q-0.359375 -0.421875 -1.125 -0.421875q-0.671875 0 -1.0625 0.328125q-0.390625 0.3125 -0.390625 0.890625l-2.671875 0q0 -0.875 0.53125 -1.609375q0.546875 -0.75 1.515625 -1.171875q0.984375 -0.421875 2.21875 -0.421875q1.859375 0 2.9375 0.9375q1.09375 0.921875 1.09375 2.609375l0 4.359375q0.015625 1.421875 0.40625 2.15625l0 0.15625l-2.71875 0zm-2.21875 -1.859375q0.59375 0 1.09375 -0.265625q0.5 -0.265625 0.75 -0.71875l0 -1.71875l-1.0 0q-2.015625 0 -2.140625 1.390625l-0.015625 0.15625q0 0.5 0.34375 0.828125q0.359375 0.328125 0.96875 0.328125zm9.486572 -0.296875l4.90625 0l0 2.15625l-8.328125 0l0 -1.640625l4.71875 -6.234375l-4.578125 0l0 -2.15625l8.046875 0l0 1.578125l-4.765625 6.296875zm5.9921265 -2.953125q0 -1.5 0.578125 -2.65625q0.578125 -1.171875 1.65625 -1.8125q1.078125 -0.640625 2.515625 -0.640625q2.03125 0 3.3125 1.25q1.28125 1.234375 1.4375 3.359375l0.015625 0.6875q0 2.3125 -1.296875 3.71875q-1.28125 1.390625 -3.453125 1.390625q-2.171875 0 -3.46875 -1.390625q-1.296875 -1.390625 -1.296875 -3.78125l0 -0.125zm2.6875 0.1875q0 1.4375 0.53125 2.203125q0.546875 0.75 1.546875 0.75q0.96875 0 1.515625 -0.75q0.546875 -0.75 0.546875 -2.390625q0 -1.40625 -0.546875 -2.171875q-0.546875 -0.765625 -1.53125 -0.765625q-0.984375 0 -1.53125 0.765625q-0.53125 0.765625 -0.53125 2.359375zm10.751892 -5.109375l0.078125 1.15625q1.078125 -1.34375 2.890625 -1.34375q1.59375 0 2.375 0.9375q0.78125 0.9375 0.796875 2.796875l0 6.484375l-2.6875 0l0 -6.421875q0 -0.859375 -0.375 -1.234375q-0.359375 -0.390625 -1.21875 -0.390625q-1.140625 0 -1.703125 0.96875l0 7.078125l-2.6875 0l0 -10.03125l2.53125 0zm20.922546 4.171875l-5.34375 0l0 3.625l6.28125 0l0 2.234375l-9.0625 0l0 -13.515625l9.046875 0l0 2.265625l-6.265625 0l0 3.21875l5.34375 0l0 2.171875zm12.978516 1.359375q-0.15625 2.1875 -1.609375 3.4375q-1.453125 1.25 -3.828125 1.25q-2.59375 0 -4.09375 -1.75q-1.484375 -1.75 -1.484375 -4.796875l0 -0.828125q0 -1.953125 0.6875 -3.4375q0.6875 -1.484375 1.953125 -2.265625q1.28125 -0.796875 2.96875 -0.796875q2.34375 0 3.765625 1.25q1.4375 1.25 1.65625 3.515625l-2.78125 0q-0.109375 -1.3125 -0.734375 -1.890625q-0.625 -0.59375 -1.90625 -0.59375q-1.390625 0 -2.078125 1.0q-0.6875 0.984375 -0.703125 3.09375l0 1.015625q0 2.1875 0.65625 3.203125q0.65625 1.0 2.09375 1.0q1.28125 0 1.921875 -0.578125q0.640625 -0.59375 0.734375 -1.828125l2.78125 0zm10.566162 4.5l-9.250061 0l0 -1.84375l4.359436 -4.65625q0.90625 -0.984375 1.328125 -1.703125q0.4375 -0.734375 0.4375 -1.40625q0 -0.890625 -0.453125 -1.40625q-0.453125 -0.515625 -1.296875 -0.515625q-0.90631104 0 -1.437561 0.625q-0.515625 0.625 -0.515625 1.640625l-2.6875 0q0 -1.234375 0.578125 -2.25q0.59375 -1.015625 1.671875 -1.59375q1.078125 -0.578125 2.437561 -0.578125q2.09375 0 3.234375 1.0q1.15625 1.0 1.15625 2.828125q0 1.0 -0.515625 2.046875q-0.515625 1.03125 -1.78125 2.40625l-3.062561 3.25l5.796936 0l0 2.15625z" fill-rule="nonzero"></path><path fill="#000000" fill-opacity="0.0" d="m448.0 91.485565l160.0 0l0 64.0l-160.0 0z" fill-rule="nonzero"></path><path fill="#8e7cc3" d="m477.875 115.82994l0 4.015625l-2.34375 0l0 -11.375l4.4375 0q1.28125 0 2.25 0.46875q0.984375 0.46875 1.5 1.328125q0.53125 0.859375 0.53125 1.96875q0 1.671875 -1.15625 2.640625q-1.140625 0.953125 -3.15625 0.953125l-2.0625 0zm0 -1.890625l2.09375 0q0.9375 0 1.421875 -0.4375q0.484375 -0.4375 0.484375 -1.25q0 -0.84375 -0.5 -1.359375q-0.484375 -0.515625 -1.34375 -0.53125l-2.15625 0l0 3.578125zm12.8984375 5.046875q-0.84375 1.015625 -2.3125 1.015625q-1.359375 0 -2.078125 -0.78125q-0.71875 -0.78125 -0.734375 -2.296875l0 -5.53125l2.265625 0l0 5.453125q0 1.328125 1.203125 1.328125q1.140625 0 1.578125 -0.796875l0 -5.984375l2.265625 0l0 8.453125l-2.125 0l-0.0625 -0.859375zm11.5 -3.296875q0 2.03125 -0.875 3.171875q-0.859375 1.140625 -2.40625 1.140625q-1.375 0 -2.203125 -1.0625l-0.09375 0.90625l-2.03125 0l0 -12.0l2.25 0l0 4.296875q0.78125 -0.90625 2.0625 -0.90625q1.546875 0 2.421875 1.140625q0.875 1.125 0.875 3.1875l0 0.125zm-2.25 -0.15625q0 -1.28125 -0.40625 -1.875q-0.40625 -0.59375 -1.21875 -0.59375q-1.078125 0 -1.484375 0.890625l0 3.328125q0.421875 0.890625 1.5 0.890625q1.09375 0 1.4375 -1.078125q0.171875 -0.515625 0.171875 -1.5625zm6.0234375 4.3125l-2.265625 0l0 -12.0l2.265625 0l0 12.0zm4.2421875 0l-2.265625 0l0 -8.453125l2.265625 0l0 8.453125zm-2.390625 -10.640625q0 -0.515625 0.328125 -0.84375q0.34375 -0.328125 0.9375 -0.328125q0.578125 0 0.921875 0.328125q0.34375 0.328125 0.34375 0.84375q0 0.515625 -0.359375 0.84375q-0.34375 0.328125 -0.921875 0.328125q-0.5625 0 -0.90625 -0.328125q-0.34375 -0.328125 -0.34375 -0.84375zm7.7734375 8.96875q0.625 0 1.015625 -0.34375q0.390625 -0.34375 0.40625 -0.90625l2.109375 0q0 0.859375 -0.46875 1.578125q-0.453125 0.703125 -1.265625 1.109375q-0.796875 0.390625 -1.765625 0.390625q-1.8125 0 -2.859375 -1.15625q-1.046875 -1.15625 -1.046875 -3.1875l0 -0.140625q0 -1.953125 1.03125 -3.109375q1.046875 -1.171875 2.859375 -1.171875q1.59375 0 2.546875 0.90625q0.953125 0.890625 0.96875 2.390625l-2.109375 0q-0.015625 -0.65625 -0.40625 -1.0625q-0.390625 -0.40625 -1.03125 -0.40625q-0.796875 0 -1.203125 0.578125q-0.390625 0.5625 -0.390625 1.859375l0 0.234375q0 1.296875 0.390625 1.875q0.40625 0.5625 1.21875 0.5625zm13.171875 -2.5l-1.875 0l0 4.171875l-2.34375 0l0 -11.375l4.234375 0q2.015625 0 3.109375 0.90625q1.09375 0.890625 1.09375 2.53125q0 1.15625 -0.515625 1.9375q-0.5 0.78125 -1.515625 1.234375l2.453125 4.65625l0 0.109375l-2.515625 0l-2.125 -4.171875zm-1.875 -1.890625l1.890625 0q0.890625 0 1.375 -0.453125q0.484375 -0.453125 0.484375 -1.234375q0 -0.8125 -0.46875 -1.265625q-0.453125 -0.46875 -1.390625 -0.46875l-1.890625 0l0 3.421875zm14.7109375 1.125l-4.5 0l0 3.046875l5.28125 0l0 1.890625l-7.625 0l0 -11.375l7.609375 0l0 1.890625l-5.265625 0l0 2.71875l4.5 0l0 1.828125zm8.0625 1.953125q0 -0.671875 -0.46875 -1.015625q-0.46875 -0.359375 -1.6875 -0.75q-1.21875 -0.40625 -1.9375 -0.78125q-1.9375 -1.046875 -1.9375 -2.828125q0 -0.921875 0.515625 -1.640625q0.53125 -0.71875 1.5 -1.125q0.96875 -0.40625 2.1875 -0.40625q1.21875 0 2.171875 0.4375q0.953125 0.4375 1.46875 1.25q0.53125 0.796875 0.53125 1.828125l-2.34375 0q0 -0.78125 -0.5 -1.21875q-0.484375 -0.4375 -1.375 -0.4375q-0.859375 0 -1.34375 0.375q-0.46875 0.359375 -0.46875 0.953125q0 0.546875 0.5625 0.921875q0.5625 0.375 1.640625 0.703125q2.0 0.609375 2.90625 1.5q0.921875 0.890625 0.921875 2.21875q0 1.46875 -1.125 2.3125q-1.109375 0.84375 -3.0 0.84375q-1.3125 0 -2.390625 -0.484375q-1.078125 -0.484375 -1.640625 -1.3125q-0.5625 -0.84375 -0.5625 -1.9375l2.34375 0q0 1.875 2.25 1.875q0.84375 0 1.3125 -0.328125q0.46875 -0.34375 0.46875 -0.953125zm12.4921875 -6.5l-3.484375 0l0 9.484375l-2.34375 0l0 -9.484375l-3.4375 0l0 -1.890625l9.265625 0l0 1.890625zm1.8046875 9.484375l0 -6.796875l-1.25 0l0 -1.65625l1.25 0l0 -0.71875q0 -1.421875 0.8125 -2.203125q0.828125 -0.796875 2.296875 -0.796875q0.46875 0 1.140625 0.15625l-0.015625 1.75q-0.28125 -0.0625 -0.6875 -0.0625q-1.28125 0 -1.28125 1.1875l0 0.6875l1.6875 0l0 1.65625l-1.6875 0l0 6.796875l-2.265625 0zm10.1875 -0.859375q-0.84375 1.015625 -2.3125 1.015625q-1.359375 0 -2.078125 -0.78125q-0.71875 -0.78125 -0.734375 -2.296875l0 -5.53125l2.265625 0l0 5.453125q0 1.328125 1.203125 1.328125q1.140625 0 1.578125 -0.796875l0 -5.984375l2.265625 0l0 8.453125l-2.125 0l-0.0625 -0.859375zm6.265625 0.859375l-2.265625 0l0 -12.0l2.265625 0l0 12.0z" fill-rule="nonzero"></path><path fill="#8e7cc3" d="m502.70312 138.84557l-2.34375 0l0 -4.875l-4.578125 0l0 4.875l-2.34375 0l0 -11.375l2.34375 0l0 4.609375l4.578125 0l0 -4.609375l2.34375 0l0 11.375zm10.6015625 -9.484375l-3.484375 0l0 9.484375l-2.34375 0l0 -9.484375l-3.4375 0l0 -1.890625l9.265625 0l0 1.890625zm9.8984375 0l-3.484375 0l0 9.484375l-2.34375 0l0 -9.484375l-3.4375 0l0 -1.890625l9.265625 0l0 1.890625zm3.6796875 5.46875l0 4.015625l-2.34375 0l0 -11.375l4.4375 0q1.28125 0 2.25 0.46875q0.984375 0.46875 1.5 1.328125q0.53125 0.859375 0.53125 1.96875q0 1.671875 -1.15625 2.640625q-1.140625 0.953125 -3.15625 0.953125l-2.0625 0zm0 -1.890625l2.09375 0q0.9375 0 1.421875 -0.4375q0.484375 -0.4375 0.484375 -1.25q0 -0.84375 -0.5 -1.359375q-0.484375 -0.515625 -1.34375 -0.53125l-2.15625 0l0 3.578125zm18.382812 3.5625l-4.109375 0l-0.78125 2.34375l-2.484375 0l4.234375 -11.375l2.171875 0l4.25 11.375l-2.484375 0l-0.796875 -2.34375zm-3.46875 -1.90625l2.84375 0l-1.4375 -4.25l-1.40625 4.25zm10.15625 0.234375l0 4.015625l-2.34375 0l0 -11.375l4.4375 0q1.28125 0 2.25 0.46875q0.984375 0.46875 1.5 1.328125q0.53125 0.859375 0.53125 1.96875q0 1.671875 -1.15625 2.640625q-1.140625 0.953125 -3.15625 0.953125l-2.0625 0zm0 -1.890625l2.09375 0q0.9375 0 1.421875 -0.4375q0.484375 -0.4375 0.484375 -1.25q0 -0.84375 -0.5 -1.359375q-0.484375 -0.515625 -1.34375 -0.53125l-2.15625 0l0 3.578125zm10.4765625 5.90625l-2.34375 0l0 -11.375l2.34375 0l0 11.375z" fill-rule="nonzero"></path></g></svg>

